<svg xmlns="http://www.w3.org/2000/svg" xmlns:xlink="http://www.w3.org/1999/xlink" viewBox="0 0 336.01 425"><defs><style>.cls-1{fill:#fcc069;}.cls-2{fill:#ca8934;}.cls-3{fill:#a5c739;}.cls-4{fill:#879f3c;}.cls-5{fill:#bcd635;}.cls-6{fill:#164b37;}.cls-7{fill:#411f2d;}.cls-8{fill:#886e60;}.cls-9{fill:#479644;}.cls-10{fill:#317137;}.cls-11{fill:#8cc541;}.cls-12{fill:#7d3f40;}.cls-13{fill:url(#linear-gradient);}.cls-14,.cls-16,.cls-17,.cls-18,.cls-25,.cls-28{fill:#d6d5d4;}.cls-14,.cls-26{opacity:0.13;}.cls-14,.cls-15,.cls-16,.cls-18,.cls-22,.cls-24,.cls-25,.cls-26,.cls-27,.cls-28,.cls-29,.cls-30,.cls-31,.cls-32,.cls-35,.cls-36,.cls-39,.cls-40,.cls-42,.cls-43,.cls-46,.cls-47,.cls-48,.cls-49,.cls-50,.cls-51{isolation:isolate;}.cls-15,.cls-22,.cls-23,.cls-26,.cls-27,.cls-29,.cls-30,.cls-31,.cls-32{fill:#010101;}.cls-15,.cls-49{opacity:0.1;}.cls-16{opacity:0.11;}.cls-18{opacity:0.37;}.cls-19{fill:#e8e7e6;}.cls-20{fill:#09080a;}.cls-21{fill:#fcb238;}.cls-22{opacity:0.15;}.cls-24{fill:#b3b3b3;opacity:0.69;}.cls-25{opacity:0.19;}.cls-27{opacity:0.22;}.cls-28{opacity:0.27;}.cls-29{opacity:0.54;}.cls-30{opacity:0.24;}.cls-31{opacity:0.29;}.cls-32{opacity:0.36;}.cls-33{fill:url(#linear-gradient-2);}.cls-34{fill:url(#linear-gradient-3);}.cls-35,.cls-36,.cls-43,.cls-46,.cls-47{fill:#fff;}.cls-35{opacity:0.2;}.cls-36{opacity:0.03;}.cls-37{fill:url(#linear-gradient-4);}.cls-38{fill:url(#linear-gradient-5);}.cls-39,.cls-42,.cls-44,.cls-48,.cls-50{fill:#1f1711;}.cls-39{opacity:0.23;}.cls-40,.cls-49,.cls-51{fill:#fbc049;}.cls-40,.cls-48{opacity:0.45;}.cls-41{fill:url(#linear-gradient-6);}.cls-42{opacity:0.67;}.cls-43,.cls-51{opacity:0.16;}.cls-45{fill:#603e33;}.cls-46{opacity:0.14;}.cls-47{opacity:0.09;}.cls-50{opacity:0.12;}.cls-52{fill:#684018;}</style><linearGradient id="linear-gradient" x1="8641.73" y1="26.18" x2="8689.61" y2="-19.33" gradientTransform="translate(8961.1 41) rotate(180)" gradientUnits="userSpaceOnUse"><stop offset="0" stop-color="#010101"/><stop offset="1" stop-color="#3c281e"/></linearGradient><linearGradient id="linear-gradient-2" x1="8795.22" y1="180.37" x2="8796.29" y2="196.73" gradientTransform="matrix(-1, 0.1, -0.1, -1, 8965.39, -400.27)" gradientUnits="userSpaceOnUse"><stop offset="0" stop-color="#663d48"/><stop offset="0.4" stop-color="#663d48"/><stop offset="1" stop-color="#ac7059"/></linearGradient><linearGradient id="linear-gradient-3" x1="8808.18" y1="182.02" x2="8793.06" y2="180.64" gradientTransform="matrix(-1, 0.1, -0.1, -1, 8965.39, -400.27)" gradientUnits="userSpaceOnUse"><stop offset="0" stop-color="#2d191e"/><stop offset="0.4" stop-color="#2d191e"/><stop offset="1" stop-color="#754c3c"/></linearGradient><linearGradient id="linear-gradient-4" x1="8785.08" y1="179.9" x2="8776.95" y2="179.16" xlink:href="#linear-gradient-3"/><linearGradient id="linear-gradient-5" x1="8836.76" y1="183.19" x2="8815.64" y2="188.45" xlink:href="#linear-gradient-3"/><linearGradient id="linear-gradient-6" x1="8783.8" y1="199.4" x2="8783.67" y2="196.99" xlink:href="#linear-gradient-2"/></defs><title>Asset 2</title><g id="Layer_2" data-name="Layer 2"><g id="Layer_1-2" data-name="Layer 1"><polygon class="cls-1" points="196.02 319.88 328.66 224.12 329.15 254.18 291.63 319.88 196.94 425 196.02 319.88"/><polygon class="cls-2" points="12.24 276.63 196.02 319.88 196.94 425 119.91 378.42 70.87 352.25 49.09 328.2 12.24 307.46 12.24 276.63"/><polygon class="cls-3" points="329.48 207.36 329.48 207.36 328.66 224.12 196.02 319.88 0 273.61 0 254.18 158.08 173.81 329.16 207.25 329.48 207.36"/><polygon class="cls-4" points="0 254.18 196.02 301.52 196.02 319.88 0 273.62 0 254.18"/><polygon class="cls-5" points="329.16 207.25 158.08 173.81 0 254.18 196.02 301.51 329.15 207.59 329.48 207.36 329.16 207.25"/><path class="cls-6" d="M329.47,196.56l-.94.36,1-.7Z"/><polygon class="cls-7" points="278.49 219.39 288.75 219.39 288.75 138.39 283.62 138.39 278.49 219.39"/><polygon class="cls-8" points="286.77 138.39 285.51 219.39 288.75 219.39 288.75 138.39 286.77 138.39"/><polygon class="cls-9" points="268.95 192.7 239.57 182.65 221.79 157.14 221.79 123.89 237.26 98.38 268.95 98.38 313.02 133.17 303.74 165.64 268.95 192.7"/><polygon class="cls-2" points="107.31 199.32 164.74 214.44 191.19 225.96 273.5 246.85 248.19 264.71 178.95 245.4 150.15 232.01 84.63 211.2 107.31 199.32"/><polygon class="cls-7" points="211.24 200.99 211.24 179.1 207.66 177.9 211.24 177.9 211.24 172.13 205.86 157.6 211.24 168.15 211.24 150.43 207.46 146.85 211.24 148.84 212.43 131.52 207.26 124.75 212.43 130.32 212.43 100.86 214.62 124.15 223.18 120.37 214.52 126.14 214.52 139.68 223.18 131.32 214.52 141.67 214.52 165.96 229.35 160.38 214.82 169.74 217.61 200.99 211.24 200.99"/><polygon class="cls-8" points="214.52 165.96 214.52 167.82 229.35 160.38 214.52 165.96"/><polygon class="cls-8" points="205.86 157.6 211.11 169.1 211.24 168.15 205.86 157.6"/><polygon class="cls-8" points="214.52 139.68 214.52 140.35 223.18 131.32 214.52 139.68"/><polygon class="cls-8" points="214.62 124.15 214.52 124.94 223.06 120.45 214.62 124.15"/><polygon class="cls-10" points="221.79 157.14 254.91 151.23 239.57 182.65 221.79 157.14"/><polygon class="cls-11" points="303.74 165.64 254.91 151.23 268.95 192.7 303.74 165.64"/><polygon class="cls-11" points="254.91 151.23 250.95 124.94 221.79 157.14 254.91 151.23"/><polygon class="cls-10" points="237.26 98.38 250.95 124.94 221.79 123.89 237.26 98.38"/><polygon class="cls-5" points="303.74 165.64 278.49 122.69 311.07 134.49 303.74 165.64"/><polygon class="cls-5" points="254.91 151.23 278.49 122.69 250.95 124.94 254.91 151.23"/><polygon class="cls-8" points="253.35 187.36 254.91 202.38 248.43 217.77 262.58 217.77 262.58 202.57 259.09 189.32 253.35 187.36"/><polyline class="cls-7" points="255.51 188.1 258.87 203.6 254.91 217.77 248.43 217.77 254.91 202.38 253.35 187.36 254.91 187.9"/><polygon class="cls-11" points="250.95 124.94 268.95 98.38 278.49 122.69 250.95 124.94"/><polygon class="cls-5" points="177.05 78.58 171.27 126.36 174.16 126.36 163.17 161.43 167.41 161.43 155.85 194.57 166.45 189.56 217.51 188.79 199.78 157.19 205.56 156.42 190.15 122.89 196.7 122.89 177.05 78.58"/><polygon class="cls-10" points="150.71 180.7 155.85 184.04 155.85 194.57 167.41 161.43 163.17 161.43 174.16 126.36 171.27 126.36 177.05 78.58 167.16 113.9 170.49 118.27 157.65 140.62 162.79 150.64 147.12 165.54 154.05 171.19 150.71 180.7"/><polygon class="cls-7" points="111.99 243.15 108.62 252.96 117.39 252.96 115.82 243.15 111.99 243.15"/><path class="cls-7" d="M179,189.35s-.52,11.64.07,11.64h11.05l-3.43-11.64Z"/><polygon class="cls-8" points="183.5 189.15 186.05 200.87 190.11 200.99 186.68 189.35 183.5 189.15"/><polygon class="cls-12" points="186.05 200.87 182.02 200.99 181.29 189.15 183.5 189.15 186.05 200.87"/><polygon class="cls-12" points="257.32 188.72 261.39 202.97 259.68 217.77 254.91 217.77 258.51 203.32 255.54 188.16 257.32 188.72"/><polygon class="cls-12" points="283.19 181.63 282.05 219.39 285.51 219.39 286.14 178.89 283.19 181.63"/><polyline class="cls-6" points="248.43 217.77 202.11 228.73 211.24 231.05 262.58 217.77"/><polygon class="cls-6" points="190.11 200.99 178.54 203.8 177.68 201.93 179.07 200.99 190.11 200.99"/><polygon class="cls-6" points="211.24 200.99 177.68 212.64 178.79 215.02 217.61 200.99 211.24 200.99"/><polygon class="cls-13" points="226.44 60.35 248.83 42.77 264.22 41.73 261.51 38.99 258.86 38.68 254.7 39.6 255.48 36.91 258.36 34.91 261.98 35.28 269.77 33.21 282.52 34.87 299.09 13.56 336.01 0 334.96 2.02 327.28 5.86 334.8 4.36 334.33 5.86 325.81 7.88 333.55 8.57 331.53 10.35 324.01 10.35 330.9 12 329.5 13.72 322.64 12.63 327.71 15.07 326.08 16.37 320.92 14.97 323.79 17.25 322.36 18.36 319.1 17.11 319.99 19.33 319.21 20.1 317.34 19.54 318.43 21.91 317.34 22.92 315.62 21.91 316.24 24.46 314.68 25.07 313.32 25.07 313.44 27.29 311.25 27.91 296.56 40.26 307.15 45.1 323.3 46.5 323.4 51.3 320.73 56.33 317.34 58.79 305.29 52.24 278.51 50.36 277.84 50.01 275.16 51.67 250.62 57.26 249.28 59.66 247.37 59.92 245.98 57.7 245.28 60.2 242.13 60.63 240.99 57.55 239.85 60.94 236.4 61.4 238.05 57.16 233.76 61.68 231.22 61.55 233.93 56.93 227.65 61.11 226.44 60.35"/><polygon class="cls-14" points="248.83 42.77 226.44 60.35 249.53 45.1 266.19 43.73 264.22 41.73 248.83 42.77"/><polygon class="cls-15" points="250.62 57.26 250.6 57.03 249.53 45.1 266.19 43.73 277.84 50.01 275.16 51.67 250.62 57.26"/><polygon class="cls-16" points="307.15 45.1 296.56 40.26 283.15 41.97 280.71 41.16 282.52 34.87 277.52 34.22 272.66 35.47 271.03 39.9 278.05 42.93 292.9 45.88 307.76 47.81 307.15 45.1"/><polygon class="cls-17" points="261.51 38.99 261.98 35.28 269.77 33.21 277.52 34.22 275.25 34.95 279.31 36.41 278.98 37.41 274.06 37.61 278.28 40.33 277.79 41.25 272.73 39.68 275.98 42.84 275.15 43.78 269.9 41.35 273.44 45.28 272.71 45.88 268.6 42.93 270.74 46.58 266.19 43.73 261.51 38.99"/><polygon class="cls-18" points="305.29 52.24 317.34 58.79 320.73 56.33 323.4 51.3 323.3 46.5 307.15 45.1 307.76 47.81 307.15 50.24 305.29 52.24"/><polygon class="cls-19" points="261.98 35.28 269.77 33.21 277.52 34.22 275.25 34.95 279.31 36.41 278.98 37.41 274.06 37.61 278.28 40.33 278.11 40.64 269.89 37.26 261.73 37.26 261.98 35.28"/><polygon class="cls-20" points="265.17 36.53 269 35.47 267.75 36.91 265.17 36.53"/><polygon class="cls-21" points="261.51 38.99 261.98 35.28 258.36 34.91 255.48 36.91 254.7 39.6 258.86 38.68 261.51 38.99"/><polygon class="cls-22" points="254.7 39.6 258.86 38.68 261.51 38.99 261.73 37.26 258.75 36.55 254.7 39.6"/><circle class="cls-23" cx="259.26" cy="35.7" r="0.24"/><path class="cls-24" d="M261.59,38.32l7.1,3.74,4.47,3.44-.45.38-4.12-3,2.15,3.65-4.56-2.85L261.5,39Z"/><polygon class="cls-25" points="307.76 47.81 323.4 51.3 323.3 46.5 307.15 45.1 307.76 47.81"/><polygon class="cls-26" points="317.34 58.79 320.73 56.33 307.15 50.24 305.29 52.24 317.34 58.79"/><polygon class="cls-27" points="305.29 52.24 278.51 50.36 277.84 50.01 270.13 45.81 266.82 42.45 268.78 41.78 276.83 46 293.79 48.91 307.15 50.24 305.29 52.24"/><polygon class="cls-28" points="280.71 41.16 282.52 34.87 299.09 13.56 318.27 6.51 299.92 14.7 283.15 41.97 280.71 41.16"/><polygon class="cls-16" points="301.85 14.63 326.08 4.58 325.53 5.65 301.85 14.63"/><polygon class="cls-16" points="300.96 15.59 324.42 8.42 323.72 9.31 300.96 15.59"/><polygon class="cls-16" points="300.96 16.37 321.02 13.15 320.61 13.93 300.96 16.37"/><path class="cls-16" d="M301,17.25c.3.07,16.81.37,16.81.37l-.26.74Z"/><polygon class="cls-16" points="300.29 18.07 313.96 22.35 313.08 23.09 300.29 18.07"/><polygon class="cls-16" points="299.78 19.03 310.99 26.16 310.08 26.49 299.78 19.03"/><polygon class="cls-29" points="283.15 41.97 297.67 18.36 311.25 27.91 296.56 40.26 283.15 41.97"/><polygon class="cls-30" points="248.17 48.16 247.45 57.8 248.5 57.8 248.17 48.16"/><polygon class="cls-30" points="245.89 49.04 242.73 58.08 243.62 58.08 245.89 49.04"/><polygon class="cls-30" points="241.52 51.92 238.47 58.74 239.13 58.74 241.52 51.92"/><polygon class="cls-30" points="237.11 55.04 232.98 60.27 233.55 60.56 237.11 55.04"/><polygon class="cls-21" points="309.46 49.82 303.91 48.48 303.73 49.06 308.79 51.3 309.46 49.82"/><polygon class="cls-21" points="308.34 52.35 302.63 50.97 302.5 51.61 307.76 53.83 308.34 52.35"/><polygon class="cls-22" points="309.46 49.82 303.91 48.48 303.83 48.73 309.11 50.59 309.46 49.82"/><polygon class="cls-22" points="308.34 52.35 302.63 50.97 302.56 51.3 308.08 53.02 308.34 52.35"/><polygon class="cls-31" points="311.67 46.58 322.5 47.29 322.5 47.81 311.67 46.58"/><polygon class="cls-31" points="312.08 47.66 322.5 49.13 322.5 49.73 312.08 47.66"/><polygon class="cls-31" points="312.08 50.72 320.73 53.83 320.43 54.51 312.08 50.72"/><polygon class="cls-32" points="312.93 54.09 318.88 56.49 318.36 56.89 312.93 54.09"/><polygon class="cls-33" points="216.87 266.51 210.82 260.49 205.15 259.6 200.88 260.49 193.02 258.55 184.86 256.89 176.62 259.04 171.27 265.76 169.48 275.14 171.24 277.94 180.97 279.18 186.67 278.21 191.07 275.52 196.2 275.55 200.37 277.48 204.5 278.92 207.54 278.62 206.78 276.16 210.15 272.79 214.73 270.57 216.56 269.27 216.87 266.51"/><polygon class="cls-34" points="186.67 278.21 193.22 278.23 194.59 279.89 192.95 281.73 184.25 280.91 180.97 279.18 186.67 278.21"/><polygon class="cls-35" points="200.88 260.49 194.98 266.99 203.78 262.74 205.15 259.6 200.88 260.49"/><polygon class="cls-36" points="210.82 260.49 205.15 259.6 200.88 260.49 194.98 266.99 203.78 262.74 205.43 262.48 209.57 262.88 210.82 260.49"/><polygon class="cls-37" points="204.5 278.92 207.54 278.62 210.67 278.62 211.82 279.69 210.63 281.06 205.39 280.13 204.5 278.92"/><polygon class="cls-38" points="169.48 275.14 156.74 275.99 152.91 278.68 152.03 282.03 154.73 283.67 159.43 283.79 171.24 277.94 169.48 275.14"/><polygon class="cls-39" points="191.07 275.52 189.45 266.33 184.86 256.89 200.88 260.49 194.98 266.99 196.2 275.55 191.07 275.52"/><polygon class="cls-40" points="206.78 276.16 201.34 271.08 203.78 262.74 205.43 262.48 207.05 268.06 210.93 270.66 214.73 270.57 210.15 272.79 206.78 276.16"/><polygon class="cls-41" points="205.48 261.39 204.25 260.68 203.42 261.84 203.78 262.74 205.43 262.48 205.48 261.39"/><polygon class="cls-42" points="205.03 261.65 204.36 261.25 203.94 261.87 204.27 262.67 205.02 262.55 205.03 261.65"/><polygon class="cls-43" points="205.48 261.39 204.25 260.68 203.42 261.84 203.85 260.65 204.54 260.48 205.48 261.39"/><polygon class="cls-44" points="216.87 266.51 215.73 266.47 214.87 267.2 216.64 268.51 216.87 266.51"/><polygon class="cls-39" points="215.73 266.47 209.57 262.88 210.82 260.49 216.87 266.51 215.73 266.47"/><polygon class="cls-45" points="211.42 264.07 212.21 263.99 212.67 264.63 212.34 265.35 211.55 265.43 211.09 264.79 211.42 264.07"/><polygon class="cls-44" points="211.59 264.31 212.08 264.26 212.37 264.66 212.17 265.11 211.68 265.16 211.39 264.76 211.59 264.31"/><polygon class="cls-35" points="211.42 264.07 210.49 264.84 211.16 265.95 212.34 265.35 211.55 265.43 211.09 264.79 211.42 264.07"/><polygon class="cls-35" points="203.78 262.74 194.98 266.99 178.85 264.96 171.27 265.76 169.48 275.14 179.79 277.16 190.67 273.25 196.05 274.51 200.25 272.84 204.63 274.15 201.34 271.08 203.78 262.74"/><polygon class="cls-35" points="176.62 259.04 171.27 265.76 169.48 275.14 171.24 277.94 180.97 279.18 179.79 277.16 178.85 264.96 176.62 259.04"/><polygon class="cls-46" points="209.57 262.88 205.43 262.48 207.05 268.06 209.57 262.88"/><polygon class="cls-47" points="200.25 272.84 196.05 274.51 196.2 275.55 200.37 277.48 204.5 278.92 206.38 278.73 200.25 272.84"/><polygon class="cls-48" points="186.67 278.21 188.91 273.88 190.67 273.25 191.07 275.52 186.67 278.21"/><polygon class="cls-47" points="196.05 274.51 196.2 275.55 200.37 277.48 204.5 278.92 205.37 278.83 197.67 273.86 196.05 274.51"/><polygon class="cls-39" points="207.05 268.06 206.23 272.25 206.78 276.16 210.15 272.79 214.73 270.57 210.93 270.66 207.05 268.06"/><polygon class="cls-39" points="210.93 270.66 210.15 272.79 214.73 270.57 210.93 270.66"/><polygon class="cls-49" points="214.87 267.2 212.15 267.47 210.93 270.66 214.73 270.57 216.56 269.27 216.64 268.51 214.87 267.2"/><polygon class="cls-35" points="207.05 268.06 212.15 267.47 210.93 270.66 207.05 268.06"/><polygon class="cls-50" points="201.34 271.08 200.25 272.84 204.63 274.15 201.34 271.08"/><polygon class="cls-51" points="207.05 268.06 201.34 271.08 203.78 262.74 205.43 262.48 207.05 268.06"/><polygon class="cls-44" points="192.79 281.28 193.19 280.82 186.62 280.68 192.79 281.28"/><polygon class="cls-44" points="193.83 279.86 193.56 279.61 188.32 279.85 193.54 280.17 193.83 279.86"/><polygon class="cls-44" points="193.04 278.59 189.51 278.81 193.23 278.95 193.04 278.59"/><polygon class="cls-44" points="211.39 279.68 211.2 279.48 208.66 279.52 211.16 279.88 211.39 279.68"/><polygon class="cls-44" points="210.82 280.31 210.62 280.55 208.01 280.13 210.82 280.31"/><polygon class="cls-44" points="210.54 278.79 209.33 278.9 210.78 279.07 210.54 278.79"/><polygon class="cls-44" points="169.22 275.29 169.56 275.97 169.05 275.81 169.22 275.29"/><polygon class="cls-44" points="168.26 275.5 168.6 276.18 168.09 276.02 168.26 275.5"/><polygon class="cls-44" points="163.93 276.64 164.27 277.32 163.76 277.16 163.93 276.64"/><polygon class="cls-44" points="162.43 277.25 162.77 277.93 162.26 277.77 162.43 277.25"/><polygon class="cls-44" points="160.88 277.61 161.22 278.29 160.72 278.14 160.88 277.61"/><polygon class="cls-44" points="159.65 276.43 159.99 277.11 159.48 276.95 159.65 276.43"/><polygon class="cls-44" points="162.89 275.91 163.23 276.59 162.72 276.43 162.89 275.91"/><polygon class="cls-44" points="166.25 275.58 166.59 276.26 166.08 276.1 166.25 275.58"/><polygon class="cls-44" points="169.22 276.38 169.56 277.05 169.05 276.9 169.22 276.38"/><polygon class="cls-44" points="168.38 276.75 168.72 277.43 168.21 277.27 168.38 276.75"/><polygon class="cls-44" points="166.24 278.02 166.58 278.7 166.07 278.54 166.24 278.02"/><polygon class="cls-44" points="165 278.85 165.34 279.53 164.83 279.38 165 278.85"/><polygon class="cls-44" points="164.51 279.97 164.85 280.65 164.34 280.5 164.51 279.97"/><polygon class="cls-44" points="161.23 276.07 161.57 276.75 161.06 276.6 161.23 276.07"/><polygon class="cls-44" points="158.34 277.44 158.68 278.12 158.17 277.97 158.34 277.44"/><polygon class="cls-44" points="157.02 276.33 157.36 277.01 156.85 276.85 157.02 276.33"/><polygon class="cls-44" points="167.19 276.99 167.53 277.67 167.02 277.52 167.19 276.99"/><polygon class="cls-44" points="165.99 276.76 166.33 277.44 165.82 277.28 165.99 276.76"/><polygon class="cls-44" points="164.82 275.84 165.16 276.52 164.65 276.36 164.82 275.84"/><polygon class="cls-44" points="167.33 275.95 167.67 276.63 167.16 276.47 167.33 275.95"/><polygon class="cls-44" points="168.18 277.95 168.52 278.63 168.01 278.47 168.18 277.95"/><polygon class="cls-44" points="164.99 277.57 165.33 278.25 164.82 278.09 164.99 277.57"/><polygon class="cls-44" points="163.72 277.93 164.06 278.61 163.55 278.45 163.72 277.93"/><polygon class="cls-44" points="162.4 278.62 162.74 279.3 162.23 279.14 162.4 278.62"/><polygon class="cls-44" points="161.19 279.35 161.53 280.03 161.02 279.87 161.19 279.35"/><polygon class="cls-44" points="158.24 278.92 158.58 279.6 158.07 279.45 158.24 278.92"/><polygon class="cls-44" points="156.16 278.02 156.5 278.7 156 278.54 156.16 278.02"/><polygon class="cls-44" points="155.65 282.06 155.99 282.74 155.49 282.58 155.65 282.06"/><polygon class="cls-44" points="153.45 278.78 153.79 279.46 153.28 279.31 153.45 278.78"/><polygon class="cls-44" points="159.69 278.66 160.03 279.34 159.52 279.19 159.69 278.66"/><polygon class="cls-44" points="155.16 279.58 155.5 280.26 155 280.11 155.16 279.58"/><polygon class="cls-44" points="153.33 281.07 153.67 281.75 153.16 281.59 153.33 281.07"/><polygon class="cls-44" points="159.73 280.56 160.07 281.24 159.56 281.08 159.73 280.56"/><polygon class="cls-44" points="158.69 282.21 159.03 282.89 158.53 282.73 158.69 282.21"/><polygon class="cls-44" points="157.15 280.19 157.5 280.87 156.99 280.72 157.15 280.19"/><polygon class="cls-44" points="166.1 279.1 166.44 279.78 165.93 279.62 166.1 279.1"/><polygon class="cls-44" points="163.6 279.2 163.94 279.88 163.43 279.73 163.6 279.2"/><polygon class="cls-44" points="162.83 280.49 163.17 281.17 162.66 281.02 162.83 280.49"/><polygon class="cls-44" points="161.49 281.22 161.83 281.9 161.32 281.75 161.49 281.22"/><polygon class="cls-44" points="167.35 278.62 167.69 279.3 167.18 279.15 167.35 278.62"/><polygon class="cls-44" points="169.34 277.58 169.68 278.26 169.17 278.1 169.34 277.58"/><polygon class="cls-44" points="170.2 276.84 170.54 277.52 170.04 277.37 170.2 276.84"/><polygon class="cls-1" points="54.47 352.25 37.1 333.06 14.64 322.8 18.3 357.36 54.47 352.25"/><polygon class="cls-8" points="37.1 333.06 45.71 353.48 54.47 352.25 37.1 333.06"/><polygon class="cls-52" points="248.19 264.71 193.19 248.96 118.93 222.9 84.85 210.93 79.63 213.27 108.62 226.4 175.23 249.59 242.2 268.93 248.19 264.71"/><polygon class="cls-5" points="156.01 281.63 174.37 270.83 204.61 262.73 186.25 240.59 194.35 236.81 175.45 210.35 180.31 207.65 161.41 166.61 156.01 281.63"/><polygon class="cls-10" points="156.51 281.63 138.15 270.83 107.91 262.73 126.27 240.59 118.17 236.81 137.07 210.35 132.21 207.65 161.41 166.61 156.51 281.63"/><polygon class="cls-5" points="108.62 160.38 104.3 196.09 106.46 196.09 98.25 222.3 101.42 222.3 92.78 247.07 100.7 243.32 138.85 242.75 125.61 219.13 129.93 218.56 118.41 193.5 123.3 193.5 108.62 160.38"/><polygon class="cls-10" points="88.94 236.7 92.78 239.2 92.78 247.07 101.42 222.3 98.25 222.3 106.46 196.09 104.3 196.09 108.62 160.38 101.22 186.78 103.72 190.05 94.12 206.75 97.96 214.24 86.25 225.37 91.43 229.6 88.94 236.7"/></g></g></svg>