<svg xmlns="http://www.w3.org/2000/svg" xmlns:xlink="http://www.w3.org/1999/xlink" viewBox="0 0 402.68 371.49"><defs><style>.cls-1{fill:#fcc069;}.cls-2{fill:#ca8934;}.cls-3{fill:#a5c739;}.cls-4{fill:#879f3c;}.cls-5{fill:#bcd635;}.cls-6{fill:#317137;}.cls-7{fill:#411f2d;}.cls-8{fill:#886e60;}.cls-9{fill:#7d3f40;}.cls-10{fill:#996326;}.cls-11{fill:url(#linear-gradient);}.cls-12,.cls-13,.cls-14,.cls-16,.cls-21,.cls-22,.cls-30,.cls-31,.cls-32,.cls-33,.cls-34,.cls-35,.cls-37,.cls-38,.cls-41,.cls-42{fill:#fff;}.cls-12{opacity:0.17;}.cls-12,.cls-13,.cls-14,.cls-15,.cls-16,.cls-17,.cls-19,.cls-21,.cls-22,.cls-23,.cls-25,.cls-27,.cls-28,.cls-29,.cls-30,.cls-31,.cls-32,.cls-33,.cls-34,.cls-35,.cls-36,.cls-37,.cls-38,.cls-39,.cls-40,.cls-41,.cls-42,.cls-43,.cls-44,.cls-45{isolation:isolate;}.cls-13,.cls-43{opacity:0.16;}.cls-14,.cls-36{opacity:0.24;}.cls-15,.cls-17,.cls-19,.cls-23,.cls-25,.cls-27,.cls-28,.cls-29,.cls-36,.cls-39,.cls-40,.cls-43,.cls-44,.cls-45{fill:#010101;}.cls-15,.cls-41{opacity:0.14;}.cls-16,.cls-45{opacity:0.19;}.cls-17{opacity:0.04;}.cls-18{fill:url(#linear-gradient-2);}.cls-19,.cls-31{opacity:0.11;}.cls-20{fill:url(#linear-gradient-3);}.cls-21{opacity:0.25;}.cls-22{opacity:0.13;}.cls-23{opacity:0.05;}.cls-24{fill:url(#linear-gradient-4);}.cls-25{opacity:0.09;}.cls-26{fill:#1f1711;}.cls-27{opacity:0.38;}.cls-28{opacity:0.23;}.cls-29{opacity:0.18;}.cls-30{opacity:0.01;}.cls-32,.cls-44{opacity:0.33;}.cls-33{opacity:0.12;}.cls-34{opacity:0.1;}.cls-35{opacity:0.22;}.cls-37{opacity:0.07;}.cls-38{opacity:0.15;}.cls-39{opacity:0.08;}.cls-40{opacity:0.34;}.cls-42{opacity:0.29;}</style><linearGradient id="linear-gradient" x1="8846.17" y1="376.65" x2="8839.43" y2="294.12" gradientTransform="translate(8973.24 584.76) rotate(180)" gradientUnits="userSpaceOnUse"><stop offset="0" stop-color="#6e3116"/><stop offset="1" stop-color="#ad642a"/></linearGradient><linearGradient id="linear-gradient-2" x1="8729.97" y1="386.13" x2="8723.23" y2="303.6" xlink:href="#linear-gradient"/><linearGradient id="linear-gradient-3" x1="8782.14" y1="300.55" x2="8790" y2="421.26" xlink:href="#linear-gradient"/><linearGradient id="linear-gradient-4" x1="8869.56" y1="351.01" x2="8869.56" y2="444.49" xlink:href="#linear-gradient"/></defs><title>Asset 2</title><g id="Layer_2" data-name="Layer 2"><g id="Layer_1-2" data-name="Layer 1"><polygon class="cls-1" points="168.51 331.46 2.04 288.01 3.35 306.8 127.41 371.49 170.35 349.63 168.51 331.46"/><polygon class="cls-2" points="388.15 282.83 168.51 331.46 170.35 349.63 236.5 331.72 279.26 337.59 329.43 311.16 390.01 301.23 388.15 282.83"/><polygon class="cls-3" points="0 277.66 0 277.66 2.04 288.01 168.51 331.46 402.67 278.64 401.45 266.53 205.19 235.78 0.37 277.55 0 277.66"/><polygon class="cls-4" points="401.45 266.53 167.35 320.02 168.51 331.46 402.68 278.64 401.45 266.53"/><polygon class="cls-5" points="0.37 277.55 205.19 235.78 401.45 266.53 167.35 320.01 0.41 277.76 0 277.66 0.37 277.55"/><polygon class="cls-5" points="340.82 112.83 333.8 170.91 337.31 170.91 323.96 213.54 329.11 213.54 315.06 253.83 327.94 247.74 390.01 246.8 368.46 208.39 375.49 207.45 356.75 166.7 364.71 166.7 340.82 112.83"/><polygon class="cls-6" points="308.81 236.97 315.06 241.03 315.06 253.83 329.11 213.54 323.96 213.54 337.31 170.91 333.8 170.91 340.82 112.83 328.8 155.77 332.86 161.08 317.24 188.25 323.49 200.43 304.44 218.54 312.87 225.41 308.81 236.97"/><path class="cls-7" d="M343.2,247.49s-.64,14.15.08,14.16c1.22,0,13.43,0,13.43,0l-4.17-14.16Z"/><polygon class="cls-8" points="348.67 247.24 351.77 261.49 356.71 261.64 352.53 247.49 348.67 247.24"/><polygon class="cls-9" points="351.77 261.49 346.88 261.64 345.99 247.24 348.67 247.24 351.77 261.49"/><polygon class="cls-8" points="51.13 184.08 51.13 189.35 93.07 168.32 51.13 184.08"/><polygon class="cls-8" points="26.64 160.44 41.47 192.98 41.84 190.28 26.64 160.44"/><polygon class="cls-8" points="51.13 109.77 51.13 111.66 75.62 86.13 51.13 109.77"/><polygon class="cls-8" points="51.41 65.86 51.13 68.07 75.27 55.4 51.41 65.86"/><polygon class="cls-7" points="324.63 264.63 324.63 231.18 330.11 229.35 324.63 229.35 324.63 220.53 332.84 198.33 324.63 214.45 324.63 187.39 330.41 181.91 324.63 184.95 322.81 158.49 330.71 148.15 322.81 156.67 322.81 111.66 319.46 147.24 306.38 141.46 319.61 150.28 319.61 170.96 306.38 158.19 319.61 174 319.61 211.11 296.96 202.59 319.16 216.89 314.9 264.63 324.63 264.63"/><polygon class="cls-8" points="319.61 211.11 319.61 213.95 296.96 202.59 319.61 211.11"/><polygon class="cls-8" points="332.84 198.33 324.83 215.91 324.63 214.45 332.84 198.33"/><polygon class="cls-8" points="319.61 170.96 319.61 171.98 306.38 158.19 319.61 170.96"/><polygon class="cls-8" points="319.46 147.24 319.61 148.43 306.57 141.59 319.46 147.24"/><polyline class="cls-2" points="254.65 301.12 77.84 261.81 141.46 248.25 307.07 287.51"/><polygon class="cls-10" points="65.37 264.29 242.66 302.81 253.14 300.41 76.92 260.75 65.37 264.29"/><polygon class="cls-8" points="75.55 235.7 75.55 237.66 91.19 229.82 75.55 235.7"/><polygon class="cls-8" points="66.42 226.88 71.94 239.01 72.08 238.01 66.42 226.88"/><polygon class="cls-8" points="75.55 207.98 75.55 208.69 84.68 199.16 75.55 207.98"/><polygon class="cls-8" points="75.65 191.61 75.55 192.43 84.55 187.7 75.65 191.61"/><polygon class="cls-7" points="41.84 283.16 41.84 221.24 31.71 217.86 41.84 217.86 41.84 201.54 26.64 160.44 41.84 190.28 41.84 140.17 31.15 130.04 41.84 135.67 45.22 86.69 30.58 67.55 45.22 83.31 45.22 0 51.41 65.86 75.62 55.17 51.13 71.49 51.13 109.77 75.62 86.13 51.13 115.4 51.13 184.08 93.07 168.32 51.97 194.78 59.86 283.16 41.84 283.16"/><polygon class="cls-7" points="72.08 272.65 72.08 249.55 68.3 248.29 72.08 248.29 72.08 242.2 66.42 226.88 72.08 238.01 72.08 219.32 68.09 215.54 72.08 217.64 73.34 199.37 67.88 192.24 73.34 198.12 73.34 167.04 75.65 191.61 84.68 187.62 75.55 193.71 75.55 207.98 84.68 199.16 75.55 210.08 75.55 235.7 91.19 229.82 75.86 239.68 78.8 272.65 72.08 272.65"/><polygon class="cls-11" points="103.02 204.46 128.76 265.97 115.89 273.34 114.02 278.87 140.74 278.87 155.21 261.82 139.35 197.32 103.02 204.46"/><polygon class="cls-12" points="128.76 265.97 138.93 268.62 136.6 241.25 122.81 251.75 128.76 265.97"/><polygon class="cls-13" points="115.89 273.34 128.76 265.97 138.93 268.62 119.7 274.23 115.89 273.34"/><polygon class="cls-14" points="114.02 278.87 119.7 274.23 115.89 273.34 114.02 278.87"/><polygon class="cls-15" points="138.93 268.62 149.95 265.04 140.74 278.87 114.02 278.87 119.7 274.23 138.93 268.62"/><polygon class="cls-16" points="131.88 223.85 136.6 241.25 122.81 251.75 100.96 199.5 131.88 223.85"/><polygon class="cls-17" points="138.93 268.62 149.95 265.04 137.52 229.42 132.98 227.88 136.6 241.25 138.93 268.62"/><polygon class="cls-18" points="219.98 230.72 244.39 267.35 232.18 275.18 232.18 280.71 256.83 280.71 274.34 261.82 250.38 215.83 219.98 230.72"/><polygon class="cls-19" points="244.39 267.35 253.14 268.62 246.03 227.88 227.21 241.57 244.39 267.35"/><polygon class="cls-15" points="232.18 280.71 237.23 276.1 253.14 268.62 261.93 280.71 232.18 280.71"/><polygon class="cls-20" points="121.54 105.35 183.56 129.76 252.61 134.97 290 173.33 293.62 221.24 281.66 280.71 249 280.71 249 274.26 259.6 266.89 248.67 241.13 184.82 242.43 173.91 270.57 160.55 282.09 136.6 282.09 138.43 273.34 149.95 265.04 137.52 229.42 118.24 222.9 76.92 168.01 76.92 129.76 121.54 105.35"/><polygon class="cls-21" points="118.24 222.9 103.02 202.67 131.06 186.03 137.52 229.42 118.24 222.9"/><polygon class="cls-22" points="121.54 105.35 146.5 115.17 134.96 130.67 100.39 116.91 121.54 105.35"/><polygon class="cls-23" points="183.56 129.76 181.74 173.33 155.21 165.01 134.96 130.67 146.5 115.17 183.56 129.76"/><polygon class="cls-24" points="61.9 128.66 64.96 117.46 76.92 119.25 78.59 126.4 100.39 116.91 124.01 124.02 124.01 124.02 126.79 116.75 136.66 113.93 142.5 122.86 134.96 130.67 155.21 165.01 109.88 204.46 94.09 204.46 52.15 173.33 68.56 134.26 61.9 128.66"/><polygon class="cls-25" points="98.93 141.58 80.97 138.7 83.86 124.11 100.39 116.91 98.93 141.58"/><polygon class="cls-13" points="98.93 141.58 115.43 137.05 138.93 163.46 108.56 194.55 94.02 194.55 63 167.7 80.97 138.7 98.93 141.58"/><polygon class="cls-13" points="108.48 148.8 98.93 151.52 89.3 149.59 93.46 158.44 85.11 174.79 96.55 185.28 105.38 185.28 116.18 173.27 105.15 158.12 108.48 148.8"/><polygon class="cls-26" points="95.94 176.41 104.82 176.41 108.96 181.22 104.82 186.03 95.84 186.03 92.38 181.22 95.94 176.41"/><polygon class="cls-27" points="109.17 155.04 113.09 155.04 115.04 158.04 113.09 161.04 109.17 161.04 107.21 158.04 109.17 155.04"/><polygon class="cls-27" points="85.43 155.12 89.35 155.12 91.31 158.12 89.35 161.12 85.43 161.12 83.47 158.12 85.43 155.12"/><polygon class="cls-26" points="109.62 155.82 112.63 155.82 114.14 158.12 112.63 160.42 109.62 160.42 108.12 158.12 109.62 155.82"/><polygon class="cls-26" points="85.89 155.82 88.89 155.82 90.4 158.12 88.89 160.42 85.89 160.42 84.38 158.12 85.89 155.82"/><polygon class="cls-13" points="98.93 151.52 94.09 150.55 96.64 159.2 95.94 176.41 104.82 176.41 100.96 158.72 103.02 150.35 98.93 151.52"/><polygon class="cls-27" points="96.11 191.13 99.57 191.13 99.74 186.03 100.83 186.03 100.94 191.13 104.59 191.13 107.7 189.71 104.97 191.99 95.77 191.99 93.07 189.49 96.11 191.13"/><polygon class="cls-19" points="124.01 124.02 117.74 122.14 115.43 137.05 124.88 147.68 124.01 124.02"/><polygon class="cls-28" points="134.96 130.67 124.01 124.02 124.88 147.68 138.93 163.46 155.21 165.01 134.96 130.67"/><polygon class="cls-29" points="155.21 165.01 138.93 163.46 108.56 194.55 109.88 204.46 155.21 165.01"/><polygon class="cls-30" points="108.56 194.55 109.88 204.46 94.09 204.46 94.02 194.55 108.56 194.55"/><polygon class="cls-31" points="78.59 126.4 83.86 124.11 80.97 138.7 73.75 150.35 78.59 126.4"/><polygon class="cls-32" points="68.56 134.26 78.59 126.4 73.75 150.35 63 167.7 52.15 173.33 68.56 134.26"/><polygon class="cls-31" points="94.02 194.55 63 167.7 52.15 173.33 94.09 204.46 94.02 194.55"/><polygon class="cls-23" points="98.93 151.52 98.93 141.58 80.97 138.7 89.3 149.59 98.93 151.52"/><polygon class="cls-33" points="115.43 137.05 98.93 141.58 98.93 151.52 108.48 148.8 115.43 137.05"/><polygon class="cls-25" points="108.48 148.8 115.04 153.81 124.88 147.68 115.43 137.05 108.48 148.8"/><polygon class="cls-15" points="138.93 163.46 124.88 147.68 115.04 153.81 129.12 163.38 138.93 163.46"/><polygon class="cls-34" points="80.97 138.7 89.3 149.59 78.8 157.18 73.75 150.35 80.97 138.7"/><polygon class="cls-35" points="63 167.7 73.75 150.35 78.8 157.18 70.16 167.04 63 167.7"/><polygon class="cls-36" points="138.93 163.46 129.12 163.38 108.56 194.55 138.93 163.46"/><polygon class="cls-37" points="70.16 167.04 63 167.7 94.02 194.55 70.16 167.04"/><polygon class="cls-38" points="64.96 117.46 61.9 128.66 68.56 134.26 70.9 132.43 65.37 127.14 66.4 119.84 64.96 117.46"/><polygon class="cls-39" points="78.59 126.4 76.92 119.25 64.96 117.46 66.4 119.84 73.75 120.96 75.59 128.75 78.59 126.4"/><polygon class="cls-38" points="124.01 124.02 126.79 116.75 136.66 113.93 134.86 117.46 129.12 118.98 127.03 125.86 124.01 124.02"/><polygon class="cls-40" points="136.66 113.93 134.86 117.46 138.23 123.1 131.8 128.75 134.96 130.67 142.5 122.86 136.66 113.93"/><polygon class="cls-41" points="137.52 229.42 164.24 208.56 164.24 234.89 144.65 249.85 137.52 229.42"/><polygon class="cls-19" points="184.82 242.43 164.24 208.56 164.24 234.89 180.58 253.37 184.82 242.43"/><polygon class="cls-42" points="149.95 265.04 144.65 249.85 164.24 234.89 158.16 268.62 149.95 265.04"/><polygon class="cls-29" points="164.24 234.89 158.16 268.62 173.91 270.57 180.58 253.37 164.24 234.89"/><polygon class="cls-29" points="158.16 268.62 173.91 270.57 160.55 282.09 158.16 268.62"/><polygon class="cls-29" points="136.6 282.09 142.23 274.87 158.16 268.62 160.55 282.09 136.6 282.09"/><polygon class="cls-13" points="149.95 265.04 158.16 268.62 142.23 274.87 138.43 273.34 149.95 265.04"/><polygon class="cls-14" points="136.6 282.09 138.43 273.34 142.23 274.87 136.6 282.09"/><polygon class="cls-38" points="181.74 173.33 183.56 129.76 252.61 134.97 268.76 173.33 181.74 173.33"/><polygon class="cls-19" points="164.24 208.56 271.85 215.83 268.76 173.33 181.74 173.33 164.24 208.56"/><polygon class="cls-19" points="293.62 221.24 271.85 215.83 271.85 245.46 286.53 256.48 293.62 221.24"/><polygon class="cls-21" points="248.67 241.13 271.85 215.83 271.85 245.46 256.99 260.75 248.67 241.13"/><polygon class="cls-43" points="271.85 245.46 286.53 256.48 281.66 280.71 269.61 270.1 271.85 245.46"/><polygon class="cls-38" points="259.6 266.89 269.61 270.1 271.85 245.46 256.99 260.75 259.6 266.89"/><polygon class="cls-44" points="249 280.71 253.89 275.36 269.61 270.1 281.66 280.71 249 280.71"/><polygon class="cls-13" points="259.6 266.89 269.61 270.1 253.89 275.36 249 274.26 259.6 266.89"/><polygon class="cls-13" points="232.18 275.18 244.39 267.35 253.14 268.62 237.23 276.1 232.18 275.18"/><polygon class="cls-45" points="184.82 242.43 248.67 241.13 271.85 215.83 164.24 208.56 184.82 242.43"/><polygon class="cls-37" points="268.76 173.33 290 173.33 252.61 134.97 268.76 173.33"/><polygon class="cls-43" points="271.85 215.83 293.62 221.24 290 173.33 268.76 173.33 271.85 215.83"/><polygon class="cls-19" points="252.61 134.97 268.76 173.33 271.85 215.83 248.67 241.13 227.21 241.57 237.23 213.83 237.6 173.69 225.25 132.91 252.61 134.97"/></g></g></svg>