<svg xmlns="http://www.w3.org/2000/svg" xmlns:xlink="http://www.w3.org/1999/xlink" viewBox="0 0 653.3 653.3"><defs><style>.cls-1{fill:none;}.cls-2{clip-path:url(#clip-path);}.cls-3{fill:url(#linear-gradient);}.cls-4{clip-path:url(#clip-path-2);}.cls-5{fill:url(#linear-gradient-2);}.cls-6{clip-path:url(#clip-path-3);}.cls-7{fill:url(#linear-gradient-3);}.cls-8{clip-path:url(#clip-path-4);}.cls-9{fill:#0f3034;}.cls-10{fill:#3897d3;}.cls-11{fill:#674b3c;}.cls-12{fill:#87bd40;}.cls-13{fill:#add14f;}</style><clipPath id="clip-path"><path class="cls-1" d="M105.2,326.65C105.2,449,326.64,649.5,326.64,649.5S548.09,449,548.09,326.65,448.94,105.21,326.64,105.21,105.2,204.35,105.2,326.65"/></clipPath><linearGradient id="linear-gradient" x1="730.95" y1="-1511.3" x2="735.02" y2="-1511.3" gradientTransform="translate(-79372.79 164705.2) scale(108.73)" gradientUnits="userSpaceOnUse"><stop offset="0" stop-color="#d1cac7"/><stop offset="1" stop-color="#fff"/></linearGradient><clipPath id="clip-path-2"><path class="cls-1" d="M119.66,326.65c0,100.36,164.84,263.1,207,303.07,42.15-40,207-202.71,207-303.07,0-114.13-92.85-207-207-207s-207,92.85-207,207"/></clipPath><linearGradient id="linear-gradient-2" x1="729.57" y1="-1512.21" x2="733.64" y2="-1512.21" gradientTransform="translate(-74028.61 154065.45) scale(101.63)" gradientUnits="userSpaceOnUse"><stop offset="0" stop-color="#e4e1df"/><stop offset="1" stop-color="#f7f7f7"/></linearGradient><clipPath id="clip-path-3"><path class="cls-1" d="M163.32,326.65A163.33,163.33,0,1,0,326.64,163.32,163.32,163.32,0,0,0,163.32,326.65"/></clipPath><linearGradient id="linear-gradient-3" x1="743.89" y1="-1532.92" x2="747.96" y2="-1532.92" gradientTransform="translate(41215.58 118698.23) rotate(-45) scale(73.46)" gradientUnits="userSpaceOnUse"><stop offset="0" stop-color="#fff"/><stop offset="1" stop-color="#d1cac7"/></linearGradient><clipPath id="clip-path-4"><rect class="cls-1" x="184.56" y="184.57" width="284.19" height="284.16"/></clipPath></defs><title>Asset 1</title><g id="Layer_2" data-name="Layer 2"><g id="Layer_1-2" data-name="Layer 1"><g class="cls-2"><rect class="cls-3" x="105.2" y="105.21" width="442.89" height="544.29"/></g><g class="cls-4"><rect class="cls-5" x="119.66" y="119.66" width="413.97" height="510.05"/></g><g class="cls-6"><polygon class="cls-7" points="0 326.65 326.65 0 653.3 326.65 326.65 653.3 0 326.65"/></g><g class="cls-8"><path class="cls-9" d="M468.73,326.65A142.08,142.08,0,1,1,326.65,184.57,142.08,142.08,0,0,1,468.73,326.65"/></g><path class="cls-10" d="M450.83,326.65A124.19,124.19,0,1,1,326.65,202.46,124.18,124.18,0,0,1,450.83,326.65"/><path class="cls-11" d="M282.57,392.85a162.52,162.52,0,0,1,18.81-17.24c5.71-4.44,12.42-7.87,19.62-8.66,7.84-.86,15.75,1.47,22.79,5.05,10.35,5.26,19.11,13.12,27.73,20.88a83.34,83.34,0,0,1-42,14c-25.54,1.54-47-14-47-14"/><path class="cls-12" d="M379.11,299.77c-1.7,4.56-4.58,8.82-8.72,11.38-6.9,4.27-15.69,3.14-23.73,2.11s-17.05-1.56-23.38,3.52c1.55-10.26,3.36-21.11,10.11-29,6.59-7.69,16.8-11.23,26.76-13.08s20.22-2.36,29.82-5.57c-4.1,3.68-6.07,9.16-7.24,14.54s-1.7,10.93-3.62,16.09"/><path class="cls-13" d="M347.55,302.22a125.74,125.74,0,0,0-21.68,12c11.39-15.5,35.49-16.63,47.49-31.66-1.63,5.35-5.86,9.58-10.61,12.55s-10.06,4.86-15.2,7.08"/><path class="cls-13" d="M344.45,290.66l-13.48,19c6.62-4.28,10.67-11.59,13.48-19"/><path class="cls-13" d="M357.23,284.19A51.35,51.35,0,0,1,347,300.14c1.71-1.24,2.09.15,3.63-1.29.89-.82,6.57-6.68,6.57-14.66"/><path class="cls-13" d="M350.66,298.86a1,1,0,0,0-.83.4c-.31.58.57,1.05,1.22,1.14a40.28,40.28,0,0,0,10.45.41,13.64,13.64,0,0,0,9.07-4.73l-19.91,2.78"/><path class="cls-13" d="M364.15,305.63a92.69,92.69,0,0,1-25.38-1.2c-.08,1.7,1.77,2.8,3.4,3.28,7.17,2.09,14.81,0,22-2.08"/><path class="cls-12" d="M321.31,289.33c-5.06-9.57-15.21-15.71-25.79-18s-21.61-1-32.19,1.23c5.08,1.59,8.71,6.19,10.71,11.12s2.65,10.28,3.74,15.49,2.7,10.51,6.22,14.5c5,5.65,13.09,7.71,20.6,7.13s14.63-3.43,21.62-6.25c-.4-8.64-.87-17.61-4.91-25.25"/><path class="cls-13" d="M300.21,295.1c-4.63-5.75-8.45-13-15.42-15.38,6.66,6,10.77,14.18,16.21,21.25s13.33,13.45,22.24,12.93c-8.32-5.45-16.79-11-23-18.8"/><path class="cls-13" d="M307.87,286.62a54.66,54.66,0,0,0-.39,11.71A18.37,18.37,0,0,0,311.94,309a54,54,0,0,0-1.19-8l-2.88-14.38"/><path class="cls-13" d="M297.41,296.09c.48,1,2.2.45,2.54-.62s-2.11-14.85-4-16.09q.75,8.36,1.5,16.71"/><path class="cls-13" d="M298.73,298.07a1.88,1.88,0,0,0,1.52-.74,1.38,1.38,0,0,0-.59-1.71,2.74,2.74,0,0,0-1.9-.46c-5.45.92-8.19-.2-13.51-1a20.08,20.08,0,0,0,14.48,3.89"/><path class="cls-13" d="M289.58,304.46A27.37,27.37,0,0,0,310,307.23c-.21-.64-.42-1.3-.64-1.94l-19.8-.83"/><path class="cls-12" d="M330.88,373c3.62-1.23,4.31-6,4.38-9.78.17-9.44.34-18.92-.89-28.27s-3.93-18.66-9.11-26.56c-2.15,2-3,5-2.92,7.95a41.28,41.28,0,0,0,1.56,8.57,81.16,81.16,0,0,1-2,44.21c2.46,2.39,5.71,5,9,3.88"/></g></g></svg>