<svg xmlns="http://www.w3.org/2000/svg" xmlns:xlink="http://www.w3.org/1999/xlink" viewBox="0 0 620.98 620.99"><defs><style>.cls-1{fill:none;}.cls-2{clip-path:url(#clip-path);}.cls-3{fill:url(#linear-gradient);}.cls-4{clip-path:url(#clip-path-2);}.cls-5{fill:url(#linear-gradient-2);}.cls-6{clip-path:url(#clip-path-3);}.cls-7{fill:url(#linear-gradient-3);}.cls-8{fill:#674b3c;}.cls-9{fill:#87bd40;}.cls-10{fill:#add14f;}</style><clipPath id="clip-path"><path class="cls-1" d="M100,310.5c0,116.25,210.49,306.87,210.49,306.87S521,426.75,521,310.5,426.74,100,310.49,100,100,194.24,100,310.5"/></clipPath><linearGradient id="linear-gradient" x1="737.34" y1="-1537.31" x2="741.21" y2="-1537.31" gradientTransform="translate(-80073.26 167515.12) scale(108.73)" gradientUnits="userSpaceOnUse"><stop offset="0" stop-color="#d1cac7"/><stop offset="1" stop-color="#fff"/></linearGradient><clipPath id="clip-path-2"><path class="cls-1" d="M113.75,310.49c0,95.4,156.68,250.09,196.74,288.08,40.06-38,196.74-192.67,196.74-288.08C507.23,202,419,113.75,310.49,113.75S113.75,202,113.75,310.49"/></clipPath><linearGradient id="linear-gradient-2" x1="736.77" y1="-1537.8" x2="740.64" y2="-1537.8" gradientTransform="translate(-74766 156647.26) scale(101.63)" gradientUnits="userSpaceOnUse"><stop offset="0" stop-color="#e4e1df"/><stop offset="1" stop-color="#f7f7f7"/></linearGradient><clipPath id="clip-path-3"><path class="cls-1" d="M155.24,310.5A155.25,155.25,0,1,0,310.49,155.25,155.25,155.25,0,0,0,155.24,310.5"/></clipPath><linearGradient id="linear-gradient-3" x1="744.39" y1="-1546.6" x2="748.26" y2="-1546.6" gradientTransform="translate(41888.84 119413.43) rotate(-45) scale(73.46)" gradientUnits="userSpaceOnUse"><stop offset="0" stop-color="#fff"/><stop offset="1" stop-color="#d1cac7"/></linearGradient></defs><title>Asset 1</title><g id="Layer_2" data-name="Layer 2"><g id="Layer_1-2" data-name="Layer 1"><g class="cls-2"><rect class="cls-3" x="100" y="100.01" width="420.98" height="517.36"/></g><g class="cls-4"><rect class="cls-5" x="113.75" y="113.75" width="393.48" height="484.82"/></g><g class="cls-6"><polygon class="cls-7" points="0 310.5 310.49 0 620.98 310.5 310.49 620.99 0 310.5"/></g><path class="cls-8" d="M275.65,371.64a156,156,0,0,1,17.88-16.39c5.43-4.22,11.81-7.48,18.65-8.23,7.45-.82,15,1.39,21.66,4.79,9.83,5,18.16,12.47,26.36,19.85A79.17,79.17,0,0,1,320.31,385c-24.28,1.47-44.66-13.32-44.66-13.32"/><path class="cls-9" d="M367.41,283.16A21.13,21.13,0,0,1,359.12,294c-6.55,4.06-14.91,3-22.56,2s-16.21-1.48-22.22,3.34c1.48-9.75,3.19-20.06,9.61-27.56,6.26-7.31,16-10.68,25.44-12.44s19.21-2.25,28.34-5.29c-3.89,3.5-5.77,8.7-6.88,13.81s-1.61,10.4-3.44,15.31"/><path class="cls-10" d="M337.41,285.49a120.55,120.55,0,0,0-20.61,11.43c10.83-14.74,33.73-15.81,45.14-30.09-1.55,5.09-5.58,9.11-10.09,11.93s-9.55,4.62-14.44,6.73"/><path class="cls-10" d="M334.47,274.5l-12.81,18c6.29-4.07,10.13-11,12.81-18"/><path class="cls-10" d="M346.61,268.35a49.26,49.26,0,0,1-9.69,15.17c1.62-1.18,2,.14,3.45-1.22.85-.8,6.24-6.37,6.24-13.95"/><path class="cls-10" d="M340.37,282.29a1,1,0,0,0-.79.38c-.3.55.54,1,1.16,1.08a38.47,38.47,0,0,0,9.93.39,13,13,0,0,0,8.62-4.5l-18.92,2.65"/><path class="cls-10" d="M353.19,288.73a88.34,88.34,0,0,1-24.13-1.14c-.07,1.62,1.68,2.66,3.24,3.12,6.81,2,14.08,0,20.89-2"/><path class="cls-9" d="M312.47,273.23c-4.8-9.09-14.45-14.94-24.51-17.08s-20.55-1-30.61,1.17c4.82,1.51,8.28,5.88,10.19,10.57s2.52,9.77,3.55,14.72,2.57,10,5.91,13.78c4.74,5.37,12.44,7.33,19.58,6.78s13.91-3.26,20.55-5.94c-.37-8.21-.82-16.73-4.66-24"/><path class="cls-10" d="M292.41,278.72c-4.4-5.46-8-12.33-14.66-14.62,6.33,5.66,10.24,13.48,15.41,20.2s12.67,12.79,21.14,12.29c-7.9-5.18-15.95-10.5-21.89-17.87"/><path class="cls-10" d="M299.7,270.66a51.85,51.85,0,0,0-.37,11.13,17.46,17.46,0,0,0,4.23,10.12,51.16,51.16,0,0,0-1.13-7.58l-2.73-13.67"/><path class="cls-10" d="M289.75,279.66c.46,1,2.1.43,2.42-.59s-2-14.12-3.84-15.29q.71,7.94,1.42,15.88"/><path class="cls-10" d="M291,281.54a1.82,1.82,0,0,0,1.45-.7,1.3,1.3,0,0,0-.55-1.62,2.67,2.67,0,0,0-1.81-.45c-5.18.88-7.78-.19-12.84-.93a19,19,0,0,0,13.75,3.7"/><path class="cls-10" d="M282.31,287.62a26,26,0,0,0,19.42,2.63l-.6-1.85-18.82-.78"/><path class="cls-9" d="M321.57,352.78c3.44-1.17,4.1-5.67,4.16-9.3.17-9,.33-18-.85-26.88s-3.74-17.74-8.66-25.24a9.89,9.89,0,0,0-2.78,7.56,39.87,39.87,0,0,0,1.48,8.15,77.19,77.19,0,0,1-1.88,42c2.35,2.28,5.44,4.75,8.53,3.69"/></g></g></svg>