<svg xmlns="http://www.w3.org/2000/svg" xmlns:xlink="http://www.w3.org/1999/xlink" viewBox="0 0 644.08 644.08"><defs><style>.cls-1{fill:none;}.cls-2{clip-path:url(#clip-path);}.cls-3{fill:url(#linear-gradient);}.cls-4{clip-path:url(#clip-path-2);}.cls-5{fill:url(#linear-gradient-2);}.cls-6{clip-path:url(#clip-path-3);}.cls-7{fill:url(#linear-gradient-3);}.cls-8{clip-path:url(#clip-path-4);}.cls-9{fill:#0f3034;}.cls-10{fill:#e89835;}.cls-11{fill:#674b3c;}.cls-12{fill:#87bd40;}.cls-13{fill:#add14f;}</style><clipPath id="clip-path"><path class="cls-1" d="M103.73,322C103.73,442.61,322,640.32,322,640.32S540.36,442.61,540.36,322,442.62,103.72,322.05,103.72,103.73,201.47,103.73,322"/></clipPath><linearGradient id="linear-gradient" x1="750.38" y1="-1533.21" x2="754.39" y2="-1533.21" gradientTransform="translate(-81486.83 167082.56) scale(108.73)" gradientUnits="userSpaceOnUse"><stop offset="0" stop-color="#d1cac7"/><stop offset="1" stop-color="#fff"/></linearGradient><clipPath id="clip-path-2"><path class="cls-1" d="M118,322C118,421,280.5,581.42,322.05,620.82,363.6,581.42,526.11,421,526.11,322,526.11,209.52,434.57,118,322.05,118S118,209.52,118,322"/></clipPath><linearGradient id="linear-gradient-2" x1="749.18" y1="-1534.18" x2="753.19" y2="-1534.18" gradientTransform="translate(-76023.17 156292.83) scale(101.63)" gradientUnits="userSpaceOnUse"><stop offset="0" stop-color="#e4e1df"/><stop offset="1" stop-color="#f7f7f7"/></linearGradient><clipPath id="clip-path-3"><path class="cls-1" d="M161,322A161,161,0,1,0,322,161,161,161,0,0,0,161,322"/></clipPath><linearGradient id="linear-gradient-3" x1="764.25" y1="-1552.18" x2="768.26" y2="-1552.18" gradientTransform="translate(41154.88 120750) rotate(-45) scale(73.46)" gradientUnits="userSpaceOnUse"><stop offset="0" stop-color="#fff"/><stop offset="1" stop-color="#d1cac7"/></linearGradient><clipPath id="clip-path-4"><rect class="cls-1" x="181.96" y="181.97" width="280.17" height="280.15"/></clipPath></defs><title>Asset 1</title><g id="Layer_2" data-name="Layer 2"><g id="Layer_1-2" data-name="Layer 1"><g class="cls-2"><rect class="cls-3" x="103.73" y="103.72" width="436.63" height="536.6"/></g><g class="cls-4"><rect class="cls-5" x="117.99" y="117.98" width="408.12" height="502.84"/></g><g class="cls-6"><polygon class="cls-7" points="0 322.04 322.04 0 644.08 322.04 322.04 644.08 0 322.04"/></g><g class="cls-8"><path class="cls-9" d="M462.12,322A140.07,140.07,0,1,1,322.05,182,140.07,140.07,0,0,1,462.12,322"/></g><path class="cls-10" d="M444.48,322A122.44,122.44,0,1,1,322.05,199.61,122.43,122.43,0,0,1,444.48,322"/><path class="cls-11" d="M282.61,389.88a161.36,161.36,0,0,1,18.54-17c5.63-4.38,12.24-7.76,19.34-8.54,7.73-.84,15.53,1.45,22.46,5,10.2,5.18,18.84,12.93,27.34,20.58a82.09,82.09,0,0,1-41.37,13.8c-25.17,1.53-46.31-13.82-46.31-13.82"/><path class="cls-12" d="M377.78,298.11a21.9,21.9,0,0,1-8.6,11.22c-6.79,4.21-15.46,3.1-23.39,2.08s-16.81-1.54-23.05,3.47c1.53-10.12,3.31-20.81,10-28.58,6.49-7.59,16.56-11.08,26.38-12.9s19.93-2.33,29.4-5.49c-4,3.63-6,9-7.14,14.33s-1.66,10.78-3.56,15.87"/><path class="cls-13" d="M346.67,300.53a124.54,124.54,0,0,0-21.37,11.86c11.23-15.28,35-16.4,46.82-31.21-1.61,5.28-5.78,9.45-10.46,12.37s-9.92,4.79-15,7"/><path class="cls-13" d="M343.62,289.13l-13.29,18.69c6.53-4.22,10.51-11.43,13.29-18.69"/><path class="cls-13" d="M356.21,282.75a51,51,0,0,1-10,15.73c1.69-1.22,2.06.14,3.58-1.27.88-.82,6.47-6.59,6.47-14.46"/><path class="cls-13" d="M349.74,297.21a1,1,0,0,0-.82.39c-.3.57.56,1,1.2,1.12a40.46,40.46,0,0,0,10.3.41,13.47,13.47,0,0,0,8.94-4.66l-19.62,2.74"/><path class="cls-13" d="M363,303.89a91.74,91.74,0,0,1-25-1.18c-.08,1.68,1.74,2.76,3.36,3.23,7.06,2.06,14.6,0,21.67-2.05"/><path class="cls-12" d="M320.8,287.82c-5-9.43-15-15.49-25.43-17.71s-21.31-1-31.74,1.21c5,1.57,8.59,6.1,10.56,11s2.61,10.13,3.68,15.27,2.66,10.36,6.13,14.29c4.92,5.57,12.9,7.6,20.31,7s14.42-3.38,21.31-6.16c-.37-8.52-.84-17.36-4.82-24.89"/><path class="cls-13" d="M300,293.51c-4.57-5.67-8.33-12.79-15.2-15.16,6.56,5.87,10.61,14,16,20.95s13.14,13.26,21.93,12.75c-8.21-5.39-16.56-10.9-22.71-18.54"/><path class="cls-13" d="M307.55,285.14a53.75,53.75,0,0,0-.39,11.54,18.15,18.15,0,0,0,4.39,10.49,53.62,53.62,0,0,0-1.17-7.86q-1.39-7.06-2.83-14.17"/><path class="cls-13" d="M297.24,294.48c.47,1,2.17.45,2.5-.61s-2.08-14.64-4-15.86q.74,8.24,1.48,16.47"/><path class="cls-13" d="M298.54,296.43a1.89,1.89,0,0,0,1.51-.73,1.34,1.34,0,0,0-.58-1.68,2.74,2.74,0,0,0-1.88-.46c-5.37.91-8.08-.19-13.32-1a19.72,19.72,0,0,0,14.27,3.84"/><path class="cls-13" d="M289.52,302.73a27,27,0,0,0,20.15,2.73l-.63-1.92q-9.77-.39-19.52-.81"/><path class="cls-12" d="M330.24,370.32c3.57-1.22,4.25-5.87,4.31-9.64.17-9.3.34-18.65-.88-27.87s-3.88-18.4-9-26.18a10.24,10.24,0,0,0-2.88,7.83,40.79,40.79,0,0,0,1.54,8.45,79.88,79.88,0,0,1-2,43.59c2.44,2.36,5.64,4.92,8.85,3.82"/></g></g></svg>