<svg xmlns="http://www.w3.org/2000/svg" viewBox="0 0 83.29 93.71"><defs><style>.cls-1{fill:#653915;}.cls-2{fill:#8f5022;}.cls-3{fill:#2b4921;}.cls-4{fill:#223b1b;}.cls-5{fill:#2e5f2e;}.cls-6{fill:#327238;}.cls-7{fill:#3d8840;}.cls-8{fill:#53a345;}.cls-9{fill:#abd037;}.cls-10{fill:#76b943;}.cls-11{fill:#fff;}.cls-12{fill:none;stroke:#010101;stroke-miterlimit:10;}.cls-13{fill:#be792a;}.cls-14{fill:#a66427;}.cls-15{fill:#499744;}.cls-16{fill:#438b41;}</style></defs><title>Asset 4</title><g id="Layer_2" data-name="Layer 2"><g id="Layer_1-2" data-name="Layer 1"><polygon class="cls-1" points="16.45 53.5 26.54 61.13 22.33 56.41 16.45 53.5"/><polygon class="cls-1" points="22.33 56.41 19.02 51.2 30.23 60.95 22.33 56.41"/><polygon class="cls-2" points="26.54 61.13 30.23 60.95 22.33 56.41 26.54 61.13"/><polygon class="cls-1" points="26.54 61.13 34.67 68.63 30.23 60.95 26.54 61.13"/><polygon class="cls-2" points="30.23 60.95 38.78 68.98 34.67 68.63 30.23 60.95"/><polygon class="cls-1" points="37.66 71.79 38.78 68.98 34.67 68.63 37.66 71.79"/><polygon class="cls-3" points="21.95 58.43 7.98 55.43 19.7 45.62 21.95 58.43"/><polygon class="cls-4" points="21.95 58.43 27.59 48.49 19.7 45.62 21.95 58.43"/><polygon class="cls-5" points="21.95 58.43 13.25 61.73 7.98 55.43 21.95 58.43"/><polygon class="cls-6" points="13.25 61.73 0 55.13 7.98 55.43 13.25 61.73"/><polygon class="cls-7" points="0 55.13 8.81 44.51 7.98 55.43 0 55.13"/><polygon class="cls-8" points="0 55.13 0.13 46.05 8.81 44.51 0 55.13"/><polygon class="cls-5" points="8.81 44.51 19.7 45.62 7.98 55.43 8.81 44.51"/><polygon class="cls-7" points="8.81 44.51 12.47 36.97 0.13 46.05 8.81 44.51"/><polygon class="cls-9" points="0.13 46.05 4.3 37.33 12.47 36.97 0.13 46.05"/><polygon class="cls-8" points="19.7 45.62 12.47 36.97 8.81 44.51 19.7 45.62"/><polygon class="cls-10" points="12.47 36.97 16.92 33.81 4.3 37.33 12.47 36.97"/><polygon class="cls-7" points="16.92 33.81 19.7 45.62 12.47 36.97 16.92 33.81"/><polygon class="cls-3" points="27.59 48.49 24.21 39.1 19.7 45.62 27.59 48.49"/><polygon class="cls-3" points="24.22 39.1 16.92 33.81 19.7 45.62 24.22 39.1"/><polygon class="cls-11" points="63.34 54.28 53.23 61.88 58.85 58.99 63.34 54.28"/><polygon class="cls-12" points="63.34 54.28 53.23 61.88 58.85 58.99 63.34 54.28"/><polygon class="cls-1" points="58.85 58.99 64.64 56.99 52.26 65.19 58.85 58.99"/><polygon class="cls-2" points="53.23 61.88 52.26 65.19 58.85 58.99 53.23 61.88"/><polygon class="cls-1" points="53.23 61.88 43.86 67.75 52.26 65.19 53.23 61.88"/><polygon class="cls-2" points="52.26 65.19 41.78 72.61 43.86 67.75 52.26 65.19"/><polygon class="cls-1" points="41.15 69.77 41.78 72.61 43.86 67.75 41.15 69.77"/><polygon class="cls-13" points="43.58 50.48 42.46 70.52 40.48 69.31 43.58 50.48"/><polygon class="cls-14" points="40.48 69.31 36.53 51.52 37.32 82.64 40.48 69.31"/><polygon class="cls-2" points="42.46 70.52 37.32 82.64 40.48 69.31 42.46 70.52"/><polygon class="cls-14" points="42.46 70.52 43.11 86.8 37.32 82.64 42.46 70.52"/><polygon class="cls-2" points="36.45 93.7 43.11 86.8 37.32 82.64 36.45 93.7"/><polyline class="cls-1" points="36.45 93.7 43.11 86.8 44.22 93.11"/><polygon class="cls-2" points="40.48 69.31 43.58 50.48 36.53 51.52 40.48 69.31"/><polygon class="cls-6" points="40.8 55.91 22.93 33.01 54 33.01 40.8 55.91"/><polygon class="cls-5" points="40.8 55.91 62.54 47.76 54 33.01 40.8 55.91"/><polygon class="cls-3" points="40.8 55.91 22.93 49.7 22.93 33.01 40.8 55.91"/><polygon class="cls-5" points="22.93 49.7 10.9 22.13 22.93 33.01 22.93 49.7"/><polygon class="cls-8" points="10.9 22.13 38.47 17.09 22.93 33.01 10.9 22.13"/><polygon class="cls-10" points="10.9 22.13 22.93 8.17 38.47 17.09 10.9 22.13"/><polygon class="cls-7" points="38.47 17.09 54 33.01 22.93 33.01 38.47 17.09"/><polygon class="cls-8" points="38.47 17.09 54 10.1 22.93 8.17 38.47 17.09"/><polygon class="cls-9" points="40.8 0 54 10.1 22.93 8.17 40.8 0"/><polygon class="cls-15" points="54 33.01 54 10.1 38.47 17.09 54 33.01"/><polygon class="cls-10" points="40.8 0 54 10.1 65.06 10.98 40.8 0"/><polygon class="cls-16" points="65.06 10.98 54 33.01 54 10.1 65.06 10.98"/><polygon class="cls-3" points="62.54 47.76 69.53 28.73 54 33.01 62.54 47.76"/><polygon class="cls-6" points="69.53 28.73 65.06 10.98 54 33.01 69.53 28.73"/><polygon class="cls-5" points="63.99 69.47 54.57 54.33 73.53 56.34 63.99 69.47"/><polygon class="cls-3" points="77.79 65.9 73.53 56.34 63.99 69.47 77.79 65.9"/><polygon class="cls-6" points="63.99 69.47 53.49 64.52 54.57 54.33 63.99 69.47"/><polygon class="cls-8" points="53.49 64.52 47.93 46.91 54.57 54.33 53.49 64.52"/><polygon class="cls-7" points="47.93 46.91 65.08 45.62 54.57 54.33 47.93 46.91"/><polygon class="cls-10" points="47.93 46.91 56.18 39.17 65.08 45.62 47.93 46.91"/><polygon class="cls-6" points="65.08 45.62 73.53 56.34 54.57 54.33 65.08 45.62"/><polygon class="cls-8" points="65.08 45.62 75.01 42.36 56.18 39.17 65.08 45.62"/><polygon class="cls-9" points="56.18 39.17 67.61 35.34 75.02 42.36 56.18 39.17"/><polygon class="cls-7" points="73.53 56.34 75.01 42.36 65.08 45.62 73.53 56.34"/><polygon class="cls-10" points="81.71 43.61 67.61 35.34 75.02 42.36 81.71 43.61"/><polygon class="cls-6" points="81.71 43.61 73.53 56.34 75.02 42.36 81.71 43.61"/><polyline class="cls-4" points="83.29 54.74 73.53 56.34 77.79 65.9"/><polyline class="cls-5" points="81.71 43.61 73.53 56.34 83.29 54.74"/></g></g></svg>