<svg xmlns="http://www.w3.org/2000/svg" viewBox="0 0 128.99 181.4"><defs><style>.cls-1{fill:#54a346;}.cls-2{fill:#be792a;}.cls-3{fill:#87c54e;}.cls-4{fill:#53a345;}.cls-5{fill:#653915;}.cls-6{fill:#8f5022;}.cls-7{fill:#2e5f2e;}.cls-8{fill:#499744;}.cls-9{fill:#abd037;}.cls-10{fill:#327238;}.cls-11{fill:#ef9532;}.cls-12{fill:#a64329;}.cls-13{fill:#742b1d;}.cls-14{fill:#c2573e;}.cls-15{fill:#9a3c30;}</style></defs><title>Asset 1</title><g id="Layer_2" data-name="Layer 2"><g id="Layer_1-2" data-name="Layer 1"><polygon class="cls-1" points="67.17 80.9 97.06 57.88 108.38 85.74 67.17 80.9"/><polyline class="cls-1" points="48.47 26.59 79.76 23.53 59.47 64.11 58.64 65.77"/><polygon class="cls-2" points="53.43 179.62 59.02 176.05 72.25 176.05 78.61 181.4 82.68 176.05 77.85 144.76 75.81 127.97 82.68 103.29 93.88 84.47 85.45 83.05 79.63 87.77 78.87 81.16 73.65 81.16 69.45 81.16 64.11 89.55 53.43 78.36 45.54 63.35 32.56 62.08 37.65 77.85 57.5 95.15 63.22 146.29 61.06 162.06 50.63 172.75 53.43 179.62"/><polygon class="cls-3" points="6.35 54.89 0 41.72 20.35 11.45 41.22 3.82 88.03 0 105.33 8.9 117.28 26.46 108.13 45.54 121.86 52.16 128.99 62.08 122.12 77.34 108.38 85.74 67.17 80.9 62.08 73.02 50.88 68.18 28.24 60.04 6.35 54.89"/><polygon class="cls-4" points="108.13 45.54 83.07 51.27 55.91 66.91 62.08 73.02 97.06 57.88 108.13 45.54"/><polygon class="cls-5" points="36.59 63.05 41.6 77.72 53.43 78.36 47.43 66.94 36.59 63.05"/><polygon class="cls-6" points="41.6 77.72 60.42 91.97 64.11 89.55 53.43 78.36 41.6 77.72"/><polygon class="cls-5" points="60.42 91.97 67.55 116.14 74.92 89.68 74.92 81.81 67.17 80.9 64.11 89.55 60.42 91.97"/><polygon class="cls-6" points="82.68 103.29 69.33 134.2 73.14 166.51 77.98 172.9 74.92 178.3 78.61 181.4 82.68 176.05 76.01 129.54 82.68 103.29"/><polygon class="cls-6" points="74.92 81.81 77.22 96.55 79.76 91.97 79 82.29 74.92 81.81"/><polygon class="cls-7" points="97.06 57.88 121.86 52.16 108.13 45.54 97.06 57.88"/><polygon class="cls-8" points="121.86 52.16 109.46 69.33 108.38 85.74 122.12 77.34 128.99 62.08 121.86 52.16"/><polygon class="cls-4" points="97.06 57.88 109.46 69.33 121.86 52.16 97.06 57.88"/><polygon class="cls-4" points="6.35 54.89 48.47 26.59 0 41.72 6.35 54.89"/><polygon class="cls-4" points="20.35 11.45 24.23 19.72 55.34 9.54 87.77 9.54 88.03 0 41.22 3.82 20.35 11.45"/><polygon class="cls-4" points="105.33 8.9 109.46 26.59 117.28 26.46 105.33 8.9"/><polygon class="cls-8" points="48.47 26.59 79.76 23.53 74.92 9.86 55.34 9.54 48.47 26.59"/><polygon class="cls-8" points="109.46 26.59 83.07 51.27 108.13 45.54 117.28 26.46 109.46 26.59"/><polygon class="cls-8" points="79.76 23.53 88.03 31.17 83.07 51.27 55.91 66.91 79.76 23.53"/><polygon class="cls-9" points="24.23 19.72 48.47 26.59 55.34 9.54 24.23 19.72"/><polygon class="cls-9" points="62.08 73.02 97.06 57.88 67.17 80.9 62.08 73.02"/><polygon class="cls-10" points="87.77 9.54 98.9 23.53 88.03 31.17 79.76 23.53 74.92 9.86 87.77 9.54"/><polygon class="cls-7" points="98.9 23.53 109.46 26.59 105.33 8.9 88.03 0 87.77 9.54 98.9 23.53"/><polygon class="cls-8" points="28.66 39.9 62.08 73.02 28.24 60.04 6.35 54.89 28.66 39.9"/><polyline class="cls-11" points="63.22 146.29 63.09 147.21 61.06 162.06 63.22 161.43"/><polygon class="cls-5" points="73.14 166.51 81.67 169.82 82.68 176.05 78.61 181.4 74.92 178.3 77.98 172.9 73.14 166.51"/><polygon class="cls-12" points="20.71 55.26 13.8 56.94 13.69 63.96 18.55 67.4 23.73 67.29 27.02 60.04 20.71 55.26"/><polygon class="cls-13" points="13.82 56.91 19.61 60.26 13.7 63.93 13.82 56.91"/><polygon class="cls-14" points="19.61 60.26 27.02 60.04 23.73 67.29 19.61 60.26"/><polygon class="cls-13" points="23.73 67.29 13.7 63.93 18.55 67.4 23.73 67.29"/><polygon class="cls-15" points="19.61 60.26 20.71 55.26 13.82 56.91 19.61 60.26"/><polygon class="cls-12" points="8.24 54.98 6.34 58.83 9.54 61.6 13.02 60.69 14.97 58.25 12.89 53.91 8.24 54.98"/><polygon class="cls-13" points="6.33 58.81 10.12 57.43 9.53 61.58 6.33 58.81"/><polygon class="cls-14" points="10.12 57.43 12.89 53.91 14.97 58.25 10.12 57.43"/><polygon class="cls-13" points="14.97 58.25 9.53 61.58 13.02 60.69 14.97 58.25"/><polygon class="cls-15" points="10.12 57.43 8.24 54.98 6.33 58.81 10.12 57.43"/><polygon class="cls-12" points="104.55 35.83 102 40.98 106.3 44.7 110.95 43.47 113.57 40.2 110.78 34.39 104.55 35.83"/><polygon class="cls-13" points="101.99 40.95 107.07 39.1 106.28 44.67 101.99 40.95"/><polygon class="cls-14" points="107.07 39.1 110.78 34.39 113.57 40.2 107.07 39.1"/><polygon class="cls-13" points="113.57 40.2 106.28 44.67 110.95 43.47 113.57 40.2"/><polygon class="cls-15" points="107.07 39.1 104.55 35.83 101.99 40.95 107.07 39.1"/><polygon class="cls-12" points="11.73 30.89 9.3 25.68 3.71 26.71 1.76 31.11 2.67 35.2 8.95 36.65 11.73 30.89"/><polygon class="cls-13" points="9.33 25.69 7.6 30.81 3.74 26.71 9.33 25.69"/><polygon class="cls-14" points="7.6 30.81 8.95 36.65 2.67 35.2 7.6 30.81"/><polygon class="cls-13" points="2.67 35.2 3.74 26.72 1.76 31.11 2.67 35.2"/><polygon class="cls-15" points="7.6 30.81 11.73 30.89 9.33 25.69 7.6 30.81"/></g></g></svg>