<svg xmlns="http://www.w3.org/2000/svg" viewBox="0 0 80.7 90.72"><defs><style>.cls-1{fill:#c28843;}.cls-2{fill:#e6b35d;}.cls-3{fill:#81471e;}.cls-4{fill:#d3984f;}.cls-5{fill:none;stroke:#d3984f;stroke-miterlimit:10;}.cls-6{fill:#b0702e;}.cls-7{fill:#222;}.cls-8{fill:#948992;}.cls-9{fill:#5c5b61;}.cls-10{fill:#747278;}.cls-11{fill:#48474a;}.cls-12{fill:#3a393a;}.cls-13{fill:#9b98a4;}.cls-14{fill:#9d6f41;}.cls-15{fill:#532f18;}</style></defs><title>Asset 3</title><g id="Layer_2" data-name="Layer 2"><g id="Layer_1-2" data-name="Layer 1"><polygon class="cls-1" points="4.69 53.79 0 77.53 4.69 77.53 4.69 83.1 15.82 83.1 15.82 87.2 26.67 83.1 26.67 88.67 40.73 90.72 54.21 85.15 58.32 81.63 75.9 81.93 78.83 74.89 71.5 64.93 72.09 53.79 71.21 48.23 57.44 39.44 33.41 36.5 11.72 40.9 3.52 49.1 4.69 53.79"/><polyline class="cls-2" points="4.69 53.79 21.68 60.39 48.65 60.39 63.3 53.79 71.21 48.23 57.44 39.44 33.41 36.5 11.72 40.9 3.52 49.1"/><polygon class="cls-3" points="60.61 55 63.58 81.72 58.32 81.63 54.21 85.15 48.65 60.39 60.61 55"/><polygon class="cls-3" points="4.69 77.53 10.01 55.86 15.82 53.65 7.8 55 2.34 77.53 4.69 77.53"/><polyline class="cls-4" points="58.12 39.78 41.03 46.51 56.12 39.27 57.44 39.43"/><polygon class="cls-4" points="34.2 36.6 36.85 45.88 32.8 36.63 33.41 36.5 34.2 36.6"/><polygon class="cls-3" points="67.53 50.82 68.38 65.59 73.85 73.38 73.06 81.88 75.9 81.93 78.83 74.89 71.5 64.93 72.03 55 71.21 48.23 67.53 50.82"/><polygon class="cls-5" points="19.46 46.26 17.68 49.35 23.54 53.65 44.54 54.53 52.36 50.77 53.53 46.5 45.35 41.63 34.81 40.46 19.46 46.26"/><polygon class="cls-5" points="14.46 42.89 9.08 49.54 20.42 57.03 48.65 57.75 60.47 52.87 66.33 47.63 53.34 41.19 34.68 38.28 14.46 42.89"/><polygon class="cls-5" points="27.57 46.64 28.22 49.55 33.83 50.81 41.92 50.24 43.52 48.73 46.14 45.91 41.81 43.54 35.66 42.86 27.57 46.64"/><polyline class="cls-3" points="26.67 83.1 26.39 81.84 21.68 60.39 26.81 55.97 19.05 59.37 15.82 87.2"/><polyline class="cls-4" points="67.53 50.37 63.3 53.79 41.69 48.45 64.25 52.71 64.71 52.8"/><polygon class="cls-4" points="32.8 47.49 5.57 47.05 4.61 48.02 32.8 47.49"/><polygon class="cls-6" points="35.6 60.39 40.73 90.72 54.21 85.15 48.65 60.39 35.6 60.39"/><polyline class="cls-6" points="60.61 55 63.58 81.72 73.06 81.88 73.85 73.38 68.38 65.59 67.53 50.82"/><polygon class="cls-3" points="44.16 20.02 55.59 12.5 65.07 4.69 79.72 0 80.7 4.69 77.28 9.09 69.17 10.01 57.84 17.78 32.54 36.53 30.1 37.02 26.68 35.1 27.56 32.33 44.16 20.02"/><polygon class="cls-7" points="28.63 26.38 34.2 28.65 44.16 20.04 39 16.96 28.63 26.38"/><line class="cls-8" x1="34.2" y1="28.65" x2="28.63" y2="26.38"/><polygon class="cls-9" points="28.63 26.38 33.03 35.97 35.08 45.96 35.23 50.7 38.16 46.85 38.16 35.31 34.2 28.65 28.63 26.38"/><polygon class="cls-10" points="44.16 20.02 50.98 26.95 56.11 28.93 60.58 28.12 57.28 37.79 49.37 44.75 40.65 48.34 35.21 50.17 38.16 47.17 38.16 35.3 34.2 28.63 44.16 20.02"/><polygon class="cls-11" points="38.16 35.3 33.03 35.97 34.88 44.97 38.16 46.85 38.16 35.3"/><polygon class="cls-12" points="38.16 35.3 34.2 28.63 28.63 26.37 33.03 35.97 38.16 35.3"/><polygon class="cls-13" points="56.11 28.93 53.4 36.63 46.44 42.35 38.16 46.85 35.21 50.17 49.37 44.75 57.28 37.79 60.58 28.12 56.11 28.93"/><polygon class="cls-14" points="46.3 22.19 65.07 8.01 80.7 4.69 76.89 9.13 68.67 10.35 56.43 18.83 48.66 24.59 46.3 22.19"/><polygon class="cls-15" points="27.56 32.33 30.91 33.26 32.54 36.53 29.75 36.83 26.36 35.1 27.56 32.33"/><polygon class="cls-14" points="30.9 33.26 31.59 32.83 33.03 35.97 32.54 36.53 30.9 33.26"/><polygon class="cls-14" points="31.59 32.83 33.76 31.17 35.37 33.48 33.03 35.97 31.59 32.83"/><polyline class="cls-3" points="30.4 30.23 33.76 31.17 31.59 32.83 30.46 30.4"/></g></g></svg>