<svg xmlns="http://www.w3.org/2000/svg" viewBox="0 0 203.71 101.33"><defs><style>.cls-1{fill:#ffc626;}</style></defs><title>Asset 2</title><g id="Layer_2" data-name="Layer 2"><g id="Layer_1-2" data-name="Layer 1"><polygon class="cls-1" points="8.05 58.1 0 64.25 20.21 79.71 0 95.18 8.05 101.33 36.28 79.71 8.05 58.1"/><polygon class="cls-1" points="35.94 58.1 27.91 64.25 48.12 79.71 27.91 95.18 35.94 101.33 64.19 79.71 35.94 58.1"/><polygon class="cls-1" points="63.85 58.1 55.81 64.25 76.01 79.71 55.81 95.18 63.85 101.33 92.1 79.71 63.85 58.1"/><polygon class="cls-1" points="91.76 58.1 83.72 64.25 103.92 79.71 83.72 95.18 91.76 101.33 120 79.71 91.76 58.1"/><polygon class="cls-1" points="119.67 58.1 111.63 64.25 131.83 79.71 111.63 95.18 119.67 101.33 147.91 79.71 119.67 58.1"/><polygon class="cls-1" points="147.57 58.1 139.54 64.25 159.74 79.71 139.54 95.18 147.57 101.33 175.82 79.71 147.57 58.1"/><polygon class="cls-1" points="175.48 58.1 167.44 64.25 187.64 79.71 167.44 95.18 175.48 101.33 203.71 79.71 175.48 58.1"/><polygon class="cls-1" points="8.05 0 0 6.15 20.21 21.62 0 37.08 8.05 43.23 36.28 21.62 8.05 0"/><polygon class="cls-1" points="35.94 0 27.91 6.15 48.12 21.62 27.91 37.08 35.94 43.23 64.19 21.62 35.94 0"/><polygon class="cls-1" points="63.85 0 55.81 6.15 76.01 21.62 55.81 37.08 63.85 43.23 92.1 21.62 63.85 0"/><polygon class="cls-1" points="91.76 0 83.72 6.15 103.92 21.62 83.72 37.08 91.76 43.23 120 21.62 91.76 0"/><polygon class="cls-1" points="119.67 0 111.63 6.15 131.83 21.62 111.63 37.08 119.67 43.23 147.91 21.62 119.67 0"/><polygon class="cls-1" points="147.57 0 139.54 6.15 159.74 21.62 139.54 37.08 147.57 43.23 175.82 21.62 147.57 0"/><polygon class="cls-1" points="175.48 0 167.44 6.15 187.64 21.62 167.44 37.08 175.48 43.23 203.71 21.62 175.48 0"/></g></g></svg>