<svg xmlns="http://www.w3.org/2000/svg" xmlns:xlink="http://www.w3.org/1999/xlink" viewBox="0 0 287.26 247.54"><defs><style>.cls-1{fill:url(#linear-gradient);}.cls-2{fill:url(#linear-gradient-2);}.cls-3{fill:url(#linear-gradient-3);}.cls-4{fill:url(#linear-gradient-4);}.cls-10,.cls-11,.cls-12,.cls-13,.cls-16,.cls-17,.cls-5,.cls-6,.cls-9{fill:#010101;}.cls-5{opacity:0.3;}.cls-10,.cls-11,.cls-12,.cls-13,.cls-14,.cls-16,.cls-17,.cls-18,.cls-19,.cls-5,.cls-7,.cls-8,.cls-9{isolation:isolate;}.cls-14,.cls-18,.cls-19,.cls-7,.cls-8{fill:#fff;}.cls-7{opacity:0.11;}.cls-8{opacity:0.2;}.cls-9{opacity:0.08;}.cls-10{opacity:0.28;}.cls-11{opacity:0.39;}.cls-12{opacity:0.22;}.cls-13{opacity:0.21;}.cls-14{opacity:0.05;}.cls-15{fill:url(#linear-gradient-5);}.cls-16{opacity:0.17;}.cls-17{opacity:0.13;}.cls-18{opacity:0.06;}.cls-19{opacity:0.14;}.cls-20{fill:#a6c839;}.cls-21{fill:#fdc169;}.cls-22{fill:#cc8a38;}.cls-23{fill:#e39b4c;}</style><linearGradient id="linear-gradient" x1="3148.37" y1="-71.91" x2="3134.45" y2="35.82" gradientTransform="translate(3366.71 501.49) rotate(-171.59)" gradientUnits="userSpaceOnUse"><stop offset="0" stop-color="#876237"/><stop offset="1" stop-color="#faa645"/></linearGradient><linearGradient id="linear-gradient-2" x1="47.3" y1="138.68" x2="38.13" y2="78.17" gradientTransform="matrix(1, 0, 0, -1, 0, 254.24)" gradientUnits="userSpaceOnUse"><stop offset="0" stop-color="#81371a"/><stop offset="1" stop-color="#ce5927"/></linearGradient><linearGradient id="linear-gradient-3" x1="170.26" y1="127.62" x2="171.17" y2="68.03" xlink:href="#linear-gradient-2"/><linearGradient id="linear-gradient-4" x1="143.71" y1="138.03" x2="143.25" y2="237.96" xlink:href="#linear-gradient-2"/><linearGradient id="linear-gradient-5" x1="235.95" y1="131.59" x2="220.25" y2="253.07" gradientTransform="matrix(1, 0, 0, -1, 0, 254.24)" xlink:href="#linear-gradient"/></defs><title>Asset 1</title><g id="Layer_2" data-name="Layer 2"><g id="Layer_1-2" data-name="Layer 1"><polygon class="cls-1" points="247.51 72.35 259.16 67.66 258.37 54.24 256.4 10.64 264.97 53.51 267.06 72.45 255.97 81.29 247.51 72.35"/><polygon class="cls-2" points="43.45 69.78 39.78 121.58 31.07 129.37 23.74 170.62 39.32 170.62 37.03 162.83 43.45 136.24 61.33 123.41 43.45 69.78"/><polygon class="cls-3" points="157.13 105.99 151.17 135.79 151.17 145.87 157.59 170.62 173.17 170.62 167.21 161.46 165.38 146.33 189.67 128.45 157.13 105.99"/><polygon class="cls-4" points="263.02 120.2 260.73 77.57 253.85 62.9 227.26 53.27 198.84 22.62 170.88 10.64 120.92 17.52 87.91 30.35 48.86 33.96 31.07 49.9 24.24 76.1 29.01 76.65 35.06 51.9 42.24 48.8 35.06 64.9 42.07 94.53 53.08 123.87 49.41 132.12 60.87 160.08 63.62 170.62 77.37 170.62 73.24 162.37 66.37 133.95 69.58 126.62 77.83 103.24 98 112.86 122.75 117.91 158.05 118.37 167.12 132.67 179.59 144.04 193.8 150.45 200.04 162.14 200.68 170.62 216.72 170.62 212.87 160.77 204.8 147.24 204.8 137.62 204.34 117.91 219.01 119.28 239.64 135.33 251.73 133.77 251.56 128.45 263.02 120.2"/><polygon class="cls-5" points="263.02 120.2 260.32 115.53 248.72 114.33 247.51 125.66 251.56 128.45 263.02 120.2"/><polygon class="cls-6" points="238.95 94.35 231.46 90.63 234.03 95.42 238.95 94.35"/><polygon class="cls-7" points="242.98 93.57 241.19 86.11 232.69 86.11 231.46 90.63 238.95 94.35 242.98 93.57"/><polygon class="cls-8" points="260.32 115.53 256.4 78.14 260.73 77.57 263.02 120.2 260.32 115.53"/><polygon class="cls-9" points="248.72 114.33 260.32 115.53 256.4 78.14 249.8 77.57 248.72 114.33"/><polygon class="cls-6" points="250.51 121.39 251.11 117.17 254.52 117.54 252.15 121.94 250.51 121.39"/><polygon class="cls-6" points="260.92 121.71 257.59 124.1 256.77 123.13 260.32 119.85 260.92 121.71"/><polygon class="cls-8" points="249.8 77.57 242.98 63.64 253.85 62.9 260.73 77.57 256.4 78.14 249.8 77.57"/><polygon class="cls-9" points="236.09 77.22 249.8 77.57 242.98 63.64 224.09 70.24 236.09 77.22"/><polygon class="cls-10" points="241.19 86.11 249.8 77.57 248.72 114.33 242.98 93.57 241.19 86.11"/><polygon class="cls-11" points="236.09 77.22 249.8 77.57 241.19 86.11 232.69 86.11 231.46 90.63 224.77 86.11 236.09 77.22"/><polygon class="cls-8" points="248.72 114.33 242.98 93.57 234.03 95.42 232.91 117.91 248.72 114.33"/><polygon class="cls-9" points="247.51 125.66 238.95 127.75 232.91 117.91 248.72 114.33 247.51 125.66"/><polygon class="cls-5" points="247.26 126.82 249.18 133.48 247.9 133.56 247.26 126.82"/><polygon class="cls-5" points="239.95 128.73 241.66 134.7 240.51 134.77 239.95 128.73"/><polygon class="cls-5" points="243.35 128.08 245.57 134.16 244.12 134.25 243.35 128.08"/><polygon class="cls-12" points="219.01 119.28 232.91 117.91 238.95 127.75 231.15 128.73 219.01 119.28"/><polygon class="cls-13" points="234.03 95.42 231.46 90.63 224.77 86.11 220.84 98.88 234.03 95.42"/><polygon class="cls-14" points="219.01 119.28 220.84 98.88 234.03 95.42 232.91 117.91 219.01 119.28"/><polygon class="cls-9" points="77.83 103.24 61.33 81.29 41.86 92.26 35.06 64.9 85.15 76.48 154.93 86.11 224.77 86.11 220.84 98.88 219.01 119.28 204.34 117.91 174.31 105.74 158.05 118.37 122.75 117.91 98 112.86 77.83 103.24"/><polygon class="cls-8" points="42.24 48.8 48.86 33.96 89.28 29.82 120.92 17.52 170.88 10.64 198.84 22.62 227.26 53.27 253.85 62.9 242.98 63.64 224.09 70.24 184.75 50.31 159.7 43 126 51.79 89.62 51.16 42.24 48.8"/><polygon class="cls-15" points="236.09 77.22 224.09 70.24 225.61 54.39 237.22 7.06 219.11 52.43 213.45 73.98 224.77 86.11 236.09 77.22"/><polygon class="cls-6" points="24.24 76.1 29.01 76.65 32.73 98.66 28.49 114.33 22.22 98.88 24.24 76.1"/><polygon class="cls-6" points="37.03 162.83 39.32 170.62 23.74 170.62 25.26 162.07 37.03 162.83"/><polygon class="cls-6" points="63.62 170.62 77.37 170.62 73.24 162.37 61.7 163.26 63.62 170.62"/><polygon class="cls-6" points="167.21 161.46 173.17 170.62 157.59 170.62 156.05 164.68 167.21 161.46"/><polygon class="cls-6" points="200.04 162.14 212.87 160.77 216.72 170.62 200.68 170.62 200.04 162.14"/><polygon class="cls-14" points="170.88 10.64 198.84 22.62 184.75 50.31 204.34 117.91 174.31 105.74 159.7 43 170.88 10.64"/><polygon class="cls-9" points="120.92 17.52 126 51.79 129.91 82.65 122.75 117.91 98 112.86 100.08 78.54 96.03 51.27 89.28 29.82 120.92 17.52"/><polygon class="cls-16" points="61.33 81.29 58.14 70.24 65.62 49.96 71.2 32.4 48.86 33.96 35.06 64.9 41.86 92.26 61.33 81.29"/><polygon class="cls-8" points="174.31 105.74 204.34 117.91 204.8 147.24 212.87 160.77 206.45 161.46 197.58 148.33 174.31 105.74"/><polygon class="cls-8" points="165.38 146.33 174.31 139.75 167.12 132.67 158.66 143.86 161.4 163.13 167.21 161.46 165.38 146.33"/><polygon class="cls-8" points="61.33 81.29 77.83 103.24 66.37 133.95 73.24 162.37 65.63 162.96 59.65 133.56 61.33 123.41 61.33 81.29"/><polygon class="cls-8" points="49.41 132.12 43.45 136.24 37.03 162.83 31.53 162.37 38.03 131.16 53.08 123.87 49.41 132.12"/><polygon class="cls-8" points="66.37 133.95 59.65 133.56 49.41 132.12 53.08 123.87 61.7 121.94 69.58 126.62 66.37 133.95"/><polygon class="cls-8" points="43.45 136.24 38.03 131.16 31.07 129.37 39.78 121.58 44.39 128.08 49.41 132.12 43.45 136.24"/><polygon class="cls-8" points="48.86 33.96 31.07 49.9 24.24 76.1 26.39 76.35 33.55 50.36 45.03 42.61 48.86 33.96"/><polygon class="cls-8" points="193.8 150.45 199.01 150.45 204.8 147.24 204.8 134.25 193.59 141.04 179.59 144.04 193.8 150.45"/><polygon class="cls-17" points="167.12 132.67 183.26 122.12 204.48 126.82 204.34 117.91 174.31 105.74 158.05 118.37 167.12 132.67"/><polygon class="cls-18" points="165.38 146.33 158.66 143.86 151.17 145.87 156.05 164.68 167.21 161.46 165.38 146.33"/><polygon class="cls-19" points="225.61 54.39 238.95 0 222.18 54.39 219.01 71.39 229.88 82.09 236.09 77.22 224.09 70.24 225.61 54.39"/><polygon class="cls-19" points="260.73 77.57 267.06 72.45 264.97 53.51 256.4 10.64 261.84 54.24 263.02 70.24 258.51 72.84 260.73 77.57"/><rect class="cls-20" y="171.44" width="287.26" height="9.89"/><polygon class="cls-21" points="0 181.32 89.28 247.54 243.35 243.79 260.09 193.6 287.26 181.32 0 181.32"/><polygon class="cls-22" points="260.09 193.6 89.28 247.54 243.35 243.79 260.09 193.6"/><polygon class="cls-23" points="0 181.32 155.82 225.52 89.28 247.54 0 181.32"/></g></g></svg>