<svg width="151" height="51" viewBox="0 0 151 51" fill="none" xmlns="http://www.w3.org/2000/svg">
<path d="M137.459 50.8165H13.02C5.89909 50.8165 0.12793 45.0656 0.12793 37.9696V12.9656C0.12793 5.86963 5.89909 0.118713 13.02 0.118713H137.459C144.58 0.118713 150.351 5.86963 150.351 12.9656V37.9696C150.351 45.0656 144.58 50.8165 137.459 50.8165Z" fill="#C8C9CB"/>
<path d="M82.9236 27.925C82.9322 27.9423 82.9409 27.9509 82.9582 27.9509C82.9582 28.063 83.0447 28.0974 83.1313 28.1319C83.1226 28.1406 83.1313 28.1578 83.1399 28.1664C83.1918 28.2785 83.2956 28.2871 83.3476 28.2095C83.4254 28.0974 83.4514 27.9595 83.3043 27.856C83.3043 27.8215 83.3043 27.7957 83.3043 27.7612C83.3908 27.7526 83.4427 27.7008 83.46 27.6146C83.9619 27.5887 84.4637 27.5715 84.9656 27.6232C84.9656 27.6836 85.0002 27.7095 85.0608 27.7267C85.0608 30.3392 85.0608 32.9517 85.0608 35.5642C84.9137 35.8229 84.9656 36.1246 84.8791 36.3919C84.8617 36.435 84.8704 36.4954 84.9223 36.5299C84.9137 36.5644 84.9137 36.5902 84.905 36.6247C84.8444 36.642 84.8358 36.6937 84.8271 36.7368C84.6974 37.1593 84.5503 37.5732 84.308 37.9439C84.282 37.9784 84.2734 38.0215 84.2993 38.0646C84.2301 38.194 84.1263 38.2974 84.0225 38.4009C83.8581 38.444 83.7629 38.5388 83.7196 38.7027C83.6937 38.7285 83.6591 38.7458 83.6331 38.7716C83.5206 38.7458 83.4773 38.7975 83.46 38.901C83.4514 38.9096 83.4427 38.9182 83.4254 38.9268C83.2697 38.8923 83.1745 39.0131 83.0707 39.082C82.8198 39.2372 82.5083 39.2459 82.2833 39.4355C82.2487 39.4442 82.2227 39.4442 82.1881 39.4528C81.9372 39.4183 81.6949 39.4528 81.47 39.5907C81.2104 39.5907 80.9422 39.5907 80.6826 39.5907C80.449 39.5045 80.224 39.3752 79.9644 39.4528C79.9298 39.4442 79.9039 39.4442 79.8693 39.4355C79.5924 39.2631 79.2982 39.1424 78.9867 39.0648C78.9781 39.0562 78.9608 39.0562 78.9521 39.0475C78.9434 38.9699 78.9088 38.9441 78.831 38.9699C78.8223 38.9613 78.805 38.9613 78.7964 38.9527C78.7877 38.8751 78.7531 38.8492 78.6752 38.8751C78.6666 38.8665 78.6493 38.8579 78.6406 38.8492C78.632 38.7458 78.58 38.694 78.4676 38.7199C78.4589 38.7113 78.4416 38.7027 78.433 38.694C78.3897 38.5647 78.3118 38.4699 78.1734 38.4526C77.8273 38.1508 77.5937 37.7542 77.3687 37.3662C77.2649 37.1938 77.3081 37.0731 77.5071 37.0041C77.7494 36.9179 77.983 36.823 78.2166 36.7109C78.8396 36.4092 78.8396 36.4178 79.1944 37.0213C79.1944 37.03 79.203 37.0386 79.203 37.0472C79.2809 37.2714 79.4453 37.4093 79.653 37.5042C79.7135 37.6335 79.8173 37.6939 79.9558 37.7025C80.1202 37.8836 80.3278 37.9525 80.5701 37.9525C80.648 37.9353 80.7259 37.9094 80.8037 37.9525C80.8297 38.0129 80.847 38.0732 80.9249 38.0043C81.0114 38.0043 81.1066 38.0474 81.1758 37.9612C81.3056 37.918 81.444 37.9267 81.5738 37.9525C81.669 37.9784 81.7469 37.9612 81.7815 37.8577C81.8074 37.8491 81.842 37.8404 81.868 37.8404C81.9199 37.8749 81.9632 37.8663 81.9805 37.7973C82.1276 37.7542 82.2573 37.6853 82.3785 37.5818C82.6467 37.5128 82.8025 37.2886 82.9322 37.0817C83.3303 36.4695 83.4081 35.7711 83.3822 35.0555C83.3735 34.8831 83.2783 34.8572 83.1399 34.9175C83.0707 34.952 83.0188 35.0038 82.9582 35.0469C82.4304 35.4866 81.8161 35.7108 81.1325 35.7453C80.5961 35.7711 80.0856 35.6591 79.5837 35.4694C78.7617 35.159 78.1388 34.6158 77.6542 33.8915C77.1437 33.1241 76.9707 32.2792 76.9966 31.3652C77.0139 30.6496 77.2389 30.0116 77.5764 29.3908C77.7581 29.0545 78.0522 28.8131 78.2426 28.4854C78.2686 28.4596 78.3032 28.4337 78.3291 28.4078C78.3637 28.3992 78.3983 28.4078 78.4243 28.3906C79.004 27.9078 79.6443 27.5887 80.3971 27.468C80.9941 27.3732 81.5565 27.4335 82.1276 27.6232C82.3785 27.7095 82.5775 27.8905 82.8457 27.9423C82.8717 27.925 82.8976 27.925 82.9236 27.925ZM81.1585 28.9683C80.5442 28.9424 80.0337 29.1752 79.601 29.5805C78.4156 30.6927 78.433 32.512 79.6443 33.5897C80.6134 34.4606 82.1016 34.3485 82.9063 33.2449C83.5725 32.3395 83.6417 31.348 83.1832 30.3478C82.7938 29.5115 82.1276 28.9942 81.1585 28.9683Z" fill="white"/>
<path d="M62.3736 27.2955C64.7876 27.2783 66.6825 29.1234 66.6825 31.5462C66.6825 34.0293 64.7271 35.84 62.3303 35.8141C59.9942 35.7882 58.0647 34.0552 58.0647 31.5376C58.0561 29.0975 59.9509 27.2869 62.3736 27.2955ZM64.8222 31.5462C64.8395 31.2272 64.7703 30.8909 64.6578 30.5633C64.156 29.1493 62.4169 28.3992 61.0671 29.3303C59.5962 30.3391 59.4578 32.5119 60.92 33.6758C61.5516 34.1759 62.2698 34.3139 63.0312 34.0897C64.1387 33.7621 64.8828 32.6584 64.8222 31.5462Z" fill="white"/>
<path d="M113.743 29.4426C113.743 31.3912 113.743 33.3398 113.743 35.2798C113.743 35.6246 113.717 35.6505 113.363 35.6419C112.93 35.6419 112.506 35.6419 112.073 35.6419C111.727 35.6419 111.684 35.5902 111.684 35.2539C111.684 31.4861 111.684 27.7182 111.684 23.9504C111.684 23.252 111.589 23.2692 112.368 23.2779C112.731 23.2779 113.094 23.2865 113.458 23.2779C113.674 23.2692 113.752 23.3641 113.752 23.5796C113.743 25.5282 113.743 27.4854 113.743 29.4426Z" fill="white"/>
<path d="M86.5061 29.4684C86.5061 27.5112 86.5061 25.554 86.5061 23.6054C86.5061 23.364 86.5753 23.2691 86.8262 23.2777C87.2589 23.295 87.6828 23.2864 88.1155 23.2777C88.3404 23.2691 88.4356 23.3467 88.4356 23.5795C88.4269 27.5198 88.4356 31.4687 88.4356 35.409C88.4356 35.6245 88.3577 35.7108 88.1414 35.7021C87.7001 35.6935 87.2675 35.6849 86.8262 35.7021C86.5753 35.7108 86.5061 35.6073 86.5061 35.3745C86.5148 33.4087 86.5061 31.4342 86.5061 29.4684Z" fill="white"/>
<path d="M51.5229 15.7506C51.5229 14.9056 51.5316 14.0521 51.5229 13.2071C51.5229 12.9657 51.6008 12.8881 51.8517 12.8967C52.7689 12.9139 53.686 12.9053 54.6032 12.9053C54.906 12.9053 54.932 12.9226 54.932 13.233C54.9406 13.6899 54.932 13.6899 54.4647 13.6813C53.8504 13.6813 53.2361 13.6899 52.6218 13.6727C52.4055 13.6727 52.3189 13.7417 52.3276 13.9658C52.3362 14.3538 52.3449 14.7418 52.3276 15.1212C52.3189 15.3281 52.3968 15.4057 52.6045 15.4057C53.1842 15.3971 53.7639 15.3971 54.3436 15.4057C54.6378 15.4057 54.6637 15.4316 54.6637 15.7506C54.6637 16.13 54.6291 16.1645 54.335 16.1645C53.7726 16.1645 53.2101 16.1731 52.6391 16.1558C52.4141 16.1472 52.3189 16.2334 52.3189 16.4662C52.3276 16.8197 52.3189 17.1733 52.3189 17.5268C52.3189 17.8199 52.3536 17.8458 52.665 17.8458C53.314 17.8458 53.9629 17.8544 54.6118 17.8372C54.8455 17.8285 54.9406 17.9148 54.9233 18.1389C54.9233 18.1993 54.9147 18.2596 54.9233 18.3114C54.9493 18.5528 54.8541 18.639 54.6032 18.639C53.6687 18.6304 52.7343 18.6304 51.7998 18.639C51.5748 18.639 51.5056 18.5528 51.5056 18.3372C51.5229 17.4836 51.5229 16.6128 51.5229 15.7506Z" fill="white"/>
<path d="M65.6794 16.1731C65.6794 16.8974 65.6707 17.613 65.688 18.3373C65.688 18.5701 65.6102 18.6477 65.3852 18.6477C64.8747 18.6304 64.8747 18.7339 64.8747 18.1562C64.8747 16.7767 64.8747 15.3885 64.8747 14.009C64.8747 13.7158 64.8488 13.69 64.5373 13.6986C64.1998 13.7072 63.8624 13.6986 63.5249 13.7072C63.3605 13.7072 63.2913 13.6296 63.274 13.4916C63.274 13.4744 63.274 13.4572 63.274 13.4399C63.2653 12.8105 63.3 12.9226 63.7672 12.9226C64.8228 12.9226 65.8697 12.9226 66.9253 12.9226C67.2541 12.9226 67.2714 12.9398 67.2714 13.3192C67.2714 13.6813 67.2541 13.7072 66.9167 13.7072C66.6052 13.7072 66.2937 13.7158 65.9822 13.6986C65.7659 13.69 65.6794 13.7589 65.6794 13.9831C65.688 14.6987 65.6794 15.4316 65.6794 16.1731Z" fill="white"/>
<path d="M75.0242 28.951C75.2059 29.0286 75.2578 29.2097 75.3443 29.3562C75.9327 30.3305 76.0451 31.3996 75.8375 32.486C75.6731 33.3223 75.2751 34.0552 74.6262 34.6415C74.5483 34.7105 74.4358 34.7536 74.4272 34.8829C74.0291 35.1675 73.6311 35.4261 73.1639 35.5899C72.7745 35.7279 72.3852 35.8055 71.9785 35.8314C71.719 35.771 71.4594 35.8141 71.2085 35.8055C70.9748 35.8486 70.7672 35.7193 70.5422 35.7193C70.3865 35.7106 70.248 35.633 70.101 35.5986C70.0923 35.5037 70.0144 35.5123 69.9539 35.4865C69.2876 35.1933 68.6906 34.7881 68.2407 34.2018C68.2061 34.1587 68.1542 34.1156 68.1628 34.0466C68.2753 34.0466 68.3272 34.1328 68.3791 34.2018C68.5349 34.4001 68.7252 34.5639 68.9069 34.7364C69.6424 35.4003 70.5422 35.6503 71.494 35.702C72.3592 35.7538 73.1985 35.521 73.934 35.0554C74.6435 34.607 75.1799 33.9949 75.4914 33.2016C75.6558 32.7792 75.7683 32.3481 75.7942 31.8911C75.8288 31.2186 75.7683 30.5547 75.5087 29.9253C75.3789 29.589 75.1366 29.3045 75.0242 28.951Z" fill="white"/>
<path d="M84.8872 36.6075C84.8093 37.142 84.6276 37.6335 84.2729 38.0473C84.2556 38.0042 84.2642 37.9697 84.2815 37.9266C84.5238 37.5559 84.6795 37.142 84.8007 36.7195C84.8266 36.6764 84.8353 36.6247 84.8872 36.6075Z" fill="white"/>
<path d="M83.4073 38.9097C83.0872 39.2028 82.6893 39.358 82.2654 39.4183C82.4903 39.22 82.8017 39.22 83.0526 39.0649C83.1651 38.9959 83.2516 38.8666 83.4073 38.9097Z" fill="white"/>
<path d="M85.0432 35.5555C85.0951 35.8918 85.0259 36.2108 84.9047 36.5211C84.8528 36.4867 84.8528 36.4349 84.8615 36.3832C84.948 36.1073 84.9047 35.8142 85.0432 35.5555Z" fill="white"/>
<path d="M79.8611 39.4181C79.5323 39.375 79.2294 39.2715 78.9785 39.0474C79.2987 39.125 79.5928 39.2457 79.8611 39.4181Z" fill="white"/>
<path d="M80.6742 39.5648C80.4146 39.6165 80.181 39.5389 79.9561 39.4268C80.2156 39.3578 80.4406 39.4872 80.6742 39.5648Z" fill="white"/>
<path d="M82.1788 39.4353C81.9538 39.5646 81.7114 39.5819 81.4604 39.5733C81.6855 39.4267 81.9278 39.4008 82.1788 39.4353Z" fill="white"/>
<path d="M83.2787 28.0374C83.2874 27.977 83.2874 27.9165 83.296 27.8474C83.4434 27.9511 83.4174 28.0893 83.3394 28.2016C83.2874 28.2793 83.1833 28.2793 83.1313 28.1584C83.2094 28.1498 83.3047 28.167 83.2787 28.0374Z" fill="white"/>
<path d="M84.006 38.3837C83.9539 38.5311 83.8495 38.6351 83.7017 38.6871C83.7451 38.5311 83.8408 38.4271 84.006 38.3837Z" fill="white"/>
<path d="M78.443 38.6778C78.3039 38.6518 78.2082 38.5738 78.1821 38.4352C78.3213 38.4611 78.3995 38.5478 78.443 38.6778Z" fill="white"/>
<path d="M83.2955 27.7616C83.2608 27.6232 83.3215 27.58 83.4516 27.6146C83.4342 27.6924 83.3822 27.7443 83.2955 27.7616Z" fill="white"/>
<path d="M78.64 38.8322C78.5446 38.8322 78.4926 38.7889 78.4666 38.7025C78.5793 38.6766 78.6314 38.7284 78.64 38.8322Z" fill="white"/>
<path d="M83.6164 38.7543C83.5904 38.8321 83.5383 38.8839 83.4429 38.8839C83.4602 38.7802 83.5036 38.7284 83.6164 38.7543Z" fill="white"/>
<path d="M80.9085 37.9096C80.9085 37.9357 80.9085 37.9531 80.9173 37.9792C80.8388 38.0487 80.8213 37.9792 80.7952 37.927C80.8301 37.8922 80.8737 37.8922 80.9085 37.9096Z" fill="white"/>
<path d="M84.9565 27.6145C85.043 27.5973 85.069 27.6318 85.0517 27.718C84.9911 27.7008 84.9565 27.6749 84.9565 27.6145Z" fill="white"/>
<path d="M78.7967 38.9361C78.7356 38.9448 78.692 38.9187 78.6746 38.8579C78.7443 38.8318 78.7879 38.8579 78.7967 38.9361Z" fill="white"/>
<path d="M78.9439 39.0309C78.8828 39.0396 78.8392 39.0135 78.8218 38.9527C78.9003 38.9266 78.9439 38.9527 78.9439 39.0309Z" fill="white"/>
<path d="M54.0677 28.6838C54.9676 28.6838 55.8674 28.6925 56.7759 28.6752C57.0009 28.6752 57.0615 28.7614 57.0788 28.9684C57.1567 29.5805 57.1307 30.1927 57.0528 30.7962C56.9057 31.8999 56.5164 32.9 55.7809 33.7536C55.132 34.5124 54.3273 35.0556 53.4015 35.4004C52.5449 35.7194 51.6537 35.8229 50.7452 35.7712C48.7725 35.6591 47.1458 34.8486 45.8825 33.3398C45.199 32.5207 44.7664 31.5636 44.5501 30.5031C44.3511 29.546 44.377 28.5976 44.6106 27.6664C44.9048 26.4852 45.5018 25.4678 46.3757 24.6056C47.4227 23.5796 48.6686 22.9502 50.1049 22.7605C52.0517 22.5018 53.8168 22.9674 55.305 24.2952C55.4435 24.4159 55.4694 24.5021 55.3223 24.6401C55.0109 24.9419 54.708 25.2609 54.4052 25.5713C54.31 25.6747 54.2235 25.6747 54.1197 25.5885C53.6178 25.1574 53.0554 24.8211 52.4151 24.6315C51.7229 24.4332 51.0307 24.3556 50.3039 24.4849C49.5512 24.6142 48.8763 24.8815 48.2793 25.3299C47.4486 25.9506 46.8603 26.7439 46.5488 27.7354C46.3844 28.2786 46.2719 28.8218 46.2979 29.3908C46.3584 30.5548 46.7564 31.5895 47.5438 32.4775C48.1754 33.1846 48.9455 33.6588 49.854 33.9002C50.7539 34.1416 51.6537 34.1071 52.5449 33.8226C53.5053 33.5122 54.2667 32.9604 54.8118 32.1154C55.0974 31.6671 55.2185 31.1584 55.3223 30.6497C55.3483 30.5376 55.2877 30.4514 55.1752 30.4255C55.0887 30.4083 54.9935 30.391 54.8984 30.391C53.7043 30.391 52.5016 30.3996 51.3076 30.4083C51.1346 30.4083 51.0567 30.3393 51.0653 30.1668C51.0653 29.753 51.074 29.3477 51.0653 28.9339C51.0653 28.7269 51.1519 28.658 51.3595 28.658C52.2594 28.6925 53.1679 28.6838 54.0677 28.6838Z" fill="white"/>
<path d="M123.026 32.7965C123.026 33.6242 123.018 34.4605 123.026 35.2882C123.026 35.4952 122.974 35.59 122.741 35.5814C122.299 35.5641 121.867 35.5728 121.426 35.5814C121.218 35.59 121.131 35.5124 121.14 35.3055C121.149 35.1503 121.149 34.9865 121.149 34.8313C121.149 34.6674 121.071 34.6416 120.941 34.7192C120.889 34.7537 120.846 34.8054 120.803 34.8571C120.292 35.4434 119.66 35.7624 118.873 35.8056C118.181 35.84 117.523 35.7711 116.883 35.4865C115.923 35.0727 115.239 34.0811 115.222 33.0379C115.196 31.8135 115.801 31.0117 116.848 30.4599C117.8 29.9598 118.821 29.9339 119.851 30.0374C120.188 30.0719 120.526 30.184 120.837 30.3392C120.915 30.3737 121.01 30.434 121.097 30.3564C121.183 30.2788 121.157 30.1754 121.131 30.0719C120.95 29.2959 120.422 28.8648 119.678 28.6665C118.968 28.4768 118.293 28.5544 117.679 28.9769C117.532 29.0804 117.419 29.2183 117.316 29.3563C117.22 29.4942 117.117 29.5201 116.97 29.4597C116.528 29.2787 116.087 29.089 115.646 28.8993C115.481 28.8303 115.473 28.7355 115.559 28.5803C116.087 27.7095 116.857 27.2094 117.835 26.968C118.864 26.7179 119.868 26.7869 120.837 27.1576C121.927 27.5801 122.637 28.3561 122.914 29.5115C123.018 29.9512 123.035 30.3909 123.035 30.8306C123.018 31.4859 123.026 32.1412 123.026 32.7965ZM119.271 31.5032C118.735 31.5204 118.146 31.6239 117.636 32.0032C117.108 32.3912 116.987 33.0982 117.376 33.5724C117.618 33.8656 117.956 34.0035 118.311 34.0811C119.6 34.357 120.828 33.3655 121.105 32.2446C121.149 32.0636 121.079 31.9343 120.915 31.8567C120.413 31.6325 119.894 31.5118 119.271 31.5032Z" fill="white"/>
<path d="M126.479 39.4269C126.219 39.4269 125.959 39.4183 125.691 39.4269C125.492 39.4355 125.466 39.3493 125.544 39.1941C126.107 38.0129 126.66 36.8317 127.231 35.6591C127.361 35.4004 127.326 35.1848 127.214 34.9434C126.634 33.6501 126.063 32.3568 125.492 31.0635C124.982 29.9168 124.471 28.77 123.952 27.6233C123.84 27.3646 123.866 27.3043 124.142 27.3043C124.644 27.3043 125.155 27.3129 125.657 27.2956C125.838 27.2956 125.942 27.3819 126.003 27.5284C126.401 28.4855 126.79 29.4512 127.188 30.4082C127.508 31.1928 127.837 31.9688 128.157 32.7534C128.192 32.8396 128.244 32.9259 128.347 32.9259C128.469 32.9259 128.477 32.8224 128.512 32.7362C128.858 31.8395 129.204 30.9428 129.55 30.0375C129.844 29.2701 130.147 28.5114 130.424 27.7354C130.58 27.3043 130.58 27.287 131.047 27.287C131.523 27.287 131.99 27.287 132.466 27.287C132.717 27.287 132.743 27.3387 132.648 27.5715C132.085 28.8476 131.532 30.1151 130.969 31.3911C130.511 32.4344 130.043 33.4777 129.585 34.5209C129.083 35.6591 128.598 36.7972 128.105 37.9353C127.923 38.3578 127.733 38.7803 127.551 39.2027C127.482 39.3666 127.378 39.4269 127.197 39.4183C126.963 39.4097 126.721 39.4183 126.479 39.4269C126.479 39.4183 126.479 39.4183 126.479 39.4269Z" fill="white"/>
<path d="M93.4447 27.3818C95.1232 27.3386 96.3259 28.3474 96.9575 29.7011C97.044 29.8908 97.1133 30.0891 97.1911 30.2788C97.2431 30.4081 97.2431 30.4943 97.0873 30.5547C96.0577 30.9685 95.0367 31.3996 94.0157 31.8135C93.3235 32.098 92.6313 32.3739 91.9391 32.6585C91.593 32.805 91.593 32.8826 91.8007 33.1758C92.7179 34.5122 94.6733 34.426 95.5905 33.2275C95.7462 33.0292 95.8673 32.9775 96.075 33.1499C96.3519 33.3655 96.6547 33.5552 96.9575 33.7362C97.1652 33.8655 97.1652 33.9863 97.0181 34.1587C96.3173 35.0295 95.4001 35.5296 94.3012 35.6934C92.2506 35.9952 90.2173 34.8053 89.7068 32.6671C89.3607 31.2013 89.603 29.8563 90.5461 28.6664C91.0566 28.0198 91.7574 27.6404 92.5621 27.4594C92.8649 27.4076 93.1678 27.3559 93.4447 27.3818ZM92.216 29.4424C92.1381 29.4166 92.1035 29.4424 92.1035 29.52C92.0343 29.589 91.9651 29.658 91.9045 29.7183C91.8007 29.727 91.7401 29.7701 91.7747 29.8822C91.7661 29.8908 91.7661 29.908 91.7574 29.9166C91.394 30.2184 91.3162 30.6495 91.2643 31.0634C91.2123 31.4859 91.2902 31.5203 91.6882 31.3479C91.7315 31.3307 91.7834 31.3134 91.8267 31.2962C92.3891 31.0634 92.9601 30.8392 93.5225 30.6064C93.9984 30.4081 94.4743 30.2012 94.9588 30.0201C95.0627 29.977 95.1405 29.9425 95.1405 29.8218C95.1405 29.7097 95.1578 29.5718 94.9848 29.5631C94.9156 29.4942 94.8463 29.4252 94.7858 29.3648C94.7771 29.2614 94.7339 29.2096 94.6214 29.2355C94.6127 29.2269 94.5954 29.2183 94.5868 29.2096C94.5954 29.132 94.5349 29.1148 94.4829 29.0889C93.9638 28.8303 93.4273 28.7872 92.8822 29.0113C92.7698 29.0544 92.6054 29.0372 92.5621 29.2096C92.5535 29.2183 92.5448 29.2269 92.5275 29.2269C92.3891 29.2183 92.2852 29.2527 92.2593 29.4079C92.2333 29.4252 92.2247 29.4338 92.216 29.4424Z" fill="white"/>
<path d="M109.772 28.8304C109.729 28.908 109.686 28.9856 109.651 29.0632C109.573 29.0718 109.547 29.1063 109.573 29.1752C109.564 29.1839 109.556 29.2011 109.547 29.2097C109.478 29.2184 109.443 29.2528 109.461 29.3218C109.426 29.3649 109.383 29.4167 109.348 29.4598C109.244 29.4684 109.192 29.5115 109.21 29.6236C109.14 29.7271 109.054 29.8047 108.95 29.8823C108.872 29.865 108.838 29.8909 108.838 29.9685C108.794 30.003 108.742 30.0461 108.699 30.0806C108.621 30.0633 108.587 30.0892 108.587 30.1668C108.578 30.1754 108.561 30.184 108.552 30.1926C108.483 30.1668 108.44 30.1927 108.431 30.2703C108.422 30.2789 108.405 30.2875 108.396 30.2875C108.258 30.2961 108.137 30.322 108.076 30.4772C108.068 30.4858 108.05 30.4944 108.042 30.4944C107.92 30.5117 107.782 30.4686 107.721 30.6238C107.713 30.6324 107.696 30.641 107.687 30.641C107.618 30.6065 107.583 30.6324 107.557 30.7014C107.531 30.71 107.497 30.71 107.471 30.7186C107.272 30.6238 107.142 30.7445 107.003 30.8565C106.943 30.8652 106.874 30.8652 106.813 30.8738C106.718 30.7876 106.597 30.8221 106.501 30.8393C106.052 30.9169 105.593 30.8652 105.143 30.8738C104.728 30.8824 104.321 30.8738 103.906 30.8738C103.681 30.8738 103.638 30.9255 103.672 31.1238C103.672 32.5637 103.663 34.0036 103.663 35.4521C103.56 35.5038 103.447 35.5211 103.326 35.5125C102.928 35.5038 102.521 35.5038 102.123 35.5125C102.011 35.5125 101.907 35.4952 101.812 35.4435C101.812 34.2192 101.803 32.9948 101.803 31.7705C101.803 29.0028 101.803 26.2351 101.803 23.4674C101.916 23.4071 102.037 23.3985 102.167 23.3985C103.603 23.3985 105.048 23.4071 106.484 23.4071C106.553 23.4071 106.64 23.433 106.7 23.364C106.735 23.364 106.761 23.3726 106.796 23.3726C106.96 23.5192 107.15 23.545 107.358 23.5106C107.384 23.5192 107.419 23.5192 107.445 23.5278C107.574 23.7089 107.782 23.7175 107.972 23.7434C107.981 23.752 107.998 23.752 108.007 23.7606C108.016 23.8382 108.059 23.8641 108.128 23.821C108.154 23.8296 108.18 23.8468 108.206 23.8554C108.215 23.9244 108.249 23.9589 108.318 23.933C108.362 23.9589 108.405 23.9848 108.457 24.002C108.466 24.071 108.5 24.1055 108.569 24.0796C108.595 24.1055 108.63 24.1227 108.656 24.1486C108.656 24.2176 108.691 24.2521 108.76 24.2434C109.123 24.5193 109.417 24.847 109.634 25.2436C109.634 25.2867 109.625 25.3298 109.642 25.3643C109.815 25.7092 109.954 26.0627 110.014 26.4421C110.023 26.5024 110.032 26.5628 110.101 26.58C110.11 26.6145 110.11 26.6404 110.118 26.6749C110.049 26.9594 110.049 27.2439 110.118 27.5284C110.11 27.5629 110.11 27.5888 110.101 27.6233C109.971 28.0285 109.893 28.4338 109.772 28.8304ZM103.707 27.106C103.707 27.6664 103.715 28.2268 103.707 28.7959C103.707 29.0201 103.785 29.1149 104.018 29.1149C104.745 29.1063 105.463 29.1235 106.19 29.1063C107.462 29.0804 108.422 27.9251 108.154 26.7352C107.99 25.9937 107.254 25.2781 106.493 25.2177C105.645 25.1487 104.788 25.2091 103.94 25.1919C103.75 25.1919 103.698 25.2953 103.698 25.4678C103.707 26.011 103.707 26.5541 103.707 27.106Z" fill="white"/>
<path d="M106.709 23.3725C106.648 23.4415 106.57 23.4156 106.492 23.4156C105.056 23.4156 103.611 23.4156 102.175 23.407C102.045 23.407 101.924 23.4156 101.811 23.476C101.802 23.2691 101.958 23.3122 102.071 23.3122C103.273 23.3122 104.476 23.3122 105.679 23.3122C105.964 23.3122 106.25 23.3208 106.535 23.3294C106.605 23.3294 106.665 23.3208 106.709 23.3725Z" fill="white"/>
<path d="M103.672 31.1325C103.637 30.9428 103.68 30.8911 103.905 30.8825C104.321 30.8738 104.727 30.8911 105.143 30.8825C105.593 30.8738 106.051 30.9169 106.501 30.848C106.596 30.8307 106.717 30.7962 106.813 30.8825C106.57 30.9687 106.311 30.9773 106.051 30.9859C105.385 30.9945 104.71 30.9945 104.044 30.9859C103.897 30.9773 103.767 30.9945 103.672 31.1325Z" fill="white"/>
<path d="M101.821 35.452C101.916 35.5037 102.02 35.5209 102.132 35.5209C102.53 35.5123 102.937 35.5123 103.335 35.5209C103.456 35.5209 103.569 35.5037 103.673 35.4606C103.69 35.6072 103.586 35.6244 103.482 35.6244C102.989 35.6244 102.496 35.6244 102.011 35.6244C101.899 35.6158 101.795 35.5985 101.821 35.452Z" fill="white"/>
<path d="M110.135 26.6059C110.066 26.5887 110.057 26.5283 110.049 26.468C109.988 26.0886 109.85 25.7265 109.677 25.3902C109.659 25.3557 109.668 25.3126 109.668 25.2695C109.962 25.6661 110.101 26.1145 110.135 26.6059Z" fill="white"/>
<path d="M109.771 28.8302C109.892 28.4337 109.979 28.0284 110.134 27.6491C110.134 28.0802 110.013 28.4681 109.771 28.8302Z" fill="white"/>
<path d="M110.153 27.5544C110.075 27.2699 110.084 26.9854 110.153 26.7008C110.223 26.9854 110.223 27.2699 110.153 27.5544Z" fill="white"/>
<path d="M107.366 23.5277C107.158 23.5622 106.959 23.5449 106.803 23.3897C107.002 23.3725 107.193 23.4328 107.366 23.5277Z" fill="white"/>
<path d="M107.989 23.7604C107.798 23.726 107.591 23.726 107.461 23.5449C107.651 23.5794 107.842 23.6139 107.989 23.7604Z" fill="white"/>
<path d="M107.003 30.8655C107.141 30.7618 107.271 30.6322 107.471 30.7273C107.315 30.7877 107.176 30.8827 107.003 30.8655Z" fill="white"/>
<path d="M108.076 30.4787C108.129 30.3309 108.26 30.3049 108.399 30.2875C108.329 30.4179 108.207 30.4526 108.076 30.4787Z" fill="white"/>
<path d="M107.722 30.6333C107.783 30.4768 107.922 30.5116 108.044 30.5029C107.966 30.6072 107.844 30.6159 107.722 30.6333Z" fill="white"/>
<path d="M109.21 29.6327C109.184 29.5203 109.245 29.4771 109.349 29.4684C109.34 29.5549 109.288 29.6067 109.21 29.6327Z" fill="white"/>
<path d="M108.596 24.1146C108.527 24.1407 108.483 24.106 108.483 24.0364C108.544 24.019 108.579 24.0538 108.596 24.1146Z" fill="white"/>
<path d="M108.345 23.9595C108.267 23.9856 108.232 23.9508 108.232 23.8812C108.293 23.8725 108.328 23.8986 108.345 23.9595Z" fill="white"/>
<path d="M108.431 30.2708C108.439 30.1926 108.483 30.1665 108.553 30.1926C108.527 30.2534 108.492 30.2795 108.431 30.2708Z" fill="white"/>
<path d="M108.147 23.8386C108.077 23.8821 108.033 23.856 108.024 23.7778C108.077 23.7691 108.12 23.7865 108.147 23.8386Z" fill="white"/>
<path d="M109.452 29.3314C109.435 29.2619 109.47 29.2271 109.54 29.2184C109.548 29.2793 109.522 29.314 109.452 29.3314Z" fill="white"/>
<path d="M107.557 30.71C107.583 30.6495 107.617 30.6236 107.687 30.6495C107.661 30.71 107.626 30.7359 107.557 30.71Z" fill="white"/>
<path d="M109.565 29.1849C109.539 29.1066 109.574 29.0719 109.643 29.0719C109.652 29.1327 109.626 29.1675 109.565 29.1849Z" fill="white"/>
<path d="M108.578 30.1762C108.578 30.098 108.621 30.0719 108.691 30.0893C108.682 30.1501 108.647 30.1762 108.578 30.1762Z" fill="white"/>
<path d="M108.838 29.9779C108.838 29.8996 108.873 29.8736 108.951 29.891C108.934 29.9518 108.899 29.9779 108.838 29.9779Z" fill="white"/>
<path d="M108.794 24.2694C108.725 24.2781 108.69 24.2435 108.69 24.1744C108.751 24.1744 108.786 24.209 108.794 24.2694Z" fill="white"/>
<path d="M76.2085 15.7421C76.2085 14.9317 76.2085 14.1126 76.2085 13.3021C76.2085 12.9745 76.2258 12.9831 76.5459 12.9486C76.9353 12.9055 77.1603 13.0521 77.3593 13.3883C78.0861 14.604 78.8561 15.8111 79.6089 17.0182C79.6522 17.0786 79.6781 17.1734 79.7733 17.1475C79.8771 17.113 79.8771 17.0096 79.8771 16.9147C79.8685 15.7249 79.8685 14.5351 79.8598 13.3452C79.8598 12.9658 80.0588 12.8365 80.4309 12.9658C80.578 13.0176 80.5693 13.1383 80.5693 13.259C80.5693 13.9574 80.5693 14.6471 80.5693 15.3455C80.5693 16.3284 80.5693 17.3114 80.578 18.2856C80.578 18.5098 80.4914 18.5616 80.2838 18.5874C79.929 18.6219 79.73 18.484 79.557 18.1908C78.7783 16.9061 77.9736 15.6387 77.1776 14.3626C77.143 14.3023 77.0997 14.2505 77.0478 14.2074C77.0218 14.1815 76.9699 14.1643 76.9353 14.1729C76.8747 14.1815 76.8834 14.2505 76.8834 14.2936C76.892 14.5264 76.918 14.7592 76.918 15.0006C76.9266 16.0956 76.918 17.1993 76.9266 18.2943C76.9266 18.5702 76.7796 18.5788 76.5719 18.5788C76.3642 18.5788 76.2085 18.5788 76.2085 18.2943C76.2171 17.4493 76.2085 16.5957 76.2085 15.7421Z" fill="white"/>
<path d="M57.1311 16.1212C57.1311 15.3883 57.1224 14.664 57.1311 13.9312C57.1311 13.6897 57.0359 13.5949 56.8023 13.6035C56.4648 13.6121 56.1274 13.5949 55.79 13.6121C55.5477 13.6208 55.5217 13.4828 55.5217 13.2931C55.5217 13.1034 55.5563 12.9827 55.7986 12.9827C56.8802 12.9913 57.9531 12.9913 59.0346 12.9827C59.2942 12.9827 59.3461 13.0862 59.3461 13.3104C59.3461 13.5432 59.2682 13.6208 59.0346 13.6121C58.7231 13.5949 58.4116 13.6035 58.1001 13.6035C57.8146 13.6035 57.7627 13.6552 57.7627 13.9398C57.7627 15.371 57.7541 16.8109 57.7714 18.2422C57.7714 18.4922 57.6935 18.5612 57.4512 18.5612C57.2263 18.5612 57.1224 18.5181 57.1224 18.2594C57.1397 17.5438 57.1311 16.8368 57.1311 16.1212Z" fill="white"/>
<path d="M72.3677 18.7081C70.8102 18.7771 69.4172 17.4579 69.4605 15.7076C69.4951 14.1384 70.7151 12.9055 72.2206 12.8365C73.977 12.7589 75.3528 14.1729 75.2749 15.949C75.2143 17.4579 73.8905 18.8029 72.3677 18.7081ZM74.5481 15.7594C74.6173 14.4833 73.5185 13.4918 72.385 13.5004C71.1909 13.5004 70.1786 14.4747 70.1786 15.7507C70.1786 17.1561 71.1563 18.0701 72.3936 18.0614C73.605 18.0442 74.5914 17.0958 74.5481 15.7594Z" fill="white"/>
<path d="M75.0244 28.9511C75.1369 29.3046 75.3792 29.5891 75.5176 29.9254C75.7772 30.5634 75.8378 31.2187 75.8031 31.8912C75.7772 32.3482 75.6647 32.7793 75.5003 33.2017C75.1888 33.995 74.6524 34.6071 73.9429 35.0555C73.1988 35.5211 72.3681 35.7539 71.5029 35.7021C70.5598 35.6504 69.6513 35.4004 68.9158 34.7365C68.7255 34.564 68.5438 34.4088 68.388 34.2019C68.3361 34.1329 68.2842 34.0381 68.1717 34.0467C68.1631 34.0381 68.1544 34.0295 68.1458 34.0122C68.1804 33.9088 68.1025 33.8398 68.0592 33.7622C67.7824 33.3225 67.566 32.8396 67.5314 32.3395C67.4795 31.667 67.4363 30.9773 67.6439 30.2961C67.9121 29.3994 68.414 28.6838 69.1754 28.1492C70.2223 27.4163 71.3991 27.287 72.6191 27.5112C73.4497 27.6664 74.1765 28.0716 74.7562 28.7097C74.8254 28.7873 74.8773 28.8993 75.0071 28.8993C75.0071 28.9252 75.0158 28.9338 75.0244 28.9511ZM71.6327 28.9252C70.9751 28.8735 70.4386 29.1494 69.9714 29.5891C69.1667 30.3392 68.8985 31.598 69.3917 32.6844C69.807 33.607 70.7934 34.3226 71.9096 34.176C73.0171 34.0295 73.692 33.2793 74.0207 32.3913C74.2284 31.8222 74.1938 31.2359 74.0121 30.6669C73.7179 29.7788 72.7835 28.8562 71.6327 28.9252Z" fill="white"/>
<path d="M74.9988 28.9164C74.869 28.9164 74.8171 28.8043 74.7479 28.7267C74.1682 28.0887 73.4414 27.6921 72.6108 27.5283C71.3908 27.3041 70.214 27.4334 69.1671 28.1663C68.4143 28.6923 67.9125 29.4165 67.6356 30.3132C67.4279 30.9944 67.4798 31.6755 67.5231 32.3566C67.5577 32.8567 67.774 33.3396 68.0509 33.7793C68.1028 33.8569 68.172 33.9259 68.1374 34.0293C67.8692 33.7793 67.7308 33.4344 67.6096 33.1068C67.2462 32.1152 67.2462 31.0978 67.5837 30.0977C67.9384 29.0544 68.6393 28.2698 69.6343 27.7783C70.9841 27.1144 72.3512 27.1489 73.6923 27.8042C74.2201 28.0542 74.6873 28.3991 74.9988 28.9164Z" fill="white"/>
<path d="M49.4384 17.4146C49.7066 17.2508 49.7759 16.9576 49.897 16.699C49.9576 16.6731 49.9922 16.6473 49.9403 16.5783C49.9403 16.5093 49.9403 16.4403 49.9403 16.3714C49.9662 16.173 49.8191 16.2162 49.7153 16.2162C49.2048 16.2075 48.6857 16.2162 48.1752 16.1903C47.8377 16.1817 48.0108 15.9575 47.9762 15.8195C47.9242 15.6299 48.0713 15.6471 48.1838 15.6471C48.902 15.6471 49.6201 15.6557 50.3296 15.6471C50.5459 15.6471 50.6238 15.7075 50.6238 15.9316C50.6238 16.7507 50.4075 17.4577 49.7672 18.0182C49.3432 18.3889 48.8414 18.5786 48.3049 18.6389C47.3099 18.751 46.4187 18.501 45.7265 17.725C45.3025 17.2508 45.0516 16.699 45.0343 16.0437C45.017 15.3453 45.0776 14.6728 45.5016 14.0779C45.6313 13.8968 45.8217 13.7589 45.9082 13.5433C46.1072 13.3795 46.3322 13.2502 46.5571 13.1295C46.7648 13.0605 46.9638 13.0001 47.1715 12.9312C47.232 12.9915 47.2667 12.9656 47.2753 12.888C47.3099 12.8794 47.3445 12.8708 47.3705 12.8622C47.3964 12.9053 47.431 12.888 47.4657 12.888C47.7339 12.957 48.0021 12.957 48.279 12.888C48.3136 12.8794 48.3569 12.8708 48.3915 12.8708C48.4088 12.8708 48.4174 12.8794 48.4347 12.888C48.4434 13.0001 48.5213 12.9743 48.5905 12.9743C48.7549 12.9656 48.876 13.1208 49.0491 13.0864C49.101 13.1036 49.1442 13.1295 49.1961 13.1467C49.2134 13.2502 49.3086 13.2588 49.3778 13.3019C49.499 13.3795 49.6201 13.4571 49.7326 13.5433C49.8797 13.664 49.8018 13.7675 49.6893 13.8451C49.5855 13.9141 49.5422 14.1469 49.3346 13.9658C48.6078 13.3278 47.7685 13.2502 46.9379 13.6382C45.5708 14.2934 45.1468 15.9144 46.038 17.1387C46.3754 17.6043 46.834 17.9319 47.431 18.0613C47.8464 18.1561 48.253 18.0871 48.6424 17.9923C48.8241 17.9492 49.0577 17.8975 49.1442 17.6733C49.2567 17.5957 49.3865 17.5439 49.4384 17.4146Z" fill="white"/>
<path d="M62.6344 15.7851C62.6344 16.6214 62.6258 17.4664 62.6344 18.3027C62.6344 18.5183 62.5652 18.6131 62.3403 18.5872C62.2797 18.5786 62.2191 18.5786 62.1672 18.5872C61.9682 18.6045 61.8903 18.5183 61.899 18.3199C61.9076 17.8371 61.899 17.3456 61.899 16.8628C61.899 15.673 61.899 14.4831 61.899 13.2933C61.899 13.1812 61.8557 13.026 61.9942 12.9829C62.1759 12.9311 62.3835 12.9139 62.5566 12.9915C62.6604 13.0346 62.6258 13.1726 62.6258 13.2674C62.6344 14.1037 62.6344 14.9487 62.6344 15.7851Z" fill="white"/>
<path d="M49.1536 17.6819C49.0671 17.9146 48.8335 17.9578 48.6518 18.0009C48.2538 18.0957 47.8558 18.1647 47.4404 18.0698C46.8434 17.9405 46.3935 17.6129 46.0474 17.1473C45.1562 15.923 45.5802 14.302 46.9473 13.6467C47.7692 13.2501 48.6172 13.3277 49.344 13.9744C49.5516 14.1554 49.5949 13.9226 49.6987 13.8537C49.8112 13.7761 49.8891 13.6726 49.742 13.5519C49.6295 13.4657 49.5084 13.3881 49.3872 13.3105C49.318 13.2674 49.2228 13.2587 49.2055 13.1553C49.4911 13.1898 49.6901 13.3708 49.8804 13.5519C49.9756 13.6381 49.9669 13.7243 49.8804 13.8105C49.7939 13.8968 49.6987 13.9916 49.6122 14.0778C49.5084 14.1813 49.4045 14.1641 49.3007 14.0692C48.2278 13.0691 46.4108 13.5174 45.8657 14.8969C45.3033 16.3196 46.1945 17.8284 47.6481 17.9836C48.1326 18.0354 48.5826 17.9491 49.0065 17.725C49.0584 17.7077 49.1017 17.6732 49.1536 17.6819Z" fill="white"/>
<path d="M48.2965 12.8967C48.0283 12.9656 47.76 12.9656 47.4832 12.8967C47.4832 12.8708 47.4832 12.8449 47.4918 12.8191C47.76 12.7932 48.0196 12.7932 48.2878 12.8191C48.2878 12.8449 48.2965 12.8708 48.2965 12.8967Z" fill="white"/>
<path d="M48.5993 12.8967C48.5993 12.9226 48.5993 12.9572 48.5993 12.9831C48.5299 12.9831 48.4518 13.0091 48.4431 12.8967C48.4952 12.8967 48.5473 12.8967 48.5993 12.8967Z" fill="white"/>
<path d="M47.1802 12.9485C47.1802 12.9312 47.1802 12.9139 47.1802 12.8967C47.2148 12.9053 47.2495 12.9053 47.2842 12.9139C47.2755 12.9744 47.2495 13.0003 47.1802 12.9485Z" fill="white"/>
<path d="M91.7402 29.9253C91.6191 30.2357 91.42 30.5116 91.3854 30.8479C91.3768 30.9082 91.3508 30.96 91.3422 31.0203C91.2989 31.3393 91.3508 31.3911 91.6537 31.2617C92.6487 30.8479 93.6524 30.434 94.6475 30.0202C94.6821 30.0115 94.708 29.9943 94.7427 29.9857C95.0542 29.8822 95.0628 29.865 94.9676 29.5718C95.1407 29.5891 95.1234 29.7184 95.1234 29.8305C95.1234 29.9512 95.0455 29.9857 94.9417 30.0288C94.4571 30.2185 93.9812 30.4254 93.5053 30.6151C92.9429 30.8479 92.3805 31.0807 91.8094 31.3048C91.7661 31.3221 91.7142 31.3307 91.671 31.3566C91.2729 31.529 91.1951 31.4945 91.247 31.072C91.2989 30.6496 91.3768 30.2185 91.7402 29.9253Z" fill="white"/>
<path d="M94.5697 29.2183C94.3621 29.201 94.2063 29.0631 94.0073 29.02C93.5833 28.9337 93.1767 28.9682 92.7873 29.1493C92.7095 29.1838 92.6316 29.1924 92.5537 29.2183C92.597 29.0458 92.7614 29.0631 92.8739 29.02C93.419 28.7958 93.9467 28.8389 94.4745 29.0975C94.5178 29.1234 94.5784 29.1407 94.5697 29.2183Z" fill="white"/>
<path d="M92.5203 29.2356C92.4595 29.3396 92.3638 29.3916 92.2507 29.4176C92.2768 29.2703 92.3812 29.2269 92.5203 29.2356Z" fill="white"/>
<path d="M91.8955 29.727C91.8955 29.8135 91.8435 29.8653 91.7654 29.8913C91.7307 29.7789 91.7914 29.7357 91.8955 29.727Z" fill="white"/>
<path d="M94.7686 29.3739C94.6818 29.3653 94.6298 29.322 94.6038 29.2442C94.7165 29.2097 94.7599 29.2615 94.7686 29.3739Z" fill="white"/>
<path d="M92.2164 29.4425C92.199 29.5033 92.1641 29.5294 92.1032 29.5207C92.0944 29.4425 92.138 29.4164 92.2164 29.4425Z" fill="white"/>
<path d="M29.3913 23.0965L18.7229 11.8016C18.5153 11.586 18.7748 11.2411 19.0344 11.3877H19.0431L32.6446 19.1131C32.7831 19.1907 32.8177 19.3804 32.7139 19.5097L29.7807 23.0706C29.6855 23.1999 29.5038 23.2086 29.3913 23.0965Z" fill="white"/>
<path d="M28.6116 24.5193L18.3325 36.9954C18.2201 37.1334 17.9951 37.1248 17.8999 36.9609C17.8134 36.8057 17.7615 36.6247 17.7615 36.4177V13.3709C17.7615 13.1295 18.0557 13.0174 18.2201 13.1899L28.5943 24.1744C28.6895 24.2692 28.6982 24.4158 28.6116 24.5193Z" fill="white"/>
<path d="M29.8661 25.5107L33.1194 28.9509C33.2406 29.0716 33.206 29.2785 33.0589 29.3561L21.629 35.8485C21.3781 35.9951 21.1099 35.6761 21.2916 35.4519L29.4681 25.5193C29.5719 25.3986 29.7536 25.3899 29.8661 25.5107Z" fill="white"/>
<path d="M40.2747 25.252L34.7025 28.4163C34.5987 28.4766 34.4603 28.4594 34.3824 28.3646L30.6619 24.4243C30.5667 24.3294 30.5667 24.1828 30.6532 24.0794L33.9325 20.096C34.0103 20.0011 34.1574 19.9666 34.2699 20.0356L40.2747 23.45C40.9236 23.8293 40.9236 24.8812 40.2747 25.252Z" fill="white"/>
</svg>
