<svg width="151" height="51" viewBox="0 0 151 51" fill="none" xmlns="http://www.w3.org/2000/svg">
<path d="M137.459 50.6978H13.02C5.89909 50.6978 0.12793 44.9469 0.12793 37.8509V12.8469C0.12793 5.75092 5.89909 0 13.02 0H137.459C144.58 0 150.351 5.75092 150.351 12.8469V37.8509C150.351 44.9469 144.58 50.6978 137.459 50.6978Z" fill="#C8C9CB"/>
<path d="M25.1393 27.0453C25.096 25.9417 25.2345 24.8381 25.5719 23.7603C26.1257 21.9928 27.0861 20.5098 28.6435 19.4407C29.5953 18.7854 30.6509 18.3801 31.8103 18.2422C32.7015 18.1301 33.5668 18.2594 34.4147 18.544C35.055 18.7595 35.678 19.0182 36.3182 19.2251C37.5296 19.6217 37.3306 19.5872 38.4381 19.2337C39.1995 18.9923 39.9436 18.6647 40.7137 18.4491C41.4838 18.2249 42.2625 18.0784 43.0585 18.1387C44.0103 18.2077 44.9361 18.406 45.8186 18.794C46.4849 19.0872 47.0819 19.4924 47.627 19.9839C47.9471 20.277 48.224 20.6219 48.4836 20.9668C48.5615 21.0702 48.5355 21.1392 48.4317 21.1996C48.0596 21.4324 47.7222 21.6996 47.3934 21.9928C46.4416 22.8291 45.8273 23.8638 45.5245 25.0881C45.3947 25.6399 45.3254 26.2004 45.3427 26.7608C45.386 28.5456 45.9917 30.0976 47.2982 31.3478C47.8347 31.8651 48.4403 32.2962 49.1152 32.6152C49.3315 32.7187 49.3315 32.7273 49.2623 32.9428C48.5095 35.1846 47.2896 37.1677 45.7408 38.9438C45.2908 39.4611 44.7717 39.9009 44.1401 40.2113C43.4738 40.5389 42.773 40.6079 42.0548 40.4958C41.4232 40.4009 40.8262 40.1768 40.2378 39.9353C39.4158 39.5991 38.5679 39.3749 37.668 39.3922C37.0018 39.4094 36.3529 39.556 35.7212 39.7801C35.0377 40.0216 34.3801 40.3147 33.6706 40.4785C32.7448 40.6941 31.8969 40.5475 31.1095 40.0302C30.4259 39.5818 29.8549 39.0042 29.3444 38.3661C28.6609 37.5039 28.0119 36.6158 27.4755 35.6588C26.6967 34.2793 26.1257 32.8221 25.7017 31.3046C25.4248 30.3217 25.2518 29.3216 25.1566 28.3128C25.122 27.8903 25.122 27.4764 25.1393 27.0453Z" fill="white"/>
<path d="M69.2498 34.9861C69.2498 35.0896 69.2498 35.1844 69.2498 35.2792C69.2498 36.4777 69.2498 37.6762 69.2498 38.8746C69.2498 39.0816 69.3017 39.1247 69.0075 39.1161C68.6787 39.1161 68.35 39.1074 68.0212 39.1161C67.8914 39.1161 67.8395 39.073 67.8481 38.9436C67.8568 38.8746 67.8481 38.8057 67.8481 38.7367C67.8481 35.8828 67.8481 33.0375 67.8394 30.1836C67.8394 29.6232 67.8135 29.0541 67.7962 28.4937C67.7875 28.2954 67.7875 28.2954 67.9865 28.2954C68.2807 28.2954 68.5836 28.304 68.8778 28.2954C69.0248 28.2954 69.0681 28.3471 69.0681 28.485C69.0768 28.7954 69.0941 29.0972 69.1114 29.4076C69.1114 29.4593 69.1287 29.5197 69.1373 29.6145C69.2325 29.4852 69.2931 29.4076 69.3623 29.3214C69.9074 28.6144 70.6429 28.2436 71.5254 28.166C73.2386 28.0108 74.424 28.9938 74.8999 30.4164C75.3239 31.6838 75.272 32.9599 74.7269 34.1842C74.0433 35.7103 72.3734 36.4691 70.764 36.0294C70.2102 35.8742 69.7517 35.5896 69.3969 35.1327C69.3623 35.0551 69.345 35.0033 69.2498 34.9861ZM69.2585 32.2098C69.2585 32.4771 69.2498 32.7444 69.2585 33.0116C69.2671 33.3048 69.345 33.5807 69.4834 33.8307C69.9074 34.6153 70.5737 35.0206 71.4649 35.012C72.3907 35.0033 73.0656 34.555 73.429 33.7186C73.8789 32.6926 73.8876 31.6493 73.4723 30.6061C73.2733 30.106 72.9272 29.7094 72.434 29.4593C71.2313 28.8644 69.7949 29.5111 69.3796 30.8216C69.2239 31.2872 69.2498 31.7442 69.2585 32.2098Z" fill="white"/>
<path d="M78.352 34.9518C78.3001 35.0897 78.3174 35.1932 78.3174 35.288C78.3174 36.4779 78.3174 37.6591 78.3174 38.849C78.3174 39.1076 78.3174 39.1076 78.0578 39.1076C77.7636 39.1076 77.4608 39.1076 77.1666 39.1076C76.9157 39.1076 76.9157 39.1076 76.9157 38.8403C76.9157 38.7714 76.9157 38.7024 76.9157 38.6334C76.9157 35.6329 76.907 32.6325 76.8984 29.6406C76.8984 29.2612 76.8724 28.8905 76.8551 28.5111C76.8465 28.2869 76.8465 28.2869 77.0801 28.2869C77.3483 28.2869 77.6165 28.2869 77.8848 28.2869C78.1097 28.2869 78.1184 28.2869 78.127 28.5111C78.1443 28.8043 78.153 29.106 78.1616 29.3992C78.1616 29.4509 78.153 29.5026 78.1876 29.5457C78.2741 29.5716 78.2828 29.494 78.3087 29.4509C79.4422 27.7006 82.5484 27.5282 83.7425 29.882C84.1665 30.7183 84.2789 31.615 84.2097 32.5376C84.1491 33.305 83.9415 34.0378 83.5002 34.6845C82.4792 36.1934 80.567 36.4348 79.3297 35.8226C78.9404 35.6157 78.6202 35.3398 78.352 34.9518ZM78.326 32.2272C78.326 32.4945 78.3174 32.7618 78.326 33.0291C78.3606 33.6843 78.6635 34.2017 79.1826 34.5897C80.3248 35.4346 81.9168 35.0121 82.5052 33.7016C82.834 32.9773 82.8772 32.21 82.7734 31.434C82.7128 30.9598 82.5484 30.5114 82.2629 30.1234C81.7957 29.4768 81.1554 29.2009 80.3594 29.2526C79.6066 29.3043 78.6981 29.8648 78.4039 30.9856C78.2828 31.3995 78.326 31.8134 78.326 32.2272Z" fill="white"/>
<path d="M57.3611 35.9606C57.7072 34.9604 58.0273 34.0034 58.3561 33.0463C59.204 30.5545 60.0606 28.0714 60.9086 25.5796C60.9259 25.5193 60.9518 25.4675 60.9691 25.4072C60.9951 25.3037 61.047 25.2606 61.1595 25.2606C61.6267 25.2692 62.0939 25.2692 62.5612 25.2606C62.7169 25.2606 62.7342 25.3468 62.7688 25.4589C63.0284 26.2263 63.2966 26.9936 63.5562 27.761C64.4733 30.4338 65.3905 33.1067 66.3077 35.7795C66.3163 35.814 66.3336 35.8571 66.3423 35.8916C66.299 35.9778 66.2211 35.952 66.1519 35.952C65.8058 35.952 65.4597 35.9433 65.105 35.9606C64.9233 35.9692 64.8454 35.9089 64.7848 35.7364C64.4733 34.7794 64.1359 33.8223 63.8158 32.8739C63.7206 32.598 63.7206 32.598 63.4264 32.598C62.3449 32.598 61.2633 32.598 60.1731 32.598C59.9135 32.598 59.9049 32.598 59.827 32.848C59.5069 33.8051 59.1954 34.7621 58.8753 35.7192C58.7974 35.9606 58.7974 35.9606 58.5551 35.9606C58.1744 35.9606 57.7851 35.9606 57.3611 35.9606ZM60.225 31.503C61.3066 31.503 62.3535 31.503 63.4264 31.503C62.8986 29.8389 62.2497 28.2438 61.8171 26.5625C61.3931 28.2438 60.7442 29.8475 60.225 31.503Z" fill="white"/>
<path d="M89.2362 34.2964C89.4612 34.3999 89.6775 34.512 89.8938 34.5982C90.6725 34.9 91.4772 35.0638 92.3165 34.9172C92.7059 34.8482 93.0693 34.7189 93.3721 34.4689C94.1249 33.8481 94.1855 32.6324 93.5019 31.9254C93.1645 31.5805 92.7318 31.3649 92.2992 31.1752C91.9185 31.0114 91.5205 30.8821 91.1398 30.7097C90.7937 30.5372 90.4562 30.3475 90.1534 30.1061C88.6046 28.9249 88.8295 26.5797 90.4995 25.6312C90.9581 25.3726 91.4426 25.2088 91.9618 25.1484C92.8703 25.0536 93.7702 25.1139 94.6268 25.4588C94.9902 25.6054 94.9902 25.614 94.8691 25.9847C94.8085 26.1744 94.7393 26.3555 94.6787 26.5452C94.6095 26.7435 94.6095 26.7521 94.4191 26.6659C93.9259 26.4417 93.4068 26.3124 92.8703 26.2607C92.4809 26.2262 92.0916 26.252 91.7195 26.3641C91.1052 26.5538 90.6725 26.9332 90.5514 27.5885C90.4389 28.2351 90.6639 28.7524 91.183 29.1491C91.3647 29.287 91.5637 29.3991 91.7628 29.5026C92.2646 29.7612 92.8097 29.925 93.3202 30.1665C93.7009 30.3475 94.0557 30.5631 94.3845 30.8131C95.8814 31.9512 95.743 34.5206 94.0211 35.5208C93.4933 35.8225 92.9309 35.995 92.3338 36.0553C91.2782 36.1674 90.2485 36.0381 89.2708 35.6156C88.8814 35.4432 88.8814 35.4346 89.0112 35.0379C89.0718 34.8138 89.1237 34.5551 89.2362 34.2964Z" fill="white"/>
<path d="M109.362 32.0633C109.371 32.7703 109.258 33.4342 108.955 34.0463C108.307 35.3569 107.208 35.9949 105.771 36.107C105.045 36.1587 104.344 36.0294 103.695 35.6845C102.873 35.2362 102.311 34.555 102.034 33.6756C101.679 32.572 101.696 31.4683 102.138 30.3906C102.691 29.0542 103.73 28.3299 105.157 28.1575C105.996 28.0626 106.81 28.1747 107.545 28.6058C108.54 29.1835 109.077 30.0716 109.284 31.1752C109.353 31.477 109.371 31.7873 109.362 32.0633ZM107.934 32.1322C107.943 31.7098 107.874 31.3045 107.744 30.9079C107.554 30.3302 107.251 29.8301 106.723 29.4939C105.91 28.9766 104.396 29.0197 103.669 30.3302C103.366 30.8734 103.236 31.4597 103.228 32.0633C103.219 32.822 103.375 33.5376 103.833 34.1584C104.733 35.3914 106.429 35.3827 107.32 34.1412C107.761 33.5376 107.917 32.8565 107.934 32.1322Z" fill="white"/>
<path d="M116.968 32.3997C116.942 33.8224 117.773 34.9777 119.486 35.0381C120.204 35.0639 120.914 34.9691 121.589 34.7018C121.632 34.6846 121.675 34.6587 121.753 34.6932C121.813 34.9518 121.874 35.2191 121.943 35.4864C121.978 35.6157 121.943 35.6847 121.813 35.7278C121.424 35.8744 121.017 35.9865 120.611 36.0382C119.867 36.1417 119.123 36.1848 118.387 36.0124C117.037 35.702 116.146 34.8915 115.791 33.5551C115.428 32.2187 115.558 30.9167 116.293 29.7269C117.401 27.9163 119.572 27.8645 120.741 28.4594C121.338 28.7612 121.753 29.2441 122.03 29.8476C122.359 30.5632 122.48 31.322 122.419 32.098C122.393 32.4342 122.411 32.3739 122.099 32.3739C120.498 32.3739 118.898 32.3739 117.297 32.3739C117.184 32.3825 117.072 32.3652 116.968 32.3997ZM118.993 31.3823C119.607 31.3823 120.221 31.3823 120.844 31.3823C121.095 31.3823 121.069 31.3651 121.061 31.1495C121.052 30.9167 121.009 30.7012 120.94 30.477C120.576 29.2441 119.174 28.7181 118.084 29.4165C117.427 29.8304 117.132 30.477 116.994 31.2099C116.968 31.3392 117.02 31.3823 117.15 31.3823C117.764 31.3823 118.378 31.3823 118.993 31.3823Z" fill="white"/>
<path d="M43.1714 11.629C43.1714 12.931 42.7647 14.1122 42.0378 15.1813C41.4927 15.9832 40.8351 16.673 39.9958 17.1817C39.2171 17.6559 38.3604 17.8801 37.4519 17.8628C37.1664 17.8542 37.1577 17.8628 37.1491 17.561C37.1231 16.9489 37.1837 16.3367 37.3567 15.7418C37.6423 14.7675 38.1528 13.9139 38.8277 13.1638C39.8401 12.0343 41.1207 11.3618 42.6003 11.06C43.1714 10.9393 43.18 10.9565 43.18 11.5342C43.1714 11.5687 43.1714 11.6032 43.1714 11.629Z" fill="white"/>
<path d="M100.752 34.8914C100.778 35.2104 100.787 35.4949 100.822 35.7795C100.83 35.9002 100.787 35.9605 100.675 35.995C100.069 36.1416 99.4545 36.2019 98.8488 36.0209C98.1393 35.8139 97.7586 35.2966 97.6115 34.5982C97.5422 34.2878 97.5336 33.9688 97.5336 33.6498C97.5336 32.3479 97.5336 31.0373 97.5336 29.7354C97.5336 29.6664 97.5249 29.5974 97.5336 29.5285C97.5422 29.3991 97.4903 29.356 97.3605 29.356C97.1096 29.3646 96.8673 29.356 96.6164 29.356C96.5299 29.356 96.4347 29.3819 96.3481 29.3215C96.3481 28.9939 96.3481 28.6576 96.3481 28.2869C96.6077 28.2869 96.8587 28.2869 97.1183 28.2869C97.1961 28.2869 97.274 28.2782 97.3605 28.2869C97.5076 28.3041 97.5509 28.2351 97.5422 28.0972C97.5336 27.6488 97.5422 27.2091 97.5422 26.7608C97.5422 26.6918 97.5422 26.6228 97.5422 26.5538C97.5422 26.4676 97.5855 26.4331 97.6634 26.4159C98.0614 26.3124 98.4681 26.2003 98.8575 26.0969C98.944 26.1745 98.9094 26.2607 98.9094 26.3297C98.9094 26.8815 98.9094 27.4419 98.9094 27.9937C98.9094 28.3214 98.8748 28.2869 99.1863 28.2869C99.6795 28.2869 100.181 28.2869 100.675 28.2869C100.9 28.2869 100.9 28.2869 100.908 28.511C100.908 28.7352 100.9 28.968 100.908 29.1922C100.917 29.3301 100.856 29.356 100.735 29.356C100.199 29.3474 99.6622 29.356 99.1257 29.356C98.9094 29.356 98.9094 29.356 98.9094 29.5629C98.9094 30.9252 98.9094 32.2961 98.9094 33.6584C98.9094 33.8481 98.9354 34.0292 98.9786 34.2189C99.1084 34.7276 99.4199 34.969 99.9391 34.9776C100.199 34.9862 100.458 34.9345 100.752 34.8914Z" fill="white"/>
<path d="M56.1843 18.294C56.1843 17.2766 56.1843 16.2506 56.1843 15.2332C56.1843 14.9917 56.1843 14.9917 56.4179 14.9659C57.0322 14.8883 57.6465 14.8365 58.2608 14.8538C58.8232 14.871 59.3683 14.9486 59.896 15.1556C60.7786 15.5091 61.341 16.1471 61.5746 17.061C61.7822 17.8629 61.7476 18.6734 61.4881 19.458C61.1247 20.5702 60.32 21.2169 59.1952 21.4928C58.8751 21.5704 58.555 21.6135 58.2262 21.6307C57.6205 21.6738 57.0149 21.6393 56.4092 21.5876C56.1843 21.5704 56.1843 21.5617 56.1843 21.3376C56.1756 20.3288 56.1843 19.3114 56.1843 18.294ZM57.0408 18.2509C57.0408 19.0441 57.0408 19.8287 57.0408 20.6219C57.0408 20.9237 56.9803 20.8978 57.3264 20.9323C57.7936 20.9754 58.2608 20.9668 58.7194 20.872C59.6625 20.6823 60.3287 20.1736 60.6228 19.2424C60.8218 18.6044 60.8478 17.9577 60.7007 17.3111C60.5104 16.492 60.0085 15.9488 59.2039 15.6987C58.5636 15.4918 57.9147 15.5091 57.2571 15.5953C57.0408 15.6211 57.0408 15.6384 57.0408 15.8539C57.0408 16.6558 57.0408 17.4576 57.0408 18.2509Z" fill="white"/>
<path d="M114.925 29.4767C114.631 29.4594 114.362 29.4249 114.103 29.4853C113.385 29.6405 112.952 30.1147 112.701 30.77C112.554 31.1666 112.511 31.5718 112.511 31.9943C112.511 33.21 112.511 34.4257 112.511 35.6501C112.511 35.7191 112.511 35.788 112.511 35.857C112.511 35.9346 112.468 35.9605 112.398 35.9605C112.009 35.9605 111.62 35.9605 111.239 35.9605C111.152 35.9605 111.118 35.9174 111.118 35.8311C111.118 35.7535 111.118 35.6759 111.118 35.5897C111.109 33.3307 111.144 31.0804 111.083 28.8214C111.083 28.761 111.083 28.7007 111.075 28.6403C111.057 28.2782 111.057 28.2782 111.412 28.2782C111.637 28.2782 111.871 28.2868 112.095 28.2782C112.243 28.2696 112.286 28.3213 112.286 28.4593C112.294 28.8559 112.312 29.2525 112.329 29.6491C112.329 29.6836 112.32 29.7267 112.372 29.7612C112.459 29.7008 112.468 29.5974 112.502 29.5112C112.831 28.8473 113.315 28.373 114.051 28.1834C114.293 28.123 114.544 28.1316 114.795 28.1403C114.873 28.1403 114.933 28.1575 114.933 28.2523C114.925 28.6576 114.925 29.0628 114.925 29.4767Z" fill="white"/>
<path d="M67.2503 16.811C67.4839 16.811 67.7176 16.8196 67.9512 16.811C68.0983 16.8024 68.1415 16.8714 68.1675 16.9921C68.3146 17.5784 68.4703 18.156 68.6261 18.7423C68.7126 19.0614 68.7991 19.3718 68.877 19.6908C68.9548 20.0098 69.0241 20.3288 69.1019 20.6392C69.1971 20.6564 69.1884 20.5788 69.1971 20.5271C69.5172 19.3459 69.9239 18.1905 70.2873 17.0179C70.3392 16.8541 70.4171 16.8024 70.5815 16.8196C70.7459 16.8369 70.9535 16.7765 71.0747 16.8541C71.2045 16.9317 71.2045 17.1559 71.2477 17.3111C71.5852 18.4233 71.9659 19.5269 72.2514 20.6651C72.3206 20.6651 72.3293 20.6133 72.3293 20.5702C72.5542 19.4666 72.909 18.3975 73.2118 17.3111C73.2551 17.1559 73.2464 16.9403 73.3762 16.8541C73.4973 16.7679 73.6877 16.8369 73.8434 16.8283C73.9559 16.8283 74.0597 16.8283 74.1636 16.8283C74.2241 16.9058 74.1722 16.9662 74.1549 17.0266C73.6877 18.4837 73.2118 19.9408 72.7359 21.3979C72.6667 21.6221 72.658 21.6221 72.4244 21.6221C72.2427 21.6135 72.0178 21.6911 71.8707 21.5876C71.7322 21.4842 71.7323 21.2686 71.6803 21.0962C71.3429 20.0356 70.9622 18.9838 70.7113 17.8974C70.6593 17.906 70.6334 17.9319 70.6247 17.975C70.4084 18.9406 70.045 19.8632 69.7336 20.803C69.6557 21.0272 69.5778 21.2514 69.5086 21.4755C69.474 21.579 69.4134 21.6393 69.2923 21.6307C69.0846 21.6135 68.8423 21.6997 68.678 21.5962C68.5222 21.4928 68.5309 21.2427 68.4703 21.0531C68.055 19.708 67.657 18.3716 67.2503 17.0266C67.259 16.9403 67.2244 16.8886 67.2503 16.811Z" fill="white"/>
<path d="M95.3892 17.3542C95.3892 17.2593 95.3892 17.1645 95.3892 17.0697C95.3892 16.3109 95.3892 15.5435 95.3892 14.7848C95.3892 14.5606 95.3892 14.5606 95.6141 14.552C95.7872 14.552 95.9516 14.552 96.1247 14.552C96.2458 14.552 96.289 14.5951 96.2804 14.7072C96.2804 14.7589 96.2804 14.802 96.2804 14.8538C96.289 17.0438 96.2544 19.2252 96.3063 21.4152C96.3063 21.5618 96.2631 21.6135 96.1247 21.5962C95.9343 21.579 95.7093 21.6652 95.5709 21.5618C95.4324 21.4583 95.5276 21.2255 95.5017 21.0617C95.493 20.9927 95.5103 20.9237 95.4584 20.8634C95.4065 20.8634 95.3892 20.8979 95.3719 20.9323C94.7402 21.898 93.0357 22.0446 92.2137 20.8634C91.7724 20.2253 91.6859 19.5097 91.7811 18.7596C91.8503 18.1991 92.0666 17.6904 92.4819 17.2852C93.0876 16.6817 94.0394 16.5178 94.7922 16.8972C95.0171 17.0093 95.1988 17.1731 95.3892 17.3542ZM95.3892 19.1993C95.3892 19.0096 95.3978 18.8199 95.3892 18.6389C95.3632 18.2336 95.1988 17.8974 94.87 17.6473C94.2471 17.1817 93.3558 17.3456 92.9578 18.0353C92.5512 18.7423 92.5339 19.4925 92.8626 20.234C93.1222 20.8289 93.7019 21.0962 94.3336 20.9755C94.9219 20.8634 95.3546 20.3633 95.3978 19.7425C95.3978 19.5614 95.3892 19.3804 95.3892 19.1993Z" fill="white"/>
<path d="M116.595 17.4921C116.716 17.4576 116.751 17.3714 116.803 17.311C117.486 16.5437 118.715 16.5092 119.373 17.2421C119.71 17.6214 119.84 18.0957 119.849 18.5871C119.866 19.5356 119.857 20.484 119.857 21.441C119.857 21.5617 119.823 21.6221 119.693 21.6221C119.511 21.6135 119.338 21.6135 119.156 21.6221C119.009 21.6307 118.975 21.5704 118.975 21.4324C118.983 20.6909 118.975 19.9494 118.975 19.2079C118.975 18.932 118.983 18.6561 118.923 18.3802C118.836 17.9663 118.646 17.6214 118.213 17.5007C117.763 17.3714 117.348 17.4662 117.002 17.7939C116.734 18.0526 116.604 18.3802 116.604 18.7509C116.604 19.4924 116.604 20.2339 116.604 20.9754C116.604 21.1306 116.604 21.2945 116.604 21.4497C116.604 21.5531 116.578 21.6135 116.457 21.6135C116.266 21.6049 116.076 21.6049 115.894 21.6135C115.773 21.6221 115.738 21.5531 115.747 21.4497C115.747 21.3893 115.747 21.3289 115.747 21.2686C115.747 19.1476 115.747 17.0351 115.747 14.9141C115.747 14.4916 115.704 14.5692 116.119 14.5606C116.214 14.5606 116.318 14.5692 116.413 14.5606C116.578 14.5434 116.612 14.6123 116.612 14.7675C116.604 15.578 116.612 16.3885 116.612 17.199C116.595 17.2852 116.595 17.38 116.595 17.4921Z" fill="white"/>
<path d="M99.4893 19.2164C99.4893 18.8888 99.5325 18.5612 99.6363 18.2508C100.06 17.0437 101.168 16.5867 102.197 16.716C103.296 16.854 104.023 17.6041 104.179 18.6905C104.248 19.1561 104.222 19.6217 104.084 20.07C103.772 21.1047 102.812 21.7513 101.696 21.6996C100.51 21.6392 99.6277 20.8115 99.5152 19.6303C99.4979 19.4923 99.4893 19.3544 99.4893 19.2164ZM100.372 19.2251C100.372 19.6648 100.484 20.0614 100.683 20.3804C101.246 21.2685 102.422 21.2771 102.976 20.389C103.443 19.6217 103.426 18.8198 103.011 18.0438C102.5 17.104 101.168 17.173 100.675 18.0352C100.458 18.3973 100.38 18.8026 100.372 19.2251Z" fill="white"/>
<path d="M86.6485 19.1906C86.6485 19.6044 86.5793 20.001 86.4063 20.3718C86.0342 21.165 85.3853 21.5961 84.5288 21.691C83.6549 21.7858 82.9109 21.5185 82.3831 20.8029C81.9764 20.2511 81.8726 19.613 81.9332 18.9405C81.9678 18.5008 82.0889 18.0783 82.3398 17.7162C82.8936 16.9229 83.6809 16.6212 84.6153 16.7246C85.7574 16.854 86.5188 17.6644 86.6226 18.8026C86.6312 18.9319 86.6399 19.0612 86.6485 19.1906ZM85.7314 19.1906C85.7314 18.7853 85.6449 18.4059 85.4459 18.0524C84.9268 17.1126 83.6376 17.1902 83.1358 17.9662C82.7032 18.6387 82.6773 19.7165 83.1185 20.389C83.6982 21.2771 84.8749 21.2599 85.4286 20.3459C85.6535 19.9924 85.7401 19.6044 85.7314 19.1906Z" fill="white"/>
<path d="M66.9999 19.1304C66.9999 19.8806 66.8355 20.51 66.325 21.0014C65.6154 21.6912 64.7588 21.8723 63.8243 21.5791C62.9331 21.2946 62.4658 20.6307 62.3187 19.7254C62.2409 19.2598 62.2668 18.7942 62.4053 18.3458C62.7773 17.1129 63.8589 16.5955 64.9578 16.7076C66.1086 16.8283 66.8874 17.6474 66.9912 18.8028C66.9999 18.9321 66.9999 19.0615 66.9999 19.1304ZM66.1 19.3287C66.1 18.7511 65.9789 18.3372 65.7885 18.0096C65.2607 17.1215 64.006 17.1991 63.5128 17.9665C63.0629 18.6562 63.0542 19.734 63.5042 20.4151C64.0666 21.2601 65.2001 21.2601 65.7712 20.4065C66.0135 20.0358 66.1 19.6305 66.1 19.3287Z" fill="white"/>
<path d="M121.544 19.3804C121.562 20.4064 122.176 21.0186 123.188 21.0272C123.413 21.0272 123.647 21.0186 123.872 20.9755C124.088 20.941 124.287 20.8548 124.495 20.7944C124.573 20.8634 124.564 20.9583 124.581 21.0445C124.677 21.4411 124.677 21.4497 124.27 21.5532C123.759 21.6911 123.232 21.7429 122.704 21.6825C121.683 21.579 120.939 20.9065 120.748 19.8977C120.601 19.1304 120.688 18.3975 121.094 17.725C121.622 16.8369 122.635 16.5352 123.552 16.7766C124.019 16.8973 124.365 17.1818 124.607 17.5957C124.893 18.0957 124.971 18.6303 124.945 19.1994C124.936 19.389 124.815 19.3632 124.694 19.3632C123.751 19.3632 122.808 19.3632 121.865 19.3632C121.761 19.3546 121.657 19.3373 121.544 19.3804ZM121.553 18.7165C121.787 18.7165 122.003 18.7165 122.219 18.7165C122.782 18.7165 123.344 18.7165 123.915 18.7165C123.993 18.7165 124.105 18.751 124.097 18.5958C124.062 18.1216 123.924 17.6905 123.465 17.4663C123.015 17.2422 122.557 17.268 122.15 17.5784C121.778 17.8543 121.614 18.2423 121.553 18.7165Z" fill="white"/>
<path d="M90.1106 21.0098C89.678 21.5013 89.1675 21.7255 88.5532 21.6996C87.887 21.6737 87.3938 21.3202 87.2121 20.7512C87.0218 20.1476 87.2294 19.4837 87.7312 19.0957C88.1465 18.7767 88.6311 18.6474 89.1415 18.5784C89.3838 18.5439 89.6347 18.5267 89.8856 18.5267C90.0414 18.5267 90.0587 18.4577 90.0587 18.3284C90.0241 17.7162 89.678 17.3713 89.055 17.3455C88.5878 17.3282 88.1465 17.4403 87.7399 17.6731C87.6447 17.6214 87.6447 17.5265 87.6188 17.4403C87.4976 17.0868 87.4976 17.0868 87.8264 16.9489C88.3888 16.7161 88.9685 16.6298 89.5741 16.7333C90.1971 16.8454 90.6211 17.1903 90.8114 17.8024C90.8893 18.0439 90.9239 18.2853 90.9239 18.5353C90.9239 18.9147 90.9239 19.2854 90.9239 19.6648C90.9239 20.2425 90.9066 20.8115 90.9758 21.3892C91.0018 21.5961 90.9931 21.6048 90.8114 21.5961C90.6211 21.5961 90.3961 21.6651 90.2577 21.5703C90.1106 21.4668 90.1798 21.2254 90.1106 21.0098ZM90.076 19.6476C90.076 19.5182 90.076 19.3889 90.076 19.2596C90.076 19.1733 90.0414 19.1302 89.9549 19.1302C89.4703 19.1475 88.9771 19.1647 88.5359 19.3975C88.1119 19.6217 87.9389 20.0528 88.0773 20.5098C88.1638 20.7857 88.3455 20.9667 88.6397 21.0271C89.3838 21.1823 90.0673 20.6391 90.0846 19.8804C90.076 19.8028 90.076 19.7252 90.076 19.6476Z" fill="white"/>
<path d="M105.814 16.8109C105.866 17.0609 105.823 17.2937 105.892 17.5092C105.97 17.5006 105.987 17.4403 106.022 17.3972C106.532 16.7936 107.19 16.5781 107.942 16.7677C108.669 16.9488 109.033 17.4834 109.154 18.1904C109.18 18.3542 109.197 18.5266 109.197 18.6905C109.206 19.5785 109.197 20.4752 109.197 21.3633C109.197 21.5961 109.197 21.6047 108.972 21.5961C108.764 21.5961 108.505 21.6823 108.366 21.5616C108.219 21.4323 108.315 21.1736 108.315 20.9667C108.306 20.2942 108.315 19.6216 108.315 18.9491C108.315 18.7336 108.297 18.5094 108.254 18.3025C108.09 17.5523 107.345 17.2075 106.662 17.561C106.169 17.811 105.961 18.2421 105.944 18.7767C105.935 19.1905 105.944 19.6044 105.944 20.0269C105.944 20.4925 105.944 20.9581 105.944 21.4236C105.944 21.5616 105.918 21.622 105.762 21.6133C105.598 21.6047 105.425 21.6047 105.252 21.6133C105.105 21.622 105.053 21.5616 105.07 21.4236C105.07 21.3978 105.07 21.3633 105.07 21.3374C105.061 19.8889 105.096 18.449 105.035 17.0005C105.027 16.854 105.061 16.8022 105.208 16.8109C105.425 16.8195 105.606 16.8109 105.814 16.8109Z" fill="white"/>
<path d="M74.8564 16.8108C75.0554 16.8108 75.2544 16.8195 75.4534 16.8108C75.5745 16.8022 75.6351 16.8453 75.6351 16.9747C75.6351 17.1471 75.6524 17.3282 75.6611 17.5178C75.7736 17.5006 75.7995 17.4144 75.8428 17.3626C76.3619 16.785 77.0109 16.5867 77.755 16.7763C78.3088 16.9143 78.6635 17.285 78.8539 17.8196C78.9404 18.061 78.9923 18.3197 78.9923 18.5784C78.9923 19.5182 78.9923 20.458 78.9923 21.3978C78.9923 21.6133 78.9836 21.6133 78.7846 21.6133C78.6116 21.6133 78.4472 21.6047 78.2741 21.6133C78.153 21.622 78.1097 21.5616 78.1184 21.4581C78.1184 21.3978 78.1184 21.3374 78.1184 21.2771C78.1184 20.5269 78.1184 19.7682 78.1184 19.0181C78.1184 18.7508 78.1097 18.4835 78.0319 18.2249C77.8242 17.5351 77.132 17.2333 76.4917 17.5523C76.0158 17.7937 75.7649 18.1904 75.7562 18.7163C75.7476 19.5613 75.7562 20.3976 75.7562 21.2426C75.7562 21.6564 75.8168 21.6047 75.3928 21.6047C75.2284 21.6047 75.0208 21.6823 74.9083 21.5616C74.8045 21.4581 74.8737 21.2598 74.8737 21.1046C74.865 19.8286 74.865 18.5525 74.8564 17.2764C74.8564 17.1298 74.8564 16.9919 74.8564 16.8108Z" fill="white"/>
<path d="M113.784 15.4314C113.784 15.8366 113.784 16.2074 113.784 16.5867C113.784 16.8023 113.784 16.8109 114.018 16.8109C114.294 16.8109 114.571 16.8195 114.857 16.8109C114.987 16.8109 115.047 16.8281 115.056 16.9833C115.064 17.4748 115.073 17.4748 114.58 17.4748C114.381 17.4748 114.182 17.4834 113.983 17.4748C113.819 17.4662 113.784 17.5351 113.784 17.6817C113.793 18.0956 113.784 18.5094 113.784 18.9319C113.784 19.2854 113.784 19.6476 113.784 20.0011C113.784 20.1735 113.801 20.3373 113.836 20.5011C113.905 20.8288 114.104 20.9926 114.442 20.9926C114.528 20.9926 114.623 20.984 114.71 20.9753C114.961 20.9581 114.961 20.9581 114.969 21.2168C114.987 21.6479 114.987 21.6479 114.554 21.691C114.39 21.7082 114.217 21.7168 114.052 21.6996C113.472 21.6479 113.126 21.3375 112.988 20.7857C112.927 20.5356 112.927 20.277 112.927 20.0183C112.927 19.2596 112.927 18.4922 112.927 17.7335C112.927 17.4748 112.927 17.4748 112.668 17.4748C112.547 17.4748 112.426 17.4748 112.313 17.4748C112.209 17.4748 112.183 17.4317 112.175 17.3282C112.14 16.8109 112.131 16.8109 112.65 16.8109C112.702 16.8109 112.754 16.8109 112.798 16.8109C112.901 16.8195 112.936 16.7678 112.927 16.6643C112.927 16.397 112.936 16.1298 112.919 15.8625C112.91 15.7073 112.962 15.6297 113.126 15.6038C113.343 15.5607 113.542 15.5003 113.784 15.4314Z" fill="white"/>
<path d="M81.017 18.0785C81.017 19.1648 81.017 20.2512 81.017 21.3376C81.017 21.5963 81.017 21.5963 80.7574 21.5963C80.6103 21.5963 80.4632 21.5876 80.3075 21.5963C80.1604 21.6049 80.1084 21.5359 80.1258 21.4066C80.1344 21.3548 80.1258 21.3117 80.1258 21.26C80.1258 19.139 80.1258 17.0093 80.1258 14.8883C80.1258 14.5089 80.0912 14.5607 80.4632 14.5607C80.5757 14.5607 80.6796 14.5607 80.792 14.5607C81.0084 14.5607 81.017 14.5607 81.017 14.7935C81.017 15.8885 81.017 16.9835 81.017 18.0785Z" fill="white"/>
</svg>
