<svg xmlns="http://www.w3.org/2000/svg" viewBox="0 0 238.69 202.66"><defs><style>.cls-1{fill:#352419;opacity:0.1;}.cls-1,.cls-17,.cls-19,.cls-21,.cls-9{isolation:isolate;}.cls-2{fill:#bf6828;}.cls-3{fill:#1a1a1a;}.cls-4{fill:#754e25;}.cls-17,.cls-5{fill:#f8b093;}.cls-6,.cls-9{fill:#55391d;}.cls-7{fill:#c6b199;}.cls-8{fill:#9d5124;}.cls-17,.cls-9{opacity:0.5;}.cls-10{fill:#010101;}.cls-11{fill:#faaf3a;}.cls-12{fill:#c2742a;}.cls-13{fill:#b5d6ea;}.cls-14{fill:#276eb6;}.cls-15{fill:#3897d3;}.cls-16{fill:#d3edfa;}.cls-18{fill:#732a16;}.cls-19{fill:#2680bb;opacity:0.3;}.cls-20{fill:none;}.cls-21{fill:#fff3b0;opacity:0.36;}.cls-22{fill:#499744;}.cls-23{fill:#327238;}.cls-24{fill:#2e5f2e;}.cls-25{fill:#438b41;}.cls-26{fill:#76b943;}.cls-27{fill:#abd037;}.cls-28{fill:#53a345;}</style></defs><title>Asset 1</title><g id="Layer_2" data-name="Layer 2"><g id="Layer_1-2" data-name="Layer 1"><path class="cls-1" d="M16.15,115.49l128.4,77.67c21.54,12.67,56.45,12.67,78,0s21.54-33.22,0-45.89L94.14,69.6c-21.54-12.67-56.45-12.67-78,0S-5.38,102.82,16.15,115.49Z"/><path class="cls-1" d="M12.73,107l34.71,20.49c4.82,2.84,12.64,2.84,17.46,0s4.82-7.44,0-10.28L30.19,96.71c-4.82-2.84-12.64-2.84-17.46,0S7.91,104.15,12.73,107Z"/><path class="cls-2" d="M161.23,97.1l-2.12,17.54c-.57,3.2-1,5.47-4.17,5l-10.29-1.82h-1.41a7.64,7.64,0,0,1-2.28,3.39,2.85,2.85,0,0,1-1.23.51c-6.54,1-5.48-7.43-5.48-7.43l1.13-3.31,3.12-1.4.27-.12,3,.93,9.94,1.5s-.68-10.94-.79-11.4S161.23,97.1,161.23,97.1Z"/><path class="cls-3" d="M141,121.19a2.85,2.85,0,0,1-1.23.51c-6.54,1-5.48-7.43-5.48-7.43l1.13-3.31,3.12-1.4a2,2,0,0,1,.66.64c.77,1.17.24,2.72,0,4.1a8.31,8.31,0,0,0,.94,5.2A7.36,7.36,0,0,1,141,121.19Z"/><path class="cls-4" d="M84.13,34.51a112.65,112.65,0,0,0-9.81,7,36.88,36.88,0,0,0-8,8.75,24.64,24.64,0,0,0-3.7,11.22,25.55,25.55,0,0,0,1.85,11.81l-.66.31a26.58,26.58,0,0,1-2.41-12.2,26.26,26.26,0,0,1,3.45-12,38.76,38.76,0,0,1,8-9.57,115.42,115.42,0,0,1,9.72-7.53Z"/><path class="cls-2" d="M114.15,103.76c-2.75,3.38-8.46-4.7-8.46-4.7l.29-1.37.18-.84-1.76-2.16V91.76L99.24,72.67c0-.86,5.4.83,7.71,1.13l2.58,4,.8,12.37a18.47,18.47,0,0,0,1.44,5.05c.75,1.23,1.69,2.37,2.39,3.5C115.16,100.33,115.62,102,114.15,103.76Z"/><path class="cls-5" d="M107.93,76a8.79,8.79,0,0,1-.92,3.91,9.7,9.7,0,0,1-2.15,2.85,10.21,10.21,0,0,1-1.5,1.17,6.48,6.48,0,0,0,.43,1.85A4.45,4.45,0,0,1,104.2,87a1.07,1.07,0,0,1-.53,1.09.9.9,0,0,1-1-.25,2,2,0,0,1-.48-1,13.34,13.34,0,0,1-.22-2.2,12.54,12.54,0,0,1-4.64,1.17l-.18,2.47c0,.31-.09.68-.37.81a.57.57,0,0,1-.57-.12,1.31,1.31,0,0,1-.31-.52,8,8,0,0,1-.33-2.63,12.61,12.61,0,0,1-5.18-1.52l-.69,2.18c-.12.38-.3.82-.68.91a.82.82,0,0,1-.89-.67,3.06,3.06,0,0,1,.07-1.24,9.52,9.52,0,0,0,.16-2.13c0-.17,0-.35,0-.54a9.25,9.25,0,0,1-3.2-6.89,9.47,9.47,0,0,1,4.08-7.61,12.21,12.21,0,0,1,6.53-2.28c.25,0,.52,0,.77,0C102.84,66,107.93,70.49,107.93,76Z"/><path class="cls-2" d="M174.14,83.91,163,91l-1.72,7.68L152.55,105a21.73,21.73,0,0,1-18.11-1.1l-15.35-8.17a23,23,0,0,1-5.61-4.21l-8.6-8.77L95.52,73.2l-6.25-4.84-.92-.72L77.23,59,74.86,42.43l2.69-8.08a5.18,5.18,0,0,1,1.53-2.29,4.25,4.25,0,0,1,1.15-.78l10-4.85A5.22,5.22,0,0,1,93.22,26l11.38,1.64a7.1,7.1,0,0,1,3,1.13l7.81,5.2,26.3,11.39A7.42,7.42,0,0,1,144,47l9.84,10,9.16-.27.88,0,3.35-.08a4.09,4.09,0,0,1,4.16,3.65l.34,3,1.67,14.27.21,1.7Z"/><path class="cls-6" d="M63.57,75.77a20.86,20.86,0,0,0,1.9,3A5.62,5.62,0,0,1,66.62,82a9.72,9.72,0,0,0,.17-6.1c-.38-1.27-1.46-3.82-2.78-4.36-1-.4-1,.36-1,1.43A6.28,6.28,0,0,0,63.57,75.77Z"/><path class="cls-7" d="M174.13,83.9l-9.19,5.82a5.73,5.73,0,0,0-2.51,3.59l-.26,1.17a11.3,11.3,0,0,1-4.36,6.67L152.55,105A21.66,21.66,0,0,1,140.49,106l-.58-1.44,3.67-1.36a13.71,13.71,0,0,0,8.7-10.66,9.38,9.38,0,0,1,4.06-6.3L161.23,83l6-7.94,6.19,2.35Z"/><path class="cls-8" d="M174.14,83.91,163,91l-1.72,7.68L152.55,105a21.73,21.73,0,0,1-18.11-1.1l-15.35-8.17a23,23,0,0,1-5.61-4.21l-8.6-8.77L95.52,73.2l-6.25-4.84-.92-.72,4.47-6.27c1,1.68,2,3.24,3,4.71A79.08,79.08,0,0,0,107,79.88c7.39,7.06,15.31,10.9,27.19,17.16l7.1-.93A10.13,10.13,0,0,0,149.67,89l.49-1.57a6,6,0,0,1,3.17-3.67,6,6,0,0,0,3.41-5.8,6.76,6.76,0,0,0-4.56-2.57,41.35,41.35,0,0,1-7.49-2.55c-3.86-2.2-5.26-3.47-1.56-8.32s5.21-3.69,11.85-4.31c1.72-.16,5.53-2.21,8.91-3.55,2.58-1,4.9-1.64,5.82-.68a8.5,8.5,0,0,1,2.13,6.44c0,.27-.05.52-.09.78a12.39,12.39,0,0,1-6.41,8.68A15.32,15.32,0,0,1,162.6,73l11,6.13Z"/><path class="cls-2" d="M100.59,63.35,93.17,72.5a18.54,18.54,0,0,1-6.53,5.13l-6.39,3-3,12.26a5.41,5.41,0,0,0,.65,4.1,17.91,17.91,0,0,1,1.38,2.63c.83,2,1.17,4.18-.38,5.44-3.38,2.74-8.46-4.69-8.46-4.69l.36-1.68.12-.54-1.17-2,1.1-3.36.38-15.17a3,3,0,0,1,1.43-2.54c4-2.25,3.61-9.56,4.55-16.05l1-11.74Z"/><path class="cls-2" d="M154.14,145.73c-4.74,3.92-8.93-1.84-8.93-1.84v-2.53L144,140.21V137.1L141,124a26.49,26.49,0,0,1-2.83-6,31.93,31.93,0,0,1-.34-7.16L131.54,96V88.51l13.66,5.87L145,110.61a20.17,20.17,0,0,1,2,5.29,22.67,22.67,0,0,1-.45,6l4.06,15.43a21.23,21.23,0,0,1,3.11,3.61C154.87,142.64,155.55,144.56,154.14,145.73Z"/><path class="cls-3" d="M78.9,105.05c-3.38,2.74-8.46-4.69-8.46-4.69l.36-1.68c.51.31,1,.8,1.38,1.08a18.72,18.72,0,0,0,2.91,1.75,5.13,5.13,0,0,0,1.89.58,2.08,2.08,0,0,0,1.77-.73,3.86,3.86,0,0,0,.53-1.76C80.11,101.61,80.45,103.8,78.9,105.05Z"/><path class="cls-3" d="M114.15,103.76c-2.75,3.38-8.46-4.7-8.46-4.7l.29-1.37a14.44,14.44,0,0,1,1.55,1.37,4.77,4.77,0,0,0,6.63-.38C115.16,100.33,115.62,102,114.15,103.76Z"/><path class="cls-3" d="M154.14,145.73c-4.74,3.92-8.93-1.84-8.93-1.84v-1.74l.16,0c1,.19,1.92.95,2.91,1.2a5.07,5.07,0,0,0,4.27-.63,3.36,3.36,0,0,0,1.19-1.82C154.87,142.64,155.55,144.56,154.14,145.73Z"/><path class="cls-2" d="M174.28,51.28c1.16-1.39,2.43-2.85,4.15-3.35,2.23-.65,4.56.47,6.62,1.57a3.16,3.16,0,0,1,1.76,1.64c.33,1.08-.52,2.14-1.3,3A11.17,11.17,0,0,1,181.84,57a10.86,10.86,0,0,1-4.58.45c-1.16,0-6.39.43-6.77-.82S173.57,52.13,174.28,51.28Z"/><path class="cls-9" d="M176.11,53.1a10.31,10.31,0,0,1,3.19-2.92,5.09,5.09,0,0,1,4.44,0,2.18,2.18,0,0,1,1.4,2.06,2.7,2.7,0,0,1-1.06,1.48,9.7,9.7,0,0,1-3.09,2,9.52,9.52,0,0,1-3.28.32c-.63,0-3.23.29-3.48-.32S175.73,53.49,176.11,53.1Z"/><path class="cls-2" d="M188.61,90.68a10.06,10.06,0,0,1-5.5,1.72H183a5.15,5.15,0,0,1-4.54-2.4l-1.69-4.11-8.68-1.2a10.86,10.86,0,0,1-8.23-6L156.05,71l-1.12-8.86,10.93-7.57a4,4,0,0,1,2.28-.72H175a4,4,0,0,1,3,1.4l2.51,2.88a4.21,4.21,0,0,1,1,2.1l.72,4.56,6.32,10.94,1.5,1.53,1.55,1.58c.13.3.25.58.38.86C194.38,85.05,195.4,86.23,188.61,90.68Z"/><path class="cls-2" d="M149.91,62.06a9.94,9.94,0,0,0-4,.93c-1.68.94-2.67,2.74-3.58,4.46-.57,1.08-1.16,2.36-.68,3.49s1.82,1.57,3,1.87a26.41,26.41,0,0,0,5.56,1,9,9,0,0,0,5.4-1.35A11.55,11.55,0,0,0,159,68.23a8.94,8.94,0,0,0,1.27-3.76c.09-2.08-.87-3.21-2.78-3.09C155,61.55,152.44,61.83,149.91,62.06Z"/><path class="cls-9" d="M149.9,72.38c1.84.14,3.89,0,5.19-1.36s1.48-3.49,1.54-5.42a1.49,1.49,0,0,0-.25-1.08,1.33,1.33,0,0,0-.89-.32,14.84,14.84,0,0,0-8.4,1.78c-1.74,1-6.17,3.62-2.74,5.18A16.91,16.91,0,0,0,149.9,72.38Z"/><path class="cls-7" d="M188.61,90.68a10.06,10.06,0,0,1-5.5,1.72H183a5.15,5.15,0,0,1-4.54-2.4l-1.69-4.11c1.16-1,6.52-4.41,6.52-4.41s-2.58-4.46-3.92-7.15a53.07,53.07,0,0,0-4.91-7.61l-.39-.53c-.69-1-3.5-1.37-3.75-2.52.83-.82,3.58-3.44,4.46-4.3a20,20,0,0,1,2.31,1.91c.51,1.37,1,2.56,1.37,3.89a18.2,18.2,0,0,0,5.9,9.14c2.3,1.89,3.11,2.64,4.71,3.21a1.33,1.33,0,0,0,1.05-.25l1.55,1.58c.13.3.25.58.38.86.2.45.39.86.56,1.26s.45,1,.63,1.47C194.48,85.64,194.07,87.11,188.61,90.68Z"/><path class="cls-3" d="M182.43,87.65a.65.65,0,0,0-.88,0,.68.68,0,0,0,0,.9,1.27,1.27,0,0,0,1,.23l3.49-.24c.18,0,.4,0,.48-.21s-.26-.55-.58-.61a14.43,14.43,0,0,0-3.71-.24Z"/><path class="cls-3" d="M193.2,82.42s0,.06,0,.09a7.84,7.84,0,0,1-.81,2c-.14.26-.42.57-.66.4s-.14-.34-.12-.53c.12-.82.26-2.74.85-3.35l.12-.11C192.81,81.48,193,82,193.2,82.42Z"/><path class="cls-10" d="M168.12,71.85a1.4,1.4,0,0,0,.7,1,1.78,1.78,0,0,0,1.24.19,1.34,1.34,0,0,0,1-.7,1.26,1.26,0,0,0-.56-1.48C169.62,70.33,168,70.42,168.12,71.85Z"/><path class="cls-10" d="M181.32,64a1.22,1.22,0,0,0,.06,1.13.71.71,0,0,0,1,.19,1.17,1.17,0,0,0,.27-.9,2.26,2.26,0,0,0-.11-.82C182.17,62.61,181.56,63.36,181.32,64Z"/><path class="cls-11" d="M43.59,6.07l-.25.16L41.45,7.42l-1.24.78L32.56,13l-1,.61-1,.62-.31.2A15.17,15.17,0,0,1,29,11.8,12.52,12.52,0,0,1,28.06,8h0L29,3.81l2.33-2.38,4-1s0,0,0,0l3.45,1.31a.19.19,0,0,1,.09,0,17,17,0,0,1,3.37,2.79A19.53,19.53,0,0,1,43.59,6.07Z"/><path class="cls-12" d="M46.85,11.4c-.35.33-.71.66-1.1,1l-.91.78c-.57.45-1.16.91-1.78,1.34-1,.72-2.06,1.41-3.17,2.07s-2.21,1.23-3.29,1.74q-.49.24-1,.45c-.39.18-.78.34-1.17.49a29.38,29.38,0,0,1-2.93,1c-4.74,1.37-8.57,1.1-9.79-1.05C20.26,16.66,23,12.13,28.05,8h0A40.42,40.42,0,0,1,33,4.56l.06,0c.61-.36,1.22-.7,1.82-1l.06,0a38.32,38.32,0,0,1,3.81-1.73l0,0a.19.19,0,0,1,.09,0c5.9-2.28,10.93-2.34,12.36.18C52.48,4.1,50.63,7.78,46.85,11.4Z"/><path class="cls-5" d="M58.83,41.59l1.68-.35L62,40.86l2.59-.17a2.46,2.46,0,0,0,1.8-1l.19-.26c.48-.11.56-.47.74-.94l.68-.91,0-1-.21-1.94c0-1-.4-.81-.83-.48l-.11.77-.65.6-1.57,1.26L64.36,35l1.22-1,.75-.45c.64-.44.35-.92-.29-.77l-1.67.58-2.24,1.73L60.74,37.9l-1.89,1.25Z"/><path class="cls-13" d="M46.17,21.54c3,2.54,4.33,10.68,5.54,17.1l8.76-.51a2,2,0,0,0,.52,3c-4.3,2.51-8.62,3.14-13.09,3.51-5.83-.87.42-13.37-6.33-15.42Z"/><path class="cls-10" d="M28.17,99.78l-3.34-2.72a8,8,0,0,1-1-1.91c-.05-.15-.1-.29-.14-.44a5.8,5.8,0,0,1-.22-1.22c-2.22-.4-4.27-1.4-5-3.58l-.21.16c-.21.1-.41.22-.61.33h0c-2.57.47-3.44,2.18-3.7,4.34a3.09,3.09,0,0,0,.45,1.16c.92,1.39,2.9,1.72,4.22,2.85,3.75,3.22,3.55,5,5.72,5.71,2.63.86,6.54-.1,6.87-1.3C31.45,102.18,30.73,101.06,28.17,99.78Zm-2.42-1.63c.29.29.58.59.91.88Z"/><path class="cls-10" d="M60.82,121.86a16.38,16.38,0,0,1-4-6l-.08-.2c-.1-.22-.19-.45-.27-.68l0-.08a11.87,11.87,0,0,1-4.85-.1l.12.29a3.27,3.27,0,0,0-1.15,1.34,6.66,6.66,0,0,0-.2,4.09c.85,1.46,2.07,2.34,3.48,4.48l1.32,1.41c2.64,1.78,7.37,2,9,1.07C65.24,126,64,124.49,60.82,121.86Z"/><path class="cls-14" d="M47.81,54.5l-15.45.14c2.26,5.53-1,8.14-2.69,18.66-9.18,4.17-8.38,13.09-12,17.09.65,3.82,5.95,5.56,8.58,4.41-.15-2.2,1.85-11.37,14.95-19.19A35.63,35.63,0,0,0,47.81,54.5Z"/><path class="cls-15" d="M56.82,115.88c-1.28,1.1-4.41,1-6.68.48h-.06a5.93,5.93,0,0,1-2.25-.9C44.36,106,40.41,100,41.94,90.39c-3-9.91-10-11-13.84-25.16-1.29-3.81-.6-6.78.57-10.73H48.16c0,.41-.11.82-.2,1.23a13.9,13.9,0,0,1-5.63,8.91c3.15,6,5.17,14.09,6.63,23.25,2,6.29,4.08,17,7.26,26.46Z"/><path class="cls-15" d="M47.82,44l.2,2.18.5,5.51A8.66,8.66,0,0,1,48,55.73l-.2.42c-2.67,5.27-9.73,5.22-14.63,2.63a10.18,10.18,0,0,1-4.46-4.28,10.85,10.85,0,0,1,1.23-3,8.24,8.24,0,0,0,1-2.24,2.34,2.34,0,0,0,.05-.3,4.07,4.07,0,0,0-.3-2.18c-.68-1.74-1.28-3.34-1.74-4.64-.11-.33-.22-.63-.32-.9a.14.14,0,0,0,0-.06c-.09-.27-.18-.5-.25-.73L27.76,39c-.19-.56-.37-1.1-.53-1.61s-.31-1-.44-1.46c-1-3.4-.88-5.71,1.9-8.15.65-.49,1.31-.95,2-1.4l1-.64C35.78,23,40,21.4,44.45,21.4l.84,0c2.37-.69,2.17,5.4,2.74,9,.35,2.24,3.76,5.34,3.9,7.6C52.25,43.43,47.82,44,47.82,44Z"/><path class="cls-16" d="M30.57,46.73C28.87,42.4,27.74,39,27.74,39c-.38-1.12-.72-2.13-1-3.07-1-3.4-.88-5.71,1.9-8.15a5.54,5.54,0,0,1,.65-.49c2.77.93,4,6,5.06,15.23C34.71,45.3,33.32,47.12,30.57,46.73Z"/><path class="cls-16" d="M46,32.16C44,34.83,37,36.51,37,36.51,35.85,28.11,31.6,25.7,31.6,25.7c4.16-2.65,7.06-4.21,11.48-4.21C45.81,24.33,46,32.16,46,32.16Z"/><path class="cls-5" d="M34.38,17.36l.19,7.14,2.23,3.67c.31.5.78,1.21,1.36,2,2.19,3.15,7,.48,5.55-3.1l-.24-.59-.36-2-.89-3.76Z"/><path class="cls-17" d="M36,19.89c0,.08,1,7.59,5,7.37,2.51-.14,2-5.77,2-5.77Z"/><path class="cls-5" d="M43.05,24.24c-1.82.83-4.48-1.14-5.68-2.17a3.48,3.48,0,0,1-.94-1.3l-1-2.38-1.54.12s-2.72-.34-2.3-5.72c.21-2.69,4-5.76,6.85-5.77,4.4,0,5.57,2,6.73,3.81s.5,5.6.5,5.6S45.5,23.12,43.05,24.24Z"/><path class="cls-18" d="M47,16.72,44.1,12v0l-2,4.8v0h0L36.78,21.4h0c-1.21,1-.93,3.72-.85,4.29l0,.11-3.35-3.59a11.67,11.67,0,0,1-1.75-3.87,10.4,10.4,0,0,1-.32-2.08.53.53,0,0,0,0-.12,13.36,13.36,0,0,1,.19-2.76C31.36,9.63,36.46,5,42,5.89c6,1,4.8,7,4.66,8.05A7.51,7.51,0,0,0,47,16.72Z"/><path class="cls-19" d="M50.14,116.36h-.06a5.93,5.93,0,0,1-2.25-.9C44.36,106,40.41,100,41.94,90.39c-3-9.91-10-11-13.84-25.16-1.29-3.81-.6-6.78.57-10.73a10.85,10.85,0,0,1,1.23-3,8.24,8.24,0,0,0,1-2.24,1.34,1.34,0,0,0,.05-.3,4.07,4.07,0,0,0-.3-2.18c-.68-1.74-1.28-3.34-1.74-4.64-.11-.33-.22-.63-.32-.9a.14.14,0,0,0,0-.06c-.09-.27-.18-.5-.25-.73L27.76,39c-.19-.56-.37-1.1-.53-1.61s-.31-1-.44-1.46c.27-1.65.62-3.08,1-2.71,6.49,6.86,7,15.22,13.57,14.41,3.63-.46,4.31-4.75,4.31-4.75.94.83,1.32,1.22,2.2,1.13l.2,2.18c-3.74,2.83-9.35,4-12.73,8.35a12.56,12.56,0,0,0-2.16,4.28,15.91,15.91,0,0,0-.4,1.71c-2.52,7.3,6.45,16.38,10.3,26.54C47.82,98,42.1,99.58,50.14,116.36Z"/><path class="cls-5" d="M15.51,60.09,14.28,62l-4.09,3L8.41,67.33,6.92,70.14c-.32.5-.1,1,.22.77l-.66,1.18c-.48.85,0,1.14.62.47L10,69,7.45,73c-.46.75.1,1.1.66.39l3.28-3.93L9.5,72.83c-.49.91-.05,1.32.66.51l4.23-5.22L14,70.59,14,71.91c0,.87.79.81,1-.13l.31-1.18,1-1.91L16.66,64l.55-3.13Z"/><path class="cls-16" d="M27.74,29.2c-1.91.53-4.6,7.54-7.38,15.31C17.9,47.82,16.56,56,14,62.19A7,7,0,0,1,17.21,64c2.21-6.66,6.14-11.22,6.65-16.68,2.21-3.24,4.75-6.45,6.43-8.92C32.66,35.12,30.8,29.2,27.74,29.2Z"/><path class="cls-18" d="M62.86,43.15a37.43,37.43,0,0,1,2-6.12c.79-2,1.72-3.88,2.7-5.76A87.41,87.41,0,0,1,74.32,20.6l1.9-2.51c.65-.82,1.34-1.62,2-2.43C79.53,14,81,12.51,82.39,11s2.94-3,4.4-4.48L91.4,2.22a.13.13,0,1,1,.17.19L87,6.74c-1.43,1.52-2.92,3-4.31,4.55s-2.79,3.11-4.06,4.77c-.65.82-1.31,1.62-2,2.45L74.88,21a85.64,85.64,0,0,0-6.51,10.69c-.93,1.87-1.81,3.76-2.55,5.71A37,37,0,0,0,64,43.36a.59.59,0,1,1-1.17-.2Z"/><path class="cls-12" d="M36.6,9.89c4.31-2.54,8.61-3.16,9.61-1.4L44.52,3.82,34.93,6.59l-7.45,6.49,3.13,4.59C29.61,15.91,32.29,12.43,36.6,9.89Z"/><line class="cls-20" x1="80.26" y1="80.62" x2="89.97" y2="76.71"/><path class="cls-21" d="M153.81,56.92l-9.84-10a7.38,7.38,0,0,0-2.34-1.6L115.33,34l-7.8-5.2a7.24,7.24,0,0,0-3-1.14L93.18,26a5,5,0,0,0-2.93.46l-10,4.85a5,5,0,0,0-1.16.78,18.15,18.15,0,0,0-1.34,6.16c0,1.16.14,2.54,1.15,3.07a1.72,1.72,0,0,0,1.12.18l15.31,2.43.72.36,11.09,5.44c4.6,2.83,10,4,15.22,5.4,5.46,1.52,11.09,3.61,14.76,8,1.52,1.81,2.91,4.14,5.22,4.52A19.09,19.09,0,0,1,144.6,64a4.82,4.82,0,0,1,2.4-1.52c2.91-.76,7.69-.9,11.07-1.21a12.28,12.28,0,0,0,3.53-2.16A4.75,4.75,0,0,0,163,56.67Z"/><polygon class="cls-5" points="45.81 15.48 45.58 20.25 43.97 23.58 41.77 24.42 39.68 23.94 36.77 21.4 40.97 19.61 43.59 16.07 45.81 15.48"/><path class="cls-18" d="M36.77,21.4l-.84,4.4A14.83,14.83,0,0,1,35,23c.08-.37,1-2.69,1-2.69Z"/><path class="cls-18" d="M35.93,25.81l-3.35-3.59a11.67,11.67,0,0,1-1.75-3.87l-.32-2.08,0-.12h0l1.23-.42L35,20l.88,5.74Z"/><polygon class="cls-18" points="38.77 1.73 38.73 1.75 34.92 3.48 34.86 3.51 33.78 4.01 33.04 4.52 32.98 4.56 28.04 7.99 28.04 7.98 28.96 3.82 31.28 1.44 35.28 0.42 35.29 0.41 35.32 0.42 38.77 1.73"/><polygon class="cls-15" points="31.6 25.7 34.68 28.32 36.46 32.03 36.98 36.51 35.51 35.77 33.64 29.61 31.6 25.7"/><polygon class="cls-15" points="29.32 27.24 31.73 29.74 33.02 33.68 34.85 32.93 33.64 29.61 32.53 28.07 29.32 27.24"/><polygon class="cls-15" points="46.54 21.86 47.79 25.48 48.19 31.11 46.04 32.16 45.2 26.04 44.19 23.14 45.28 21.86 46.54 21.86"/><polygon class="cls-16" points="29.32 27.24 25.58 30.46 20.36 44.51 27.48 39.37 30.77 32.75 29.32 27.24"/><polygon class="cls-22" points="131.25 190.65 132.4 178.5 145.03 185.62 131.25 190.65"/><polygon class="cls-23" points="131.25 190.65 145.28 195.24 145.03 185.62 131.25 190.65"/><polygon class="cls-23" points="131.25 190.65 123.51 181.26 132.4 178.5 131.25 190.65"/><polygon class="cls-24" points="123.51 181.26 126.78 169.37 132.4 178.5 123.51 181.26"/><polygon class="cls-22" points="126.78 169.37 141.38 172.87 132.4 178.5 126.78 169.37"/><polygon class="cls-25" points="126.78 169.37 135.68 163.18 141.38 172.87 126.78 169.37"/><polygon class="cls-25" points="141.38 172.87 145.03 185.62 132.4 178.5 141.38 172.87"/><polygon class="cls-26" points="141.38 172.87 147.1 171 135.68 163.18 141.38 172.87"/><polygon class="cls-27" points="135.68 163.18 147.63 166.31 147.1 171 135.68 163.18"/><polygon class="cls-28" points="145.03 185.62 147.1 171 141.38 172.87 145.03 185.62"/><polygon class="cls-26" points="147.1 171 157.41 180.17 147.63 166.31 147.1 171"/><polygon class="cls-25" points="157.41 180.17 145.03 185.62 147.1 171 157.41 180.17"/><polygon class="cls-24" points="145.28 195.24 154.6 189.57 145.03 185.62 145.28 195.24"/><polygon class="cls-23" points="154.6 189.57 157.41 180.17 145.03 185.62 154.6 189.57"/><polygon class="cls-22" points="109.68 175.56 113.14 164.47 126.78 169.37 109.68 175.56"/><polygon class="cls-23" points="109.68 175.56 123.51 181.26 126.78 169.37 109.68 175.56"/><polygon class="cls-24" points="109.68 175.56 103.09 166.69 113.14 164.47 109.68 175.56"/><polygon class="cls-22" points="103.09 166.69 105.81 151.23 113.14 164.47 103.09 166.69"/><polygon class="cls-26" points="105.81 151.23 118.92 159.1 113.14 164.47 105.81 151.23"/><polygon class="cls-27" points="105.81 151.23 114.1 148.09 118.92 159.1 105.81 151.23"/><polygon class="cls-28" points="118.92 159.1 126.78 169.37 113.14 164.47 118.92 159.1"/><polygon class="cls-26" points="118.92 159.1 126.34 157.45 114.1 148.09 118.92 159.1"/><polygon class="cls-27" points="114.1 148.09 129 152.1 126.34 157.45 114.1 148.09"/><polygon class="cls-22" points="126.78 169.37 126.34 157.45 118.92 159.1 126.78 169.37"/><polygon class="cls-26" points="126.34 157.45 135.68 163.18 129 152.1 126.34 157.45"/><polygon class="cls-28" points="135.68 163.18 126.78 169.37 126.34 157.45 135.68 163.18"/><polygon class="cls-22" points="203.16 139.21 204.11 129.17 214.55 135.05 203.16 139.21"/><polygon class="cls-23" points="203.16 139.21 214.76 143 214.55 135.05 203.16 139.21"/><polygon class="cls-23" points="203.16 139.21 196.76 131.45 204.11 129.17 203.16 139.21"/><polygon class="cls-24" points="196.76 131.45 199.46 121.62 204.11 129.17 196.76 131.45"/><polygon class="cls-22" points="199.46 121.62 211.53 124.52 204.11 129.17 199.46 121.62"/><polygon class="cls-25" points="199.46 121.62 206.82 116.51 211.53 124.52 199.46 121.62"/><polygon class="cls-25" points="211.53 124.52 214.55 135.05 204.11 129.17 211.53 124.52"/><polygon class="cls-26" points="211.53 124.52 216.26 122.97 206.82 116.51 211.53 124.52"/><polygon class="cls-27" points="206.82 116.51 216.7 119.09 216.26 122.97 206.82 116.51"/><polygon class="cls-28" points="214.55 135.05 216.26 122.97 211.53 124.52 214.55 135.05"/><polygon class="cls-26" points="216.26 122.97 224.78 130.55 216.7 119.09 216.26 122.97"/><polygon class="cls-25" points="224.78 130.55 214.55 135.05 216.26 122.97 224.78 130.55"/><polygon class="cls-24" points="214.76 143 222.46 138.32 214.55 135.05 214.76 143"/><polygon class="cls-23" points="222.46 138.32 224.78 130.55 214.55 135.05 222.46 138.32"/><polygon class="cls-22" points="185.33 126.74 188.19 117.57 199.46 121.62 185.33 126.74"/><polygon class="cls-23" points="185.33 126.74 196.76 131.45 199.46 121.62 185.33 126.74"/><polygon class="cls-24" points="185.33 126.74 179.88 119.41 188.19 117.57 185.33 126.74"/><polygon class="cls-22" points="179.88 119.41 182.13 106.63 188.19 117.57 179.88 119.41"/><polygon class="cls-26" points="182.13 106.63 192.97 113.13 188.19 117.57 182.13 106.63"/><polygon class="cls-27" points="182.13 106.63 188.99 104.03 192.97 113.13 182.13 106.63"/><polygon class="cls-28" points="192.97 113.13 199.46 121.62 188.19 117.57 192.97 113.13"/><polygon class="cls-26" points="192.97 113.13 199.1 111.77 188.99 104.03 192.97 113.13"/><polygon class="cls-27" points="188.99 104.03 201.3 107.35 199.1 111.77 188.99 104.03"/><polygon class="cls-22" points="199.46 121.62 199.1 111.77 192.97 113.13 199.46 121.62"/><polygon class="cls-26" points="199.1 111.77 206.82 116.51 201.3 107.35 199.1 111.77"/><polygon class="cls-28" points="206.82 116.51 199.46 121.62 199.1 111.77 206.82 116.51"/></g></g></svg>