<svg xmlns="http://www.w3.org/2000/svg" xmlns:xlink="http://www.w3.org/1999/xlink" viewBox="0 0 275.76 227.46"><defs><style>.cls-1{fill:url(#linear-gradient);}.cls-2{fill:#ffc5b3;}.cls-3{fill:#cbdd45;}.cls-4{fill:#a7c026;}.cls-5{fill:#492418;}.cls-6{fill:#d22e24;}.cls-7{fill:#ffe36c;}.cls-8{fill:#ffa08d;}.cls-9{fill:#e3453c;}.cls-10{fill:#e3ed5d;}.cls-11{fill:#6a463a;}.cls-12{fill:#754f45;}.cls-13{fill:#936b63;}.cls-14{fill:#f47f45;}.cls-15{fill:#ff9161;}.cls-16{fill:#d65e29;}.cls-17{fill:#f4524e;}.cls-18{fill:#d8a084;}.cls-19,.cls-21{fill:#c98b6f;}.cls-20,.cls-22{fill:#f2bfa2;}.cls-21,.cls-22,.cls-31,.cls-39,.cls-40{opacity:0.5;}.cls-23{fill:#723114;}.cls-24{fill:#ffad97;}.cls-25{fill:#3a3a3a;}.cls-26{fill:#e2dd71;}.cls-27{fill:#fcff8d;}.cls-28{fill:#fff;}.cls-29,.cls-31{fill:#572f20;}.cls-30{fill:#99aa1d;}.cls-32{fill:#f7c9c4;}.cls-33,.cls-40{fill:#ffe3de;}.cls-34{fill:#fcd0ca;}.cls-35{fill:#603d33;}.cls-36{fill:#edaea9;}.cls-37{fill:#45475b;}.cls-38{fill:#f66;}.cls-41{fill:#68433c;}</style><linearGradient id="linear-gradient" y1="154.12" x2="275.76" y2="154.12" gradientUnits="userSpaceOnUse"><stop offset="0" stop-color="#bdd337"/><stop offset="0.99" stop-color="#95a80b"/></linearGradient></defs><title>Asset 3</title><g id="Layer_2" data-name="Layer 2"><g id="Layer_1-2" data-name="Layer 1"><path class="cls-1" d="M275.55,151.92c-2.2-39.48-62.91-71.14-137.68-71.14S2.41,112.44.21,151.92c0,.74-.21,1.46-.21,2.2,0,40.51,61.73,73.34,137.87,73.34s137.89-32.83,137.89-73.34C275.76,153.38,275.59,152.66,275.55,151.92Z"/><path class="cls-2" d="M171.86,174.69s-.17-2.1.12-1.78.65.4.6.09a4.85,4.85,0,0,1,.07-1l.81-.15s1.29-.52,1.53-.65c.48-.25,1.61-.7,1.61-.7a10.54,10.54,0,0,0-.86-1c-.42-.44-1.07-.21-1.64.09s-1.76,1.89-2.18,2.05c-.24.09-1.27.79-1.27,1.67A1.25,1.25,0,0,0,171.86,174.69Z"/><path class="cls-3" d="M182.16,160.25a2.36,2.36,0,0,1,1.16.47l.9.74a1.25,1.25,0,0,1-1.16.39c-.74-.14-1.41-.76-1.43-1.14S182.16,160.25,182.16,160.25Z"/><path class="cls-4" d="M183.41,160.12s-.2.51-1.89.6-.79-3.13-.79-3.13Z"/><path class="cls-5" d="M177.09,190.25a4,4,0,0,1,2.18-1.37c1.33-.25,2.65.94.17,1.72C177.59,191.18,177.09,190.25,177.09,190.25Z"/><path class="cls-6" d="M175.51,167.19a16.62,16.62,0,0,1-.65,1.81.68.68,0,0,0,.1.66,5.24,5.24,0,0,0,1.44,1.14c.14.08,1.26-1.2,1.36-1.57.31-1.14,3.69-3.95,3.21-6.42-.26-1.33-.71-.78-1.32-1-.45-.19-1.14-.88-2.53.86A8.88,8.88,0,0,0,175.51,167.19Z"/><path class="cls-7" d="M174.82,168.1c-.21.23-.54.68-.86,1s-.42.36.08,1.11,1,1.77,1.36,1.65a6.09,6.09,0,0,0,1.51-1.13C177.32,170.41,175.34,167.55,174.82,168.1Z"/><path class="cls-8" d="M177.06,181.44s.34,2.16.36,3.12a12.58,12.58,0,0,0,.24,2.59c.2,1.12.49,5.62.5,7.1a6.63,6.63,0,0,1-1.24,3.41c-.34.54.74,1.38,1.56.6a5.82,5.82,0,0,1,1.36-1.19,2.23,2.23,0,0,0,.44-2.47,14.09,14.09,0,0,1,.2-5.52c.39-2-.17-4.6.05-5.21S177.06,181.44,177.06,181.44Z"/><path class="cls-9" d="M185,165c-.19-.76-2.52-2.36-2.52-2.36l-1.76,1.4c-.44.34-1.15,0-.69-1.25a4.75,4.75,0,0,0-.08-1.53l-.44-.1c-.4.44-1.18,1.61-1.6,2.09s-2,1.92-1.54,3.42a11,11,0,0,0,.53,1.39,6.74,6.74,0,0,1,.21,2.45c0,.73-.18,3-.18,3a3.8,3.8,0,0,0,3,1.55,6.07,6.07,0,0,0,3.62-1.59,33.42,33.42,0,0,1-.44-4.53S185.67,167.54,185,165Z"/><path class="cls-10" d="M176.55,174.91a55.62,55.62,0,0,0,.59,11.34,32.12,32.12,0,0,1,.36,4.43c0,1.15,2.36,1.2,2.36,1.2s1.62-4.26,1.46-4.65,0-9.33-.21-11S176.55,174.91,176.55,174.91Z"/><path class="cls-4" d="M179,180c0,1.59.58,4.92.55,7.31a33.77,33.77,0,0,0,.19,3.51l.48-.19s.15-4.47.16-7.14-.24-3.76-.09-6.21C180.33,176,178.9,177.3,179,180Z"/><path class="cls-11" d="M177.09,190.25a22.46,22.46,0,0,1,.51,2.83,5.66,5.66,0,0,1-.1,2.65,4.71,4.71,0,0,1-1.33,2.48c-.36.2-.85.5-.54.88a1.64,1.64,0,0,0,1.38.49,5,5,0,0,0,1.73-.79c.39-.36.71-1,.92-1.23s1.06-.48,1.13-.75a3.23,3.23,0,0,0-.17-1.66c-.34-.55.2-5.62.2-5.62S178.25,191.24,177.09,190.25Z"/><path class="cls-5" d="M180,192.07a4,4,0,0,1,2.18-1.36c1.33-.25,2.65.93.17,1.71C180.46,193,180,192.07,180,192.07Z"/><path class="cls-10" d="M180,176.38s-.08,9.89,0,11.39a20.58,20.58,0,0,0,.44,4.21c.45,2,2.85,1.69,3-.56s.61-4.32.79-5.81a45.08,45.08,0,0,0,.92-7.86,7.45,7.45,0,0,0-.92-3.73C183.06,171.9,180,176.38,180,176.38Z"/><path class="cls-12" d="M180,192.07a22.46,22.46,0,0,1,.51,2.83,5.7,5.7,0,0,1-.1,2.66A4.62,4.62,0,0,1,179,200c-.36.21-.85.51-.54.88a1.65,1.65,0,0,0,1.38.5,5,5,0,0,0,1.73-.79c.39-.36.71-1,.92-1.24s1.06-.47,1.13-.75a3.2,3.2,0,0,0-.17-1.65c-.34-.56.2-5.62.2-5.62S181.12,193.07,180,192.07Z"/><path class="cls-4" d="M177.16,164.93l2-2.94.64.19s-.68.95-1.23,1.9c-.24.41-.74,1.33-.74,1.33Z"/><path class="cls-10" d="M176.62,170.88a31.91,31.91,0,0,1-.07,4c1.63,1,1.77,1.43,3.7,1.4a7,7,0,0,0,4.09-1.42,20.62,20.62,0,0,1-.37-3.66,1.81,1.81,0,0,1-.91.15c-.78-.13-1.39-.51-1.56-2.13a15.11,15.11,0,0,1-.11-2.67,16.61,16.61,0,0,1-4.14-1.79c-.8,1.23-1.22,1.64-1,2.6S176.47,169.38,176.62,170.88Z"/><path class="cls-8" d="M179.86,161.46a2,2,0,0,0-.23.78,5.65,5.65,0,0,1,0,1.23,4.22,4.22,0,0,0-.11,1.4,4.92,4.92,0,0,0,1.38-.68c.48-.47,1.51-1.25,1.51-1.25s-.21-1.13-.27-1.82a13.89,13.89,0,0,1,.06-2.44Z"/><path class="cls-4" d="M180.56,166.29s1.24-1.89,1.52-2.47a10.27,10.27,0,0,0,.45-1.19.68.68,0,0,1,.46.86,23.67,23.67,0,0,1-1.6,3.09Z"/><path class="cls-4" d="M181.23,175.38l-.43.42a5.6,5.6,0,0,0,1.3,1.77,6.33,6.33,0,0,0,1.51,1.2l.33-.57a8.78,8.78,0,0,1-1.57-1.26A8.41,8.41,0,0,1,181.23,175.38Z"/><path class="cls-6" d="M179.53,164.87l-1.12-1,1-1.63.53.13A8.47,8.47,0,0,0,179.53,164.87Z"/><path class="cls-2" d="M181.19,156.79a2.32,2.32,0,0,0-3.56,1.41c-.67,2.23,1.45,4.88,2.49,4.36a4.8,4.8,0,0,0,2.17-2.54A3.33,3.33,0,0,0,181.19,156.79Z"/><path class="cls-5" d="M182.48,157.33a2.57,2.57,0,0,0-1.38-1.75c-1.25-.45-1.44.28-2.55,1.4-.66.67-1.36.89-1.3,2.09a3.66,3.66,0,0,0,2.58,1.05c.88,0,1.95-.74,2.29.37A4.16,4.16,0,0,0,182.48,157.33Z"/><path class="cls-6" d="M183,171.86c0,.19-.76,1.11-.79,1.53-.06.64.87.7,1,1.4,0,.23.41.17.85.42a5.21,5.21,0,0,0,1.5-1c.49-.41.64-.73.75-1.81a26.49,26.49,0,0,0-.51-6.31,3.47,3.47,0,0,0-1.92-2.4c-.44-.19-1.09,1-1.23,1.82C182.37,167.41,183.23,170.41,183,171.86Z"/><path class="cls-2" d="M181.07,160.32a1,1,0,0,1,.51-.77c.45-.22.51.72.21,1.07S181.07,160.32,181.07,160.32Z"/><path class="cls-4" d="M177.18,166.52c-.15.71-.07,3,1.2,3.3s1.45-1.06,1.72-2.11A11.53,11.53,0,0,1,177.18,166.52Z"/><path class="cls-3" d="M177.12,158a4.51,4.51,0,0,1,2.24-2.35c2.45-1.07,3.41,1.31,3.7,2.27a14.32,14.32,0,0,1,.35,2.23S178.94,160.13,177.12,158Z"/><polygon class="cls-6" points="182.32 162.38 179.53 164.87 181.35 165.13 182.64 162.93 182.32 162.38"/><path class="cls-12" d="M181.4,170.68H171.26s.32,4.74,1.35,6.34h0c.37,1,1.9,1.7,3.73,1.7s3.44-.77,3.75-1.78C181.09,175.27,181.4,170.68,181.4,170.68Z"/><path class="cls-13" d="M181.42,170.68c0,1.57-2.28,2.85-5.08,2.85s-5.08-1.28-5.08-2.85,2.28-2.86,5.08-2.86S181.42,169.1,181.42,170.68Z"/><path class="cls-5" d="M180.9,170.68c0,1.29-2.05,2.33-4.58,2.33s-4.58-1-4.58-2.33,2-2.34,4.58-2.34S180.9,169.38,180.9,170.68Z"/><path class="cls-3" d="M177.94,167.35a7.38,7.38,0,0,1,.54-1.08c.32-.5.11-.53.07-.82s.24-.44.36-.23.23.55.48.29.6-.14.57.17-.27.54,0,.55.47.4.27.55-.81-.23-.65.09.08.71-.21.56-.1-.65-.37-.52-.63.76-.63.76Z"/><path class="cls-14" d="M178.26,167a5.68,5.68,0,0,0-1.62,2.34c-.34.63-.65,1.26-1,1.9a1.73,1.73,0,0,0,.57.36,22.64,22.64,0,0,0,2.27-3.17A.91.91,0,0,0,178.26,167Z"/><path class="cls-15" d="M177,167.64l-1.26,2.57s0,0,0,.09c0,.39,0,.77,0,1.15.36-.82.77-1.74,1-2.11a5.68,5.68,0,0,1,1.62-2.34A1,1,0,0,0,177,167.64Z"/><path class="cls-16" d="M177.11,168.1a.78.78,0,0,1,.61.09.86.86,0,0,1,.31.58,3.49,3.49,0,0,0-.37-.35A2.25,2.25,0,0,0,177.11,168.1Z"/><path class="cls-16" d="M176.33,169.42a.76.76,0,0,1,.61.1.85.85,0,0,1,.31.58,3.49,3.49,0,0,0-.37-.35A2.09,2.09,0,0,0,176.33,169.42Z"/><path class="cls-16" d="M176.59,168.37a2,2,0,0,1,.5.14.62.62,0,0,1,.32.38l-.9-.36Z"/><path class="cls-16" d="M175.93,169.7a1.88,1.88,0,0,1,.5.14.65.65,0,0,1,.32.39l-.9-.37Z"/><path class="cls-16" d="M176.94,169.07a1.81,1.81,0,0,1,.59.1,1,1,0,0,1,.29.32l-.13.2A2.09,2.09,0,0,0,176.94,169.07Z"/><path class="cls-16" d="M176.11,170.26a1.07,1.07,0,0,1,.59.1c.16.07.28.34.28.34l-.1.15A2.47,2.47,0,0,0,176.11,170.26Z"/><path class="cls-16" d="M175.64,170.76a.61.61,0,0,1,.49.08.73.73,0,0,1,.25.47s-.12-.13-.3-.29A2.06,2.06,0,0,0,175.64,170.76Z"/><path class="cls-3" d="M179.41,168.34a7.45,7.45,0,0,1,.62-1c.36-.48.14-.52.13-.82s.27-.42.37-.2.2.56.46.32.61-.1.56.21-.3.52-.06.54.44.44.23.57-.79-.28-.65.05,0,.71-.25.54-.06-.65-.33-.55-.69.72-.69.72Z"/><path class="cls-14" d="M179.76,168a5.72,5.72,0,0,0-1.78,2.22c-.38.6-1.39,2.17-1.75,2.78h.64c.16-.16.87-.84,1-1,.69-.74,1.23-1.51,2-2.54A.92.92,0,0,0,179.76,168Z"/><path class="cls-15" d="M179.76,168a1,1,0,0,0-1.35.55C177.19,170.65,176,173,176,173h.3c.36-.61,1.28-2.18,1.66-2.78A5.72,5.72,0,0,1,179.76,168Z"/><path class="cls-16" d="M178.54,169a.79.79,0,0,1,.6.14.9.9,0,0,1,.27.6,4.68,4.68,0,0,0-.35-.37A2.44,2.44,0,0,0,178.54,169Z"/><path class="cls-16" d="M177.67,170.29a.79.79,0,0,1,.6.14.9.9,0,0,1,.27.6,4.26,4.26,0,0,0-.34-.38A2.57,2.57,0,0,0,177.67,170.29Z"/><path class="cls-16" d="M178,169.26a2,2,0,0,1,.49.18.62.62,0,0,1,.29.4l-.87-.42Z"/><path class="cls-16" d="M177.25,170.54a2,2,0,0,1,.49.18.62.62,0,0,1,.29.4l-.87-.42Z"/><path class="cls-16" d="M178.3,170a1.79,1.79,0,0,1,.59.13,1.12,1.12,0,0,1,.26.34l-.15.2A1.94,1.94,0,0,0,178.3,170Z"/><path class="cls-16" d="M177.39,171.12a1,1,0,0,1,.58.13.81.81,0,0,1,.26.37l-.12.13A2.42,2.42,0,0,0,177.39,171.12Z"/><path class="cls-16" d="M176.89,171.58a.61.61,0,0,1,.48.11.74.74,0,0,1,.22.49,3.88,3.88,0,0,0-.28-.31A2.2,2.2,0,0,0,176.89,171.58Z"/><path class="cls-3" d="M180.82,169.17a7.33,7.33,0,0,1,.61-1c.36-.47.15-.52.13-.81s.27-.42.37-.21.2.57.46.32.61-.09.56.21-.3.52-.06.55.45.43.24.57-.8-.29-.66,0,0,.72-.25.55-.06-.65-.33-.55-.69.71-.69.71Z"/><path class="cls-14" d="M181.2,168.83a5.72,5.72,0,0,0-1.78,2.22c-.35.58-.7,1.16-1,1.74a5.27,5.27,0,0,0,1.6-.71c.42-.53.84-1.1,1.37-1.8A.91.91,0,0,0,181.2,168.83Z"/><path class="cls-15" d="M179.85,169.38c-1.19,2.05-2,3.45-2,3.5h0a3.05,3.05,0,0,0,.5-.08c.34-.58.69-1.16,1-1.74a5.72,5.72,0,0,1,1.78-2.22A1,1,0,0,0,179.85,169.38Z"/><path class="cls-16" d="M179.94,169.85a.74.74,0,0,1,.6.14.88.88,0,0,1,.27.6,4.26,4.26,0,0,0-.34-.38A2.18,2.18,0,0,0,179.94,169.85Z"/><path class="cls-16" d="M179.07,171.12a.74.74,0,0,1,.6.14.88.88,0,0,1,.27.6,4.26,4.26,0,0,0-.34-.38A2.18,2.18,0,0,0,179.07,171.12Z"/><path class="cls-16" d="M179.4,170.09a1.73,1.73,0,0,1,.49.17.62.62,0,0,1,.29.4l-.87-.42Z"/><path class="cls-16" d="M178.69,171.4a1.73,1.73,0,0,1,.49.17.67.67,0,0,1,.29.4l-.87-.42Z"/><path class="cls-16" d="M179.7,170.81a1.63,1.63,0,0,1,.59.14,1,1,0,0,1,.26.34l-.14.19A2.11,2.11,0,0,0,179.7,170.81Z"/><path class="cls-3" d="M173.55,167.89a7.67,7.67,0,0,1,.23-1.19c.18-.57,0-.54-.15-.81s.11-.49.28-.32.37.47.54.15.54-.29.6,0-.11.59.12.53.57.26.42.46-.85,0-.61.26.27.67,0,.6-.27-.59-.5-.41a2.56,2.56,0,0,0-.4.91Z"/><path class="cls-14" d="M173.76,167.46a5.81,5.81,0,0,0-.93,2.69c-.13.58-.27,1.19-.38,1.78a3.59,3.59,0,0,0,.66.41,24.73,24.73,0,0,0,1.28-3.57C174.64,168,174.24,167.53,173.76,167.46Z"/><path class="cls-15" d="M172.48,172c.11-.59.22-1.22.35-1.8a5.81,5.81,0,0,1,.93-2.69c-.43-.06-.94.22-1.08,1-.3,1.58-.49,2.63-.58,3.17A3,3,0,0,0,172.48,172Z"/><path class="cls-16" d="M173,168.83a.79.79,0,0,1,.62-.08.87.87,0,0,1,.45.48s-.18-.11-.45-.24A2.49,2.49,0,0,0,173,168.83Z"/><path class="cls-16" d="M172.56,170.31a.75.75,0,0,1,.61-.07.88.88,0,0,1,.46.48,4.34,4.34,0,0,0-.45-.24A2.26,2.26,0,0,0,172.56,170.31Z"/><path class="cls-16" d="M172.53,169.23a1.92,1.92,0,0,1,.52,0,.62.62,0,0,1,.4.28l-1-.1Z"/><path class="cls-16" d="M172.25,170.69a1.92,1.92,0,0,1,.52,0,.62.62,0,0,1,.41.28l-1-.1Z"/><path class="cls-16" d="M173.05,169.81a2,2,0,0,1,.6-.07,1.09,1.09,0,0,1,.36.24l-.07.23A2.07,2.07,0,0,0,173.05,169.81Z"/><path class="cls-16" d="M172.57,171.18a1,1,0,0,1,.6-.07.83.83,0,0,1,.36.26l-.06.17A2.33,2.33,0,0,0,172.57,171.18Z"/><path class="cls-3" d="M175.24,168.49a7.78,7.78,0,0,1,.32-1.17c.21-.55,0-.54-.1-.82s.15-.47.3-.29.34.49.53.18.56-.25.6.05-.15.58.08.54.55.3.39.49-.85-.06-.63.22.23.68-.09.59-.23-.61-.46-.44a2.45,2.45,0,0,0-.47.88Z"/><path class="cls-14" d="M175.49,168.08a5.71,5.71,0,0,0-1.12,2.62c-.19.65-.39,1.28-.56,1.94a3.3,3.3,0,0,0,.75.19,24.74,24.74,0,0,0,1.46-3.4C176.32,168.69,176,168.18,175.49,168.08Z"/><path class="cls-15" d="M173.84,172.65c.17-.66.34-1.3.53-2a5.71,5.71,0,0,1,1.12-2.62c-.44-.09-1,.15-1.15.89-.61,2.34-.9,3.53-.9,3.53Z"/><path class="cls-16" d="M174.58,169.39a.76.76,0,0,1,.62,0,.89.89,0,0,1,.42.51,4.39,4.39,0,0,0-.43-.28A2.35,2.35,0,0,0,174.58,169.39Z"/><path class="cls-16" d="M174.09,170.84a.8.8,0,0,1,.62,0,.85.85,0,0,1,.41.51,3.54,3.54,0,0,0-.43-.27A2.43,2.43,0,0,0,174.09,170.84Z"/><path class="cls-16" d="M174.13,169.76a2,2,0,0,1,.52,0,.62.62,0,0,1,.38.31l-.94-.17Z"/><path class="cls-16" d="M173.76,171.2a1.89,1.89,0,0,1,.51,0,.59.59,0,0,1,.39.3l-.95-.17Z"/><path class="cls-16" d="M174.62,170.38a1.7,1.7,0,0,1,.6,0,1.14,1.14,0,0,1,.34.26l-.09.22A2.06,2.06,0,0,0,174.62,170.38Z"/><path class="cls-16" d="M174.05,171.71a1.05,1.05,0,0,1,.6,0c.17,0,.35.28.35.28l-.08.16A2.34,2.34,0,0,0,174.05,171.71Z"/><path class="cls-16" d="M173.69,172.29a.61.61,0,0,1,.49,0,.71.71,0,0,1,.34.41s-.14-.1-.35-.22A2.27,2.27,0,0,0,173.69,172.29Z"/><path class="cls-3" d="M176.8,168.91a7.78,7.78,0,0,1,.32-1.17c.21-.55,0-.54-.1-.82s.15-.48.3-.3.34.49.53.19.56-.26.6.05-.15.58.08.54.55.3.39.49-.85-.07-.63.22.23.68-.09.59-.23-.61-.46-.44a2.43,2.43,0,0,0-.47.87Z"/><path class="cls-14" d="M177.05,168.5a5.66,5.66,0,0,0-1.12,2.62c-.18.62-.35,1.25-.51,1.88.11,0,.66,0,.81,0a25.81,25.81,0,0,0,1.35-3.16C177.88,169.11,177.52,168.6,177.05,168.5Z"/><path class="cls-15" d="M175.42,173c.16-.63.33-1.26.51-1.88a5.66,5.66,0,0,1,1.12-2.62c-.44-.09-1,.15-1.15.89-.62,2.34-.9,3.53-.9,3.53Z"/><path class="cls-16" d="M176.14,169.81a.76.76,0,0,1,.62,0,.85.85,0,0,1,.42.5s-.17-.12-.43-.27A2.35,2.35,0,0,0,176.14,169.81Z"/><path class="cls-16" d="M175.65,171.26a.76.76,0,0,1,.62,0,.9.9,0,0,1,.41.51,3.54,3.54,0,0,0-.43-.27A2,2,0,0,0,175.65,171.26Z"/><path class="cls-16" d="M175.69,170.18a2,2,0,0,1,.52,0,.62.62,0,0,1,.38.31l-.94-.18Z"/><path class="cls-16" d="M175.32,171.61a1.89,1.89,0,0,1,.51,0,.62.62,0,0,1,.39.31l-.95-.17Z"/><path class="cls-16" d="M176.18,170.79a1.72,1.72,0,0,1,.59,0,1.1,1.1,0,0,1,.35.26l-.09.22A2.15,2.15,0,0,0,176.18,170.79Z"/><path class="cls-16" d="M175.6,172.13a1,1,0,0,1,.6,0,.85.85,0,0,1,.35.28l-.08.17A2.34,2.34,0,0,0,175.6,172.13Z"/><path class="cls-2" d="M171.29,173.45s1,.71,1.24.24c.12-.23-.31-.41-.68-.69a2.8,2.8,0,0,1-.5-.59Z"/><path class="cls-2" d="M182.61,173.06c-.6.23-3.44,1.81-3.71,1.83a3.59,3.59,0,0,1-2-.47c-.38-.18-.57.17-.3.42a3.55,3.55,0,0,0,.73.45,3.17,3.17,0,0,0-1.58.47c-.3.26-1.12.81.49,1.31.88.28,2.93-.56,3.47-.6.23,0,2.92-1.05,3.68-1.18A7.06,7.06,0,0,0,182.61,173.06Z"/><path class="cls-17" d="M182.81,172.18c-.26.17-.7.51-1.09.78s-.51.23-.21,1.08.54,2,.9,2a6,6,0,0,0,1.75-.71C184.64,175.05,183.45,171.77,182.81,172.18Z"/><path class="cls-18" d="M208.47,160.08a11.67,11.67,0,0,0,4.62-5.67,15,15,0,0,1-.49,3.71,5.27,5.27,0,0,1-1.67,2.45,23.66,23.66,0,0,0,3.46-1.37,16.83,16.83,0,0,0,2.92-2.07,4.57,4.57,0,0,1-1.28,2,11.83,11.83,0,0,1-2.55,1.84s3.24.54,4.94-.37a9.21,9.21,0,0,0,3.59-3.44,4.79,4.79,0,0,1-2.73.4,2.38,2.38,0,0,1-1.87-1.38,4,4,0,0,0,3.88.2c1.93-1.08,2.34-4.06,2.34-4.06a3.65,3.65,0,0,0-2.73-1.74,4.18,4.18,0,0,0-3.06.69s.31-1.08,2.81-1.42a3.62,3.62,0,0,1,2.72.6,20,20,0,0,0-1.15-2.3,6.79,6.79,0,0,0-2.16-1.78,4.48,4.48,0,0,1,2.16.78,10.43,10.43,0,0,1,2.52,2.68c-.16-.53-.34-1.06-.54-1.58a23.43,23.43,0,0,0,2,1.83,26.34,26.34,0,0,1-1.38-2.42,7.4,7.4,0,0,0-1.32-1.79,4.52,4.52,0,0,0-.85-2.27,4.78,4.78,0,0,0-1.89-1.63,6.85,6.85,0,0,0-1.44-2.23,5.71,5.71,0,0,0-2.74-1.62c-.82-1.43-5.36-2.05-5.36-2.05,1.05.45,2,.91,2.76,1.3a5.53,5.53,0,0,0-2.91-.18,2.9,2.9,0,0,0-.81.63,5.87,5.87,0,0,0-2.16.43c-1.83.75-2.16,1.33-2.16,1.33a21.38,21.38,0,0,1,2.3-.94,4.23,4.23,0,0,1,1-.07l-1.8,1c-.82.25-1.58.49-2,.63a7.63,7.63,0,0,0-2.39,1.87h0a14.27,14.27,0,0,0-2.47.63,14.39,14.39,0,0,0-2.41,2.17s-2.91.51-4,1.95a.64.64,0,0,0-.16.42l-.66.37,8.73,18.85C204.53,163.44,207.05,160.9,208.47,160.08Z"/><path class="cls-19" d="M207.86,171.2c1.54,0,3.53-1.52,5.06-2.45a28.82,28.82,0,0,0,2.69-1.8,6.53,6.53,0,0,0,2.23-.94,5.31,5.31,0,0,0,1.73-1.52l1.62-.93-1,1a11,11,0,0,0,3-1.8,3.7,3.7,0,0,0,2.34-1.47,3.24,3.24,0,0,0,.73-2.42s-1,2.21-2.1,2.64a7.94,7.94,0,0,0,1.18-2.73,3.52,3.52,0,0,0,1.26-1.58c.4-1.17-.46-2.5-.84-3a3.3,3.3,0,0,0,.1-2.34,4.48,4.48,0,0,0-1.1-2,10.43,10.43,0,0,0-2.52-2.68,4.48,4.48,0,0,0-2.16-.78,6.79,6.79,0,0,1,2.16,1.78,20,20,0,0,1,1.15,2.3,3.62,3.62,0,0,0-2.72-.6c-2.5.34-2.81,1.42-2.81,1.42a4.18,4.18,0,0,1,3.06-.69,3.65,3.65,0,0,1,2.73,1.74s-.41,3-2.34,4.06a4,4,0,0,1-3.88-.2,2.38,2.38,0,0,0,1.87,1.38,4.79,4.79,0,0,0,2.73-.4,9.21,9.21,0,0,1-3.59,3.44c-1.7.91-4.94.37-4.94.37A11.83,11.83,0,0,0,216,159.1a4.57,4.57,0,0,0,1.28-2,16.83,16.83,0,0,1-2.92,2.07,23.66,23.66,0,0,1-3.46,1.37,5.27,5.27,0,0,0,1.67-2.45,15,15,0,0,0,.49-3.71,11.67,11.67,0,0,1-4.62,5.67c-1.42.82-3.94,3.36-6.27,6.38l2.92,6.31Z"/><path class="cls-20" d="M209.22,167c.39-1.17-.47-2.5-.84-3a3.23,3.23,0,0,0,.09-2.33,4.6,4.6,0,0,0-1.09-2c-.16-.53-.35-1.05-.54-1.57a24,24,0,0,0,2,1.83,26.34,26.34,0,0,1-1.38-2.42,7.2,7.2,0,0,0-1.31-1.79,4.58,4.58,0,0,0-.85-2.27,4.73,4.73,0,0,0-1.9-1.63A6.71,6.71,0,0,0,202,149.5a5.7,5.7,0,0,0-2.73-1.61h0c-.82-1.44-5.36-2-5.36-2,1,.45,2,.91,2.76,1.29a5.67,5.67,0,0,0-2.92-.18,4.57,4.57,0,0,0-1.58,1.71,13.35,13.35,0,0,0-1.34.84l-1.46,1,2.2-1.09-.11.18a8,8,0,0,0-1.57,1.71,3.27,3.27,0,0,0-.52,2,7.84,7.84,0,0,1,1.52-2.53,10.28,10.28,0,0,0-.47,1.8,5.09,5.09,0,0,0-.73,2,3.21,3.21,0,0,0,.64,2.23c0,.45.11.91.19,1.36a3.16,3.16,0,0,0-.14,2,2.31,2.31,0,0,0,.91,1.08c.1.31.21.61.32.92-.43-.4-.9-.86-1.26-1.25a13.61,13.61,0,0,0,1.62,2.22,2.85,2.85,0,0,0,0,.93,7.93,7.93,0,0,0,1.3,2.09,7.51,7.51,0,0,0,1,2.42,11.74,11.74,0,0,0,1.58,1.77,11.24,11.24,0,0,1-1.3-2.58,17.88,17.88,0,0,0,1.78,2.14,2.42,2.42,0,0,0,.84,1.75,2.77,2.77,0,0,0,2.45.78,3.46,3.46,0,0,0,2.07,1.45,1.88,1.88,0,0,0,1.6-.6,4.49,4.49,0,0,0,.64-.1h0l-1.11,1.09a10.86,10.86,0,0,0,3-1.8,3.68,3.68,0,0,0,2.34-1.48,3.18,3.18,0,0,0,.73-2.42s-.94,2.22-2.1,2.64a7.89,7.89,0,0,0,1.18-2.72A3.57,3.57,0,0,0,209.22,167Z"/><path class="cls-21" d="M207.11,165.12c-.07-1.92-.53-2.34-.53-2.34a20.92,20.92,0,0,0-.06-3.37,13.17,13.17,0,0,0-.92-2.61,8.16,8.16,0,0,1,.11,3.53,20.11,20.11,0,0,0-.9-2.61,3.16,3.16,0,0,0-1.43-3.19s.19-.55-.92-1.86a3.63,3.63,0,0,0-1.88-1.09,9.18,9.18,0,0,0-1.23-.9,3.47,3.47,0,0,0-.37-.21,6.42,6.42,0,0,1,3.16,1,6.78,6.78,0,0,0-2.36-1.65c-1.57-.69-2.29.12-2.29.12h0s-.46-.4-1.83-.27a5.36,5.36,0,0,0-2.17.63,3.56,3.56,0,0,1,1.15.13,4,4,0,0,0-1,1.07,3.27,3.27,0,0,0-1.33,1.21,2.22,2.22,0,0,0,0,2.2,5.29,5.29,0,0,0-.66,3,5.22,5.22,0,0,0,.92,2.1,7.4,7.4,0,0,0,0,2.92,10,10,0,0,0,.57,2,7.83,7.83,0,0,1,0-3.77c.09.29.18.58.28.86a8.14,8.14,0,0,0,.34,2.91,4.61,4.61,0,0,0,2,2.3,6.15,6.15,0,0,0,1.76,2.72c1.44,1.38,2.16,1.17,2.16,1.17a2.54,2.54,0,0,0,1.77,1.31,2.26,2.26,0,0,0,2-.55s-1.83.48-2.42-.55c-.07-.12-.13-.25-.19-.38a3.81,3.81,0,0,0,2.65,0,1.75,1.75,0,0,0,1.46-.21,4,4,0,0,0,1.38-2.75A3.63,3.63,0,0,0,207.11,165.12Z"/><path class="cls-22" d="M205.63,165.23a2.22,2.22,0,0,0-.51-1.83,2,2,0,0,0,.06-1.43,2.77,2.77,0,0,0-.67-1.24c-.1-.32-.21-.65-.33-1a15.84,15.84,0,0,0,1.24,1.12s-.32-.48-.84-1.48a4.41,4.41,0,0,0-.81-1.1,2.73,2.73,0,0,0-.52-1.39,2.8,2.8,0,0,0-1.16-1,4,4,0,0,0-.88-1.37,3.51,3.51,0,0,0-1.67-1h0c-.5-.87-3.28-1.25-3.28-1.25.64.27,1.22.55,1.69.79a3.42,3.42,0,0,0-1.78-.11,2.84,2.84,0,0,0-1,1s-.36.2-.82.52l-.89.63,1.34-.66-.06.11a4.94,4.94,0,0,0-1,1,2,2,0,0,0-.31,1.24,4.67,4.67,0,0,1,.93-1.54,5.69,5.69,0,0,0-.29,1.1,3.1,3.1,0,0,0-.45,1.2,2.07,2.07,0,0,0,.39,1.37c0,.27.07.55.12.83a1.93,1.93,0,0,0-.08,1.23,1.47,1.47,0,0,0,.55.66c.06.19.13.37.2.56-.26-.25-.56-.52-.77-.76a8,8,0,0,0,1,1.36,1.48,1.48,0,0,0,0,.56,4.78,4.78,0,0,0,.79,1.28,4.66,4.66,0,0,0,.62,1.48,7.45,7.45,0,0,0,1,1.08,7.05,7.05,0,0,1-.8-1.57,11.7,11.7,0,0,0,1.09,1.3,1.52,1.52,0,0,0,.51,1.08,1.68,1.68,0,0,0,1.5.47,2.15,2.15,0,0,0,1.27.89,1.19,1.19,0,0,0,1-.37,2.63,2.63,0,0,0,.39-.06h0l-.68.67a6.64,6.64,0,0,0,1.81-1.11,2.17,2.17,0,0,0,1.43-.9,1.94,1.94,0,0,0,.45-1.48s-.58,1.36-1.28,1.62a5,5,0,0,0,.72-1.67A2.24,2.24,0,0,0,205.63,165.23Z"/><path class="cls-21" d="M203.47,163.32c0-1-.26-1.17-.26-1.17a9.82,9.82,0,0,0,0-1.68,6.68,6.68,0,0,0-.46-1.31,4.14,4.14,0,0,1,.05,1.77,9.59,9.59,0,0,0-.44-1.31,1.6,1.6,0,0,0-.72-1.6s.1-.27-.46-.93a1.78,1.78,0,0,0-.94-.54,6,6,0,0,0-.61-.45l-.19-.11a3.18,3.18,0,0,1,1.58.49,3.23,3.23,0,0,0-1.18-.83c-.78-.35-1.14.06-1.14.06h0s-.23-.2-.92-.13a2.56,2.56,0,0,0-1.08.31,1.52,1.52,0,0,1,.57.07,2.05,2.05,0,0,0-.53.53,1.65,1.65,0,0,0-.66.6,1.13,1.13,0,0,0,0,1.11,2.63,2.63,0,0,0-.33,1.48,2.49,2.49,0,0,0,.46,1,3.87,3.87,0,0,0,0,1.47,4.86,4.86,0,0,0,.28,1,3.92,3.92,0,0,1,0-1.88c0,.14.09.29.14.43a3.94,3.94,0,0,0,.17,1.45,2.33,2.33,0,0,0,1,1.16,3.2,3.2,0,0,0,.89,1.36c.72.68,1.08.58,1.08.58a1.25,1.25,0,0,0,.88.65,1.12,1.12,0,0,0,1-.27s-.92.24-1.21-.28l-.1-.18a2,2,0,0,0,1.33,0,.88.88,0,0,0,.73-.11,2,2,0,0,0,.69-1.37A1.77,1.77,0,0,0,203.47,163.32Z"/><path class="cls-19" d="M198.19,157.13c-.9,0-1.32,1.86-1.32,1.86l.66-.93a3.5,3.5,0,0,0,0,2.82c.66,1.55,1.69,1.75,1.69,1.75a2.08,2.08,0,0,1-1.42-.2,2.61,2.61,0,0,1-.93-1,1.89,1.89,0,0,0,.78,1.28,2.65,2.65,0,0,0,1.57.49s-.29.54.45,1.27a1,1,0,0,0,1.49,0s.39.44,1.31-.1c.37-.22.34-1.07.34-1.07s-.12.69-.56.84-.49,0-.49,0a1.73,1.73,0,0,0,.48-1.63,2,2,0,0,0-.81-1.48,2.13,2.13,0,0,0-.39-2.09,1.29,1.29,0,0,0-1.57-.4S199.22,157.08,198.19,157.13Z"/><path class="cls-19" d="M205,150.9a5.54,5.54,0,0,1,1.81,1.39,11.14,11.14,0,0,1,1.43,2.19,3.1,3.1,0,0,0-1.12-2.65C205.72,150.46,205,150.9,205,150.9Z"/><path class="cls-19" d="M206.62,148.84a6,6,0,0,1,.87,2.75,7.5,7.5,0,0,0,.2,1.92,6.14,6.14,0,0,0,0-3.25C207.15,148.93,206.62,148.84,206.62,148.84Z"/><path class="cls-19" d="M216.38,151.54a20.45,20.45,0,0,1-.59,2.94,8.54,8.54,0,0,1-1.35,2.65,4.7,4.7,0,0,0,1.89-2.35A5.46,5.46,0,0,0,216.38,151.54Z"/><path class="cls-19" d="M221.19,152.66s-.54.32-1.57.85a3.41,3.41,0,0,1-1.82.43,2.52,2.52,0,0,0,2.31.05C221.19,153.35,221.19,152.66,221.19,152.66Z"/><path class="cls-19" d="M216.92,146.09a7.42,7.42,0,0,1-1,2.75,12.84,12.84,0,0,1-1.45,2,4.19,4.19,0,0,0,2.16-2A4.08,4.08,0,0,0,216.92,146.09Z"/><path class="cls-19" d="M212.6,149.13a2.07,2.07,0,0,0,1.84.37,5.86,5.86,0,0,0,2.16-1A14.58,14.58,0,0,1,212.6,149.13Z"/><path class="cls-19" d="M211.32,152.29a12.37,12.37,0,0,1-1.08,2.19,10.3,10.3,0,0,1-1.37,1.67,3.62,3.62,0,0,0,2.06-1.67A2.74,2.74,0,0,0,211.32,152.29Z"/><path class="cls-20" d="M198.7,145.84c.25-.2.89-.1,1.92,0a5.18,5.18,0,0,1,2.19,1,2.69,2.69,0,0,0-2.05-1.52A2.82,2.82,0,0,0,198.7,145.84Z"/><path class="cls-20" d="M201.7,143.34a7.2,7.2,0,0,1,2.5-.35,8,8,0,0,1,1.87.35s-.25-.84-1.67-.84A5.55,5.55,0,0,0,201.7,143.34Z"/><path class="cls-20" d="M207.27,140.63a4.37,4.37,0,0,0-2.28,1,4.81,4.81,0,0,0-1.11,1.27h.71A6.13,6.13,0,0,1,207.27,140.63Z"/><path class="cls-20" d="M204.35,145.34a13.75,13.75,0,0,1,2.76-.87,4.75,4.75,0,0,1,1.76,0,15.33,15.33,0,0,0-2.25.44A11,11,0,0,1,204.35,145.34Z"/><path class="cls-20" d="M209.32,141a5.22,5.22,0,0,0-1.39,1.52,11.67,11.67,0,0,0-.82,2s.92-1.28,1.46-2A4.63,4.63,0,0,0,209.32,141Z"/><path class="cls-20" d="M210.63,140.05a8.27,8.27,0,0,0,2.36-.3c1.08-.34,2.06-.54,2.06-.54a4,4,0,0,0-2,0C212,139.51,210.63,140.05,210.63,140.05Z"/><path class="cls-20" d="M212,137.86a5.18,5.18,0,0,0-1.52,1.82,2.09,2.09,0,0,0,0,1.59A14.33,14.33,0,0,1,212,137.86Z"/><path class="cls-20" d="M211.17,141.78c.12-.08,1.38.67,2.65,1.14a10.57,10.57,0,0,1,1.91.86,3.41,3.41,0,0,0-1.51-1.28A19.91,19.91,0,0,0,211.17,141.78Z"/><path class="cls-20" d="M211.66,143.34a5.61,5.61,0,0,0-1,2,3.46,3.46,0,0,0,0,1.53,8.25,8.25,0,0,0,.77-2A6.44,6.44,0,0,0,211.66,143.34Z"/><path class="cls-20" d="M203.07,148.12a3.76,3.76,0,0,0,1.92-.22,8.89,8.89,0,0,0,2-1,9.67,9.67,0,0,0-2,.3A8.87,8.87,0,0,0,203.07,148.12Z"/><path class="cls-20" d="M215.05,141.27a7.22,7.22,0,0,1,2.46.38c1,.41,2,.85,2,.85a3.72,3.72,0,0,0-1.7-1.23A5.24,5.24,0,0,0,215.05,141.27Z"/><path class="cls-20" d="M217,142.5c-.16.15-.21,1-.65,1.91a9.15,9.15,0,0,1-.86,1.43,2.27,2.27,0,0,0,1.51-1.43A2.09,2.09,0,0,0,217,142.5Z"/><path class="cls-18" d="M230.55,175.12a11.67,11.67,0,0,0,4.62-5.67,14.91,14.91,0,0,1-.49,3.7,5.33,5.33,0,0,1-1.67,2.46,23.38,23.38,0,0,0,3.47-1.38,16,16,0,0,0,2.91-2.07,4.48,4.48,0,0,1-1.27,2,11.6,11.6,0,0,1-2.56,1.85s3.24.54,4.94-.37a9.27,9.27,0,0,0,3.59-3.45,4.7,4.7,0,0,1-2.73.4,2.38,2.38,0,0,1-1.87-1.37,4,4,0,0,0,3.88.19c1.94-1.08,2.34-4,2.34-4a3.65,3.65,0,0,0-2.73-1.74,4.11,4.11,0,0,0-3,.69s.3-1.08,2.8-1.43a3.63,3.63,0,0,1,2.72.61,20,20,0,0,0-1.15-2.3,6.72,6.72,0,0,0-2.16-1.79,4.58,4.58,0,0,1,2.16.78,10.58,10.58,0,0,1,2.52,2.69c-.16-.54-.34-1.06-.54-1.58a25.16,25.16,0,0,0,2,1.83,26.34,26.34,0,0,1-1.38-2.42,7.46,7.46,0,0,0-1.31-1.79,4.71,4.71,0,0,0-.85-2.27,4.8,4.8,0,0,0-1.9-1.63,6.88,6.88,0,0,0-1.44-2.24,5.7,5.7,0,0,0-2.73-1.61c-.83-1.44-5.36-2-5.36-2,1,.45,2,.91,2.76,1.3a5.58,5.58,0,0,0-2.92-.19,3.27,3.27,0,0,0-.81.63,5.82,5.82,0,0,0-2.15.44c-1.84.74-2.16,1.33-2.16,1.33a21,21,0,0,1,2.29-.94,4.78,4.78,0,0,1,1-.08l-1.8,1c-.82.25-1.58.49-2,.63a7.76,7.76,0,0,0-2.39,1.87h0a15.2,15.2,0,0,0-2.47.62,14.8,14.8,0,0,0-2.41,2.18s-2.9.51-4,2a.55.55,0,0,0-.15.41l-.67.38,8.73,18.85C226.61,178.48,229.13,175.93,230.55,175.12Z"/><path class="cls-19" d="M229.94,186.24c1.54,0,3.53-1.53,5.07-2.45a29.39,29.39,0,0,0,2.68-1.8,6.55,6.55,0,0,0,2.24-1,5.14,5.14,0,0,0,1.72-1.51l1.62-.94-1,1a11,11,0,0,0,3-1.8,3.7,3.7,0,0,0,2.34-1.48,3.24,3.24,0,0,0,.73-2.42s-.95,2.22-2.1,2.64a7.89,7.89,0,0,0,1.18-2.72,3.55,3.55,0,0,0,1.26-1.59c.4-1.16-.46-2.5-.83-3a3.28,3.28,0,0,0,.09-2.33,4.39,4.39,0,0,0-1.1-2,10.58,10.58,0,0,0-2.52-2.69,4.58,4.58,0,0,0-2.16-.78,6.72,6.72,0,0,1,2.16,1.79,20,20,0,0,1,1.15,2.3,3.63,3.63,0,0,0-2.72-.61c-2.5.35-2.8,1.43-2.8,1.43a4.11,4.11,0,0,1,3-.69,3.65,3.65,0,0,1,2.73,1.74s-.4,3-2.34,4a4,4,0,0,1-3.88-.19,2.38,2.38,0,0,0,1.87,1.37,4.7,4.7,0,0,0,2.73-.4,9.27,9.27,0,0,1-3.59,3.45c-1.7.91-4.94.37-4.94.37a11.6,11.6,0,0,0,2.56-1.85,4.48,4.48,0,0,0,1.27-2,16,16,0,0,1-2.91,2.07,23.38,23.38,0,0,1-3.47,1.38,5.33,5.33,0,0,0,1.67-2.46,14.91,14.91,0,0,0,.49-3.7,11.67,11.67,0,0,1-4.62,5.67c-1.42.81-3.94,3.36-6.27,6.38l2.92,6.31Z"/><path class="cls-20" d="M231.3,182c.4-1.17-.47-2.5-.84-3a3.23,3.23,0,0,0,.09-2.33,4.48,4.48,0,0,0-1.09-2c-.16-.53-.34-1.06-.54-1.58a24.41,24.41,0,0,0,2,1.84,26.28,26.28,0,0,1-1.39-2.42,7.28,7.28,0,0,0-1.31-1.8,4.49,4.49,0,0,0-.85-2.26,4.74,4.74,0,0,0-1.89-1.64,6.9,6.9,0,0,0-1.45-2.23,5.69,5.69,0,0,0-2.73-1.62h0c-.82-1.43-5.36-2-5.36-2,1,.45,2,.9,2.76,1.29a5.56,5.56,0,0,0-2.92-.18,4.68,4.68,0,0,0-1.58,1.7,14.89,14.89,0,0,0-1.34.85l-1.46,1,2.2-1.09-.11.17a8.35,8.35,0,0,0-1.57,1.72,3.35,3.35,0,0,0-.52,2,7.84,7.84,0,0,1,1.52-2.53,9.83,9.83,0,0,0-.47,1.8,5,5,0,0,0-.73,2,3.21,3.21,0,0,0,.64,2.23c0,.45.11.9.19,1.36a3.16,3.16,0,0,0-.14,2,2.34,2.34,0,0,0,.91,1.07c.1.31.21.62.32.92-.43-.4-.9-.85-1.26-1.24a13.61,13.61,0,0,0,1.62,2.22,2.51,2.51,0,0,0,0,.92,7.65,7.65,0,0,0,1.29,2.1,7.78,7.78,0,0,0,1,2.42,12.36,12.36,0,0,0,1.58,1.77,11.24,11.24,0,0,1-1.3-2.58,19.8,19.8,0,0,0,1.78,2.14,2.46,2.46,0,0,0,.84,1.75,2.75,2.75,0,0,0,2.45.77,3.46,3.46,0,0,0,2.07,1.45,1.89,1.89,0,0,0,1.6-.59,4.49,4.49,0,0,0,.64-.1h0l-1.11,1.09a11,11,0,0,0,3-1.81,3.62,3.62,0,0,0,2.34-1.47,3.23,3.23,0,0,0,.74-2.42s-1,2.21-2.11,2.64a8.14,8.14,0,0,0,1.19-2.73A3.59,3.59,0,0,0,231.3,182Z"/><path class="cls-21" d="M229.19,180.16c-.07-1.93-.53-2.34-.53-2.34a19.77,19.77,0,0,0-.06-3.37,13.17,13.17,0,0,0-.92-2.61,8.16,8.16,0,0,1,.11,3.53,21.1,21.1,0,0,0-.89-2.61,3.18,3.18,0,0,0-1.44-3.2s.2-.55-.92-1.85a3.5,3.5,0,0,0-1.88-1.09,10.25,10.25,0,0,0-1.23-.91l-.37-.21a6.39,6.39,0,0,1,3.16,1,6.63,6.63,0,0,0-2.36-1.65c-1.57-.69-2.28.12-2.28.12h0s-.46-.4-1.84-.27a5.27,5.27,0,0,0-2.16.63,3.27,3.27,0,0,1,1.14.13,4.07,4.07,0,0,0-1.05,1.06,3.44,3.44,0,0,0-1.33,1.22,2.25,2.25,0,0,0,0,2.2,5.32,5.32,0,0,0-.65,3,5.22,5.22,0,0,0,.91,2.1,7.63,7.63,0,0,0,0,2.92,10.35,10.35,0,0,0,.57,2,7.86,7.86,0,0,1,.05-3.78c.09.29.18.58.28.87a8,8,0,0,0,.35,2.91,4.56,4.56,0,0,0,2,2.3,6.21,6.21,0,0,0,1.76,2.72c1.44,1.38,2.16,1.17,2.16,1.17a2.57,2.57,0,0,0,1.77,1.31,2.3,2.3,0,0,0,2-.55s-1.83.48-2.42-.55c-.07-.12-.13-.25-.19-.38a3.87,3.87,0,0,0,2.65,0,1.79,1.79,0,0,0,1.46-.21,4,4,0,0,0,1.38-2.76A3.59,3.59,0,0,0,229.19,180.16Z"/><path class="cls-22" d="M227.71,180.27a2.21,2.21,0,0,0-.51-1.84,2,2,0,0,0,.06-1.42,2.77,2.77,0,0,0-.67-1.24c-.1-.33-.21-.65-.33-1a13.84,13.84,0,0,0,1.24,1.12s-.32-.48-.84-1.48a4.58,4.58,0,0,0-.8-1.09,2.93,2.93,0,0,0-.52-1.39,3,3,0,0,0-1.16-1,4.18,4.18,0,0,0-.89-1.36,3.43,3.43,0,0,0-1.67-1h0c-.5-.88-3.27-1.25-3.27-1.25.63.27,1.21.55,1.68.79a3.32,3.32,0,0,0-1.78-.11,2.84,2.84,0,0,0-1,1,7.87,7.87,0,0,0-.82.52l-.89.63,1.34-.66-.06.1a5,5,0,0,0-1,1.05,2,2,0,0,0-.32,1.24,4.87,4.87,0,0,1,.93-1.55,7.07,7.07,0,0,0-.29,1.1,3,3,0,0,0-.44,1.21,2,2,0,0,0,.38,1.36q0,.42.12.84a1.92,1.92,0,0,0-.08,1.23,1.39,1.39,0,0,0,.55.65l.2.57c-.26-.25-.55-.53-.77-.76a8.33,8.33,0,0,0,1,1.35,1.78,1.78,0,0,0,0,.57,4.78,4.78,0,0,0,.79,1.28,4.66,4.66,0,0,0,.62,1.48,7.45,7.45,0,0,0,1,1.08,7,7,0,0,1-.8-1.58,11.83,11.83,0,0,0,1.09,1.31,1.48,1.48,0,0,0,.52,1.07,1.68,1.68,0,0,0,1.49.48,2.15,2.15,0,0,0,1.27.88,1.14,1.14,0,0,0,1-.36,2.44,2.44,0,0,0,.39-.06h0l-.68.66a6.51,6.51,0,0,0,1.81-1.1,2.25,2.25,0,0,0,1.44-.9,2,2,0,0,0,.44-1.48s-.58,1.35-1.28,1.61a4.85,4.85,0,0,0,.72-1.66A2.17,2.17,0,0,0,227.71,180.27Z"/><path class="cls-21" d="M225.56,178.36c0-1-.27-1.17-.27-1.17a9.94,9.94,0,0,0,0-1.69,6.49,6.49,0,0,0-.46-1.3,4,4,0,0,1,.06,1.76,10,10,0,0,0-.45-1.3,1.58,1.58,0,0,0-.72-1.6s.1-.27-.46-.93a1.78,1.78,0,0,0-.94-.54,5.13,5.13,0,0,0-.61-.46l-.19-.1a3.21,3.21,0,0,1,1.58.48,3.28,3.28,0,0,0-1.18-.82c-.78-.35-1.14.06-1.14.06h0s-.23-.2-.92-.14a2.72,2.72,0,0,0-1.08.32,1.77,1.77,0,0,1,.57.06,2.18,2.18,0,0,0-.52.53,1.78,1.78,0,0,0-.67.61,1.11,1.11,0,0,0,0,1.1,2.14,2.14,0,0,0,.13,2.53,3.82,3.82,0,0,0,0,1.46,5.14,5.14,0,0,0,.29,1,3.86,3.86,0,0,1,0-1.88c.05.14.09.28.14.43a4.19,4.19,0,0,0,.17,1.45,2.33,2.33,0,0,0,1,1.15,3.1,3.1,0,0,0,.88,1.36c.72.69,1.08.59,1.08.59a1.25,1.25,0,0,0,.88.65,1.15,1.15,0,0,0,1-.27s-.91.24-1.21-.28l-.09-.19a1.87,1.87,0,0,0,1.32,0,.88.88,0,0,0,.73-.11,2,2,0,0,0,.69-1.37A1.82,1.82,0,0,0,225.56,178.36Z"/><path class="cls-19" d="M220.28,172.17c-.91,0-1.33,1.86-1.33,1.86l.66-.93a3.48,3.48,0,0,0,0,2.81c.67,1.56,1.69,1.75,1.69,1.75a2,2,0,0,1-1.42-.19,2.61,2.61,0,0,1-.93-1,1.87,1.87,0,0,0,.79,1.27,2.62,2.62,0,0,0,1.56.49s-.29.55.45,1.28a1,1,0,0,0,1.49,0s.39.44,1.31-.1c.37-.21.34-1.06.34-1.06s-.11.69-.56.84-.49,0-.49,0a1.72,1.72,0,0,0,.48-1.64,2,2,0,0,0-.8-1.47,2.17,2.17,0,0,0-.4-2.1,1.3,1.3,0,0,0-1.57-.39S221.31,172.12,220.28,172.17Z"/><path class="cls-19" d="M227.07,165.93a5.76,5.76,0,0,1,1.82,1.4,11.38,11.38,0,0,1,1.42,2.19,3.09,3.09,0,0,0-1.12-2.65C227.8,165.49,227.07,165.93,227.07,165.93Z"/><path class="cls-19" d="M228.7,163.87a6,6,0,0,1,.87,2.75,7.66,7.66,0,0,0,.2,1.93,6,6,0,0,0,0-3.25C229.23,164,228.7,163.87,228.7,163.87Z"/><path class="cls-19" d="M238.46,166.57a20.46,20.46,0,0,1-.59,3,8.56,8.56,0,0,1-1.35,2.64,4.7,4.7,0,0,0,1.89-2.35A5.46,5.46,0,0,0,238.46,166.57Z"/><path class="cls-19" d="M243.27,167.69s-.54.33-1.57.86a3.41,3.41,0,0,1-1.82.43,2.52,2.52,0,0,0,2.31.05C243.27,168.39,243.27,167.69,243.27,167.69Z"/><path class="cls-19" d="M239,161.12a7.36,7.36,0,0,1-1,2.75,11.93,11.93,0,0,1-1.45,2,4.22,4.22,0,0,0,2.17-2A4.11,4.11,0,0,0,239,161.12Z"/><path class="cls-19" d="M234.68,164.17a2.11,2.11,0,0,0,1.84.37,5.79,5.79,0,0,0,2.17-1A15,15,0,0,1,234.68,164.17Z"/><path class="cls-19" d="M233.4,167.33a12.37,12.37,0,0,1-1.08,2.19,10.57,10.57,0,0,1-1.36,1.67,3.67,3.67,0,0,0,2-1.67A2.69,2.69,0,0,0,233.4,167.33Z"/><path class="cls-20" d="M220.78,160.88c.25-.2.9-.1,1.92,0a5.06,5.06,0,0,1,2.19,1,2.67,2.67,0,0,0-2-1.52A2.82,2.82,0,0,0,220.78,160.88Z"/><path class="cls-20" d="M223.78,158.37a7.31,7.31,0,0,1,2.5-.34,8.41,8.41,0,0,1,1.87.34s-.25-.83-1.67-.83A5.65,5.65,0,0,0,223.78,158.37Z"/><path class="cls-20" d="M229.35,155.67a4.4,4.4,0,0,0-2.28,1A5,5,0,0,0,226,158h.72A6,6,0,0,1,229.35,155.67Z"/><path class="cls-20" d="M226.43,160.37a14.48,14.48,0,0,1,2.76-.87,4.67,4.67,0,0,1,1.77.05,15.3,15.3,0,0,0-2.26.44A10.47,10.47,0,0,1,226.43,160.37Z"/><path class="cls-20" d="M231.4,156a5.07,5.07,0,0,0-1.39,1.52,11.74,11.74,0,0,0-.82,2s.92-1.27,1.46-2A4.63,4.63,0,0,0,231.4,156Z"/><path class="cls-20" d="M232.72,155.09a8.22,8.22,0,0,0,2.35-.3,19.66,19.66,0,0,1,2.06-.54,3.9,3.9,0,0,0-2,0C234.09,154.54,232.72,155.09,232.72,155.09Z"/><path class="cls-20" d="M234.09,152.89a5.15,5.15,0,0,0-1.52,1.83,2.16,2.16,0,0,0,0,1.59A14.53,14.53,0,0,1,234.09,152.89Z"/><path class="cls-20" d="M233.26,156.81c.11-.07,1.37.68,2.65,1.15a11.65,11.65,0,0,1,1.91.85,3.48,3.48,0,0,0-1.52-1.27A19.1,19.1,0,0,0,233.26,156.81Z"/><path class="cls-20" d="M233.75,158.37a5.54,5.54,0,0,0-1,2,3.33,3.33,0,0,0,0,1.54,9,9,0,0,0,.76-2A6.25,6.25,0,0,0,233.75,158.37Z"/><path class="cls-20" d="M225.15,163.16a3.89,3.89,0,0,0,1.92-.22,8.89,8.89,0,0,0,2-1,10.13,10.13,0,0,0-2,.29A9.22,9.22,0,0,0,225.15,163.16Z"/><path class="cls-20" d="M237.13,156.31a7.37,7.37,0,0,1,2.46.37c1,.42,2,.86,2,.86a3.72,3.72,0,0,0-1.7-1.23A5.25,5.25,0,0,0,237.13,156.31Z"/><path class="cls-20" d="M239.11,157.54c-.16.14-.21,1-.65,1.91a9.15,9.15,0,0,1-.86,1.43,2.27,2.27,0,0,0,1.51-1.43A2.09,2.09,0,0,0,239.11,157.54Z"/><path class="cls-3" d="M155.28,153.32a50.07,50.07,0,0,0-3.37,4.84c1.23-.39,2.19.61,2.88,1.6.9-1,3.26-3.14,3.26-3.14l1.33-6.81s-.66-.28-1.56.51A34.28,34.28,0,0,0,155.28,153.32Z"/><path class="cls-5" d="M155.65,186.38s-1.29,1.38-2,2.08l-1.5,1.44c-.36.36-.06.68.63.65a11.88,11.88,0,0,0,2.74-.59,14.4,14.4,0,0,0,2.06-1.07,1.31,1.31,0,0,0,.6-.77v-2.2Z"/><path class="cls-5" d="M163.89,189.06s-.13,1.11-.2,2.51.12,2.62.54,2.78,1.65.13,2.34-1.81a7.7,7.7,0,0,0,.28-3.81Z"/><path class="cls-23" d="M163.86,167.5a8.17,8.17,0,0,0,1.46-.52,7.69,7.69,0,0,0-1.94-5c.17-1.34-6,.53-6,.53l-.69,3.82A10,10,0,0,0,163.86,167.5Z"/><path class="cls-10" d="M156,164.29a10.47,10.47,0,0,0,3.35.68,25.77,25.77,0,0,0,3.17.07,13,13,0,0,0,3.66-.45c-.14-1.09-.26-2-.33-2.32-.42-2.09.88-4.87.71-7.3-.25-.82.21-1-.39-1.59a15.54,15.54,0,0,0-2.89-1.86L160,150s-.6-.38-2,1.09c-2.11,2.18-1.47,8.61-1.75,10.86C156.17,162.11,156.1,163.07,156,164.29Z"/><path class="cls-24" d="M160.36,151l-.3,1.72a2.54,2.54,0,0,0,.3,1.08,9.57,9.57,0,0,0,1.76-.68,4.82,4.82,0,0,0,1.26-1l-.53-2.93Z"/><path class="cls-2" d="M163.14,146a2.48,2.48,0,0,0-4.08.3c-1.39,2.06-.07,5.43,1.15,5.24a4.8,4.8,0,0,0,2.9-1.84A3.73,3.73,0,0,0,163.14,146Z"/><path class="cls-5" d="M159.07,146.64c.26.47.32,1.31,1.46,1.42a4.65,4.65,0,0,0,1.69-.17l-.14.94a1,1,0,0,0,.35,0c.14-.47.56-.43.7-.16a2.14,2.14,0,0,1,0,1,2.56,2.56,0,0,0,1.17-2.06c0-.9-.68-2.87-2.31-3.13S158.94,146.43,159.07,146.64Z"/><path class="cls-25" d="M158.6,158.41a.24.24,0,0,1-.28.21.25.25,0,0,1-.16-.32.26.26,0,0,1,.29-.21A.25.25,0,0,1,158.6,158.41Z"/><path class="cls-25" d="M160.81,159.1a.23.23,0,1,1-.44-.12.26.26,0,0,1,.29-.2A.25.25,0,0,1,160.81,159.1Z"/><path class="cls-25" d="M158.41,162.13a.26.26,0,0,1-.29.21A.27.27,0,0,1,158,162a.23.23,0,1,1,.45.11Z"/><path class="cls-25" d="M160.62,162.82a.26.26,0,0,1-.29.2.25.25,0,0,1-.16-.32.26.26,0,0,1,.29-.2A.26.26,0,0,1,160.62,162.82Z"/><path class="cls-25" d="M157.76,166.21a.26.26,0,0,1-.29.21.25.25,0,0,1-.15-.32.25.25,0,0,1,.29-.21A.26.26,0,0,1,157.76,166.21Z"/><path class="cls-25" d="M160,166.9a.23.23,0,1,1-.44-.11.24.24,0,0,1,.28-.21A.25.25,0,0,1,160,166.9Z"/><path class="cls-9" d="M167.86,188.55s.1-6.56-1.74-10.7c-.15-3.13.36-7.51.36-9.34a13.33,13.33,0,0,0-.5-3.23l-.19.08a12,12,0,0,1,0-2.66,4.14,4.14,0,0,1-2-.36,4.42,4.42,0,0,1-1.53-3,9.86,9.86,0,0,1,.27-3.37,49.54,49.54,0,0,0-5.11-2.34,13.87,13.87,0,0,0-1.27,4.75c-.05,1.82-.07,4.22-.16,5.26,0,.42-1.77,8.25-2.06,9.85a15.23,15.23,0,0,0-.21,5.1c.17,3.23.9,8.17.9,8.17a3.08,3.08,0,0,0,2.43,1.22,2.21,2.21,0,0,0,1.81-1l-.28-9.95,1.89-6.27s.1,6,.76,8.27a62.09,62.09,0,0,1,1.49,10.29s1.92,1.26,3.38.61A3.26,3.26,0,0,0,167.86,188.55Z"/><path class="cls-6" d="M157.42,154.1c.93-1.92,1.22-2.59,1.85-3.06a2.16,2.16,0,0,0,.38.33s-.75,2-1.16,2.91C157.9,155.58,157,155,157.42,154.1Z"/><path class="cls-3" d="M168.22,158.35c-.51-2.8-.74-5.09-2.59-5.34-1-.13-1.68,2.67-1.6,3.92a53.63,53.63,0,0,0,1.17,5.34l-.68.91a14.2,14.2,0,0,1,2.49,2.61,2.86,2.86,0,0,0,1.16-1.9A14.9,14.9,0,0,0,168.22,158.35Z"/><path class="cls-6" d="M163.44,151.65s-.42.92-.74,1.58a12.16,12.16,0,0,0-1.37,2.88c-.23.89.72,1.28,1.11.31.24-.61,1.72-3.33,1.84-4.35A2.08,2.08,0,0,0,163.44,151.65Z"/><path class="cls-3" d="M159.54,151.27l-.9,1.31,1.72,1.21a8.23,8.23,0,0,1-.08-2.33A.71.71,0,0,1,159.54,151.27Z"/><path class="cls-2" d="M148.84,163.83s-.21-2.64.16-2.24.81.51.75.11a5.34,5.34,0,0,1,.09-1.22l1-.19s1.62-.66,1.93-.82c.59-.31,2-.88,2-.88a13.18,13.18,0,0,0-1.08-1.3c-.53-.56-1.34-.27-2.06.12s-2.21,2.36-2.74,2.56c-.3.11-1.59,1-1.59,2.1A1.57,1.57,0,0,0,148.84,163.83Z"/><path class="cls-26" d="M151.49,158.77a2.37,2.37,0,0,1,.42-1.45c.46-.58,1.68-.33,2.21.05a2.33,2.33,0,0,1,.9,2.19c-.38,1-1.53.6-1.53.6a1.85,1.85,0,0,0-.63-1.54C152.42,158.23,151.49,158.77,151.49,158.77Z"/><path class="cls-6" d="M156.14,162.57s3.45,2.12,5.8,2.33a13.16,13.16,0,0,0,4.23-.31l-.22,1.3s-1.08.55-4.23.46a11.22,11.22,0,0,1-5.73-2.06Z"/><path class="cls-2" d="M161.94,168.84c.4-.3,1.68-1,2.48-1.45,1.21-.71,2-1.22,2-1.22l-.21-1.58-1.94-.76a11.47,11.47,0,0,1-3.26,3.54l-.57.28C161.56,167.8,160.85,169.09,161.94,168.84Z"/><path class="cls-27" d="M166.34,166.84c.55-.31.68-.83,1-1.1a2.32,2.32,0,0,0,0-.93c-.4-1.51-2.37-2.24-2.37-2.24a3.69,3.69,0,0,0-1,.81c-.26.31-.44.7-.19.75a4.41,4.41,0,0,1,1.8.93,2,2,0,0,1,.58,1.21,2,2,0,0,1-.44.3C165.78,166.68,166.19,166.93,166.34,166.84Z"/><path class="cls-6" d="M158,155.46c-.14.75-1.24,3.56.87,4.3,1.34.47,1.81-.41,2.34-2.78A25,25,0,0,1,158,155.46Z"/><path class="cls-3" d="M163.19,151s-1.08,1-1.63,1.4a8.42,8.42,0,0,0-1.2,1.35l2.23.09a16,16,0,0,0,.93-2.11A2.19,2.19,0,0,0,163.19,151Z"/><path class="cls-28" d="M157.82,154c-.21,0-.41.35-.32.61s.44.23.61-.15C158.21,154.18,158.13,153.94,157.82,154Z"/><path class="cls-28" d="M161.88,155.88c-.21,0-.41.35-.32.61s.44.23.61-.15C162.28,156.11,162.2,155.87,161.88,155.88Z"/><path class="cls-12" d="M164.63,146.3a6,6,0,0,0-.68-2.15,4.39,4.39,0,0,0-3.9-.82c-.55.28-1.33,1.93-1.33,1.93l-1.8.77a5.83,5.83,0,0,0,2.85,2.25,7.55,7.55,0,0,0,6.39-.35S165,146.77,164.63,146.3Z"/><path class="cls-29" d="M158.72,145.26a4.37,4.37,0,0,0,2.55,1.2,6,6,0,0,0,3.36-.16l-.08-.47a11.79,11.79,0,0,1-2.94,0,5.22,5.22,0,0,1-2.63-1.1Z"/><path class="cls-3" d="M157.5,161.74a4.57,4.57,0,1,1-4.57-4.65A4.62,4.62,0,0,1,157.5,161.74Z"/><path class="cls-30" d="M156.12,159.08a3.26,3.26,0,0,0-2-.92,3.83,3.83,0,0,0-1.84.82s-.39-1.11,1.17-1.86a3.76,3.76,0,0,0-1.75.14,1.15,1.15,0,0,0,0,.49,2.59,2.59,0,0,1,.1.67,2.15,2.15,0,0,0,.19.6,6,6,0,0,1-1-.57,2.16,2.16,0,0,0-.83-.38,3.52,3.52,0,0,0-1,1.09,6.91,6.91,0,0,1,2.13,0,2.88,2.88,0,0,0-2.06,1.89,3.48,3.48,0,0,0,0,3.49,2.47,2.47,0,0,0,.65.6,4.07,4.07,0,0,0-.38-1.06c-.61-1.38.15-4.12,1.87-4.66-.93.91-.7,2.88-.71,3.86a5.93,5.93,0,0,0,.47,2.15c.13.32.22.59.54.74a3,3,0,0,0,1.47.19,3.16,3.16,0,0,1-.4-1.26,6.56,6.56,0,0,0,.08-.8,2,2,0,0,0-.11-.35,6.15,6.15,0,0,1-.4-1.47,4.38,4.38,0,0,0-.54-1.19c-.32-.68-.17-1.27.46-2.09a4.86,4.86,0,0,1,.76.62,6.41,6.41,0,0,1,.33,1.17c.07.16.16.28.24.43a7.11,7.11,0,0,1,.25.87c0,.11.15.18.2.29a2.28,2.28,0,0,1,.28,1.23c0,.78.11,1.5.18,2.29,1.09-.4,1.35-.8,1.43-1.53a2.12,2.12,0,0,0-.17-1.11c-.08-.15-.19-.27-.27-.41a3.06,3.06,0,0,1-.35-1.07,1.25,1.25,0,0,0-.26-.66c-.14-.19-.41-.3-.54-.49a6.48,6.48,0,0,1-.32-1,1.7,1.7,0,0,0-1.6-.79,2.54,2.54,0,0,1,2.28,0,7.88,7.88,0,0,1,1,.58,4.86,4.86,0,0,1,1.73,3.08,3.78,3.78,0,0,0-.1-2.45A4.35,4.35,0,0,0,156.12,159.08Z"/><path class="cls-5" d="M151.59,159s0,0,0,0a.13.13,0,0,0,0,.18c.26.13.85,0,.8-.36S151.68,158.76,151.59,159Z"/><path class="cls-3" d="M163.93,164.63a4.57,4.57,0,1,1-4.57-4.65A4.61,4.61,0,0,1,163.93,164.63Z"/><path class="cls-30" d="M162.56,162a3.26,3.26,0,0,0-2-.92,3.74,3.74,0,0,0-1.84.82s-.39-1.11,1.16-1.86a3.7,3.7,0,0,0-1.74.14,1.15,1.15,0,0,0,0,.49,2.59,2.59,0,0,1,.1.67,2,2,0,0,0,.19.59,5.59,5.59,0,0,1-1-.56,2.16,2.16,0,0,0-.83-.38,3.52,3.52,0,0,0-1,1.09,6.91,6.91,0,0,1,2.13,0,2.88,2.88,0,0,0-2.06,1.89,3.51,3.51,0,0,0,0,3.49,2.52,2.52,0,0,0,.66.6,3.59,3.59,0,0,0-.39-1.06c-.61-1.38.15-4.12,1.88-4.66-.94.91-.7,2.88-.71,3.86a5.93,5.93,0,0,0,.47,2.15c.13.32.22.59.54.74a3,3,0,0,0,1.47.19,3,3,0,0,1-.4-1.26,6.56,6.56,0,0,0,.08-.8,2,2,0,0,0-.11-.35,6.67,6.67,0,0,1-.41-1.47,4,4,0,0,0-.54-1.19c-.31-.68-.16-1.27.46-2.09a5.48,5.48,0,0,1,.77.62,8.54,8.54,0,0,1,.33,1.17c.06.16.16.28.23.43s.15.59.26.87c0,.11.15.18.2.29a2.28,2.28,0,0,1,.28,1.23c0,.78.11,1.5.18,2.29,1.09-.4,1.35-.8,1.42-1.53a2,2,0,0,0-.17-1.11c-.07-.15-.18-.27-.26-.41a2.7,2.7,0,0,1-.35-1.07,1.33,1.33,0,0,0-.26-.66c-.14-.19-.41-.3-.54-.49a7.91,7.91,0,0,1-.33-1,1.69,1.69,0,0,0-1.59-.79,2.52,2.52,0,0,1,2.27,0,7.38,7.38,0,0,1,1,.58,4.81,4.81,0,0,1,1.72,3.08,3.71,3.71,0,0,0-.09-2.45A4.35,4.35,0,0,0,162.56,162Z"/><path class="cls-5" d="M158,161.91v0a.12.12,0,0,0,0,.18c.25.13.85,0,.8-.36S158.11,161.65,158,161.91Z"/><path class="cls-2" d="M148.13,162.27s1.26.88,1.55.31-1.47-1.61-1.47-1.61Z"/><path class="cls-2" d="M161.82,167.22a4.1,4.1,0,0,0-2.24.4c-.37.19-.24.44.32.41a6.61,6.61,0,0,1,1.3.22s-3,1-2.38,1.6a6.32,6.32,0,0,0,2.55.31c.62-.08,1.86-1.75,2.56-2.53C162.89,167.78,162.87,167.41,161.82,167.22Z"/><path class="cls-29" d="M177.75,7v97.49c0,.75,1.09,1.37,2.44,1.37s2.43-.62,2.43-1.37V11.83A4.87,4.87,0,0,0,177.75,7Z"/><path class="cls-11" d="M146.43,14.67v92.81c0,5.23,7.53,9.47,16.82,9.47s16.82-4.24,16.82-9.47V14.67Z"/><rect class="cls-31" x="174.51" y="97.78" width="1.21" height="8.32"/><rect class="cls-31" x="157.01" y="100.12" width="1.21" height="8.32"/><rect class="cls-31" x="152.36" y="98.8" width="1.21" height="8.32"/><rect class="cls-31" x="148.27" y="88.28" width="1.21" height="8.32"/><rect class="cls-31" x="165.51" y="92.44" width="1.21" height="8.32"/><rect class="cls-31" x="168.28" y="84.12" width="1.21" height="8.32"/><rect class="cls-31" x="171.09" y="67.55" width="1.21" height="8.32"/><rect class="cls-31" x="155.8" y="68.12" width="1.21" height="8.32"/><rect class="cls-31" x="163.25" y="60.98" width="1.21" height="8.32"/><rect class="cls-31" x="151.76" y="82.56" width="1.21" height="8.32"/><polygon class="cls-31" points="150.08 81.62 148.87 81.12 148.87 72.72 150.08 73.3 150.08 81.62"/><polygon class="cls-31" points="150.08 65.28 148.87 64.77 148.87 56.37 150.08 56.96 150.08 65.28"/><polygon class="cls-31" points="175.72 82.07 174.51 82.65 174.51 74.68 175.72 73.75 175.72 82.07"/><polygon class="cls-31" points="178.35 72.13 177.15 72.72 177.15 64.74 178.35 63.81 178.35 72.13"/><rect class="cls-31" x="174.51" y="50.1" width="1.21" height="8.32"/><rect class="cls-31" x="157.01" y="52.45" width="1.21" height="8.32"/><rect class="cls-31" x="152.36" y="51.12" width="1.21" height="8.32"/><polygon class="cls-31" points="149.48 48.92 148.27 48.22 148.27 40.61 149.48 40.61 149.48 48.92"/><rect class="cls-31" x="165.51" y="44.77" width="1.21" height="8.32"/><rect class="cls-31" x="168.28" y="36.45" width="1.21" height="8.32"/><rect class="cls-31" x="171.09" y="19.88" width="1.21" height="8.32"/><rect class="cls-31" x="155.8" y="20.45" width="1.21" height="8.32"/><rect class="cls-31" x="151.76" y="34.88" width="1.21" height="8.32"/><polygon class="cls-31" points="150.08 33.95 148.87 33.45 148.87 25.05 150.08 25.63 150.08 33.95"/><polygon class="cls-31" points="175.72 34.39 174.51 34.98 174.51 27 175.72 26.07 175.72 34.39"/><polygon class="cls-31" points="178.35 24.46 177.15 25.05 177.15 17.07 178.35 16.14 178.35 24.46"/><path class="cls-29" d="M163.25,108.12c-9.29,0-16.82-4.24-16.82-9.47v1.8c0,5.22,7.53,9.46,16.82,9.46s16.82-4.24,16.82-9.46v-1.8C180.07,103.88,172.54,108.12,163.25,108.12Z"/><path class="cls-29" d="M163.25,100.14c-9.29,0-16.82-4.23-16.82-9.46v1.79c0,5.23,7.53,9.47,16.82,9.47s16.82-4.24,16.82-9.47V90.68C180.07,95.91,172.54,100.14,163.25,100.14Z"/><path class="cls-29" d="M163.25,92.12c-9.29,0-16.82-4.24-16.82-9.47v1.79c0,5.23,7.53,9.47,16.82,9.47s16.82-4.24,16.82-9.47V82.65C180.07,87.88,172.54,92.12,163.25,92.12Z"/><path class="cls-29" d="M163.25,84.14c-9.29,0-16.82-4.24-16.82-9.46v1.79c0,5.23,7.53,9.46,16.82,9.46s16.82-4.23,16.82-9.46V74.68C180.07,79.9,172.54,84.14,163.25,84.14Z"/><path class="cls-29" d="M163.25,76.12c-9.29,0-16.82-4.24-16.82-9.47v1.79c0,5.23,7.53,9.47,16.82,9.47s16.82-4.24,16.82-9.47V66.65C180.07,71.88,172.54,76.12,163.25,76.12Z"/><path class="cls-29" d="M163.25,68.14c-9.29,0-16.82-4.24-16.82-9.47v1.8c0,5.22,7.53,9.46,16.82,9.46s16.82-4.24,16.82-9.46v-1.8C180.07,63.9,172.54,68.14,163.25,68.14Z"/><path class="cls-29" d="M163.25,60c-9.29,0-16.82-4.24-16.82-9.46v1.79c0,5.23,7.53,9.46,16.82,9.46s16.82-4.23,16.82-9.46V50.57C180.07,55.79,172.54,60,163.25,60Z"/><path class="cls-29" d="M163.25,52.06c-9.29,0-16.82-4.24-16.82-9.47v1.79c0,5.23,7.53,9.47,16.82,9.47s16.82-4.24,16.82-9.47V42.59C180.07,47.82,172.54,52.06,163.25,52.06Z"/><path class="cls-29" d="M163.25,44.2c-9.29,0-16.82-4.24-16.82-9.47v1.79c0,5.23,7.53,9.47,16.82,9.47s16.82-4.24,16.82-9.47V34.73C180.07,40,172.54,44.2,163.25,44.2Z"/><path class="cls-29" d="M163.25,36.22c-9.29,0-16.82-4.24-16.82-9.46v1.79c0,5.23,7.53,9.46,16.82,9.46s16.82-4.23,16.82-9.46V26.76C180.07,32,172.54,36.22,163.25,36.22Z"/><path class="cls-29" d="M163.25,28.36c-9.29,0-16.82-4.23-16.82-9.46v1.79c0,5.23,7.53,9.47,16.82,9.47s16.82-4.24,16.82-9.47V18.9C180.07,24.13,172.54,28.36,163.25,28.36Z"/><path class="cls-32" d="M175.72,4.79A17.58,17.58,0,0,0,166.13.23a7.87,7.87,0,0,0-2.88,1.53A28.66,28.66,0,0,1,175.72,4.79Z"/><path class="cls-32" d="M163.25,1.76s-3.37,3-5.93,10.16a37.8,37.8,0,0,0-2.16,10.75,27.63,27.63,0,0,0,8.09,1.16,27.68,27.68,0,0,0,8.09-1.16,38.52,38.52,0,0,0-2.16-10.75C166.62,4.73,163.25,1.76,163.25,1.76Z"/><path class="cls-32" d="M160.82.17a17.67,17.67,0,0,0-10,4.62,28.66,28.66,0,0,1,12.48-3A6.12,6.12,0,0,0,160.82.17Z"/><path class="cls-12" d="M163.25,1.76a28.66,28.66,0,0,0-12.48,3,13.33,13.33,0,0,0-4.32,9.4,1.1,1.1,0,0,0,0,.18c0,3.58,3.53,6.69,8.73,8.3a37.8,37.8,0,0,1,2.16-10.75C159.88,4.73,163.25,1.76,163.25,1.76Z"/><path class="cls-33" d="M163.25,1.76a28.66,28.66,0,0,0-12.48,3,13.33,13.33,0,0,0-4.32,9.4,1.1,1.1,0,0,0,0,.18c0,3.58,3.53,6.69,8.73,8.3a37.8,37.8,0,0,1,2.16-10.75C159.88,4.73,163.25,1.76,163.25,1.76Z"/><path class="cls-12" d="M180.07,14.37c0-.06,0-.12,0-.18a13.34,13.34,0,0,0-4.33-9.4,28.66,28.66,0,0,0-12.47-3s3.37,3,5.93,10.16a38.52,38.52,0,0,1,2.16,10.75C176.54,21.06,180.07,18,180.07,14.37Z"/><path class="cls-33" d="M180.07,14.37c0-.06,0-.12,0-.18a13.34,13.34,0,0,0-4.33-9.4,28.66,28.66,0,0,0-12.47-3s3.37,3,5.93,10.16a38.52,38.52,0,0,1,2.16,10.75C176.54,21.06,180.07,18,180.07,14.37Z"/><path class="cls-12" d="M163.25,1.76A7.87,7.87,0,0,1,166.13.23,19.52,19.52,0,0,0,163.25,0a19.31,19.31,0,0,0-2.43.17A6.12,6.12,0,0,1,163.25,1.76Z"/><path class="cls-33" d="M163.25,1.76A7.87,7.87,0,0,1,166.13.23,19.52,19.52,0,0,0,163.25,0a19.31,19.31,0,0,0-2.43.17A6.12,6.12,0,0,1,163.25,1.76Z"/><path class="cls-29" d="M210.26,24.35v97.49c0,.76,1.09,1.37,2.44,1.37s2.43-.61,2.43-1.37V29.23a4.87,4.87,0,0,0-4.87-4.88Z"/><path class="cls-12" d="M178.94,32.07v92.81c0,5.22,7.53,9.46,16.82,9.46s16.81-4.24,16.81-9.46V32.07Z"/><rect class="cls-31" x="207.02" y="115.17" width="1.21" height="8.32"/><rect class="cls-31" x="189.52" y="117.52" width="1.21" height="8.32"/><rect class="cls-31" x="184.87" y="116.19" width="1.21" height="8.32"/><rect class="cls-31" x="180.78" y="105.67" width="1.21" height="8.32"/><rect class="cls-31" x="198.02" y="109.83" width="1.21" height="8.32"/><rect class="cls-31" x="200.78" y="101.52" width="1.21" height="8.32"/><rect class="cls-31" x="203.6" y="84.94" width="1.21" height="8.32"/><rect class="cls-31" x="188.31" y="85.51" width="1.21" height="8.32"/><rect class="cls-31" x="195.76" y="78.37" width="1.21" height="8.32"/><rect class="cls-31" x="184.27" y="99.95" width="1.21" height="8.32"/><polygon class="cls-31" points="182.59 99.02 181.38 98.51 181.38 90.11 182.59 90.7 182.59 99.02"/><polygon class="cls-31" points="182.59 82.67 181.38 82.17 181.38 73.76 182.59 74.35 182.59 82.67"/><polygon class="cls-31" points="208.23 99.46 207.02 100.05 207.02 92.07 208.23 91.14 208.23 99.46"/><polygon class="cls-31" points="210.86 89.53 209.66 90.11 209.66 82.14 210.86 81.21 210.86 89.53"/><rect class="cls-31" x="207.02" y="67.5" width="1.21" height="8.32"/><rect class="cls-31" x="189.52" y="69.84" width="1.21" height="8.32"/><rect class="cls-31" x="184.87" y="68.52" width="1.21" height="8.32"/><polygon class="cls-31" points="181.99 66.32 180.78 65.61 180.78 58 181.99 58 181.99 66.32"/><rect class="cls-31" x="198.02" y="62.16" width="1.21" height="8.32"/><rect class="cls-31" x="200.78" y="53.84" width="1.21" height="8.32"/><rect class="cls-31" x="203.6" y="37.27" width="1.21" height="8.32"/><rect class="cls-31" x="188.31" y="37.84" width="1.21" height="8.32"/><rect class="cls-31" x="184.27" y="52.28" width="1.21" height="8.32"/><polygon class="cls-31" points="182.59 51.34 181.38 50.84 181.38 42.44 182.59 43.02 182.59 51.34"/><polygon class="cls-31" points="208.23 51.79 207.02 52.37 207.02 44.4 208.23 43.47 208.23 51.79"/><polygon class="cls-31" points="210.86 41.85 209.66 42.44 209.66 34.46 210.86 33.53 210.86 41.85"/><path class="cls-29" d="M195.76,125.51c-9.29,0-16.82-4.24-16.82-9.46v1.79c0,5.23,7.53,9.46,16.82,9.46s16.81-4.23,16.81-9.46v-1.79C212.57,121.27,205,125.51,195.76,125.51Z"/><path class="cls-29" d="M195.76,117.54c-9.29,0-16.82-4.24-16.82-9.47v1.79c0,5.23,7.53,9.47,16.82,9.47s16.81-4.24,16.81-9.47v-1.79C212.57,113.3,205,117.54,195.76,117.54Z"/><path class="cls-29" d="M195.76,109.51c-9.29,0-16.82-4.24-16.82-9.46v1.79c0,5.22,7.53,9.46,16.82,9.46s16.81-4.24,16.81-9.46v-1.79C212.57,105.27,205,109.51,195.76,109.51Z"/><path class="cls-29" d="M195.76,101.54c-9.29,0-16.82-4.24-16.82-9.47v1.79c0,5.23,7.53,9.47,16.82,9.47s16.81-4.24,16.81-9.47V92.07C212.57,97.3,205,101.54,195.76,101.54Z"/><path class="cls-29" d="M195.76,93.51c-9.29,0-16.82-4.24-16.82-9.47v1.8c0,5.22,7.53,9.46,16.82,9.46s16.81-4.24,16.81-9.46V84C212.57,89.27,205,93.51,195.76,93.51Z"/><path class="cls-29" d="M195.76,85.53c-9.29,0-16.82-4.24-16.82-9.46v1.79c0,5.23,7.53,9.46,16.82,9.46s16.81-4.23,16.81-9.46V76.07C212.57,81.29,205,85.53,195.76,85.53Z"/><path class="cls-29" d="M195.76,77.43c-9.29,0-16.82-4.24-16.82-9.47v1.79c0,5.23,7.53,9.47,16.82,9.47s16.81-4.24,16.81-9.47V68C212.57,73.19,205,77.43,195.76,77.43Z"/><path class="cls-29" d="M195.76,69.45c-9.29,0-16.82-4.24-16.82-9.47v1.8c0,5.22,7.53,9.46,16.82,9.46s16.81-4.24,16.81-9.46V60C212.57,65.21,205,69.45,195.76,69.45Z"/><path class="cls-29" d="M195.76,61.59c-9.29,0-16.82-4.24-16.82-9.46v1.79c0,5.22,7.53,9.46,16.82,9.46s16.81-4.24,16.81-9.46V52.13C212.57,57.35,205,61.59,195.76,61.59Z"/><path class="cls-29" d="M195.76,53.62c-9.29,0-16.82-4.24-16.82-9.47v1.79c0,5.23,7.53,9.47,16.82,9.47s16.81-4.24,16.81-9.47V44.15C212.57,49.38,205,53.62,195.76,53.62Z"/><path class="cls-29" d="M195.76,45.76c-9.29,0-16.82-4.24-16.82-9.47v1.79c0,5.23,7.53,9.47,16.82,9.47s16.81-4.24,16.81-9.47V36.29C212.57,41.52,205,45.76,195.76,45.76Z"/><path class="cls-32" d="M208.23,22.18a17.61,17.61,0,0,0-9.59-4.56,8,8,0,0,0-2.88,1.53A28.8,28.8,0,0,1,208.23,22.18Z"/><path class="cls-32" d="M195.76,19.15s-3.37,3-5.93,10.16a37.8,37.8,0,0,0-2.16,10.75,28.55,28.55,0,0,0,16.18,0,38.52,38.52,0,0,0-2.16-10.75C199.13,22.13,195.76,19.15,195.76,19.15Z"/><path class="cls-32" d="M193.33,17.56a17.77,17.77,0,0,0-10.05,4.62,28.81,28.81,0,0,1,12.48-3A6.34,6.34,0,0,0,193.33,17.56Z"/><path class="cls-12" d="M195.76,19.15a28.81,28.81,0,0,0-12.48,3A13.41,13.41,0,0,0,179,31.59c0,.06,0,.11,0,.17,0,3.58,3.53,6.69,8.73,8.3a37.8,37.8,0,0,1,2.16-10.75C192.39,22.13,195.76,19.15,195.76,19.15Z"/><path class="cls-33" d="M195.76,19.15a28.81,28.81,0,0,0-12.48,3A13.41,13.41,0,0,0,179,31.59c0,.06,0,.11,0,.17,0,3.58,3.53,6.69,8.73,8.3a37.8,37.8,0,0,1,2.16-10.75C192.39,22.13,195.76,19.15,195.76,19.15Z"/><path class="cls-12" d="M212.57,31.76c0-.06,0-.11,0-.17a13.37,13.37,0,0,0-4.33-9.41,28.8,28.8,0,0,0-12.47-3s3.37,3,5.93,10.16a38.52,38.52,0,0,1,2.16,10.75C209.05,38.45,212.57,35.34,212.57,31.76Z"/><path class="cls-33" d="M212.57,31.76c0-.06,0-.11,0-.17a13.37,13.37,0,0,0-4.33-9.41,28.8,28.8,0,0,0-12.47-3s3.37,3,5.93,10.16a38.52,38.52,0,0,1,2.16,10.75C209.05,38.45,212.57,35.34,212.57,31.76Z"/><path class="cls-12" d="M195.76,19.15a8,8,0,0,1,2.88-1.53,19.52,19.52,0,0,0-2.88-.23,19.31,19.31,0,0,0-2.43.17A6.34,6.34,0,0,1,195.76,19.15Z"/><path class="cls-33" d="M195.76,19.15a8,8,0,0,1,2.88-1.53,19.52,19.52,0,0,0-2.88-.23,19.31,19.31,0,0,0-2.43.17A6.34,6.34,0,0,1,195.76,19.15Z"/><path class="cls-29" d="M250.77,105l.08-.46-.16.09-13-60.92-.23,0h-.24l-10.8,91.16c0,.12.18.23.4.23a.42.42,0,0,0,.36-.15h0l4.33-7.46,7.65,4.41,4.06,12.65c0,.12.18.22.4.22s.4-.1.4-.22l2.08-12.26,6-3.47,4.6,8h0a.53.53,0,0,0,.37.13c.22,0,.39-.1.39-.22Zm4.06,21.34-5.36-3.09-1.39-2.42,2.48-14.55Zm-.13.48-2.38,1.38L250,124.06Zm-26.56-2.16,2.35-19.81L235.35,120l-.43.74Zm6.29-3.07-3.06,5.28-3-1.76Zm7.42-11.85,1.17-9.06,7.14,4.13.05.1Zm8.36-4.28-2.51,14.73-5.83-9.92ZM240,113.14l1.31-2.19.49,7.87-1.65-.95Zm0-.88-.1-2.76,1.3.75Zm2.63-12.37L241.1,99l-.86-14,3.44,6.86Zm1.43-7.28,5.7,11.4-6.68-3.86Zm-4.32-7.86L240.62,99l-1,.45L239.13,86Zm-.65.25,0-1.41.57.33Zm1.55,14.5.52,8.39-1.49-5.39L239.6,100Zm-1.51,1-.09-.32.07,0Zm.06,2.06.21,6.08-8.51-4.92,7.7-3.35Zm.55,2,1.41,5.12-1.26-.73Zm1.39-5,1.43.83-.94,7.24ZM240.27,84l4.79-2.77L243.79,91Zm-.12-.49-.35-5.8,5.09,3.07Zm-.48-.08L239,83l-.2-5.93.47.28Zm-1.13-.65-4.95-2.86,4.76-2.75Zm0,.56.09,2.64-2.25,4.67-2.8-10.17Zm.12,3.67.43,12.68-.19.08-2.32-8.41Zm-.21,13-7.59,3.3L236.28,92Zm1,9.29.12,3.79-3.87,6.43-4.88-15.2Zm4.75-17.46,1.24-9.6,4.48,21Zm-4.42-14.67-1.85-30.15L245,80.25Zm-.5-.3-.45-.27L238.3,61Zm-.92-.2-4.84,2.79,3.85-32.46Zm-2.25,14.68-5.3,11,2.5-21.16Zm-.21,28.78,3.7-6.16.14,4.07-3.81,2.2Zm3.86-1.54.29,8.75c0,.07.11.13.24.13s.24-.06.24-.13l-.3-8.82,1.66,1,.86,14-3.15-1.81-3.52-11Zm2.63,1.17,4.93,2.85L245.69,132l-2.48,1.43Zm0-.57-.48-8,5.73,9.75-.19,1.12Zm5.63,2.43.7,1.22-.83-.48Zm-21,12.84,1.06-8.9,3.08,1.78Zm4.79-7.3,3.48-6,.38-.22L239,131.23Zm8,5.18,3,1.72.57,9.31Zm4,10.84-.56-9.13,2.34-1.35Zm2.43-11.41,1.51-8.91,1.39.81,2.78,4.82Zm8.78-4.52,1.93,9-4.38-7.61Z"/><polygon class="cls-29" points="237.63 47.84 237.48 47.62 255.07 35.05 235.56 43.94 235.45 43.7 256.21 34.24 256.34 34.47 237.63 47.84"/><path class="cls-29" d="M239.51,53.55a4.47,4.47,0,0,1-2.21-.66c-3-1.74-5.44-6.4-5.44-10.39,0-2.13.7-3.76,1.92-4.47a3.6,3.6,0,0,1,3.66.29c3,1.73,5.44,6.39,5.44,10.39,0,2.13-.7,3.75-1.93,4.46A2.84,2.84,0,0,1,239.51,53.55Zm-4.28-15.63a2.56,2.56,0,0,0-1.31.34c-1.14.66-1.8,2.2-1.8,4.24,0,3.91,2.39,8.47,5.32,10.16a3.33,3.33,0,0,0,3.38.28c1.14-.66,1.79-2.2,1.79-4.23,0-3.92-2.38-8.47-5.31-10.16A4.15,4.15,0,0,0,235.23,37.92Z"/><path class="cls-12" d="M242.62,64.66a10.85,10.85,0,0,1-5.32-1.6C230,58.83,224,47.45,224,37.69c0-5.17,1.69-9.11,4.63-10.81,2.45-1.41,5.57-1.16,8.79.7,7.32,4.23,13.28,15.61,13.28,25.37,0,5.17-1.69,9.1-4.63,10.81A6.91,6.91,0,0,1,242.62,64.66Zm-10.5-38.42a6.54,6.54,0,0,0-3.33.87c-2.87,1.65-4.51,5.51-4.51,10.58,0,9.67,5.9,21,13.16,25.14,3.13,1.81,6.16,2.06,8.51.7,2.86-1.66,4.51-5.51,4.51-10.58,0-9.68-5.9-21-13.16-25.14A10.49,10.49,0,0,0,232.12,26.24Z"/><polygon class="cls-29" points="241.94 57.57 233.14 34.27 233.39 34.18 242.19 57.48 241.94 57.57"/><rect class="cls-29" x="237.19" y="35.54" width="0.27" height="18.79" transform="translate(-0.09 0.46) rotate(-0.11)"/><rect class="cls-29" x="229.82" y="44.81" width="15.23" height="0.26" transform="translate(82.12 230.08) rotate(-60.72)"/><polygon class="cls-29" points="243.98 52.57 230.69 38.92 230.87 38.74 244.17 52.38 243.98 52.57"/><rect class="cls-29" x="236.56" y="36.27" width="0.27" height="18.62" transform="translate(129.16 261.3) rotate(-74.4)"/><polygon class="cls-29" points="232.26 47.56 232.17 47.31 245.15 42.57 245.24 42.82 232.26 47.56"/><polygon class="cls-32" points="237.05 20.93 236.95 38.49 238.73 37.44 240.79 18.73 237.05 20.93"/><polygon class="cls-32" points="239.47 40.65 246.17 28.83 249.92 26.82 241.18 39.78 239.47 40.65"/><polygon class="cls-32" points="234.34 37.85 235.98 36.88 230.75 16.72 227.13 18.77 234.34 37.85"/><polygon class="cls-32" points="232.28 40.65 219.53 27.57 222.68 25.71 233.26 40.05 232.28 40.65"/><polygon class="cls-32" points="222.25 39.29 219.26 41.02 231.95 44.48 232.99 43.88 222.25 39.29"/><polygon class="cls-32" points="232.99 47.52 234.54 46.29 225.94 49.05 222.38 51.36 232.99 47.52"/><polygon class="cls-32" points="252.63 40.09 241.41 44.25 243.69 42.93 256.57 37.85 252.63 40.09"/><polygon class="cls-32" points="242.38 47.48 244.04 46.52 258.97 49.15 255.57 51.14 242.38 47.48"/><polygon class="cls-32" points="242.14 50.83 243.51 50.08 257.84 61.94 254.65 63.77 242.14 50.83"/><polygon class="cls-32" points="240.03 53.1 241.12 52.48 250.37 69.87 247.05 71.73 240.03 53.1"/><polygon class="cls-32" points="237.1 52.24 237.1 69.8 240.18 68.02 238.23 51.59 237.1 52.24"/><polygon class="cls-32" points="234.54 49.55 227.99 61.36 231.27 59.47 235.86 48.83 234.54 49.55"/><path class="cls-29" d="M226.92,49.72l-.24.09a34.35,34.35,0,0,0,3.89,6.9c0-.07.08-.13.14-.25A34.78,34.78,0,0,1,226.92,49.72Z"/><path class="cls-29" d="M224.62,32.78a19,19,0,0,0-.6,4.91,26.24,26.24,0,0,0,.25,3.51h0s.06.08.13.08.14,0,.14-.08a26.27,26.27,0,0,1-.26-3.51,18.68,18.68,0,0,1,.56-4.67C224.76,32.92,224.68,32.85,224.62,32.78Z"/><path class="cls-29" d="M230,26.32a6.71,6.71,0,0,0-1.33.56,8.52,8.52,0,0,0-3.45,4.21h0a.18.18,0,0,0,0,.15c.05.06.13.08.17,0s0,0,0,0h0a8.45,8.45,0,0,1,3.36-4.15,6,6,0,0,1,1.28-.55S230,26.41,230,26.32Z"/><path class="cls-29" d="M231.5,26c-.05,0-.08.08-.07.16s.07.14.12.13.4-.05.57-.05a10.3,10.3,0,0,1,4.89,1.4v-.3A10.11,10.11,0,0,0,231.5,26Z"/><path class="cls-29" d="M238.49,28.24h0a0,0,0,0,0,0,0c-.05,0-.11,0-.13.12a.16.16,0,0,0,0,.14h0a23.31,23.31,0,0,1,5.13,5,2.75,2.75,0,0,0,.15-.25A23.72,23.72,0,0,0,238.49,28.24Z"/><path class="cls-29" d="M244.21,34a.15.15,0,0,0-.16.06c-.05.07-.06.14,0,.17a34.34,34.34,0,0,1,3.92,7l.25-.1A35.6,35.6,0,0,0,244.21,34Z"/><path class="cls-29" d="M248.4,41.66l-.25.09a33.44,33.44,0,0,1,1.92,6.9c0,.05.07.09.15.09s.14,0,.14-.09A33.12,33.12,0,0,0,248.4,41.66Z"/><path class="cls-29" d="M250.72,53a27.35,27.35,0,0,0-.21-3.23l-.27-.06a26.35,26.35,0,0,1,.22,3.29,19.62,19.62,0,0,1-.43,4.13h0a.14.14,0,0,0,.07.14c.07.05.15.05.18,0v0A18.75,18.75,0,0,0,250.72,53Z"/><path class="cls-29" d="M249.62,58.59A8.67,8.67,0,0,1,246,63.53l-.44.23s0,.09,0,.15.09.11.13.09.3-.15.47-.24a8.84,8.84,0,0,0,3.74-5A1.31,1.31,0,0,0,249.62,58.59Z"/><path class="cls-29" d="M244.21,64.2a8.79,8.79,0,0,1-5.67-.8h0c-.06,0-.11.07-.11.15a.15.15,0,0,0,.08.13h0a10.09,10.09,0,0,0,4.14,1,7.18,7.18,0,0,0,1.69-.2S244.25,64.29,244.21,64.2Z"/><path class="cls-29" d="M231.37,57.33h0s-.1,0-.14.07,0,.15,0,.17a22.25,22.25,0,0,0,5.89,5.38v-.31A22.21,22.21,0,0,1,231.37,57.33Z"/><path class="cls-29" d="M224.46,42.43a34.5,34.5,0,0,0,2,6.93s.08,0,.15,0,.11-.07.1-.11a33.51,33.51,0,0,1-2-6.74Z"/><path class="cls-32" d="M239,47.77a1.93,1.93,0,0,0,.6-1.59,4.91,4.91,0,0,0-2-3.91,1.27,1.27,0,0,0-1.38-.07h0l-.82.48.23.48a3.26,3.26,0,0,0-.07.66,4.89,4.89,0,0,0,2,3.91,2.73,2.73,0,0,0,.31.14l.22.44Z"/><path class="cls-33" d="M234.74,44.27a4.9,4.9,0,0,0,2,3.91c1.13.66,2,0,2-1.54a4.92,4.92,0,0,0-2-3.92C235.66,42.07,234.74,42.76,234.74,44.27Z"/><polygon class="cls-29" points="250.39 36.27 250.39 39.29 267.22 33.25 267.22 23.21 250.39 36.27"/><polygon class="cls-11" points="14.68 104.46 24.94 98.56 29.4 85.5 23.45 87.33 14.68 104.46"/><polygon class="cls-9" points="56.92 101.46 41.76 79.18 26.61 83.96 16.76 100.95 16.76 146.95 66.77 175.83 66.77 129.83 56.92 101.46"/><polygon class="cls-6" points="66.77 129.83 151.63 80.96 151.63 126.96 66.77 175.83 66.77 129.83"/><polygon class="cls-28" points="18.36 147.88 16.76 146.95 16.76 98.75 18.36 97.09 18.36 147.88"/><polygon class="cls-28" points="66.77 175.83 65.17 174.9 65.17 126.7 66.77 126.7 66.77 175.83"/><polygon class="cls-34" points="66.77 175.83 68.38 174.9 68.38 126.7 66.77 126.7 66.77 175.83"/><polygon class="cls-34" points="150.03 127.87 151.63 126.94 151.63 78.73 150.03 78.73 150.03 127.87"/><polygon class="cls-12" points="39.44 80.45 127.35 29.9 143.34 53.41 55.42 103.96 39.44 80.45"/><polygon class="cls-11" points="153.83 83.26 65.82 133.88 55.42 103.96 143.34 53.41 153.83 83.26"/><polygon class="cls-11" points="111.54 34.84 23.45 85.5 39.44 80.45 127.35 29.9 111.54 34.84"/><polygon class="cls-28" points="55.42 103.96 39.44 80.45 23.45 85.5 12.89 103.41 14.68 104.46 24.66 87.52 38.96 83.01 53.8 104.83 63.43 132.5 65.82 133.88 55.42 103.96"/><polygon class="cls-29" points="23.43 85.5 39.42 80.45 41 79.53 25.19 84.47 23.43 85.5"/><polygon class="cls-35" points="41 79.53 39.42 80.45 55.4 103.96 56.99 103.03 41 79.53"/><polygon class="cls-29" points="31.29 81.02 47.27 75.97 48.86 75.05 33.05 79.99 31.29 81.02"/><polygon class="cls-35" points="48.86 75.05 47.27 75.97 63.26 99.48 64.84 98.56 48.86 75.05"/><polygon class="cls-29" points="56.99 103.03 55.4 103.96 65.8 133.88 67.47 132.92 56.99 103.03"/><polygon class="cls-29" points="64.86 98.52 63.26 99.48 73.67 129.37 75.34 128.4 64.86 98.52"/><polygon class="cls-29" points="54.88 67.44 70.87 62.39 72.45 61.47 56.65 66.41 54.88 67.44"/><polygon class="cls-35" points="72.45 61.47 70.87 62.39 86.86 85.9 88.44 84.97 72.45 61.47"/><polygon class="cls-29" points="62.74 62.96 78.73 57.92 80.31 56.99 64.5 61.93 62.74 62.96"/><polygon class="cls-35" points="80.31 56.99 78.73 57.92 94.72 81.42 96.3 80.5 80.31 56.99"/><polygon class="cls-29" points="88.44 84.97 86.86 85.9 97.25 115.82 98.92 114.86 88.44 84.97"/><polygon class="cls-29" points="96.31 80.46 94.72 81.42 105.12 111.31 106.79 110.34 96.31 80.46"/><polygon class="cls-29" points="39.19 76.47 55.18 71.42 56.76 70.5 40.96 75.44 39.19 76.47"/><polygon class="cls-35" points="56.76 70.5 55.18 71.42 71.17 94.93 72.75 94 56.76 70.5"/><polygon class="cls-29" points="47.05 71.99 63.04 66.95 64.62 66.02 48.81 70.96 47.05 71.99"/><polygon class="cls-35" points="64.62 66.02 63.04 66.95 79.03 90.45 80.61 89.53 64.62 66.02"/><polygon class="cls-29" points="72.75 94 71.17 94.93 81.56 124.85 83.23 123.89 72.75 94"/><polygon class="cls-29" points="80.62 89.49 79.03 90.45 89.43 120.34 91.1 119.37 80.62 89.49"/><polygon class="cls-29" points="70.54 58.41 86.53 53.36 88.11 52.44 72.3 57.38 70.54 58.41"/><polygon class="cls-35" points="88.11 52.44 86.53 53.36 102.51 76.87 104.1 75.94 88.11 52.44"/><polygon class="cls-29" points="78.4 53.93 94.38 48.89 95.97 47.96 80.16 52.9 78.4 53.93"/><polygon class="cls-35" points="95.97 47.96 94.38 48.89 110.37 72.39 111.95 71.47 95.97 47.96"/><polygon class="cls-29" points="104.1 75.94 102.51 76.87 112.91 106.79 114.58 105.83 104.1 75.94"/><polygon class="cls-29" points="111.97 71.43 110.37 72.39 120.78 102.28 122.45 101.32 111.97 71.43"/><polygon class="cls-29" points="101.92 40.35 117.91 35.31 119.49 34.38 103.68 39.32 101.92 40.35"/><polygon class="cls-35" points="119.49 34.38 117.91 35.31 133.9 58.81 135.48 57.89 119.49 34.38"/><polygon class="cls-29" points="109.78 35.88 125.77 30.83 127.35 29.9 111.54 34.84 109.78 35.88"/><polygon class="cls-35" points="127.35 29.9 125.77 30.83 141.75 54.34 143.34 53.41 127.35 29.9"/><polygon class="cls-29" points="135.48 57.89 133.9 58.81 144.29 88.73 145.96 87.77 135.48 57.89"/><polygon class="cls-29" points="143.35 53.37 141.75 54.34 152.16 84.22 153.83 83.26 143.35 53.37"/><polygon class="cls-29" points="86.3 49.38 102.29 44.34 103.87 43.41 88.07 48.35 86.3 49.38"/><polygon class="cls-35" points="103.87 43.41 102.29 44.34 118.28 67.84 119.86 66.92 103.87 43.41"/><polygon class="cls-29" points="94.16 44.9 110.15 39.86 111.73 38.93 95.92 43.87 94.16 44.9"/><polygon class="cls-35" points="111.73 38.93 110.15 39.86 126.14 63.37 127.72 62.44 111.73 38.93"/><polygon class="cls-29" points="119.86 66.92 118.28 67.84 128.67 97.76 130.34 96.8 119.86 66.92"/><polygon class="cls-29" points="127.73 62.4 126.14 63.37 136.54 93.25 138.21 92.29 127.73 62.4"/><polygon class="cls-33" points="22.27 151.16 57.91 171.73 57.91 143.77 22.27 123.26 22.27 151.16"/><polygon class="cls-34" points="58.89 143.21 57.91 143.77 57.91 171.73 58.89 171.16 58.89 143.21"/><polygon class="cls-6" points="56.87 144.18 23.13 124.77 23.13 151.65 56.87 171.13 56.87 144.18"/><polygon class="cls-33" points="40.55 161.72 39.37 161.01 39.37 133.64 40.55 134.19 40.55 161.72"/><polygon class="cls-33" points="38.69 160.64 22.71 124.95 23.56 124.58 40.05 161.41 38.69 160.64"/><polygon class="cls-33" points="23.54 151.88 22.71 151.42 39.03 133.82 39.7 134.45 23.54 151.88"/><polygon class="cls-33" points="56.06 170.66 40.05 134.91 40.9 134.53 57.43 171.45 56.06 170.66"/><polygon class="cls-33" points="40.85 161.88 40.05 161.41 56.37 143.77 57.43 143.99 40.85 161.88"/><polygon class="cls-28" points="58.89 143.21 23.2 122.68 22.22 123.25 57.91 143.77 58.89 143.21"/><polygon class="cls-33" points="129 141.3 93.35 161.87 93.35 133.92 129 113.41 129 141.3"/><polygon class="cls-34" points="92.36 133.35 93.35 133.92 93.35 161.87 92.36 161.31 92.36 133.35"/><polygon class="cls-6" points="94.39 134.32 128.13 114.91 128.13 141.79 94.39 161.27 94.39 134.32"/><polygon class="cls-33" points="110.71 151.86 111.89 151.16 111.89 123.79 110.71 124.34 110.71 151.86"/><polygon class="cls-33" points="112.57 150.78 128.55 115.1 127.7 114.72 111.21 151.55 112.57 150.78"/><polygon class="cls-33" points="127.72 142.03 128.55 141.56 112.23 123.96 111.55 124.59 127.72 142.03"/><polygon class="cls-33" points="95.2 160.81 111.21 125.05 110.36 124.67 93.83 161.6 95.2 160.81"/><polygon class="cls-33" points="110.41 152.02 111.21 151.55 94.89 133.92 93.83 134.13 110.41 152.02"/><polygon class="cls-28" points="92.36 133.35 128.06 112.82 129.04 113.39 93.35 133.92 92.36 133.35"/><polygon class="cls-33" points="25.66 111.14 33.11 115.44 33.11 104.2 25.66 99.9 25.66 111.14"/><polygon class="cls-34" points="33.95 103.72 33.11 104.2 33.11 115.44 33.95 114.96 33.95 103.72"/><polygon class="cls-29" points="26.26 110.58 32.51 114.19 32.51 104.76 26.26 101.16 26.26 110.58"/><polygon class="cls-33" points="29.68 102.61 29.09 102.34 29.09 112.71 29.68 113.09 29.68 102.61"/><polygon class="cls-33" points="25.91 105.33 25.91 106.08 32.8 110.06 32.8 109.31 25.91 105.33"/><polygon class="cls-28" points="33.95 103.72 33.11 104.2 25.66 99.9 26.49 99.42 33.95 103.72"/><polygon class="cls-33" points="48.05 124.16 55.51 128.47 55.51 117.22 48.05 112.92 48.05 124.16"/><polygon class="cls-34" points="56.34 116.74 55.51 117.22 55.51 128.47 56.34 127.98 56.34 116.74"/><polygon class="cls-29" points="48.65 123.6 54.9 127.21 54.9 117.78 48.65 114.18 48.65 123.6"/><polygon class="cls-33" points="52.08 115.63 51.48 115.36 51.48 125.73 52.08 126.11 52.08 115.63"/><polygon class="cls-33" points="48.31 118.36 48.31 119.11 55.2 123.08 55.2 122.33 48.31 118.36"/><polygon class="cls-28" points="56.34 116.74 55.51 117.22 48.05 112.92 48.89 112.44 56.34 116.74"/><polygon class="cls-33" points="85.9 149.22 78.45 153.52 78.45 142.28 85.9 137.97 85.9 149.22"/><polygon class="cls-34" points="77.61 141.8 78.45 142.28 78.45 153.52 77.61 153.04 77.61 141.8"/><polygon class="cls-29" points="85.3 148.66 79.05 152.26 79.05 142.84 85.3 139.23 85.3 148.66"/><polygon class="cls-33" points="81.88 140.68 82.47 140.41 82.47 150.79 81.88 151.16 81.88 140.68"/><polygon class="cls-33" points="85.64 143.41 85.64 144.16 78.76 148.14 78.76 147.39 85.64 143.41"/><polygon class="cls-28" points="77.61 141.8 78.45 142.28 85.9 137.97 85.06 137.49 77.61 141.8"/><polygon class="cls-33" points="144.25 115.72 136.79 120.02 136.79 108.78 144.25 104.47 144.25 115.72"/><polygon class="cls-34" points="135.96 108.29 136.79 108.78 136.79 120.02 135.96 119.54 135.96 108.29"/><polygon class="cls-29" points="143.65 115.15 137.4 118.76 137.4 109.34 143.65 105.73 143.65 115.15"/><polygon class="cls-33" points="140.22 107.18 140.82 106.91 140.82 117.29 140.22 117.66 140.22 107.18"/><polygon class="cls-33" points="143.99 109.91 143.99 110.66 137.11 114.64 137.11 113.89 143.99 109.91"/><polygon class="cls-28" points="135.96 108.29 136.79 108.78 144.25 104.47 143.41 103.99 135.96 108.29"/><polygon class="cls-6" points="106.13 54.55 94.16 61.47 94.16 45.5 106.13 38.59 106.13 54.55"/><polygon class="cls-9" points="82.19 54.55 88.11 52.44 94.16 61.47 94.16 45.5 82.19 38.59 82.19 54.55"/><polygon class="cls-33" points="79.37 38.06 94.16 46.6 94.16 28.13 79.37 38.06"/><polygon class="cls-32" points="108.95 38.06 94.16 46.6 94.16 28.13 108.95 38.06"/><polygon class="cls-32" points="79.37 38.06 79.37 39.84 94.16 48.38 94.16 46.6 79.37 38.06"/><polygon class="cls-36" points="108.95 38.06 108.95 39.84 94.16 48.38 94.16 46.6 108.95 38.06"/><path class="cls-29" d="M93.41,28.13v.71c0,.23.33.42.75.42s.76-.19.76-.42v-.71Z"/><path class="cls-37" d="M94.92,28.13c0,.23-.34.42-.76.42s-.75-.19-.75-.42.33-.43.75-.43S94.92,27.9,94.92,28.13Z"/><path class="cls-29" d="M93.81,12.52V28.06c0,.12.17.22.38.22s.38-.1.38-.22V12.52Z"/><path class="cls-37" d="M94.57,12.52c0,.12-.17.22-.38.22s-.38-.1-.38-.22.17-.21.38-.21S94.57,12.41,94.57,12.52Z"/><polygon class="cls-29" points="90.22 13.17 90.22 14.72 87.82 12.56 90.22 13.17"/><polygon class="cls-29" points="89.55 13.81 97.96 18.67 97.96 18.16 89.55 13.31 89.55 13.81"/><polygon class="cls-29" points="97.22 17.99 98.47 17.32 98.47 17.93 99.4 17.85 99.4 18.47 100.5 18.49 99.86 19.51 97.22 17.99"/><polygon class="cls-29" points="97.22 17.99 98.47 20.1 98.47 19.48 99.4 20.64 99.4 20.02 100.5 21.27 99.86 19.51 97.22 17.99"/><path class="cls-29" d="M90.66,6.58a.62.62,0,0,1,.45-.45.62.62,0,0,1,0-.13c.07-.28.34-.3.48-.34C91.27,5,91.23,4.1,91.66,4c.07,0,.15.09.18.2l.09.41c0-.08.19-.3.38-.09a1,1,0,0,1,.13.9c.14-.06.28-.22.47-.08a.53.53,0,0,1,.24.34c.15.52-.19.58-.21.63.28.2.35.11.54.13a.63.63,0,0,1,.34.84c-.14.22-.41.15-.64,0l-.09,0a4,4,0,0,1,.32,1.58,8,8,0,0,0,0,.88c.11,1.08.47,1.44.64,1.41s.38-.6.49-.72c.26-.3.4-.58.77-.7,1.22-.41,2.75,1.33,3.17,3.4,0,.18,0,.17-.13,0A5.2,5.2,0,0,0,97.57,12a3.74,3.74,0,0,1,.66,2.28c0,.17-.15.08-.22-.12A2.42,2.42,0,0,0,97,12.69a3.94,3.94,0,0,1,.53,1.84c0,.22-.07.32-.27-.11a2.89,2.89,0,0,0-1.12-1.31,2,2,0,0,1-.24.51,1.92,1.92,0,0,1-.33.46,1.28,1.28,0,0,1-.89.41,3.06,3.06,0,0,1-2.18-1.59,6.41,6.41,0,0,1-.95-2.77,3.09,3.09,0,0,1,.1-1.28,1,1,0,0,1,.32-.4.5.5,0,0,1-.33-.6c-.22-.17-.28-.52-.12-.64a2.08,2.08,0,0,1-.21-.33A3.53,3.53,0,0,1,90.66,6.58Z"/><path class="cls-29" d="M95.24,14.94a1,1,0,1,1-1-1A1,1,0,0,1,95.24,14.94Z"/><path class="cls-29" d="M96,188.29l1.17-2.71a9.92,9.92,0,0,0,2.57-6l.91-2.14-2.25-1.32h0a2.45,2.45,0,0,0-2.49.21c-2.12,1.22-3.84,4.51-3.84,7.33,0,1.59.54,2.7,1.4,3.15h0Z"/><path class="cls-5" d="M102.23,180.69c0,2.83-1.72,6.11-3.84,7.34s-3.83-.08-3.83-2.91,1.71-6.11,3.83-7.33S102.23,177.86,102.23,180.69Z"/><path class="cls-12" d="M102.23,181c0,2.61-1.59,5.64-3.54,6.77s-3.54-.07-3.54-2.68,1.58-5.64,3.54-6.77S102.23,178.38,102.23,181Z"/><path class="cls-33" d="M101.64,181.49a6.62,6.62,0,0,1-2.76,5.28c-1.53.88-2.76-.06-2.76-2.09a6.59,6.59,0,0,1,2.76-5.27C100.4,178.53,101.64,179.46,101.64,181.49Z"/><path class="cls-11" d="M101.5,181.66A5.93,5.93,0,0,1,99,186.39c-1.37.79-2.48,0-2.48-1.87A5.93,5.93,0,0,1,99,179.78C100.39,179,101.5,179.83,101.5,181.66Z"/><path class="cls-29" d="M99.66,181.93a3.36,3.36,0,0,1-1.41,2.69c-.78.45-1.41,0-1.41-1.06a3.35,3.35,0,0,1,1.41-2.69C99,180.42,99.66,180.89,99.66,181.93Z"/><path class="cls-12" d="M99.42,182.07a2.8,2.8,0,0,1-1.17,2.24c-.65.37-1.18,0-1.18-.89a2.81,2.81,0,0,1,1.18-2.24C98.9,180.8,99.42,181.2,99.42,182.07Z"/><path class="cls-5" d="M97.13,175.91a3.65,3.65,0,0,0,0,.71c.06.24.71.41,1.38.46a5.56,5.56,0,0,1,1.22.25,4.37,4.37,0,0,1,.51,0,2.88,2.88,0,0,0-1.38-.4c-.48-.07-1.43-.18-1.52-.39a1.69,1.69,0,0,1,0-.68A1,1,0,0,1,97.13,175.91Z"/><path class="cls-5" d="M96.09,176.25s-.19.7-.24,1.08.52.42,1.23.41l1.47,0-.22.13s-1.17.08-1.87,0a1,1,0,0,1-.68-.24c-.15-.14-.1-.36,0-.63a5.48,5.48,0,0,1,.17-.66Z"/><path class="cls-5" d="M94.67,177.33l-.11.12a4.55,4.55,0,0,0-.21,1.27c0,.69.07.95.54.93a13.6,13.6,0,0,0,1.8-.34l.14-.18a16.39,16.39,0,0,1-1.75.34c-.49,0-.55-.1-.59-.57A7.7,7.7,0,0,1,94.67,177.33Z"/><path class="cls-5" d="M93.24,179.31a5.08,5.08,0,0,0,0,1.55c.12.78.56.77,1.11.61s1.24-.44,1.24-.44l.1-.19s-1.16.44-1.45.52-.68.15-.84-.45a6.59,6.59,0,0,1,0-1.83Z"/><path class="cls-5" d="M92.35,181.55a5.24,5.24,0,0,0,.11,1.74c.23.69.65,1,1.3.55s1-.7,1-.7l.06-.23s-1.06.73-1.39.89-.61,0-.82-.48a7,7,0,0,1-.23-2Z"/><path class="cls-5" d="M92.1,184.35a3.42,3.42,0,0,0,.72,1.45c.55.6.85.79,1.16.52a6.72,6.72,0,0,0,.6-.63v-.18s-.58.61-.67.69-.69-.12-.93-.42a6,6,0,0,1-.9-1.7Z"/><path class="cls-29" d="M132.87,191.69l1.68-3.92a14.18,14.18,0,0,0,3.71-8.63l1.33-3.08-3.25-1.91h0a3.55,3.55,0,0,0-3.6.3c-3.06,1.77-5.55,6.51-5.55,10.59,0,2.3.79,3.89,2,4.54h0Z"/><path class="cls-5" d="M141.88,180.72c0,4.08-2.48,8.82-5.54,10.59s-5.55-.11-5.55-4.19,2.49-8.82,5.55-10.59S141.88,176.64,141.88,180.72Z"/><path class="cls-12" d="M141.88,181.15c0,3.77-2.29,8.14-5.12,9.78s-5.11-.1-5.11-3.87,2.29-8.14,5.11-9.77S141.88,177.39,141.88,181.15Z"/><path class="cls-33" d="M141,181.88c0,2.93-1.78,6.34-4,7.61s-4-.08-4-3,1.79-6.34,4-7.61S141,179,141,181.88Z"/><path class="cls-11" d="M140.82,182.12c0,2.63-1.6,5.69-3.58,6.83s-3.58-.07-3.58-2.7,1.61-5.7,3.58-6.84S140.82,179.48,140.82,182.12Z"/><path class="cls-29" d="M138.16,182.51a4.88,4.88,0,0,1-2,3.89c-1.13.65-2,0-2-1.54a4.86,4.86,0,0,1,2-3.89C137.25,180.32,138.16,181,138.16,182.51Z"/><path class="cls-12" d="M137.82,182.71a4.07,4.07,0,0,1-1.69,3.24c-.94.54-1.7,0-1.7-1.28a4.05,4.05,0,0,1,1.7-3.24C137.06,180.88,137.82,181.46,137.82,182.71Z"/><path class="cls-5" d="M134.51,173.82a4.91,4.91,0,0,0,0,1c.07.36,1,.59,2,.67a8,8,0,0,1,1.76.35s.45,0,.73,0a4.24,4.24,0,0,0-2-.57c-.7-.1-2.06-.25-2.2-.56a2.46,2.46,0,0,1-.05-1A1.53,1.53,0,0,1,134.51,173.82Z"/><path class="cls-5" d="M133,174.31a15.54,15.54,0,0,0-.35,1.55c-.06.55.76.62,1.78.6l2.12-.05-.32.17s-1.69.13-2.69.08a1.42,1.42,0,0,1-1-.34c-.21-.21-.14-.53-.07-.91a6.64,6.64,0,0,1,.25-1Z"/><path class="cls-5" d="M131,175.86l-.17.18a7.16,7.16,0,0,0-.29,1.83c0,1,.1,1.37.78,1.35a20.11,20.11,0,0,0,2.59-.5l.21-.25a22.65,22.65,0,0,1-2.53.49c-.71,0-.78-.14-.86-.83A12,12,0,0,1,131,175.86Z"/><path class="cls-5" d="M128.9,178.72a7.1,7.1,0,0,0,0,2.24c.16,1.12.8,1.12,1.6.88s1.79-.63,1.79-.63l.14-.27s-1.68.64-2.09.75-1,.21-1.22-.65a10,10,0,0,1,0-2.65Z"/><path class="cls-5" d="M127.62,182a7.58,7.58,0,0,0,.14,2.51c.34,1,.94,1.43,1.88.78s1.52-1,1.52-1l.09-.33s-1.54,1.06-2,1.29-.87,0-1.17-.69a9.92,9.92,0,0,1-.33-3Z"/><path class="cls-5" d="M127.24,186a5,5,0,0,0,1,2.09c.79.87,1.23,1.14,1.67.74a8.41,8.41,0,0,0,.87-.9l0-.25-1,1c-.29.3-1-.18-1.34-.61a8.83,8.83,0,0,1-1.3-2.46Z"/><path class="cls-29" d="M114.34,181.06l1.68-3.91a14.18,14.18,0,0,0,3.71-8.63l1.32-3.08-3.25-1.92h0a3.55,3.55,0,0,0-3.6.3c-3.06,1.77-5.54,6.51-5.54,10.59,0,2.29.78,3.89,2,4.54h0Z"/><path class="cls-5" d="M123.35,170.1c0,4.08-2.48,8.82-5.55,10.59s-5.54-.11-5.54-4.19,2.48-8.82,5.54-10.59S123.35,166,123.35,170.1Z"/><path class="cls-12" d="M123.34,170.53c0,3.77-2.29,8.14-5.11,9.77s-5.12-.1-5.12-3.86,2.29-8.14,5.12-9.78S123.34,166.76,123.34,170.53Z"/><path class="cls-33" d="M122.49,171.26c0,2.93-1.79,6.34-4,7.61s-4-.08-4-3,1.78-6.34,4-7.61S122.49,168.32,122.49,171.26Z"/><path class="cls-11" d="M122.28,171.49c0,2.64-1.6,5.7-3.57,6.84s-3.58-.07-3.58-2.71,1.6-5.69,3.58-6.83S122.28,168.86,122.28,171.49Z"/><path class="cls-29" d="M119.63,171.89a4.86,4.86,0,0,1-2,3.89c-1.12.65-2,0-2-1.54a4.88,4.88,0,0,1,2-3.89C118.72,169.7,119.63,170.39,119.63,171.89Z"/><path class="cls-12" d="M119.29,172.08a4.05,4.05,0,0,1-1.7,3.24c-.93.55-1.69,0-1.69-1.28a4.07,4.07,0,0,1,1.69-3.24C118.53,170.26,119.29,170.84,119.29,172.08Z"/><path class="cls-5" d="M116,163.19a5,5,0,0,0,0,1c.08.35,1,.59,2,.67a7.33,7.33,0,0,1,1.75.35s.45,0,.73,0a4.24,4.24,0,0,0-2-.57c-.69-.1-2.06-.25-2.2-.57a2.55,2.55,0,0,1,0-1A1.19,1.19,0,0,1,116,163.19Z"/><path class="cls-5" d="M114.48,163.68a16,16,0,0,0-.35,1.56c-.07.55.75.61,1.78.6l2.12-.06-.32.18s-1.69.13-2.7.08a1.52,1.52,0,0,1-1-.34c-.21-.21-.15-.53-.07-.91a7.42,7.42,0,0,1,.24-1Z"/><path class="cls-5" d="M112.43,165.24l-.17.18a7.06,7.06,0,0,0-.29,1.83c0,1,.09,1.37.78,1.35a20.48,20.48,0,0,0,2.59-.5l.21-.26a21.89,21.89,0,0,1-2.54.5c-.7,0-.78-.15-.85-.83A11.2,11.2,0,0,1,112.43,165.24Z"/><path class="cls-5" d="M110.37,168.1a7.1,7.1,0,0,0,0,2.24c.16,1.12.79,1.11,1.59.88s1.8-.64,1.8-.64l.14-.27s-1.68.64-2.09.76-1,.21-1.22-.65a9.75,9.75,0,0,1,0-2.65Z"/><path class="cls-5" d="M109.08,171.35a7.69,7.69,0,0,0,.15,2.51c.34,1,.94,1.42,1.88.78s1.52-1,1.52-1l.09-.33s-1.54,1-2,1.29-.88-.05-1.18-.69a9.84,9.84,0,0,1-.32-3Z"/><path class="cls-5" d="M108.71,175.38a5,5,0,0,0,1,2.1c.8.87,1.23,1.14,1.68.74a9.63,9.63,0,0,0,.87-.9l0-.26-1,1c-.3.3-1-.18-1.35-.61a9,9,0,0,1-1.29-2.46Z"/><path class="cls-6" d="M123.86,165.7,122,165h0l-3.25-1.85.72.43a4.28,4.28,0,0,0-3.93.49c-3.15,1.82-5.56,6.32-6.14,10.63l5.27,3.08c.56-4.33,3-8.88,6.15-10.71a4.23,4.23,0,0,1,4.06-.43v-.39Z"/><path class="cls-9" d="M120.8,166.71a4.23,4.23,0,0,1,4.06-.44l-5.48-3.1a4.31,4.31,0,0,0-3.93.49c-3.15,1.82-5.78,6.34-6.36,10.65l5.35,3.12C115,173.1,117.63,168.54,120.8,166.71Z"/><polygon class="cls-9" points="135.47 148.44 121.7 140.48 121.7 163.65 135.47 171.61 135.47 148.44"/><polygon class="cls-6" points="107.21 148.65 103.57 169.57 104.9 170.05 108.76 147.75 107.21 148.65"/><polygon class="cls-6" points="121.07 142.19 122.48 141.37 122.48 166.04 121.07 166.86 121.07 142.19"/><path class="cls-17" d="M136.37,171.79l-13.92-7.94a27.68,27.68,0,0,0-9.19,6,25.73,25.73,0,0,0-1.79,2.06l-7.22,4.23,4.73,6.14-.86.49v3.63s11.93-6.8,11.94-7a8,8,0,0,1,.08-.84l4.53,3.92Z"/><path class="cls-9" d="M125.39,179.92l-13.92-8s-2.69,1.27-6.74,3.61a30.49,30.49,0,0,0-7,5.83l4.74,14.06,13.51-4.29Z"/><polygon class="cls-5" points="112.02 171.16 110.72 166.13 111.17 166.01 112.26 170.28 114.64 167.89 114.96 168.21 112.02 171.16"/><rect class="cls-5" x="114.57" y="169.81" width="0.46" height="4.31" transform="translate(-90.44 197.05) rotate(-63.24)"/><path class="cls-5" d="M115.87,173.46a3.34,3.34,0,0,1-1.22-.27,8.33,8.33,0,0,1-2.73-2,8.2,8.2,0,0,1-1.81-2.85,2.06,2.06,0,0,1,.22-2.21c.94-.89,3.12-.06,5,1.89a8.16,8.16,0,0,1,1.8,2.85,2,2,0,0,1-.21,2.21h0A1.44,1.44,0,0,1,115.87,173.46Zm-4.53-7.22a1,1,0,0,0-.7.24c-.33.31-.37.94-.1,1.74a8.65,8.65,0,0,0,4.28,4.55c.78.31,1.41.31,1.74,0h0c.34-.31.37-.94.1-1.74a7.83,7.83,0,0,0-1.71-2.68A6,6,0,0,0,111.34,166.24Z"/><path class="cls-5" d="M114.09,172c-.42.4-1.45,0-2.31-.94s-1.22-2-.8-2.37,1.45,0,2.31.94S114.51,171.61,114.09,172Z"/><path class="cls-12" d="M112.85,171.47c-.19.18-.67,0-1.06-.43s-.55-.89-.36-1.07.66,0,1,.43S113,171.29,112.85,171.47Z"/><path class="cls-5" d="M112.09,170.76c-.16-.17-.36-.25-.43-.18l-1.84,2,.71.42,1.71-1.75C112.32,171.14,112.26,170.93,112.09,170.76Z"/><path class="cls-17" d="M118.63,176.55l-13.76-8a53.59,53.59,0,0,0-4.7,2.58,30.77,30.77,0,0,0-7,5.83l4.59,14,13.51-4.29Z"/><path class="cls-6" d="M118.63,176.55c-1.16.61-2.77,1.47-4.7,2.58a30.85,30.85,0,0,0-7,5.83v11.46l11.73-6.55Z"/><polygon class="cls-9" points="106.9 184.96 93.13 177 93.13 188.46 106.9 196.42 106.9 184.96"/><polygon class="cls-9" points="109.94 183.59 117.58 179.11 117.58 186.04 109.94 190.53 109.94 183.59"/><polygon class="cls-33" points="114.24 182.09 110.73 184.15 110.73 188.61 114.24 186.55 114.24 182.09"/><polygon class="cls-29" points="106.23 191.4 93.8 184.1 93.8 188.02 106.23 195.32 106.23 191.4"/><polygon class="cls-12" points="106.23 191.4 93.8 184.1 93.8 184.8 106.23 192.1 106.23 191.4"/><polygon class="cls-12" points="106.23 193.09 93.8 185.8 93.8 186.49 106.23 193.78 106.23 193.09"/><polygon class="cls-12" points="106.23 194.62 93.8 187.33 93.8 188.02 106.23 195.32 106.23 194.62"/><path class="cls-33" d="M100.23,183a1.77,1.77,0,0,0,.74,1.41c.4.23.73,0,.73-.56a1.77,1.77,0,0,0-.74-1.41C100.56,182.24,100.23,182.49,100.23,183Z"/><path class="cls-38" d="M112.63,177l2.58-1.47c-.51-.3-1-.62-1.52-.9-1-.54-2-1.08-3-1.7-1.89-1.19-3.77-2.32-5.71-3.42-.66.37-1.53.86-2.68,1.53a30.67,30.67,0,0,0-7,5.82L113,187.14h0l-7.41-4.29A30.41,30.41,0,0,1,112.63,177Z"/><path class="cls-5" d="M129,168.68c-.21-.31-1.1,0-1.75.26a3.81,3.81,0,0,1-.75-.33c-.61-.34-1.81-1.38-2.42-1.84a2.7,2.7,0,0,0-3,.12l-2.1,1.22c-.54-.18-1-.28-1.13,0a5.34,5.34,0,0,0-.2,1.26h0a1.44,1.44,0,0,0,.32.91,8.76,8.76,0,0,0,2.21,1.73,11.74,11.74,0,0,0,2.45,1,4.43,4.43,0,0,0,3-.12l2.89-1.67a1.19,1.19,0,0,0,.69-1h0A2.27,2.27,0,0,0,129,168.68Z"/><path class="cls-29" d="M122.67,171.61a12.13,12.13,0,0,1-2.37-.93,10.57,10.57,0,0,1-2.14-1.67,1.06,1.06,0,0,1,.21-1.66l2.79-1.61a2.61,2.61,0,0,1,2.87-.12c.59.45,1.75,1.45,2.33,1.79s1.64.58,2.17.81c.7.3.64,1.17-.2,1.66l-2.8,1.61A4.23,4.23,0,0,1,122.67,171.61Z"/><path class="cls-5" d="M128.32,157.91l-1.32-.76a1.59,1.59,0,0,0-1.67-.11h0l-1.07.64.4.26a3.41,3.41,0,0,0-.17,1.11v5.27l5.16,3,.14,1.3.43-.25a1.27,1.27,0,0,0,.61-1.09v-4.55A6,6,0,0,0,128.32,157.91Z"/><path class="cls-29" d="M129.79,168.6v-5.26a6.06,6.06,0,0,0-2.52-4.81l-1.31-.76c-1.39-.8-2.52.06-2.52,1.9v5.27Z"/><g class="cls-39"><polygon class="cls-29" points="118.63 182.37 118.63 183.92 125.38 179.87 134.96 172.42 134.96 154.09 118.63 182.37"/><polygon class="cls-29" points="128.82 152.94 120.2 167.88 119.39 173.09 132.09 151.09 128.82 152.94"/><polygon class="cls-29" points="134.96 149.47 132.09 151.09 119.39 173.09 118.63 178.03 118.63 182.37 134.96 154.09 134.96 149.47"/><polygon class="cls-40" points="134.96 149.47 132.09 151.09 119.39 173.09 118.63 178.03 118.63 182.37 134.96 154.09 134.96 149.47"/><polygon class="cls-29" points="121.9 156.85 120.2 167.88 128.82 152.94 121.9 156.85"/><polygon class="cls-40" points="121.9 156.85 120.2 167.88 128.82 152.94 121.9 156.85"/></g><path class="cls-6" d="M134.07,174.34a5.44,5.44,0,0,1,2.3-.75v-7.32a27.71,27.71,0,0,0-9.2,6,25.73,25.73,0,0,0-1.79,2.06l-7.22,4.23v9l-.85,2.91,10.51-6C128.49,180.37,131,176.1,134.07,174.34Z"/><path class="cls-5" d="M127.82,184.53,106.9,196.42V198l20.77-12a2.43,2.43,0,0,0,0-.27C127.7,185.34,127.75,184.93,127.82,184.53Z"/><path class="cls-11" d="M131.42,182.57l0,.31Z"/><polygon class="cls-6" points="134.96 148.54 136.37 147.72 136.37 172.42 134.96 173.24 134.96 148.54"/><polygon class="cls-17" points="136.37 147.72 120.95 156.62 107.21 148.65 122.6 139.79 136.37 147.72"/><polygon class="cls-6" points="120.95 156.62 117.31 177.54 118.63 178.03 122.5 155.73 120.95 156.62"/><polygon class="cls-6" points="120.8 157.79 136.34 149.01 136.37 147.72 120.95 156.62 120.8 157.79"/><polygon class="cls-9" points="120.13 157.08 116.84 176.04 104.26 168.76 104.5 167.35 105.92 159.2 106.31 156.95 106.72 154.59 106.97 153.13 107.17 151.95 107.55 149.79 107.06 149.51 103.63 169.22 117.36 177.22 120.8 157.47 120.13 157.08"/><g class="cls-39"><polygon class="cls-29" points="107.59 149.55 107.17 151.95 109.2 150.48 107.59 149.55"/><polygon class="cls-29" points="110 150.94 106.97 153.13 106.72 154.59 110.97 151.5 110 150.94"/><polygon class="cls-29" points="112.56 152.42 106.31 156.95 105.92 159.2 114.07 153.29 112.56 152.42"/><polygon class="cls-29" points="104.5 167.35 104.26 168.76 116.84 176.04 120.17 156.8 119.56 156.44 104.5 167.35"/><polygon class="cls-12" points="110.97 151.5 106.72 154.59 106.31 156.95 112.56 152.42 110.97 151.5"/><polygon class="cls-12" points="109.2 150.48 107.17 151.95 106.97 153.13 110 150.94 109.2 150.48"/><polygon class="cls-12" points="114.07 153.29 105.92 159.2 104.5 167.35 119.56 156.44 114.07 153.29"/></g><polygon class="cls-9" points="107.21 148.65 107.06 149.51 120.8 157.47 120.95 156.62 107.21 148.65"/><path class="cls-38" d="M123.26,140.83s-3.14,1.38-6.82,3.41q-.31.16-.63.36h0a46.4,46.4,0,0,0-6.18,4.42l1.07.55,5.81-4.1,7.75-4.09Z"/><path class="cls-6" d="M124.25,141.38s-3.86,2.29-6.47,3.7-7.09,4.49-7.09,4.49a44.5,44.5,0,0,1,6.82-4.79C121.19,142.75,124.25,141.38,124.25,141.38Z"/><path class="cls-38" d="M132.52,146.24s-3.15,1.37-6.82,3.4l-.63.36h0a44.9,44.9,0,0,0-6.17,4.42L120,155l5.81-4.09,7.74-4.1Z"/><path class="cls-6" d="M133.5,146.78s-3.85,2.29-6.46,3.71S120,155,120,155a44.24,44.24,0,0,1,6.82-4.78C130.44,148.15,133.5,146.78,133.5,146.78Z"/><polygon class="cls-29" points="91.37 189.55 106.84 198.47 106.84 197.07 91.37 188.15 91.37 189.55"/><polygon class="cls-5" points="107.67 196.64 106.84 197.07 106.84 198.47 107.67 198.03 107.67 196.64"/><polygon class="cls-41" points="92.19 187.72 91.37 188.15 106.84 197.07 107.67 196.64 92.19 187.72"/><path class="cls-33" d="M92.76,189.57a.86.86,0,0,0,.36.68c.19.11.35,0,.35-.27a.84.84,0,0,0-.36-.68C92.92,189.19,92.76,189.31,92.76,189.57Z"/><path class="cls-33" d="M91.71,188.94a.86.86,0,0,0,.35.68c.2.11.36,0,.36-.27a.86.86,0,0,0-.36-.68C91.87,188.56,91.71,188.68,91.71,188.94Z"/><path class="cls-33" d="M104.86,196.66a.85.85,0,0,0,.35.68c.2.11.36,0,.36-.27a.83.83,0,0,0-.36-.67C105,196.28,104.86,196.4,104.86,196.66Z"/><path class="cls-33" d="M105.91,197.29a.84.84,0,0,0,.36.68c.19.11.35,0,.35-.27a.88.88,0,0,0-.35-.68C106.07,196.91,105.91,197,105.91,197.29Z"/><path class="cls-29" d="M116.85,200.29l1.16-2.71a9.78,9.78,0,0,0,2.57-6l.92-2.13-2.25-1.33h0a2.45,2.45,0,0,0-2.49.21c-2.12,1.22-3.84,4.5-3.84,7.33,0,1.59.54,2.7,1.39,3.14h0Z"/><path class="cls-5" d="M123.09,192.7c0,2.82-1.72,6.11-3.84,7.33s-3.84-.07-3.84-2.9,1.72-6.11,3.84-7.33S123.09,189.87,123.09,192.7Z"/><path class="cls-12" d="M123.09,193c0,2.61-1.59,5.64-3.54,6.77s-3.55-.07-3.55-2.68,1.59-5.64,3.55-6.77S123.09,190.39,123.09,193Z"/><path class="cls-33" d="M122.5,193.5a6.62,6.62,0,0,1-2.76,5.27c-1.53.88-2.76-.05-2.76-2.08a6.61,6.61,0,0,1,2.76-5.28C121.26,190.53,122.5,191.47,122.5,193.5Z"/><path class="cls-11" d="M122.35,193.66a5.93,5.93,0,0,1-2.47,4.74c-1.37.79-2.48-.05-2.48-1.88a5.93,5.93,0,0,1,2.48-4.73C121.25,191,122.35,191.84,122.35,193.66Z"/><path class="cls-29" d="M120.51,193.94a3.38,3.38,0,0,1-1.4,2.69c-.78.45-1.41,0-1.41-1.06a3.38,3.38,0,0,1,1.41-2.7C119.88,192.42,120.51,192.9,120.51,193.94Z"/><path class="cls-12" d="M120.28,194.07a2.85,2.85,0,0,1-1.17,2.25c-.65.37-1.18,0-1.18-.89a2.79,2.79,0,0,1,1.18-2.24C119.75,192.81,120.28,193.21,120.28,194.07Z"/><path class="cls-5" d="M118,187.92a4,4,0,0,0,0,.71c0,.24.71.4,1.38.46a5.25,5.25,0,0,1,1.22.24l.51,0a2.92,2.92,0,0,0-1.38-.39c-.49-.07-1.43-.18-1.53-.4a1.77,1.77,0,0,1,0-.67Z"/><path class="cls-5" d="M117,188.26a9,9,0,0,0-.24,1.07c0,.38.52.43,1.23.42l1.47,0-.23.12s-1.16.09-1.86.06a1,1,0,0,1-.68-.24c-.15-.14-.1-.37,0-.63a3.74,3.74,0,0,1,.17-.66Z"/><path class="cls-5" d="M115.53,189.33l-.12.13a4.78,4.78,0,0,0-.2,1.27c0,.69.07.94.54.93a13.31,13.31,0,0,0,1.79-.35l.15-.17a16.18,16.18,0,0,1-1.76.34c-.48,0-.54-.1-.59-.58A8.39,8.39,0,0,1,115.53,189.33Z"/><path class="cls-5" d="M114.1,191.31a5.15,5.15,0,0,0,0,1.56c.11.77.55.77,1.11.6s1.24-.44,1.24-.44l.09-.18s-1.16.44-1.44.52a.59.59,0,0,1-.85-.45,6.94,6.94,0,0,1,0-1.84Z"/><path class="cls-5" d="M113.21,193.56a5.43,5.43,0,0,0,.1,1.74c.24.69.65,1,1.3.54s1.06-.69,1.06-.69l.06-.24s-1.07.74-1.4.9-.61,0-.81-.48a6.68,6.68,0,0,1-.23-2.06Z"/><path class="cls-5" d="M113,196.36a3.42,3.42,0,0,0,.72,1.45c.56.6.86.79,1.17.51a6,6,0,0,0,.6-.62l0-.18-.66.69c-.2.21-.69-.12-.93-.42a6.16,6.16,0,0,1-.9-1.7Z"/><path class="cls-6" d="M138.85,174.49,137,173.8h0L133.73,172l.72.44a4.28,4.28,0,0,0-3.93.49c-3.16,1.82-5.56,6.32-6.14,10.63l5.27,3.08c.56-4.34,3-8.88,6.15-10.71a4.23,4.23,0,0,1,4.06-.43v-.39Z"/><path class="cls-9" d="M135.8,175.5a4.23,4.23,0,0,1,4.06-.43l-5.49-3.1a4.28,4.28,0,0,0-3.93.49c-3.15,1.82-5.77,6.34-6.35,10.65l5.34,3.12C130,181.89,132.63,177.33,135.8,175.5Z"/></g></g></svg>