<svg xmlns="http://www.w3.org/2000/svg" viewBox="0 0 35.26 35.26"><defs><style>.cls-1{fill:#2fc19a;}</style></defs><title>feature-5</title><g id="Layer_2" data-name="Layer 2"><g id="Layer_1-2" data-name="Layer 1"><polygon class="cls-1" points="17.61 21.68 23.02 15.8 12.2 15.8 17.61 21.68"/><polygon class="cls-1" points="23.42 27.99 23.42 16.28 18.03 22.14 23.42 27.99"/><polygon class="cls-1" points="11.81 16.28 11.81 27.99 17.19 22.14 11.81 16.28"/><polygon class="cls-1" points="23.02 28.48 17.61 22.59 12.2 28.48 23.02 28.48"/><path class="cls-1" d="M26.24,7.62,17.61,5.08,9,7.62,6,15.18H7.31v13.6h3.88V15.18H24v13.6H28V15.18h1.31ZM20,11.75H15.14V9.82H20Zm7.34,1.1c-.24-.49-.46-1-.68-1.49-.45-1-.87-1.93-1.28-2.9-1.28-.41-2.55-.83-3.82-1.27L19.57,6.5l-1-.36-1-.37,1,.26,1,.27,2,.57c1.31.39,2.62.8,3.92,1.23l.09,0,0,.09c.42,1,.83,2,1.21,3,.2.51.4,1,.59,1.53s.37,1,.54,1.54C27.75,13.84,27.53,13.34,27.29,12.85Z"/><path class="cls-1" d="M25.52,35.26H9.74A9.75,9.75,0,0,1,0,25.52V9.74A9.75,9.75,0,0,1,9.74,0H25.52a9.75,9.75,0,0,1,9.74,9.74V25.52A9.75,9.75,0,0,1,25.52,35.26ZM9.74,1.87A7.88,7.88,0,0,0,1.87,9.74V25.52a7.88,7.88,0,0,0,7.87,7.87H25.52a7.88,7.88,0,0,0,7.87-7.87V9.74a7.88,7.88,0,0,0-7.87-7.87Z"/></g></g></svg>