<svg xmlns="http://www.w3.org/2000/svg" viewBox="0 0 35.26 35.26"><defs><style>.cls-1{fill:#2fc19a;}</style></defs><title>feature-6</title><g id="Layer_2" data-name="Layer 2"><g id="Layer_1-2" data-name="Layer 1"><path class="cls-1" d="M24.62,18.77a6.82,6.82,0,1,0-10.83,5.51l.15.11-.07.16a4.62,4.62,0,0,0-.37,1.39c-.22,2.33-.35,3.6,3.14,4.67H19c3.49-1.07,3.37-2.34,3.15-4.65a4.61,4.61,0,0,0-.38-1.41l-.07-.17.15-.11A6.83,6.83,0,0,0,24.62,18.77Zm-11,2.5c-.46-.19-.72-1.13-.28-1.44a.78.78,0,0,1,1.19.61C14.54,20.94,14.17,21.52,13.59,21.27Zm1,7.32a.48.48,0,0,1,.2-.83c.28-.05.71.16.71.48S14.9,28.79,14.62,28.59Zm6.37,0c-.28.2-.92,0-.92-.35s.43-.53.71-.48A.48.48,0,0,1,21,28.59Zm-.87-7.16a3.85,3.85,0,0,0-1.42-.73c-.58-.11-1.2,0-1.78-.12-1.52-.4-.67-1.84.36-2.32.74-.35,3.17.75,3.51-.29.17-.51-.57-.91-.26-1.53s1.17-.34,1.7-.12a4.57,4.57,0,0,1,2.19,2.17c0,.1,0,.19,0,.28a7,7,0,0,1-1.67,4.53,1.77,1.77,0,0,1-.65-.05C21.18,23,20.86,22,20.12,21.43Z"/><path class="cls-1" d="M22.29,19.83a.77.77,0,0,0-1.18.61c-.05.5.32,1.08.91.83S22.74,20.14,22.29,19.83Z"/><path class="cls-1" d="M10.55,4.42s-.64,7.31,6.4,7.31a6.19,6.19,0,0,0-4.18,2.11S7.67,11.84,10.55,4.42Z"/><path class="cls-1" d="M25,4.42s.63,7.31-6.4,7.31a6.19,6.19,0,0,1,4.18,2.11S27.86,11.84,25,4.42Z"/><path class="cls-1" d="M14.45,23.31a3.12,3.12,0,0,1,.93-.61,3,3,0,0,1,.51-.21c.18,0,.38-.12.59-.16a4.48,4.48,0,0,1,.64-.09c.23,0,.45,0,.68,0l.67.05c.22,0,.44.08.64.12s.4.12.58.17a4,4,0,0,1,.5.21,4,4,0,0,1,.71.38l.25.17-.3,0-.77-.14-.51-.08L19,23l-.61,0-.62,0c-.2,0-.41,0-.61,0s-.41,0-.6,0a8,8,0,0,0-1.07.14A10.12,10.12,0,0,0,14.45,23.31Z"/><path class="cls-1" d="M10.21,14.69c-.84-.22-1.81-.89-2.69-.7a2.84,2.84,0,0,0-1.29.66,3.64,3.64,0,0,0-.36.41A3.29,3.29,0,0,1,5,16a6.09,6.09,0,0,0,2,1.76,2.61,2.61,0,0,0,2.51-.15,5,5,0,0,0,1.69-1.31c.08-.11.34-.61.57-1a3.39,3.39,0,0,1-1,.07c-.16,0-.32,0-.5-.07a3.63,3.63,0,0,1-.54-.15L9.06,15a3.78,3.78,0,0,0-.57-.1,2.91,2.91,0,0,0-.59,0,4.48,4.48,0,0,0-.55.1c-.18.06-.35.11-.51.18l-.42.22a4.79,4.79,0,0,0-.6.43L5.61,16l.18-.22a3.33,3.33,0,0,1,.56-.49,3.31,3.31,0,0,1,.94-.49,3.87,3.87,0,0,1,.59-.13,4.42,4.42,0,0,1,.63,0,3.14,3.14,0,0,1,.61.12l.56.21a4.2,4.2,0,0,0,.51.16c.16.06.33.07.47.11a6.23,6.23,0,0,0,.73.07h.28c.15-.26.29-.48.35-.47A10,10,0,0,1,10.21,14.69Z"/><path class="cls-1" d="M29.69,15.06a2.86,2.86,0,0,0-.36-.41A2.79,2.79,0,0,0,28,14c-.87-.19-1.85.48-2.68.7a10.1,10.1,0,0,1-1.82.17c.15,0,.78,1.29.92,1.47a5.07,5.07,0,0,0,1.7,1.31,2.61,2.61,0,0,0,2.51.15A6.06,6.06,0,0,0,30.61,16,3.29,3.29,0,0,1,29.69,15.06Zm.21.76a4.79,4.79,0,0,0-.6-.43l-.42-.22c-.16-.07-.33-.12-.51-.18a4.48,4.48,0,0,0-.55-.1,2.91,2.91,0,0,0-.59,0,3.78,3.78,0,0,0-.57.1l-.55.18a3.63,3.63,0,0,1-.54.15c-.18,0-.34,0-.5.07a3.39,3.39,0,0,1-1-.07h.28a6.23,6.23,0,0,0,.73-.07c.14,0,.31,0,.47-.11A4.2,4.2,0,0,0,26,15l.56-.21a3.14,3.14,0,0,1,.61-.12,4.42,4.42,0,0,1,.63,0,3.87,3.87,0,0,1,.59.13,3.46,3.46,0,0,1,.94.49,3.33,3.33,0,0,1,.56.49,2.08,2.08,0,0,1,.17.22Z"/><path class="cls-1" d="M17.8,12.35a4.28,4.28,0,0,1,1,.05,6.2,6.2,0,0,1,1,.23c.17.06.36.12.53.2s.36.16.54.26a5.45,5.45,0,0,1,1,.68,3.41,3.41,0,0,1,.38.38,3.25,3.25,0,0,1,.3.37,3.65,3.65,0,0,1,.36.62l.11.24-.19-.19-.2-.23-.28-.27c-.1-.1-.22-.19-.34-.3a3.25,3.25,0,0,0-.4-.31,2.83,2.83,0,0,0-.44-.3,3.82,3.82,0,0,0-.48-.29c-.15-.1-.33-.17-.49-.26L19.62,13l-.9-.35C18.18,12.46,17.8,12.35,17.8,12.35Z"/><path class="cls-1" d="M25.52,35.26H9.74A9.75,9.75,0,0,1,0,25.52V9.74A9.75,9.75,0,0,1,9.74,0H25.52a9.75,9.75,0,0,1,9.74,9.74V25.52A9.75,9.75,0,0,1,25.52,35.26ZM9.74,1.87A7.88,7.88,0,0,0,1.87,9.74V25.52a7.88,7.88,0,0,0,7.87,7.87H25.52a7.88,7.88,0,0,0,7.87-7.87V9.74a7.88,7.88,0,0,0-7.87-7.87Z"/></g></g></svg>