<svg xmlns="http://www.w3.org/2000/svg" viewBox="0 0 35.26 35.26"><defs><style>.cls-1{fill:#2fc19a;}</style></defs><title>feature-8</title><g id="Layer_2" data-name="Layer 2"><g id="Layer_1-2" data-name="Layer 1"><path class="cls-1" d="M17.13,14c-2,0-3.7-2-3.7-4.49a3.34,3.34,0,0,1,3.7-3.57c2.32,0,3.71,1.33,3.71,3.57C20.84,12,19.17,14,17.13,14Zm0-7.61a2.94,2.94,0,0,0-3.24,3.12c0,2.22,1.45,4,3.24,4s3.25-1.81,3.25-4A2.94,2.94,0,0,0,17.13,6.37Z"/><path class="cls-1" d="M13.73,20.06h6.82V14.33a9.84,9.84,0,0,0-3.4-.52h0a9.84,9.84,0,0,0-3.4.52Z"/><path class="cls-1" d="M8.59,29.11h4.22V14.75C9.43,16.63,8.59,21.35,8.59,29.11Z"/><path class="cls-1" d="M21.47,14.75V29.11h4.22C25.69,21.35,24.86,16.63,21.47,14.75Z"/><path class="cls-1" d="M21.72,9.08l-.61-3.32-.09,0a9.42,9.42,0,0,0-3.47-1.14v0H16.8a9.42,9.42,0,0,0-3.47,1.14l-.09,0-.61,3.33c-1.12.19-1.36.4-1.36.66,0,.88,4.56.95,6,.95s6-.07,6-.95C23.19,9.48,22.94,9.26,21.72,9.08ZM19.66,5.92l-.38-.2-.4-.17-.4-.15c-.13-.05-.27-.08-.41-.12l-.2-.06-.22,0-.43-.08h.44a1.64,1.64,0,0,1,.44,0l.44.06.44.12a3.52,3.52,0,0,1,.42.15l.41.18a7,7,0,0,1,.78.47l.05,0V6.2a29.91,29.91,0,0,1,.29,3.16,26.38,26.38,0,0,1-.61-3A5.64,5.64,0,0,0,19.66,5.92Z"/><path class="cls-1" d="M17.17,10.9l0,0c0,.05,0,.11,0,.18a1.41,1.41,0,0,1-.08.57A1.17,1.17,0,0,1,17,12a1.19,1.19,0,0,1-.26.33,1.6,1.6,0,0,1-.35.28,3.11,3.11,0,0,1-.41.2,3.34,3.34,0,0,1-.43.1,2.08,2.08,0,0,1-.43,0,2.32,2.32,0,0,1-.38-.07,2.53,2.53,0,0,1-.33-.12,1.74,1.74,0,0,1-.45-.31,1.52,1.52,0,0,1-.15-.17V12.2h.59c.18,0,.38,0,.6-.05s.22-.05.33-.07a3.18,3.18,0,0,0,.33-.1,3.23,3.23,0,0,0,.62-.29,2.66,2.66,0,0,0,.46-.38,1.87,1.87,0,0,0,.35-.46Z"/><path class="cls-1" d="M17.19,10.9l0,0a.84.84,0,0,0,0,.18,1.38,1.38,0,0,0,.07.57,1.2,1.2,0,0,0,.17.34,1.19,1.19,0,0,0,.26.33,1.6,1.6,0,0,0,.35.28,2.6,2.6,0,0,0,.41.2,3,3,0,0,0,.43.1,2,2,0,0,0,.42,0,2.14,2.14,0,0,0,.38-.07,2.53,2.53,0,0,0,.33-.12,1.74,1.74,0,0,0,.45-.31l.16-.17V12.2H20c-.17,0-.38,0-.6-.05s-.21-.05-.33-.07-.22-.07-.33-.1a3.92,3.92,0,0,1-.62-.29,3.72,3.72,0,0,1-.46-.38,2.26,2.26,0,0,1-.35-.46Z"/><path class="cls-1" d="M25.52,35.26H9.74A9.75,9.75,0,0,1,0,25.52V9.74A9.75,9.75,0,0,1,9.74,0H25.52a9.75,9.75,0,0,1,9.74,9.74V25.52A9.75,9.75,0,0,1,25.52,35.26ZM9.74,1.87A7.88,7.88,0,0,0,1.87,9.74V25.52a7.88,7.88,0,0,0,7.87,7.87H25.52a7.88,7.88,0,0,0,7.87-7.87V9.74a7.88,7.88,0,0,0-7.87-7.87Z"/></g></g></svg>