<svg xmlns="http://www.w3.org/2000/svg" xmlns:xlink="http://www.w3.org/1999/xlink" viewBox="0 0 317.16 157.58"><defs><style>.cls-1{fill:url(#linear-gradient);}.cls-2{opacity:0.25;fill:url(#linear-gradient-2);}.cls-11,.cls-12,.cls-13,.cls-2{isolation:isolate;}.cls-3{fill:url(#linear-gradient-3);}.cls-4{fill:url(#linear-gradient-4);}.cls-5{fill:#8ea8ce;}.cls-6{fill:url(#linear-gradient-5);}.cls-7{fill:#a0b0d3;}.cls-8{fill:#dde8f7;}.cls-9{fill:url(#linear-gradient-6);}.cls-10{fill:url(#linear-gradient-7);}.cls-11,.cls-12{opacity:0.5;}.cls-11{fill:url(#linear-gradient-8);}.cls-12{fill:url(#linear-gradient-9);}.cls-13{opacity:0.35;fill:url(#linear-gradient-10);}.cls-14{fill:#fff;}.cls-15{fill:url(#radial-gradient);}.cls-16{fill:url(#radial-gradient-8);}</style><linearGradient id="linear-gradient" x1="1294.82" y1="215.99" x2="1452.4" y2="215.99" gradientTransform="matrix(0, 1, 1, 0, -57.4, -1294.82)" gradientUnits="userSpaceOnUse"><stop offset="0.01" stop-color="#dce7f6"/><stop offset="0.99" stop-color="#b6c6e2"/></linearGradient><linearGradient id="linear-gradient-2" x1="1294.82" y1="215.98" x2="1432.79" y2="215.98" gradientTransform="matrix(0, 1, 1, 0, -57.4, -1294.82)" gradientUnits="userSpaceOnUse"><stop offset="0.02" stop-color="#fff"/><stop offset="0.8" stop-color="#c4d0e8"/><stop offset="0.99" stop-color="#b6c6e2"/></linearGradient><linearGradient id="linear-gradient-3" x1="1294.83" y1="215.59" x2="1452.4" y2="215.59" gradientTransform="matrix(0, 1, 1, 0, -57.4, -1294.82)" gradientUnits="userSpaceOnUse"><stop offset="0" stop-color="#cbd8ed"/><stop offset="1" stop-color="#a0b0d3"/></linearGradient><linearGradient id="linear-gradient-4" x1="1380.22" y1="318.67" x2="1441.15" y2="318.67" gradientTransform="matrix(0, 1, 1, 0, -57.4, -1294.82)" gradientUnits="userSpaceOnUse"><stop offset="0.01" stop-color="#8ea8ce"/><stop offset="0.29" stop-color="#8aa3ca"/><stop offset="0.66" stop-color="#7e96bf"/><stop offset="0.99" stop-color="#6f87b3"/></linearGradient><linearGradient id="linear-gradient-5" x1="1316.21" y1="121.93" x2="1316.21" y2="259.61" gradientTransform="matrix(0, 1, 1, 0, -57.4, -1294.82)" gradientUnits="userSpaceOnUse"><stop offset="0.01" stop-color="#bdcae4"/><stop offset="0.32" stop-color="#b2c1de"/><stop offset="0.88" stop-color="#95add1"/><stop offset="1" stop-color="#8ea8ce"/></linearGradient><linearGradient id="linear-gradient-6" x1="1405.83" y1="251.35" x2="1422.71" y2="251.35" gradientTransform="matrix(0, 1, 1, 0, -57.4, -1294.82)" gradientUnits="userSpaceOnUse"><stop offset="0.01" stop-color="#6f87b3"/><stop offset="0.34" stop-color="#7e96bf"/><stop offset="0.71" stop-color="#8aa3ca"/><stop offset="0.99" stop-color="#8ea8ce"/></linearGradient><linearGradient id="linear-gradient-7" x1="1391.82" y1="226.36" x2="1399.44" y2="226.36" xlink:href="#linear-gradient-6"/><linearGradient id="linear-gradient-8" x1="1346.08" y1="182.31" x2="1365.56" y2="182.31" xlink:href="#linear-gradient-6"/><linearGradient id="linear-gradient-9" x1="1374.03" y1="160.91" x2="1385.89" y2="160.91" xlink:href="#linear-gradient-6"/><linearGradient id="linear-gradient-10" x1="1341.41" y1="260.88" x2="1353.27" y2="260.88" xlink:href="#linear-gradient-6"/><radialGradient id="radial-gradient" cx="65.93" cy="145" r="54.96" gradientTransform="matrix(1, 0, 0, -1, 0, 178.68)" gradientUnits="userSpaceOnUse"><stop offset="0.02" stop-color="#e6a32f"/><stop offset="0.14" stop-color="#e5a02e"/><stop offset="0.25" stop-color="#e1982d"/><stop offset="0.36" stop-color="#dd8a2b"/><stop offset="0.46" stop-color="#d77829"/><stop offset="0.52" stop-color="#d36c28"/><stop offset="0.71" stop-color="#ce6a28"/><stop offset="0.88" stop-color="#bf6528"/><stop offset="1" stop-color="#b06027"/></radialGradient><radialGradient id="radial-gradient-8" cx="27.33" cy="152.4" r="368.48" xlink:href="#radial-gradient"/></defs><title>Asset 2</title><g id="Layer_2" data-name="Layer 2"><g id="Layer_1-2" data-name="Layer 1"><path class="cls-1" d="M53.65,157.58c-12.59-9.27-50.32-30.45-50.32-30.45,3.19-14,1.32-41.63-.66-61.4C1.37,52.67,0,43,0,43,21.86,29.79,65.56,6,65.56,6c58.27,8,129.11-6,129.11-6L315.16,61.57l1.22,15.11.71,8.73.07.66-4,15.89c-14.27,1.85-62.08,23.18-89.94,36-8.05,3.73-14.44,6.73-17.86,8.35l-2.76,1.32-.76-.07c-58.44-5.13-90,7.35-90,7.35C91.38,153.61,53.65,157.58,53.65,157.58Z"/><path class="cls-2" d="M2.66,65.72C1.36,52.66,0,43,0,43,21.86,29.79,65.56,6,65.56,6c58.27,8,129.11-6,129.11-6L315.16,61.57l1.22,15.11.71,8.73.07.66-4,15.89c-14.27,1.85-62.08,23.18-89.94,36C200.91,62,64.81,60.52,2.66,65.72Z"/><path class="cls-3" d="M53.65,157.58c-11.5-8.47-44-26.91-49.53-30l-.8-.44C8,106.46,1.71,55.81.27,45.07.1,43.75,0,43,0,43,19.88,31,57.81,10.2,64.52,6.53l1-.56c58.27,8,129.11-6,129.11-6l.63.32L315.16,61.57l1.22,15.11c-2.2-4-9.44-15.06-22.4-17.76-15.89-3.32-56.27-4-71.5-11.93s-21.86-19.2-21.86-19.2a1.73,1.73,0,0,1-.17.19c-1.86,2-19.16,19.15-54.12,10.4-35.24-8.81-49.56-14.62-50.88-15.16-.1,0-10,37.5-73.77,37h-.47S36.58,82.79,34,103.33c-1.08,8.71-5.39,17-15.37,23.08C18.56,126.45,74.83,129.11,53.65,157.58Z"/><path class="cls-4" d="M205.38,146.33C225,97.88,266.66,95.77,286,95.77c13.89,0,25.4-6.48,31.07-10.37l.05.66-4,15.89C294.8,104.33,220.66,139.09,205.38,146.33Z"/><path class="cls-5" d="M4.12,127.57l-.8-.44C8,106.46,1.71,55.81.27,45.07l21.4,15.18.64.46S37.92,88.58,34,103.34a3,3,0,0,1-.07.31,31.51,31.51,0,0,1-15.3,22.77S4.12,127.57,4.12,127.57Z"/><path class="cls-6" d="M95.45,23.23,64.53,6.52l1-.56c58.27,8,129.11-6,129.11-6l.63.32,6.91,29.75C166.31,61.56,98.36,24.87,95.45,23.23Z"/><path class="cls-7" d="M111.9,154.93c24.91-23,93.48-8.61,93.48-8.61l-3.52,1.25C143.42,142.45,111.9,154.93,111.9,154.93Z"/><path class="cls-8" d="M256.86,54.43s-34.31.85-54.64-24.36c0,0-26.51,32.9-106.76-6.85,0,0,73.09,44.12,106.34,10C201.79,33.25,215.77,56.76,256.86,54.43Z"/><path class="cls-8" d="M95.45,23.23s-4,34.65-73.13,37.48C22.32,60.71,85.69,71,95.45,23.23Z"/><ellipse class="cls-9" cx="193.95" cy="119.45" rx="7.84" ry="8.44"/><ellipse class="cls-10" cx="168.96" cy="100.81" rx="3.54" ry="3.81"/><ellipse class="cls-11" cx="124.91" cy="61" rx="9.05" ry="9.74"/><ellipse class="cls-12" cx="103.51" cy="85.14" rx="5.51" ry="5.93"/><ellipse class="cls-13" cx="203.48" cy="52.52" rx="5.51" ry="5.93"/><path class="cls-14" d="M79.54,55.79l-8.46-.11,8.46,1L79.48,59l-18.33-1-.34,9.59a28.9,28.9,0,0,0,3.35-.11c1.48-.11,3-.26,4.54-.45l5.73-.62-.06,2.21-1.31.23-1.31.23,2.61.68v1.65L63,71.42v.17l11.35.68-.06,4-9.08-.45L66,93.39l-2.38.17-.28-5.85-1,5.9-3.52.17-1-2.5a2.16,2.16,0,0,1,0,1.19,3.53,3.53,0,0,0-.06,1.36h-1L55.64,80,56,93.89,53.54,94l1.25-31.79L50.36,63l-.17-4.54,6.47-1-6.47.17-.06-1.31,8.57-1.25c-1.44.08-2.87.12-4.29.14l-4.29.08L50,51.59l29.69-.85Z"/><path class="cls-14" d="M108.15,89.9,102.5,90c-1.87,0-3.76.11-5.65.23L108,91l-.17,1.13-7.72.34,7.61.57-.11,1-27.19-.45-.06-4,1.22-.43c.4-.13.78-.27,1.16-.43l-2.44-.45V86.83l9.08-.51-9.08-.45-.06-3,2.89.28L83,72.13l.14-.06a.42.42,0,0,0,.14-.06l.17-9.59a3.79,3.79,0,0,0-.57,1.48l-.11-7.38c.61-.11,1.2-.22,1.79-.31a16.61,16.61,0,0,0,1.73-.37l-3.58-.28-.06-4.31c.57,0,1.37.07,2.41.08s2.23,0,3.58,0l4.26-.08,4.46-.11q5.22-.16,11.24-.45l-.28,2.1c-2.69.08-5.38.14-8.09.2s-5.42.16-8.15.31q4.08.12,8.09.31c2.67.13,5.34.16,8,.08l-.74,5.11-2.72.45,2.61.51-.17,1.42L88.84,60,89,66.74l11.24-.34-.06,2.84-6.24.4,6.19.51v1.08a2.83,2.83,0,0,1-.91.2c-.34,0-.45.26-.34.71a1.52,1.52,0,0,1,.6-.11,1.73,1.73,0,0,0,.6-.11L100,76H93.79l-.23,10.9,15.27-2.21Z"/><path class="cls-14" d="M133.07,97.34l-1.48-11.18.34,11.35-3.8.57a3.87,3.87,0,0,0-.45-1.14,2.71,2.71,0,0,1-.4-1.08v2.33l-1.48.23-.4-5.51-.57,5.62-2.1.34.91-19.24-2.5.17V74.46l7.78,1-1.31-13.05-1.76.23-.91-4,.06,4.09-4.48.62-1.65,10.9,1.82.17c-.08.91-.13,1.82-.17,2.72s-.08,1.82-.11,2.72h-.51l-1.48-1.14a2.18,2.18,0,0,1-.09.6c-.06.21-.1.43-.14.65l-1.25.11-.74-5,.06,5-1,.06.4,10.9-4.14.11V85.58l-.62,5.62h-1.76L114.29,60l-4.2.17,1.42-4.6,4.94-.62-4.71-.17.57-1.82,10.16.17-9.82-1.25.74-2.5,17.54,1.14L135.7,97Z"/><path class="cls-14" d="M167.69,54.48h-8.17v.23l4.09.48c1.36.17,2.7.31,4,.43l-.17,3-2,.85,1.93.11-.11,1.59-5.9.23q-3,.12-5.85.34l11.69.51-.11,2.44-10.22-.57.4,9.54-.91-.62L158,90.7l.06,2.61-3.46.06L153.51,78.1c-.08,2.54-.1,5.09-.09,7.66s0,5.13,0,7.66h-3.92c-.08-.72-.14-1.44-.2-2.16a10.1,10.1,0,0,0-.37-2c0,.72-.08,1.44-.11,2.16s-.08,1.42-.11,2.1h-2l2-25.77q-.85,6.47-1.59,12.94t-1.53,12.83l-2.78.06,5-36.33-13.4.45V55.5l4.09-.62-4-.23V52.49l26.68-.28-26.68-.62V49.77l33.55.34Z"/><path class="cls-14" d="M197.1,86.5l-.51.51-3.29,2c-1.1.66-2.16,1.33-3.18,2H192a5.64,5.64,0,0,0-.51.34l-.45.34c-1.1.76-2.06,1.41-2.89,2s-1.55,1-2.16,1.39-1.29.76-1.82,1c-.45-.23-1-.49-1.53-.79s-1-.55-1.65-.85a17.48,17.48,0,0,1-1.87-1.08l3.29-1.7c-.76.19-1.51.35-2.27.48s-1.5.29-2.21.48c-.45-.26-.87-.53-1.25-.79-.23-.15-.49-.34-.79-.57,2-.64,4.11-1.31,6.19-2s4.14-1.4,6.19-2.16c-2.2.61-4.41,1.19-6.64,1.76S177.17,90,175,90.64c-.42-.3-.81-.6-1.19-.88s-.76-.58-1.14-.88c-.08-1.63-.1-3.27-.06-4.94s0-3.33-.06-5l-.91,9.14c-.3-.23-.56-.43-.77-.62s-.41-.36-.6-.51a5.83,5.83,0,0,1-.51-.45c0-1.44,0-3.06-.06-4.88,0-1.55-.07-3.36-.09-5.42s-.07-4.32-.14-6.78-.08-4.88,0-7.15.17-4.31.28-6.13q.22-3.12.4-6a1.62,1.62,0,0,0,.4-.06,4.62,4.62,0,0,1,1-.17l-.45,17.09c.26-2.87.54-5.74.82-8.6s.58-5.72.88-8.6a12.94,12.94,0,0,1,1.36-.17l.34,5.45.79-5.56H176a5,5,0,0,0,.74-.06l1.93-.11c.64,0,1.25-.06,1.82-.06l.28,2.38.85-2.38h2a4.54,4.54,0,0,1,.79.06c-.42,1.78-.85,3.65-1.31,5.62-.42,1.7-.84,3.61-1.28,5.73s-.86,4.3-1.28,6.53-.8,4.38-1.14,6.56-.66,4.13-1,5.88q-.51,3.06-1,5.79l13.57-3-.57-22.65L192,60c.15,1.29.26,2.56.34,3.83s.15,2.56.23,3.89l.45-7.61,2.55.23-.17,14.19,1.25-14.08,2,.17ZM177.91,54.43l-2.16,19.24L178.3,60.5Z"/><path class="cls-14" d="M238.82,102a21.37,21.37,0,0,1-.11,2.24c-.08.66-.15,1.26-.23,1.79a11.48,11.48,0,0,1-.4,1.59l-4.31.62-.23-1.08-2.16,1.42-9.76,1.48c-.15-.11-.34-.25-.57-.4s-.43-.32-.71-.51a9.63,9.63,0,0,1-.94-.74l-.51-6.7-.45,5.85-1.14-1.14a3.32,3.32,0,0,0-.34-.4l.68-15.55L216.05,105c-.76-1-1.31-1.8-1.65-2.33l-.51-.85,3.18-19.41a5.83,5.83,0,0,0-.68-.57,6.92,6.92,0,0,0-.8-.57,11.65,11.65,0,0,0-1-.57,9.82,9.82,0,0,0-.94-.4,9,9,0,0,0-.94-.28l.28-7.44,1.53.4c.23-.53.47-1.14.74-1.82s.47-1.36.74-2.27.51-1.95.74-3.12a1.65,1.65,0,0,0,.06-.43,1.77,1.77,0,0,1,.06-.43l1.08,2.55-.4-7.38a17.31,17.31,0,0,0,.17-1.93V57.4l-10,1.36,1.7,12.89,2.72.68c.08,2.57.25,5.13.51,7.66a2,2,0,0,0-.48-.14l-.37-.08a1.51,1.51,0,0,0-.34-.06l.23,13.51h-2.61l-.23-6-.68,6h-10L198.1,91a2.77,2.77,0,0,0,.74-.34l.68-.45L198.1,90V87.66l3.41.23-3.29-1h-.17V85l3.8.74-.62-30.65,8-1.82-4,.34c-1.32.11-2.65.21-4,.28l-.06-2.1,3.29-.4c1-.11,2.21-.22,3.58-.31s2.84-.14,4.43-.14q1.65-.06,3.09,0t2.64.09l2.38,2.89-1.25-2.84c1.14,0,2.06.1,2.78.17q.63.06,1,.06a29.1,29.1,0,0,1,1.48,2.78c.42.91.87,2,1.36,3.29s1,2.78,1.42,4.48.74,3,1,4.2.4,2.31.51,3.18a25.87,25.87,0,0,1,.28,2.78l-3,1.48c-.15-1.7-.36-3.35-.62-4.94s-.55-3.18-.85-4.77l.45,5c.15,1.67.32,3.33.51,5L219,77.11c.26.08.53.17.8.28a6.7,6.7,0,0,1,.79.34l1,.51.79,7.27c0-1.14,0-2.28,0-3.43s0-2.3-.09-3.43l.88.57c.28.19.52.36.71.51a3.83,3.83,0,0,1,.62.51l.4,25.83,6-4.71-1.93-5,1.76.06a14.76,14.76,0,0,0,.68,1.39c.26.47.51.94.74,1.39l-.68-2.78,6.81.23c.08.42.17.89.28,1.42s.14,1,.2,1.68A16.92,16.92,0,0,1,238.82,102ZM205.16,81.22c-.11-2.61-.22-5.24-.31-7.89s-.29-5.24-.6-7.78v12.6Z"/><path class="cls-14" d="M257.6,89.9,252,90c-1.87,0-3.76.11-5.65.23l11.18.74-.17,1.13-7.72.34,7.61.57-.11,1-27.19-.45-.06-4,1.22-.43c.4-.13.78-.27,1.16-.43l-2.44-.45V86.83l9.08-.51-9.08-.45-.06-3,2.89.28-.15-11.06.14-.06a.42.42,0,0,0,.14-.06l.17-9.59a3.79,3.79,0,0,0-.57,1.48l-.11-7.38c.61-.11,1.2-.22,1.79-.31a16.61,16.61,0,0,0,1.73-.37l-3.58-.28-.06-4.31c.57,0,1.37.07,2.41.08s2.23,0,3.58,0l4.26-.08,4.46-.11Q252,51,258.06,50.7l-.28,2.1c-2.69.08-5.38.14-8.09.2s-5.42.16-8.15.31q4.08.12,8.09.31c2.67.13,5.34.16,8,.08l-.74,5.11-2.72.45,2.61.51-.17,1.42L238.31,60l.17,6.75,11.24-.34-.06,2.84-6.24.4,6.19.51v1.08a2.83,2.83,0,0,1-.91.2c-.34,0-.45.26-.34.71A1.52,1.52,0,0,1,249,72a1.73,1.73,0,0,0,.6-.11l-.11,4h-6.19L243,86.86l15.27-2.21Z"/><polygon class="cls-14" points="44.32 74.08 40.8 74.67 40.46 65.52 40.45 65.52 40.43 64.77 39.99 53.03 39.76 47.71 39.9 47.69 39.72 41.88 90.06 40.44 89.62 53.7 89.23 69.55 84.42 69.3 84.38 72.32 84.38 81.5 84.25 81.5 84.17 86.73 75.72 86.31 76.46 102.64 70.99 103.03 70.97 103.19 69.69 103.25 69.79 103.82 60.04 103.82 54.16 104.24 54.15 104 52.3 104.09 52.29 104.06 43.13 104.48 44.32 74.08"/><path class="cls-14" d="M70.59,103.43l-.1-6.77-.16,0V86l-.27-14.09,2.94.29L72.91,66l.49-.25,0-.94-.57,0-.32-24.26,10.81.72q.68,0,1.92.06h3.26l4.15-.08,4.45-.11c3.37-.11,7.1-.26,11-.45l12-.57-.44,3.23h.12L118,56l-.87,6.47L116,71.77l-5.82-.38,0,.81v2.12l10.29-1.49L119.3,81.7l.25,0L117.77,93.6l-.06.54-1.12,10.07Z"/><polygon class="cls-14" points="112.62 101.21 109.58 101.21 101.56 101.43 101.56 101.21 97.4 101.21 102.43 70.53 96.35 70.78 98.34 64.35 98.27 64.35 103.12 48.82 106.04 38.94 140 41.13 146.62 105.66 134.49 107.24 126.38 108.45 121.2 109.25 112.17 110.71 112.62 101.21"/><polygon class="cls-14" points="136.19 67.6 124.32 68.01 124.32 46.92 124.37 46.91 124.37 39.67 178.45 40.22 178.12 46.48 178.17 46.48 177.96 50.19 178.11 50.2 177.46 59.23 177.19 64.48 177.15 64.48 177.12 65.16 176.65 75.24 167.36 74.73 168.13 93.24 168.04 93.18 168.26 103.14 163.25 103.22 163.24 103.42 158.15 103.42 158.15 103.48 147.74 103.48 145.27 103.52 145.27 103.49 131.22 103.78 136.19 67.6"/><path class="cls-14" d="M180,105.17l-.15,1.55L171,100.14l-1.18-.86L159.2,92.39l.91-.47-5.81-4.37,5.44-1.71c0-1.21,0-2.56-.05-4s-.07-3.42-.09-5.54-.07-4.19-.14-6.57c-.08-2.7-.08-5.32,0-7.79s.18-4.49.3-6.42v-.1c.15-2,.28-4,.39-5.84l.56-9.4h5.82l.09-.62h7.84l.08-.23h3.77l2.68-.2.85-.07h0l1.67-.13,0,.39h5.81l.09.76,7.17,1.2-2.08,8.88,6.44.49v.12l2.34.21,5.87.5L207.44,81h20.84l-31,18.48-.42.32-.17.12q-1.74,1.2-3.06,2.07c-.91.6-1.7,1.11-2.36,1.52l-.1.06c-.93.57-1.77,1-2.56,1.43l-4.47,2.24Z"/><path class="cls-14" d="M208.79,112l-2-2,0-.7c-.32-.46-.59-.86-.82-1.22l-2.55-4.24.09-.58H188.42l-.11-4.34-.19,0v-2h-.06V88.83l-.13-5.36.13,0V72.88l3.55.69-.47-23.12-.2-7.54,9.1-1,3.19-.38.93-.1-.37-.85,8.77.29,1.85-7.4L217.6,41l1.09.05,1.17.06,1.68.08,1.57.08,0,0h5.57L231.66,46a36.54,36.54,0,0,1,2,3.83c.53,1.16,1.06,2.43,1.63,3.93a55.77,55.77,0,0,1,1.74,5.48c.49,1.83.87,3.47,1.14,5s.44,2.57.58,3.59c.19,1.32.32,2.56.37,3.7l.3,6.49-3,1.51v0l-1.92,1,.09,6,12,.4,1.44,7.94c.06.33.14.7.23,1.12l.05.23,0,.23c.12.73.22,1.53.3,2.46s.12,2,.12,3.09a29.62,29.62,0,0,1-.18,3.38c-.09.77-.18,1.45-.26,2.06l0,.22,0,.22a22.45,22.45,0,0,1-.74,2.91l-1.95,5.85-13.66,2-4.39.66L226.74,130l-3-3-.49,4.46Z"/><path class="cls-14" d="M220,103.43l-.1-6.77-.16,0V86l-.27-14.09,2.94.29-.09-6.13.49-.25,0-.94-.57,0L222,40.55l10.81.72q.68,0,1.92.06H238l4.15-.08,4.45-.11c3.37-.11,7.1-.26,11-.45l12-.57-.44,3.23h.12L267.44,56l-.89,6.56-1.11,9.24-5.82-.38,0,.78v2.15l10.29-1.49-1.14,8.87.25,0L267.22,93.6l-.06.53L266,104.2Z"/><path class="cls-15" d="M79.54,57.79l-8.46-.11,8.46,1L79.48,61l-18.33-1-.34,9.59a28.9,28.9,0,0,0,3.35-.11c1.48-.11,3-.26,4.54-.45l5.73-.62-.06,2.21-1.31.23-1.31.23,2.61.68v1.65L63,73.42v.17l11.35.68-.06,4-9.08-.45L66,95.39l-2.38.17-.28-5.85-1,5.9-3.52.17-1-2.5a2.16,2.16,0,0,1,0,1.19,3.53,3.53,0,0,0-.06,1.36h-1L55.64,82,56,95.89,53.54,96l1.25-31.79L50.36,65l-.17-4.54,6.47-1-6.47.17-.06-1.31,8.57-1.25c-1.44.08-2.87.12-4.29.14l-4.29.08L50,53.59l29.69-.85Z"/><path class="cls-15" d="M108.15,91.9,102.5,92c-1.87,0-3.76.11-5.65.23L108,93l-.17,1.13-7.72.34,7.61.57-.11,1-27.19-.45-.06-4,1.22-.43c.4-.13.78-.27,1.16-.43l-2.44-.45V88.83l9.08-.51-9.08-.45-.06-3,2.89.28L83,74.13l.14-.06a.42.42,0,0,0,.14-.06l.17-9.59a3.79,3.79,0,0,0-.57,1.48l-.11-7.38c.61-.11,1.2-.22,1.79-.31a16.61,16.61,0,0,0,1.73-.37l-3.58-.28-.06-4.31c.57,0,1.37.07,2.41.08s2.23,0,3.58,0l4.26-.08,4.46-.11q5.22-.16,11.24-.45l-.28,2.1c-2.69.08-5.38.14-8.09.2s-5.42.16-8.15.31q4.08.12,8.09.31c2.67.13,5.34.16,8,.08l-.74,5.11-2.72.45,2.61.51-.17,1.42L88.84,62,89,68.74l11.24-.34-.06,2.84-6.24.4,6.19.51v1.08a2.83,2.83,0,0,1-.91.2c-.34,0-.45.26-.34.71a1.52,1.52,0,0,1,.6-.11,1.73,1.73,0,0,0,.6-.11L100,78H93.79l-.23,10.9,15.27-2.21Z"/><path class="cls-15" d="M133.07,99.34l-1.48-11.18.34,11.35-3.8.57a3.87,3.87,0,0,0-.45-1.14,2.71,2.71,0,0,1-.4-1.08v2.33l-1.48.23-.4-5.51-.57,5.62-2.1.34.91-19.24-2.5.17V76.46l7.78,1-1.31-13-1.76.23-.91-4,.06,4.09-4.48.62-1.65,10.9,1.82.17c-.08.91-.13,1.82-.17,2.72s-.08,1.82-.11,2.72h-.51l-1.48-1.14a2.18,2.18,0,0,1-.09.6c-.06.21-.1.43-.14.65l-1.25.11-.74-5,.06,5-1,.06.4,10.9-4.14.11V87.58l-.62,5.62h-1.76L114.29,62l-4.2.17,1.42-4.6,4.94-.62-4.71-.17.57-1.82,10.16.17-9.82-1.25.74-2.5,17.54,1.14L135.7,99Z"/><path class="cls-15" d="M167.69,56.48h-8.17v.23l4.09.48c1.36.17,2.7.31,4,.43l-.17,3-2,.85,1.93.11-.11,1.59-5.9.23q-3,.12-5.85.34l11.69.51-.11,2.44-10.22-.57.4,9.54-.91-.62L158,92.7l.06,2.61-3.46.06L153.51,80.1c-.08,2.54-.1,5.09-.09,7.66s0,5.13,0,7.66h-3.92c-.08-.72-.14-1.44-.2-2.16a10.1,10.1,0,0,0-.37-2c0,.72-.08,1.44-.11,2.16s-.08,1.42-.11,2.1h-2l2-25.77q-.85,6.47-1.59,12.94t-1.53,12.83l-2.78.06,5-36.33-13.4.45V57.5l4.09-.62-4-.23V54.49l26.68-.28-26.68-.62V51.77l33.55.34Z"/><path class="cls-15" d="M197.1,88.5l-.51.51-3.29,2c-1.1.66-2.16,1.33-3.18,2H192a5.64,5.64,0,0,0-.51.34l-.45.34c-1.1.76-2.06,1.41-2.89,2s-1.55,1-2.16,1.39-1.29.76-1.82,1c-.45-.23-1-.49-1.53-.79s-1-.55-1.65-.85a17.48,17.48,0,0,1-1.87-1.08l3.29-1.7c-.76.19-1.51.35-2.27.48s-1.5.29-2.21.48c-.45-.26-.87-.53-1.25-.79-.23-.15-.49-.34-.79-.57,2-.64,4.11-1.31,6.19-2s4.14-1.4,6.19-2.16c-2.2.61-4.41,1.19-6.64,1.76S177.17,92,175,92.64c-.42-.3-.81-.6-1.19-.88s-.76-.58-1.14-.88c-.08-1.63-.1-3.27-.06-4.94s0-3.33-.06-5l-.91,9.14c-.3-.23-.56-.43-.77-.62s-.41-.36-.6-.51a5.83,5.83,0,0,1-.51-.45c0-1.44,0-3.06-.06-4.88,0-1.55-.07-3.36-.09-5.42s-.07-4.32-.14-6.78-.08-4.88,0-7.15.17-4.31.28-6.13q.22-3.12.4-6a1.62,1.62,0,0,0,.4-.06,4.62,4.62,0,0,1,1-.17l-.45,17.09c.26-2.87.54-5.74.82-8.6s.58-5.72.88-8.6a12.94,12.94,0,0,1,1.36-.17l.34,5.45.79-5.56H176a5,5,0,0,0,.74-.06l1.93-.11c.64,0,1.25-.06,1.82-.06l.28,2.38.85-2.38h2a4.54,4.54,0,0,1,.79.06c-.42,1.78-.85,3.65-1.31,5.62-.42,1.7-.84,3.61-1.28,5.73s-.86,4.3-1.28,6.53-.8,4.38-1.14,6.56-.66,4.13-1,5.88q-.51,3.06-1,5.79l13.57-3-.57-22.65L192,62c.15,1.29.26,2.56.34,3.83s.15,2.56.23,3.89l.45-7.61,2.55.23-.17,14.19,1.25-14.08,2,.17ZM177.91,56.43l-2.16,19.24L178.3,62.5Z"/><path class="cls-15" d="M238.82,104a21.37,21.37,0,0,1-.11,2.24c-.08.66-.15,1.26-.23,1.79a11.48,11.48,0,0,1-.4,1.59l-4.31.62-.23-1.08-2.16,1.42-9.76,1.48c-.15-.11-.34-.25-.57-.4s-.43-.32-.71-.51a9.63,9.63,0,0,1-.94-.74l-.51-6.7-.45,5.85-1.14-1.14a3.32,3.32,0,0,0-.34-.4l.68-15.55L216.05,107c-.76-1-1.31-1.8-1.65-2.33l-.51-.85,3.18-19.41a5.83,5.83,0,0,0-.68-.57,6.92,6.92,0,0,0-.8-.57,11.65,11.65,0,0,0-1-.57,9.82,9.82,0,0,0-.94-.4,9,9,0,0,0-.94-.28l.28-7.44,1.53.4c.23-.53.47-1.14.74-1.82s.47-1.36.74-2.27.51-1.95.74-3.12a1.65,1.65,0,0,0,.06-.43,1.77,1.77,0,0,1,.06-.43l1.08,2.55-.4-7.38a17.31,17.31,0,0,0,.17-1.93V59.4l-10,1.36,1.7,12.89,2.72.68c.08,2.57.25,5.13.51,7.66a2,2,0,0,0-.48-.14l-.37-.08a1.51,1.51,0,0,0-.34-.06l.23,13.51h-2.61l-.23-6-.68,6h-10L198.1,93a2.77,2.77,0,0,0,.74-.34l.68-.45L198.1,92V89.66l3.41.23-3.29-1h-.17V87l3.8.74-.62-30.65,8-1.82-4,.34c-1.32.11-2.65.21-4,.28l-.06-2.1,3.29-.4c1-.11,2.21-.22,3.58-.31s2.84-.14,4.43-.14q1.65-.06,3.09,0t2.64.09l2.38,2.89-1.25-2.84c1.14,0,2.06.1,2.78.17q.63.06,1,.06a29.1,29.1,0,0,1,1.48,2.78c.42.91.87,2,1.36,3.29s1,2.78,1.42,4.48q.63,2.33,1,4.2t.51,3.18a25.87,25.87,0,0,1,.28,2.78l-3,1.48c-.15-1.7-.36-3.35-.62-4.94s-.55-3.18-.85-4.77l.45,5c.15,1.67.32,3.33.51,5L219,79.11c.26.08.53.17.8.28a6.7,6.7,0,0,1,.79.34l1,.51.79,7.27c0-1.14,0-2.28,0-3.43s0-2.3-.09-3.43l.88.57c.28.19.52.36.71.51a3.83,3.83,0,0,1,.62.51l.4,25.83,6-4.71-1.93-5,1.76.06a14.76,14.76,0,0,0,.68,1.39c.26.47.51.94.74,1.39l-.68-2.78,6.81.23c.08.42.17.89.28,1.42s.14,1,.2,1.68A16.92,16.92,0,0,1,238.82,104ZM205.16,83.22c-.11-2.61-.22-5.24-.31-7.89s-.29-5.24-.6-7.78v12.6Z"/><path class="cls-15" d="M257.6,91.9,252,92c-1.87,0-3.76.11-5.65.23l11.18.74-.17,1.13-7.72.34,7.61.57-.11,1-27.19-.45-.06-4,1.22-.43c.4-.13.78-.27,1.16-.43l-2.44-.45V88.83l9.08-.51-9.08-.45-.06-3,2.89.28-.15-11.06.14-.06a.42.42,0,0,0,.14-.06l.17-9.59a3.79,3.79,0,0,0-.57,1.48l-.11-7.38c.61-.11,1.2-.22,1.79-.31a16.61,16.61,0,0,0,1.73-.37l-3.58-.28-.06-4.31c.57,0,1.37.07,2.41.08s2.23,0,3.58,0l4.26-.08,4.46-.11Q252,53,258.06,52.7l-.28,2.1c-2.69.08-5.38.14-8.09.2s-5.42.16-8.15.31q4.08.12,8.09.31c2.67.13,5.34.16,8,.08l-.74,5.11-2.72.45,2.61.51-.17,1.42L238.31,62l.17,6.75,11.24-.34-.06,2.84-6.24.4,6.19.51v1.08a2.83,2.83,0,0,1-.91.2c-.34,0-.45.26-.34.71A1.52,1.52,0,0,1,249,74a1.73,1.73,0,0,0,.6-.11l-.11,4h-6.19L243,88.86l15.27-2.21Z"/><path class="cls-16" d="M79.54,55.79l-8.46-.11,8.46,1L79.48,59l-18.33-1-.34,9.59a28.9,28.9,0,0,0,3.35-.11c1.48-.11,3-.26,4.54-.45l5.73-.62-.06,2.21-1.31.23-1.31.23,2.61.68v1.65L63,71.42v.17l11.35.68-.06,4-9.08-.45L66,93.39l-2.38.17-.28-5.85-1,5.9-3.52.17-1-2.5a2.16,2.16,0,0,1,0,1.19,3.53,3.53,0,0,0-.06,1.36h-1L55.64,80,56,93.89,53.54,94l1.25-31.79L50.36,63l-.17-4.54,6.47-1-6.47.17-.06-1.31,8.57-1.25c-1.44.08-2.87.12-4.29.14l-4.29.08L50,51.59l29.69-.85Z"/><path class="cls-16" d="M108.15,89.9,102.5,90c-1.87,0-3.76.11-5.65.23L108,91l-.17,1.13-7.72.34,7.61.57-.11,1-27.19-.45-.06-4,1.22-.43c.4-.13.78-.27,1.16-.43l-2.44-.45V86.83l9.08-.51-9.08-.45-.06-3,2.89.28L83,72.13l.14-.06a.42.42,0,0,0,.14-.06l.17-9.59a3.79,3.79,0,0,0-.57,1.48l-.11-7.38c.61-.11,1.2-.22,1.79-.31a16.61,16.61,0,0,0,1.73-.37l-3.58-.28-.06-4.31c.57,0,1.37.07,2.41.08s2.23,0,3.58,0l4.26-.08,4.46-.11q5.22-.16,11.24-.45l-.28,2.1c-2.69.08-5.38.14-8.09.2s-5.42.16-8.15.31q4.08.12,8.09.31c2.67.13,5.34.16,8,.08l-.74,5.11-2.72.45,2.61.51-.17,1.42L88.84,60,89,66.74l11.24-.34-.06,2.84-6.24.4,6.19.51v1.08a2.83,2.83,0,0,1-.91.2c-.34,0-.45.26-.34.71a1.52,1.52,0,0,1,.6-.11,1.73,1.73,0,0,0,.6-.11L100,76H93.79l-.23,10.9,15.27-2.21Z"/><path class="cls-16" d="M133.07,97.34l-1.48-11.18.34,11.35-3.8.57a3.87,3.87,0,0,0-.45-1.14,2.71,2.71,0,0,1-.4-1.08v2.33l-1.48.23-.4-5.51-.57,5.62-2.1.34.91-19.24-2.5.17V74.46l7.78,1-1.31-13.05-1.76.23-.91-4,.06,4.09-4.48.62-1.65,10.9,1.82.17c-.08.91-.13,1.82-.17,2.72s-.08,1.82-.11,2.72h-.51l-1.48-1.14a2.18,2.18,0,0,1-.09.6c-.06.21-.1.43-.14.65l-1.25.11-.74-5,.06,5-1,.06.4,10.9-4.14.11V85.58l-.62,5.62h-1.76L114.29,60l-4.2.17,1.42-4.6,4.94-.62-4.71-.17.57-1.82,10.16.17-9.82-1.25.74-2.5,17.54,1.14L135.7,97Z"/><path class="cls-16" d="M167.69,54.48h-8.17v.23l4.09.48c1.36.17,2.7.31,4,.43l-.17,3-2,.85,1.93.11-.11,1.59-5.9.23q-3,.12-5.85.34l11.69.51-.11,2.44-10.22-.57.4,9.54-.91-.62L158,90.7l.06,2.61-3.46.06L153.51,78.1c-.08,2.54-.1,5.09-.09,7.66s0,5.13,0,7.66h-3.92c-.08-.72-.14-1.44-.2-2.16a10.1,10.1,0,0,0-.37-2c0,.72-.08,1.44-.11,2.16s-.08,1.42-.11,2.1h-2l2-25.77q-.85,6.47-1.59,12.94t-1.53,12.83l-2.78.06,5-36.33-13.4.45V55.5l4.09-.62-4-.23V52.49l26.68-.28-26.68-.62V49.77l33.55.34Z"/><path class="cls-16" d="M197.1,86.5l-.51.51-3.29,2c-1.1.66-2.16,1.33-3.18,2H192a5.64,5.64,0,0,0-.51.34l-.45.34c-1.1.76-2.06,1.41-2.89,2s-1.55,1-2.16,1.39-1.29.76-1.82,1c-.45-.23-1-.49-1.53-.79s-1-.55-1.65-.85a17.48,17.48,0,0,1-1.87-1.08l3.29-1.7c-.76.19-1.51.35-2.27.48s-1.5.29-2.21.48c-.45-.26-.87-.53-1.25-.79-.23-.15-.49-.34-.79-.57,2-.64,4.11-1.31,6.19-2s4.14-1.4,6.19-2.16c-2.2.61-4.41,1.19-6.64,1.76S177.17,90,175,90.64c-.42-.3-.81-.6-1.19-.88s-.76-.58-1.14-.88c-.08-1.63-.1-3.27-.06-4.94s0-3.33-.06-5l-.91,9.14c-.3-.23-.56-.43-.77-.62s-.41-.36-.6-.51a5.83,5.83,0,0,1-.51-.45c0-1.44,0-3.06-.06-4.88,0-1.55-.07-3.36-.09-5.42s-.07-4.32-.14-6.78-.08-4.88,0-7.15.17-4.31.28-6.13q.22-3.12.4-6a1.62,1.62,0,0,0,.4-.06,4.62,4.62,0,0,1,1-.17l-.45,17.09c.26-2.87.54-5.74.82-8.6s.58-5.72.88-8.6a12.94,12.94,0,0,1,1.36-.17l.34,5.45.79-5.56H176a5,5,0,0,0,.74-.06l1.93-.11c.64,0,1.25-.06,1.82-.06l.28,2.38.85-2.38h2a4.54,4.54,0,0,1,.79.06c-.42,1.78-.85,3.65-1.31,5.62-.42,1.7-.84,3.61-1.28,5.73s-.86,4.3-1.28,6.53-.8,4.38-1.14,6.56-.66,4.13-1,5.88q-.51,3.06-1,5.79l13.57-3-.57-22.65L192,60c.15,1.29.26,2.56.34,3.83s.15,2.56.23,3.89l.45-7.61,2.55.23-.17,14.19,1.25-14.08,2,.17ZM177.91,54.43l-2.16,19.24L178.3,60.5Z"/><path class="cls-16" d="M238.82,102a21.37,21.37,0,0,1-.11,2.24c-.08.66-.15,1.26-.23,1.79a11.48,11.48,0,0,1-.4,1.59l-4.31.62-.23-1.08-2.16,1.42-9.76,1.48c-.15-.11-.34-.25-.57-.4s-.43-.32-.71-.51a9.63,9.63,0,0,1-.94-.74l-.51-6.7-.45,5.85-1.14-1.14a3.32,3.32,0,0,0-.34-.4l.68-15.55L216.05,105c-.76-1-1.31-1.8-1.65-2.33l-.51-.85,3.18-19.41a5.83,5.83,0,0,0-.68-.57,6.92,6.92,0,0,0-.8-.57,11.65,11.65,0,0,0-1-.57,9.82,9.82,0,0,0-.94-.4,9,9,0,0,0-.94-.28l.28-7.44,1.53.4c.23-.53.47-1.14.74-1.82s.47-1.36.74-2.27.51-1.95.74-3.12a1.65,1.65,0,0,0,.06-.43,1.77,1.77,0,0,1,.06-.43l1.08,2.55-.4-7.38a17.31,17.31,0,0,0,.17-1.93V57.4l-10,1.36,1.7,12.89,2.72.68c.08,2.57.25,5.13.51,7.66a2,2,0,0,0-.48-.14l-.37-.08a1.51,1.51,0,0,0-.34-.06l.23,13.51h-2.61l-.23-6-.68,6h-10L198.1,91a2.77,2.77,0,0,0,.74-.34l.68-.45L198.1,90V87.66l3.41.23-3.29-1h-.17V85l3.8.74-.62-30.65,8-1.82-4,.34c-1.32.11-2.65.21-4,.28l-.06-2.1,3.29-.4c1-.11,2.21-.22,3.58-.31s2.84-.14,4.43-.14q1.65-.06,3.09,0t2.64.09l2.38,2.89-1.25-2.84c1.14,0,2.06.1,2.78.17q.63.06,1,.06a29.1,29.1,0,0,1,1.48,2.78c.42.91.87,2,1.36,3.29s1,2.78,1.42,4.48.74,3,1,4.2.4,2.31.51,3.18a25.87,25.87,0,0,1,.28,2.78l-3,1.48c-.15-1.7-.36-3.35-.62-4.94s-.55-3.18-.85-4.77l.45,5c.15,1.67.32,3.33.51,5L219,77.11c.26.08.53.17.8.28a6.7,6.7,0,0,1,.79.34l1,.51.79,7.27c0-1.14,0-2.28,0-3.43s0-2.3-.09-3.43l.88.57c.28.19.52.36.71.51a3.83,3.83,0,0,1,.62.51l.4,25.83,6-4.71-1.93-5,1.76.06a14.76,14.76,0,0,0,.68,1.39c.26.47.51.94.74,1.39l-.68-2.78,6.81.23c.08.42.17.89.28,1.42s.14,1,.2,1.68A16.92,16.92,0,0,1,238.82,102ZM205.16,81.22c-.11-2.61-.22-5.24-.31-7.89s-.29-5.24-.6-7.78v12.6Z"/><path class="cls-16" d="M257.6,89.9,252,90c-1.87,0-3.76.11-5.65.23l11.18.74-.17,1.13-7.72.34,7.61.57-.11,1-27.19-.45-.06-4,1.22-.43c.4-.13.78-.27,1.16-.43l-2.44-.45V86.83l9.08-.51-9.08-.45-.06-3,2.89.28-.15-11.06.14-.06a.42.42,0,0,0,.14-.06l.17-9.59a3.79,3.79,0,0,0-.57,1.48l-.11-7.38c.61-.11,1.2-.22,1.79-.31a16.61,16.61,0,0,0,1.73-.37l-3.58-.28-.06-4.31c.57,0,1.37.07,2.41.08s2.23,0,3.58,0l4.26-.08,4.46-.11Q252,51,258.06,50.7l-.28,2.1c-2.69.08-5.38.14-8.09.2s-5.42.16-8.15.31q4.08.12,8.09.31c2.67.13,5.34.16,8,.08l-.74,5.11-2.72.45,2.61.51-.17,1.42L238.31,60l.17,6.75,11.24-.34-.06,2.84-6.24.4,6.19.51v1.08a2.83,2.83,0,0,1-.91.2c-.34,0-.45.26-.34.71A1.52,1.52,0,0,1,249,72a1.73,1.73,0,0,0,.6-.11l-.11,4h-6.19L243,86.86l15.27-2.21Z"/></g></g></svg>