<svg xmlns="http://www.w3.org/2000/svg" viewBox="0 0 35.26 35.26"><defs><style>.cls-1{fill:#2fc19a;}</style></defs><title>feature-9</title><g id="Layer_2" data-name="Layer 2"><g id="Layer_1-2" data-name="Layer 1"><rect class="cls-1" x="24.95" y="16.06" width="0.82" height="4.02"/><polygon class="cls-1" points="24.03 20.05 21.3 8.37 13.45 8.37 11.84 17.35 11.23 17.24 12.93 7.75 21.79 7.75 24.63 19.91 24.03 20.05"/><rect class="cls-1" x="12.58" y="7.44" width="9.45" height="1.06"/><rect class="cls-1" x="15.98" y="7.97" width="0.62" height="9.53"/><rect class="cls-1" x="21.55" y="7.92" width="0.62" height="12.23" transform="translate(-2.69 5.55) rotate(-13.65)"/><path class="cls-1" d="M13.34,17.68a6.47,6.47,0,1,0,6.47,6.47A6.47,6.47,0,0,0,13.34,17.68Zm0,10.19a3.73,3.73,0,1,1,3.73-3.72A3.73,3.73,0,0,1,13.34,27.87Zm5.37-6.34a2.79,2.79,0,0,1,.22.63,2.38,2.38,0,0,1,.1.55,1.64,1.64,0,0,1,0,.43c0,.24,0,.38,0,.38s0-.14-.07-.37a1.92,1.92,0,0,0-.09-.41,3.51,3.51,0,0,0-.18-.51,3.25,3.25,0,0,0-.27-.57,5.75,5.75,0,0,0-.37-.6c-.14-.2-.31-.39-.47-.59a7.13,7.13,0,0,0-.55-.55c-.18-.18-.4-.33-.6-.5s-.41-.31-.62-.43-.42-.25-.62-.35-.4-.18-.58-.27l-.5-.18c-.16,0-.29-.09-.41-.11L13.34,18l.38,0c.11,0,.26,0,.43,0a4.45,4.45,0,0,1,.55.11c.19.06.41.12.63.21a5.1,5.1,0,0,1,.67.32c.23.12.45.27.68.42s.44.33.64.52a6.33,6.33,0,0,1,.57.59,4.63,4.63,0,0,1,.47.65A3.9,3.9,0,0,1,18.71,21.53Z"/><path class="cls-1" d="M25.77,22.63a3.89,3.89,0,1,0,3.89,3.89A3.89,3.89,0,0,0,25.77,22.63Zm0,5.83a1.94,1.94,0,1,1,1.94-1.94A1.93,1.93,0,0,1,25.77,28.46Zm3-3.88A2.85,2.85,0,0,1,29,25a2.15,2.15,0,0,1,.1.38,2.91,2.91,0,0,1,.06.59c0,.14,0,.22,0,.22a2,2,0,0,1-.07-.21L29,25.74a2.33,2.33,0,0,0-.11-.31,3.19,3.19,0,0,0-.14-.35c-.07-.11-.12-.24-.2-.37s-.15-.24-.25-.36a3.64,3.64,0,0,0-.66-.62,3,3,0,0,0-.38-.24c-.13-.06-.25-.14-.37-.18l-.36-.14A4.21,4.21,0,0,0,26,23l-.22,0a2.5,2.5,0,0,1,.82,0l.38.09c.14,0,.28.1.43.16a2.91,2.91,0,0,1,.42.23,2.88,2.88,0,0,1,.39.32,1.94,1.94,0,0,1,.33.37A3.1,3.1,0,0,1,28.8,24.58Z"/><path class="cls-1" d="M26.37,18.63h-7.8a7.9,7.9,0,0,0-6.5-2.09,6.62,6.62,0,0,0-5.14,3.69l.6.25a6.86,6.86,0,0,1,1-1.26,6.39,6.39,0,0,1,3.64-1.87,6.56,6.56,0,0,1,.82-.06l.33,0a6.88,6.88,0,0,1,6.88,6.88,7,7,0,0,1-.14,1.39l1.51,0a4.3,4.3,0,0,1,8.33-.13h.69v-2Z"/><path class="cls-1" d="M25.52,35.26H9.74A9.75,9.75,0,0,1,0,25.52V9.74A9.75,9.75,0,0,1,9.74,0H25.52a9.75,9.75,0,0,1,9.74,9.74V25.52A9.75,9.75,0,0,1,25.52,35.26ZM9.74,1.87A7.88,7.88,0,0,0,1.87,9.74V25.52a7.88,7.88,0,0,0,7.87,7.87H25.52a7.88,7.88,0,0,0,7.87-7.87V9.74a7.88,7.88,0,0,0-7.87-7.87Z"/></g></g></svg>