<svg xmlns="http://www.w3.org/2000/svg" viewBox="0 0 35.26 35.26"><defs><style>.cls-1{fill:#2fc19a;}</style></defs><title>Asset 7</title><g id="Layer_2" data-name="Layer 2"><g id="Layer_1-2" data-name="Layer 1"><path class="cls-1" d="M20.62,26.26c0,.39-.9.7-2,.7s-2-.31-2-.7.9-.69,2-.69S20.62,25.88,20.62,26.26Z"/><path class="cls-1" d="M10.35,9.23a6,6,0,0,0-2-.69,3.21,3.21,0,0,0-2.5.75c-.41.35-.73.8-1.13,1.14.28,0,.4.36.56.55A8.2,8.2,0,0,0,6.78,12.5a3.35,3.35,0,0,0,2.1.55,2.59,2.59,0,0,0,1.56-1.11,15.83,15.83,0,0,1,1.08-1.23,10,10,0,0,0,1.05-.88A3.91,3.91,0,0,1,10.35,9.23Zm1,1.17a3.8,3.8,0,0,1-.77-.05,8.76,8.76,0,0,1-1-.26c-.37-.11-.76-.24-1.14-.34-.19-.05-.39-.1-.58-.13a3.41,3.41,0,0,0-.55,0,2.11,2.11,0,0,0-.51,0,1.57,1.57,0,0,0-.45.12A3.17,3.17,0,0,0,6,9.9c-.11,0-.19.12-.27.16l-.24.16L5.63,10a1,1,0,0,1,.23-.24,1.7,1.7,0,0,1,.35-.27,1.63,1.63,0,0,1,.48-.22,2.21,2.21,0,0,1,.59-.12,3.35,3.35,0,0,1,.63,0,6.39,6.39,0,0,1,.63.13,9.28,9.28,0,0,1,1.16.4l1,.39.39.13a1.69,1.69,0,0,0,.31.09l.28.07Z"/><path class="cls-1" d="M30.79,9.29a3.21,3.21,0,0,0-2.5-.75,6,6,0,0,0-2,.69,3.89,3.89,0,0,1-2.22.6,12.54,12.54,0,0,0,1.05.88,15.83,15.83,0,0,1,1.08,1.23,2.65,2.65,0,0,0,1.56,1.11,3.37,3.37,0,0,0,2.11-.55A8.53,8.53,0,0,0,31.37,11c.15-.19.27-.54.55-.55C31.52,10.09,31.21,9.64,30.79,9.29Zm.08.77c-.08,0-.16-.11-.27-.16a3.17,3.17,0,0,0-.37-.17,1.57,1.57,0,0,0-.45-.12,2.11,2.11,0,0,0-.51,0,3.64,3.64,0,0,0-.56,0c-.18,0-.38.08-.57.13-.38.1-.77.23-1.14.34a8.76,8.76,0,0,1-1,.26,3.8,3.8,0,0,1-.77.05l-.28,0,.28-.07a1.69,1.69,0,0,0,.31-.09l.39-.13,1-.39A8.75,8.75,0,0,1,28,9.29a6.39,6.39,0,0,1,.63-.13,3.35,3.35,0,0,1,.63,0,2.21,2.21,0,0,1,.59.12,1.63,1.63,0,0,1,.48.22,1.7,1.7,0,0,1,.35.27,1,1,0,0,1,.23.24l.18.23Z"/><path class="cls-1" d="M21.28,21.6c-.62,0-1.12.31-1.12.69s.5.69,1.12.69,1.11-.31,1.11-.69S21.89,21.6,21.28,21.6Z"/><path class="cls-1" d="M12.55,18.33c-.34,1.37,1.93,1.2,1.64-.09C14,17.31,12.76,17.51,12.55,18.33Z"/><path class="cls-1" d="M15.9,21.6c-.61,0-1.11.31-1.11.69s.5.69,1.11.69S17,22.67,17,22.29,16.52,21.6,15.9,21.6Z"/><path class="cls-1" d="M18.3,8.41A10,10,0,1,0,28.35,18.46,10.05,10.05,0,0,0,18.3,8.41Zm-8,11.24a3.23,3.23,0,0,1-.45-2c.09-.72.61-.86,1.07-1.33s.43-1.52.76-2.18a2.63,2.63,0,0,1,2.06-1.43c1.75,0,1.09,1.55,1.2,2.59s1.8,1.14,1.69,2.35c-.08.89-1.19,1.61-1.87,2C13.46,20.52,11.45,21.41,10.35,19.65ZM18.6,25.3c-2.79,0-5.05-1.35-5.05-3s2.26-3,5.05-3,5.06,1.35,5.06,3S21.4,25.3,18.6,25.3Zm3.83-7c.2-.82,1.43-1,1.64-.09C24.35,19.53,22.08,19.7,22.43,18.33Zm3.75-4.88c-.12-.15-.29-.29-.45-.46s-.33-.36-.53-.53l-.63-.56-.69-.55c-.25-.17-.49-.37-.75-.52a9.09,9.09,0,0,0-.78-.48c-.26-.15-.53-.29-.79-.41s-.51-.24-.75-.35l-.7-.28a15.23,15.23,0,0,0-1.51-.47,5.42,5.42,0,0,1,1.61.07c.25,0,.5.1.77.17a7.41,7.41,0,0,1,.84.27,8.16,8.16,0,0,1,.86.39,8,8,0,0,1,.84.49c.28.17.53.38.79.57s.47.43.7.63.4.45.58.66a4.77,4.77,0,0,1,.46.63,5.7,5.7,0,0,1,.36.56c.08.18.16.33.23.46s.18.39.18.39l-.3-.31Z"/><path class="cls-1" d="M25.52,35.26H9.74A9.75,9.75,0,0,1,0,25.52V9.74A9.75,9.75,0,0,1,9.74,0H25.52a9.75,9.75,0,0,1,9.74,9.74V25.52A9.75,9.75,0,0,1,25.52,35.26ZM9.74,1.87A7.88,7.88,0,0,0,1.87,9.74V25.52a7.88,7.88,0,0,0,7.87,7.87H25.52a7.88,7.88,0,0,0,7.87-7.87V9.74a7.88,7.88,0,0,0-7.87-7.87Z"/></g></g></svg>