<svg xmlns="http://www.w3.org/2000/svg" viewBox="0 0 35.26 35.26"><defs><style>.cls-1{fill:#2fc19a;}</style></defs><title>feature-3</title><g id="Layer_2" data-name="Layer 2"><g id="Layer_1-2" data-name="Layer 1"><path class="cls-1" d="M12.56,10.41a1.17,1.17,0,0,0-1,.45,2.51,2.51,0,0,0-.38,1.78A9.79,9.79,0,0,1,18.35,9.3a5.81,5.81,0,0,1,4.07,1.45,2.44,2.44,0,0,0-.33-1.65,1.6,1.6,0,0,0-1.67-.37l-.27,0,0-.28a2.19,2.19,0,0,0-.45-1.76,2,2,0,0,0-1.5-.59,3,3,0,0,0-2.32,1.07,1.56,1.56,0,0,0-.23,1.43l.22.7-.55-.48a1.73,1.73,0,0,0-1.14-.46,1.1,1.1,0,0,0-1,.51,1.28,1.28,0,0,0,.09,1.27l.23.42-.47-.12A1.75,1.75,0,0,0,12.56,10.41Z"/><path class="cls-1" d="M21.45,18.88l-.22.12c-.13.08-.28.15-.44.23-.51.26-1.14.57-1.31,1a1.13,1.13,0,0,0,0,.63l0,.19A2.58,2.58,0,0,0,20,22.26c.29.38.62.4,1.17.41v0A1.92,1.92,0,0,0,22.61,22a1,1,0,0,0-.3-1.29A1.41,1.41,0,0,1,21.43,19,.14.14,0,0,0,21.45,18.88Z"/><path class="cls-1" d="M23.39,12.6s.92,1.57-.33,4.69c0,0,1.32-1.89,5-2.37C27.24,13.08,24.78,12.6,23.39,12.6Zm3,1.24-.44-.14-.5-.15-.95-.29L24,13.1a2.52,2.52,0,0,1,.47,0,3.69,3.69,0,0,1,1,.16,2.58,2.58,0,0,1,.51.2,3.13,3.13,0,0,1,.42.24,2.65,2.65,0,0,1,.35.32S26.6,13.93,26.35,13.84Z"/><path class="cls-1" d="M20.64,18.74c1.31-.7,2.81-1.49,2.81-4.34s-2-4.67-5.1-4.67c-4,0-9.61,3.47-9.66,11.17l8.83,8,3.84-3.74c-1.89-2.36-2.61-3.8-2.41-4.78C19.12,19.54,19.85,19.15,20.64,18.74Zm-2-4.38c-.82-.2-.37-1.24.24-1.44a.74.74,0,0,1,1.06.68C19.88,14.28,19.19,14.51,18.61,14.36Z"/><path class="cls-1" d="M25.52,35.26H9.74A9.75,9.75,0,0,1,0,25.52V9.74A9.75,9.75,0,0,1,9.74,0H25.52a9.75,9.75,0,0,1,9.74,9.74V25.52A9.75,9.75,0,0,1,25.52,35.26ZM9.74,1.87A7.88,7.88,0,0,0,1.87,9.74V25.52a7.88,7.88,0,0,0,7.87,7.87H25.52a7.88,7.88,0,0,0,7.87-7.87V9.74a7.88,7.88,0,0,0-7.87-7.87Z"/></g></g></svg>