<svg xmlns="http://www.w3.org/2000/svg" viewBox="0 0 35.26 35.26"><defs><style>.cls-1{fill:#2fc19a;}</style></defs><title>feature-2</title><g id="Layer_2" data-name="Layer 2"><g id="Layer_1-2" data-name="Layer 1"><rect class="cls-1" x="14.07" y="19.17" width="2.94" height="1.62" transform="translate(-9.58 16.84) rotate(-45)"/><rect class="cls-1" x="15.28" y="15" width="9.6" height="0.88" transform="translate(-5.03 18.72) rotate(-45)"/><rect class="cls-1" x="23.31" y="10.43" width="1.93" height="1.62" transform="translate(-0.84 20.46) rotate(-45)"/><path class="cls-1" d="M26.88,11.66A3,3,0,0,1,24.74,6.5l.14-.14,4.28,4.28-.14.14A3,3,0,0,1,26.88,11.66Zm-2-4.74A2.64,2.64,0,0,0,25,10.5a2.63,2.63,0,0,0,3.58.13Z"/><rect class="cls-1" x="26.69" y="5.45" width="0.71" height="6.03" transform="translate(1.94 21.6) rotate(-45)"/><path class="cls-1" d="M14.35,21.1l-2.23-2.29C5.69,22.63,7.42,27.68,7.53,28h0c.29.1,5.35,1.83,9.17-4.6Zm-5.29,1c-.08.13-.16.26-.25.39l-.21.41a6.85,6.85,0,0,0-.36.84A7.36,7.36,0,0,0,8,24.6a6.52,6.52,0,0,0-.17.81,4,4,0,0,0-.08.74c0,.24-.06.45,0,.64s0,.35,0,.49v.43h0s0-.15-.07-.42,0-.31-.07-.5,0-.41,0-.65a5.1,5.1,0,0,1,0-.76L7.6,25a2.2,2.2,0,0,1,.09-.43A6,6,0,0,1,8,23.65a5.54,5.54,0,0,1,.41-.85c.08-.14.15-.28.24-.41L8.89,22a8.61,8.61,0,0,1,.57-.72c.21-.21.39-.43.6-.61s.4-.35.58-.49.37-.26.52-.38l.43-.26.37-.21,0,0a4.19,4.19,0,0,0-.37.22c-.12.07-.25.17-.4.28s-.33.24-.5.4a6.39,6.39,0,0,0-.55.51c-.2.19-.37.41-.57.62S9.21,21.85,9.06,22.11Zm4.56,0a6.56,6.56,0,0,1-.63.74c-.26.24-.55.48-.83.73L10.6,24.94l-.72.61,0,0,.61-.72,1.37-1.56c.25-.28.49-.57.73-.83a6.56,6.56,0,0,1,.74-.63,4.84,4.84,0,0,1,.81-.52l0,0A4.84,4.84,0,0,1,13.62,22.1Z"/><path class="cls-1" d="M25.52,35.26H9.74A9.75,9.75,0,0,1,0,25.52V9.74A9.75,9.75,0,0,1,9.74,0H25.52a9.75,9.75,0,0,1,9.74,9.74V25.52A9.75,9.75,0,0,1,25.52,35.26ZM9.74,1.87A7.88,7.88,0,0,0,1.87,9.74V25.52a7.88,7.88,0,0,0,7.87,7.87H25.52a7.88,7.88,0,0,0,7.87-7.87V9.74a7.88,7.88,0,0,0-7.87-7.87Z"/></g></g></svg>