<svg xmlns="http://www.w3.org/2000/svg" xmlns:xlink="http://www.w3.org/1999/xlink" viewBox="0 0 73.94 59.7"><defs><style>.cls-1{fill:none;}.cls-2{isolation:isolate;}.cls-3{clip-path:url(#clip-path);}.cls-4{fill:#966c16;}.cls-5{clip-path:url(#clip-path-2);}.cls-6{clip-path:url(#clip-path-3);}.cls-7{clip-path:url(#clip-path-4);}.cls-8{clip-path:url(#clip-path-5);}.cls-9{clip-path:url(#clip-path-6);}.cls-10{clip-path:url(#clip-path-7);}.cls-11{clip-path:url(#clip-path-8);}.cls-12{clip-path:url(#clip-path-9);}.cls-13{clip-path:url(#clip-path-10);}.cls-14{fill:#e1c458;}.cls-15{clip-path:url(#clip-path-11);}.cls-16{clip-path:url(#clip-path-12);}.cls-17{clip-path:url(#clip-path-13);}.cls-18{clip-path:url(#clip-path-14);}.cls-19{clip-path:url(#clip-path-15);}.cls-20{clip-path:url(#clip-path-16);}.cls-21{clip-path:url(#clip-path-17);}.cls-22{clip-path:url(#clip-path-18);}.cls-23{clip-path:url(#clip-path-19);}.cls-24{clip-path:url(#clip-path-20);}.cls-25{clip-path:url(#clip-path-21);}.cls-26{clip-path:url(#clip-path-22);}.cls-27{clip-path:url(#clip-path-23);}.cls-28{clip-path:url(#clip-path-24);}.cls-29{clip-path:url(#clip-path-25);}.cls-30{clip-path:url(#clip-path-26);}.cls-31{clip-path:url(#clip-path-27);}.cls-32{clip-path:url(#clip-path-28);}.cls-33{clip-path:url(#clip-path-29);}.cls-34{clip-path:url(#clip-path-30);}.cls-35{clip-path:url(#clip-path-31);}.cls-36{clip-path:url(#clip-path-32);}.cls-37{clip-path:url(#clip-path-33);}.cls-38{clip-path:url(#clip-path-34);}.cls-39{clip-path:url(#clip-path-35);}.cls-40{clip-path:url(#clip-path-36);}.cls-41{clip-path:url(#clip-path-37);}.cls-42{clip-path:url(#clip-path-38);}.cls-43{clip-path:url(#clip-path-39);}.cls-44{clip-path:url(#clip-path-40);}.cls-45{clip-path:url(#clip-path-41);}.cls-46{clip-path:url(#clip-path-42);}</style><clipPath id="clip-path" transform="translate(-0.01)"><path class="cls-1" d="M51.86,23.26l.47,1L67.69,26l-.47-1Z"/></clipPath><clipPath id="clip-path-2" transform="translate(-0.01)"><path class="cls-1" d="M68,29.32l.47,1c.15-1.07.3-2.12.44-3.16l-.47-1C68.28,27.2,68.13,28.25,68,29.32Z"/></clipPath><clipPath id="clip-path-3" transform="translate(-0.01)"><path class="cls-1" d="M68.42,26.15l.47,1,2.77,3.53-.47-1Z"/></clipPath><clipPath id="clip-path-4" transform="translate(-0.01)"><path class="cls-1" d="M66.46,30.49l.47,1,5.54.64-.47-1Z"/></clipPath><clipPath id="clip-path-5" transform="translate(-0.01)"><path class="cls-1" d="M68.73,35.2l.47,1,.18-1.3-.47-1Z"/></clipPath><clipPath id="clip-path-6" transform="translate(-0.01)"><path class="cls-1" d="M61,34.31l.47,1,7.79.89-.47-1Z"/></clipPath><clipPath id="clip-path-7" transform="translate(-0.01)"><path class="cls-1" d="M52.69,36.72l.47,1,15.58,1.78-.47-1Z"/></clipPath><clipPath id="clip-path-8" transform="translate(-0.01)"><path class="cls-1" d="M68.27,38.5l.47,1,.18-1.3-.47-1Z"/></clipPath><clipPath id="clip-path-9" transform="translate(-0.01)"><path class="cls-1" d="M67.82,41.79l.47,1,.18-1.3-.47-1Z"/></clipPath><clipPath id="clip-path-10" transform="translate(-0.01)"><path class="cls-1" d="M52.24,40l.46,1,15.58,1.78-.47-1Z"/></clipPath><clipPath id="clip-path-11" transform="translate(-0.01)"><path class="cls-1" d="M67.36,45.08l.47,1,.18-1.3-.47-1Z"/></clipPath><clipPath id="clip-path-12" transform="translate(-0.01)"><path class="cls-1" d="M51.77,43.3l.47,1,15.59,1.79-.47-1Z"/></clipPath><clipPath id="clip-path-13" transform="translate(-0.01)"><path class="cls-1" d="M47.45,54.83l.47,1,4.41-31.57-.47-1Z"/></clipPath><clipPath id="clip-path-14" transform="translate(-0.01)"><path class="cls-1" d="M66.9,48.37l.47,1,.18-1.3-.47-1Z"/></clipPath><clipPath id="clip-path-15" transform="translate(-0.01)"><path class="cls-1" d="M51.31,46.59l.47,1,15.58,1.78-.47-1Z"/></clipPath><clipPath id="clip-path-16" transform="translate(-0.01)"><path class="cls-1" d="M66.43,51.67l.47,1,.18-1.3-.47-1Z"/></clipPath><clipPath id="clip-path-17" transform="translate(-0.01)"><path class="cls-1" d="M50.85,49.88l.47,1L66.9,52.65l-.47-1Z"/></clipPath><clipPath id="clip-path-18" transform="translate(-0.01)"><path class="cls-1" d="M66,55l.47,1,.18-1.3-.47-1Z"/></clipPath><clipPath id="clip-path-19" transform="translate(-0.01)"><path class="cls-1" d="M50.39,53.17l.47,1,15.58,1.78L66,55Z"/></clipPath><clipPath id="clip-path-20" transform="translate(-0.01)"><path class="cls-1" d="M45.93,56l.46,1L70,59.7l-.47-1Z"/></clipPath><clipPath id="clip-path-21" transform="translate(-0.01)"><path class="cls-1" d="M73.92,31.32l-.47-1a.27.27,0,0,1,0,.16q-2,14-3.92,28.08s0,.1,0,.15l.47,1c0-.05,0-.1,0-.15q2-14,3.92-28.08A.26.26,0,0,0,73.92,31.32Z"/></clipPath><clipPath id="clip-path-22" transform="translate(-0.01)"><path class="cls-1" d="M32.82,2.21l-.69,1.48L9.3,6.3,10,4.82C17.62,4,25.21,3.09,32.82,2.21Z"/></clipPath><clipPath id="clip-path-23" transform="translate(-0.01)"><path class="cls-1" d="M8.86,11.21l-.69,1.48C8,11.1,7.73,9.54,7.51,8L8.2,6.51C8.42,8.06,8.64,9.63,8.86,11.21Z"/></clipPath><clipPath id="clip-path-24" transform="translate(-0.01)"><path class="cls-1" d="M8.21,6.51,7.52,8C6.15,9.75,4.77,11.5,3.41,13.24l.69-1.48C5.45,10,6.84,8.27,8.21,6.51Z"/></clipPath><clipPath id="clip-path-25" transform="translate(-0.01)"><path class="cls-1" d="M11.13,13l-.69,1.48-8.24.94.69-1.48Z"/></clipPath><clipPath id="clip-path-26" transform="translate(-0.01)"><path class="cls-1" d="M7.75,20l-.69,1.48-.27-1.93L7.48,18Z"/></clipPath><clipPath id="clip-path-27" transform="translate(-0.01)"><path class="cls-1" d="M19.32,18.64l-.69,1.48L7.06,21.45,7.75,20Z"/></clipPath><clipPath id="clip-path-28" transform="translate(-0.01)"><path class="cls-1" d="M31.58,22.21l-.69,1.48L7.74,26.34l.69-1.48Z"/></clipPath><clipPath id="clip-path-29" transform="translate(-0.01)"><path class="cls-1" d="M8.43,24.86l-.69,1.48c-.09-.64-.18-1.28-.27-1.94l.69-1.48C8.25,23.58,8.34,24.22,8.43,24.86Z"/></clipPath><clipPath id="clip-path-30" transform="translate(-0.01)"><path class="cls-1" d="M9.11,29.75l-.69,1.48L8.15,29.3l.69-1.48Z"/></clipPath><clipPath id="clip-path-31" transform="translate(-0.01)"><path class="cls-1" d="M32.26,27.09l-.69,1.48L8.42,31.22l.69-1.48Z"/></clipPath><clipPath id="clip-path-32" transform="translate(-0.01)"><path class="cls-1" d="M9.79,34.64,9.1,36.12l-.27-1.93.69-1.48Z"/></clipPath><clipPath id="clip-path-33" transform="translate(-0.01)"><path class="cls-1" d="M33,32l-.69,1.48L9.1,36.12l.69-1.48Z"/></clipPath><clipPath id="clip-path-34" transform="translate(-0.01)"><path class="cls-1" d="M39.37,49.13l-.69,1.48Q35.41,27.14,32.13,3.69l.69-1.48Q36.1,25.67,39.37,49.13Z"/></clipPath><clipPath id="clip-path-35" transform="translate(-0.01)"><path class="cls-1" d="M10.48,39.53,9.79,41c-.09-.66-.18-1.29-.27-1.94l.69-1.48C10.3,38.24,10.39,38.87,10.48,39.53Z"/></clipPath><clipPath id="clip-path-36" transform="translate(-0.01)"><path class="cls-1" d="M33.63,36.88l-.69,1.48L9.79,41l.69-1.48Z"/></clipPath><clipPath id="clip-path-37" transform="translate(-0.01)"><path class="cls-1" d="M11.17,44.42l-.69,1.48c-.09-.64-.18-1.28-.27-1.94l.69-1.48C11,43.15,11.08,43.78,11.17,44.42Z"/></clipPath><clipPath id="clip-path-38" transform="translate(-0.01)"><path class="cls-1" d="M34.32,41.77l-.69,1.48L10.48,45.9l.69-1.48Z"/></clipPath><clipPath id="clip-path-39" transform="translate(-0.01)"><path class="cls-1" d="M11.84,49.32l-.69,1.48-.27-1.93.69-1.48C11.67,48,11.75,48.67,11.84,49.32Z"/></clipPath><clipPath id="clip-path-40" transform="translate(-0.01)"><path class="cls-1" d="M35,46.66l-.69,1.48L11.16,50.79l.69-1.48Z"/></clipPath><clipPath id="clip-path-41" transform="translate(-0.01)"><path class="cls-1" d="M41.63,50.87l-.69,1.48-35.08,4,.69-1.48Z"/></clipPath><clipPath id="clip-path-42" transform="translate(-0.01)"><path class="cls-1" d="M0,14.18.73,12.7a.45.45,0,0,0,0,.24Q3.61,33.81,6.53,54.67l0,.22-.69,1.48,0-.22Q2.93,35.29,0,14.42A.33.33,0,0,1,0,14.18Z"/></clipPath></defs><title>icon-8</title><g id="Layer_2" data-name="Layer 2"><g id="Layer_1-2" data-name="Layer 1"><g class="cls-2"><g class="cls-2"><g class="cls-3"><g class="cls-2"><path class="cls-4" d="M51.86,23.26l.47,1L67.69,26l-.47-1L51.86,23.26" transform="translate(-0.01)"/></g></g></g><g class="cls-2"><g class="cls-5"><g class="cls-2"><path class="cls-4" d="M68,29.32l.47,1c.15-1.07.3-2.12.44-3.16l-.47-1c-.14,1-.29,2.09-.44,3.16" transform="translate(-0.01)"/></g></g></g><g class="cls-2"><g class="cls-6"><g class="cls-2"><path class="cls-4" d="M68.42,26.15l.47,1,2.77,3.53-.47-1-2.77-3.53" transform="translate(-0.01)"/></g></g></g><g class="cls-2"><g class="cls-7"><g class="cls-2"><path class="cls-4" d="M66.46,30.49l.47,1,5.54.64-.47-1-5.54-.64" transform="translate(-0.01)"/></g></g></g><g class="cls-2"><g class="cls-8"><g class="cls-2"><path class="cls-4" d="M68.73,35.2l.47,1,.18-1.3-.47-1-.18,1.3" transform="translate(-0.01)"/></g></g></g><g class="cls-2"><g class="cls-9"><g class="cls-2"><path class="cls-4" d="M61,34.31l.47,1,7.79.89-.47-1L61,34.31" transform="translate(-0.01)"/></g></g></g><g class="cls-2"><g class="cls-10"><g class="cls-2"><path class="cls-4" d="M52.69,36.72l.47,1,15.58,1.78-.47-1L52.69,36.72" transform="translate(-0.01)"/></g></g></g><g class="cls-2"><g class="cls-11"><g class="cls-2"><path class="cls-4" d="M68.27,38.5l.47,1,.18-1.3-.47-1-.18,1.3" transform="translate(-0.01)"/></g></g></g><g class="cls-2"><g class="cls-12"><g class="cls-2"><path class="cls-4" d="M67.82,41.79l.47,1,.18-1.3-.47-1-.18,1.3" transform="translate(-0.01)"/></g></g></g><g class="cls-2"><g class="cls-13"><g class="cls-2"><path class="cls-4" d="M52.24,40l.46,1,15.58,1.78-.47-1L52.24,40" transform="translate(-0.01)"/></g></g></g><path class="cls-14" d="M52,42l-.18,1.3,15.59,1.79.18-1.3Z" transform="translate(-0.01)"/><g class="cls-2"><g class="cls-15"><g class="cls-2"><path class="cls-4" d="M67.36,45.08l.47,1,.18-1.3-.47-1-.18,1.3" transform="translate(-0.01)"/></g></g></g><g class="cls-2"><g class="cls-16"><g class="cls-2"><path class="cls-4" d="M51.77,43.3l.47,1,15.59,1.79-.47-1L51.77,43.3" transform="translate(-0.01)"/></g></g></g><g class="cls-2"><g class="cls-17"><g class="cls-2"><path class="cls-4" d="M47.45,54.83l.47,1,4.41-31.57-.47-1L47.45,54.83" transform="translate(-0.01)"/></g></g></g><g class="cls-2"><g class="cls-18"><g class="cls-2"><path class="cls-4" d="M66.9,48.37l.47,1,.18-1.3-.47-1-.18,1.3" transform="translate(-0.01)"/></g></g></g><g class="cls-2"><g class="cls-19"><g class="cls-2"><path class="cls-4" d="M51.31,46.59l.47,1,15.58,1.78-.47-1L51.31,46.59" transform="translate(-0.01)"/></g></g></g><g class="cls-2"><g class="cls-20"><g class="cls-2"><path class="cls-4" d="M66.43,51.67l.47,1,.18-1.3-.47-1-.18,1.3" transform="translate(-0.01)"/></g></g></g><g class="cls-2"><g class="cls-21"><g class="cls-2"><path class="cls-4" d="M50.85,49.88l.47,1L66.9,52.65l-.47-1L50.85,49.88" transform="translate(-0.01)"/></g></g></g><g class="cls-2"><g class="cls-22"><g class="cls-2"><path class="cls-4" d="M66,55l.47,1,.18-1.3-.47-1L66,55" transform="translate(-0.01)"/></g></g></g><g class="cls-2"><g class="cls-23"><g class="cls-2"><path class="cls-4" d="M50.39,53.17l.47,1,15.58,1.78L66,55,50.39,53.17" transform="translate(-0.01)"/></g></g></g><path class="cls-14" d="M65.55,23.48l2.67.31a.36.36,0,0,1,.2.11l1.22,1.54,3.76,4.8a.29.29,0,0,1,.07.24q-2,14-3.92,28.08s0,.1,0,.15L45.92,56Q48.3,38.9,50.7,21.78l.16,0Q58.21,22.63,65.55,23.48ZM47.45,54.83l20.91,2.39q1.81-13,3.64-26.1l-5.54-.64q.39-2.75.76-5.47L51.86,23.25,47.45,54.83m21-28.68c-.15,1-.29,2.1-.44,3.16l3.21.37-2.77-3.53" transform="translate(-0.01)"/><path class="cls-14" d="M61.13,33c-.06.43-.12.85-.18,1.3l7.79.89.18-1.3Z" transform="translate(-0.01)"/><path class="cls-14" d="M52.87,35.41l-.18,1.3,15.58,1.78.18-1.3Z" transform="translate(-0.01)"/><path class="cls-14" d="M52.42,38.7,52.24,40l15.58,1.78.18-1.3Z" transform="translate(-0.01)"/><path class="cls-14" d="M51.5,45.28l-.18,1.3L66.9,48.36l.18-1.3Z" transform="translate(-0.01)"/><path class="cls-14" d="M51,48.58l-.18,1.3,15.58,1.78.18-1.3Z" transform="translate(-0.01)"/><path class="cls-14" d="M50.58,51.87l-.18,1.3L66,55l.18-1.3Z" transform="translate(-0.01)"/><g class="cls-2"><g class="cls-24"><g class="cls-2"><path class="cls-4" d="M45.93,56l.46,1L70,59.7l-.47-1L45.93,56" transform="translate(-0.01)"/></g></g></g><g class="cls-2"><g class="cls-25"><g class="cls-2"><path class="cls-4" d="M69.53,58.71l.47,1c0-.05,0-.1,0-.15q2-14,3.92-28.08a.29.29,0,0,0,0-.16l-.47-1a.27.27,0,0,1,0,.16q-2,14-3.92,28.08a.77.77,0,0,1,0,.15" transform="translate(-0.01)"/></g></g></g></g><g class="cls-2"><g class="cls-2"><g class="cls-26"><g class="cls-2"><path class="cls-4" d="M32.82,2.21l-.69,1.48L9.3,6.3,10,4.82C17.62,4,25.21,3.09,32.82,2.21" transform="translate(-0.01)"/></g></g></g><g class="cls-2"><g class="cls-27"><g class="cls-2"><path class="cls-4" d="M8.86,11.21l-.69,1.48C8,11.1,7.73,9.54,7.51,8L8.2,6.51c.22,1.55.44,3.12.66,4.7" transform="translate(-0.01)"/></g></g></g><g class="cls-2"><g class="cls-28"><g class="cls-2"><path class="cls-4" d="M8.21,6.51,7.52,8C6.15,9.75,4.77,11.5,3.41,13.24l.69-1.48C5.45,10,6.84,8.27,8.21,6.51" transform="translate(-0.01)"/></g></g></g><g class="cls-2"><g class="cls-29"><g class="cls-2"><path class="cls-4" d="M11.13,13l-.69,1.48-8.24.94.69-1.48L11.13,13" transform="translate(-0.01)"/></g></g></g><g class="cls-2"><g class="cls-30"><g class="cls-2"><path class="cls-4" d="M7.75,20l-.69,1.48-.27-1.93L7.48,18,7.75,20" transform="translate(-0.01)"/></g></g></g><g class="cls-2"><g class="cls-31"><g class="cls-2"><path class="cls-4" d="M19.32,18.64l-.69,1.48L7.06,21.45,7.75,20l11.57-1.33" transform="translate(-0.01)"/></g></g></g><g class="cls-2"><g class="cls-32"><g class="cls-2"><path class="cls-4" d="M31.58,22.21l-.69,1.48L7.74,26.34l.69-1.48,23.15-2.65" transform="translate(-0.01)"/></g></g></g><g class="cls-2"><g class="cls-33"><g class="cls-2"><path class="cls-4" d="M8.43,24.86l-.69,1.48c-.09-.64-.18-1.28-.27-1.94l.69-1.48c.09.66.18,1.3.27,1.94" transform="translate(-0.01)"/></g></g></g><g class="cls-2"><g class="cls-34"><g class="cls-2"><path class="cls-4" d="M9.11,29.75l-.69,1.48L8.15,29.3l.69-1.48.27,1.93" transform="translate(-0.01)"/></g></g></g><g class="cls-2"><g class="cls-35"><g class="cls-2"><path class="cls-4" d="M32.26,27.09l-.69,1.48L8.42,31.22l.69-1.48,23.15-2.65" transform="translate(-0.01)"/></g></g></g><path class="cls-14" d="M32.68,30.06,33,32,9.79,34.64l-.27-1.93Z" transform="translate(-0.01)"/><g class="cls-2"><g class="cls-36"><g class="cls-2"><path class="cls-4" d="M9.79,34.64,9.1,36.12l-.27-1.93.69-1.48.27,1.93" transform="translate(-0.01)"/></g></g></g><g class="cls-2"><g class="cls-37"><g class="cls-2"><path class="cls-4" d="M33,32l-.69,1.48L9.1,36.12l.69-1.48L33,32" transform="translate(-0.01)"/></g></g></g><g class="cls-2"><g class="cls-38"><g class="cls-2"><path class="cls-4" d="M39.37,49.13l-.69,1.48Q35.41,27.14,32.13,3.69l.69-1.48q3.28,23.46,6.55,46.92" transform="translate(-0.01)"/></g></g></g><g class="cls-2"><g class="cls-39"><g class="cls-2"><path class="cls-4" d="M10.48,39.53,9.79,41c-.09-.66-.18-1.29-.27-1.94l.69-1.48c.09.65.18,1.28.27,1.94" transform="translate(-0.01)"/></g></g></g><g class="cls-2"><g class="cls-40"><g class="cls-2"><path class="cls-4" d="M33.63,36.88l-.69,1.48L9.79,41l.69-1.48,23.15-2.65" transform="translate(-0.01)"/></g></g></g><g class="cls-2"><g class="cls-41"><g class="cls-2"><path class="cls-4" d="M11.17,44.42l-.69,1.48c-.09-.64-.18-1.28-.27-1.94l.69-1.48c.09.67.18,1.3.27,1.94" transform="translate(-0.01)"/></g></g></g><g class="cls-2"><g class="cls-42"><g class="cls-2"><path class="cls-4" d="M34.32,41.77l-.69,1.48L10.48,45.9l.69-1.48,23.15-2.65" transform="translate(-0.01)"/></g></g></g><g class="cls-2"><g class="cls-43"><g class="cls-2"><path class="cls-4" d="M11.84,49.32l-.69,1.48-.27-1.93.69-1.48c.1.64.18,1.28.27,1.93" transform="translate(-0.01)"/></g></g></g><g class="cls-2"><g class="cls-44"><g class="cls-2"><path class="cls-4" d="M35,46.66l-.69,1.48L11.16,50.79l.69-1.48L35,46.66" transform="translate(-0.01)"/></g></g></g><path class="cls-14" d="M34.3,0l.23,0q3.55,25.44,7.1,50.87l-35.08,4,0-.22Q3.61,33.8.69,12.94a.43.43,0,0,1,.1-.35L6.38,5.46l1.81-2.3A.6.6,0,0,1,8.49,3l4-.46Zm5.07,49.1Q36.1,25.65,32.82,2.21L10,4.82,11.13,13l-8.24.94Q5.61,33.3,8.31,52.68l31.06-3.55M8.21,6.51,4.1,11.76l4.77-.55c-.23-1.58-.45-3.15-.66-4.7" transform="translate(-0.01)"/><path class="cls-14" d="M19.05,16.7c.09.64.18,1.27.27,1.93L7.75,20,7.48,18Z" transform="translate(-0.01)"/><path class="cls-14" d="M31.31,20.27l.27,1.94L8.43,24.86c-.09-.64-.18-1.28-.27-1.94Z" transform="translate(-0.01)"/><path class="cls-14" d="M32,25.16c.09.63.18,1.28.27,1.93L9.11,29.74l-.27-1.93Z" transform="translate(-0.01)"/><path class="cls-14" d="M33.36,34.94l.27,1.94L10.48,39.53c-.09-.66-.18-1.29-.27-1.94Z" transform="translate(-0.01)"/><path class="cls-14" d="M34.05,39.83c.09.66.18,1.29.27,1.94L11.17,44.42c-.09-.64-.18-1.28-.27-1.94Z" transform="translate(-0.01)"/><path class="cls-14" d="M34.73,44.73,35,46.66,11.85,49.31l-.27-1.93Z" transform="translate(-0.01)"/><g class="cls-2"><g class="cls-45"><g class="cls-2"><path class="cls-4" d="M41.63,50.87l-.69,1.48-35.08,4,.69-1.48,35.08-4" transform="translate(-0.01)"/></g></g></g><g class="cls-2"><g class="cls-46"><g class="cls-2"><path class="cls-4" d="M6.56,54.89l-.69,1.48,0-.22Q2.93,35.29,0,14.42a.47.47,0,0,1,0-.24L.73,12.7a.45.45,0,0,0,0,.24Q3.61,33.81,6.53,54.67l0,.22" transform="translate(-0.01)"/></g></g></g></g></g></g></svg>