<svg xmlns="http://www.w3.org/2000/svg" viewBox="0 0 39.36 50.28"><defs><style>.cls-1{isolation:isolate;}.cls-2{fill:#817330;}.cls-3{fill:#e1c458;}</style></defs><title>icon-9</title><g id="Layer_2" data-name="Layer 2"><g id="Layer_1-2" data-name="Layer 1"><g class="cls-1"><polygon class="cls-2" points="36.34 3.27 35.73 4.54 7.98 4.29 8.59 3.02 36.34 3.27"/><polygon class="cls-2" points="35.99 45.99 35.38 47.26 35.73 4.54 36.34 3.27 35.99 45.99"/><polygon class="cls-2" points="5.21 48.71 4.6 49.98 5 1.27 5.61 0 5.21 48.71"/><polygon class="cls-2" points="38.96 49.01 38.35 50.28 4.6 49.98 5.21 48.71 38.96 49.01"/><path class="cls-3" d="M5.61,0,39.36.3,39,49l-33.75-.3ZM36,46l.35-42.72L8.59,3,8.24,45.74,36,46"/></g><g class="cls-1"><polygon class="cls-2" points="31.42 18.67 30.81 19.94 12.94 19.78 13.55 18.51 31.42 18.67"/><polygon class="cls-2" points="13.55 18.51 12.94 19.78 12.96 17.21 13.57 15.95 13.55 18.51"/><rect class="cls-3" x="21.21" y="8.38" width="2.56" height="17.87" transform="translate(5 39.66) rotate(-89.53)"/></g><g class="cls-1"><polygon class="cls-2" points="31.21 13.67 30.6 14.94 12.73 14.78 13.34 13.51 31.21 13.67"/><polygon class="cls-2" points="13.34 13.51 12.73 14.78 12.75 12.22 13.36 10.95 13.34 13.51"/><rect class="cls-3" x="21.01" y="3.37" width="2.56" height="17.87" transform="translate(9.8 34.5) rotate(-89.53)"/></g><g class="cls-1"><polygon class="cls-2" points="31.01 8.69 30.4 9.96 12.53 9.8 13.14 8.53 31.01 8.69"/><polygon class="cls-2" points="13.14 8.53 12.53 9.8 12.55 7.23 13.16 5.97 13.14 8.53"/><rect class="cls-3" x="20.8" y="-1.61" width="2.56" height="17.87" transform="translate(14.58 29.35) rotate(-89.53)"/></g><g class="cls-1"><polygon class="cls-2" points="31.42 23.26 30.81 24.53 12.94 24.37 13.55 23.1 31.42 23.26"/><polygon class="cls-2" points="13.55 23.1 12.94 24.37 12.96 21.81 13.57 20.55 13.55 23.1"/><rect class="cls-3" x="21.22" y="12.97" width="2.55" height="17.87" transform="translate(0.42 44.22) rotate(-89.53)"/></g><g class="cls-1"><polygon class="cls-2" points="31.42 27.86 30.81 29.13 12.94 28.97 13.55 27.7 31.42 27.86"/><polygon class="cls-2" points="13.55 27.7 12.94 28.97 12.96 26.4 13.57 25.14 13.55 27.7"/><rect class="cls-3" x="21.22" y="17.56" width="2.56" height="17.87" transform="translate(-4.19 48.78) rotate(-89.53)"/></g><g class="cls-1"><polygon class="cls-2" points="31.42 32.46 30.81 33.72 12.94 33.56 13.55 32.3 31.42 32.46"/><polygon class="cls-2" points="13.55 32.3 12.94 33.56 12.96 31 13.57 29.73 13.55 32.3"/><rect class="cls-3" x="21.22" y="22.16" width="2.56" height="17.87" transform="translate(-8.78 53.34) rotate(-89.53)"/></g><g class="cls-1"><polygon class="cls-2" points="31.42 37.06 30.81 38.32 12.94 38.16 13.55 36.9 31.42 37.06"/><polygon class="cls-2" points="13.55 36.9 12.94 38.16 12.96 35.6 13.57 34.33 13.55 36.9"/><rect class="cls-3" x="21.22" y="26.76" width="2.56" height="17.87" transform="translate(-13.38 57.9) rotate(-89.53)"/></g><g class="cls-1"><polygon class="cls-2" points="31.42 41.66 30.81 42.92 12.94 42.76 13.55 41.5 31.42 41.66"/><polygon class="cls-2" points="13.55 41.5 12.94 42.76 12.96 40.2 13.57 38.93 13.55 41.5"/><rect class="cls-3" x="21.22" y="31.36" width="2.56" height="17.87" transform="translate(-17.98 62.47) rotate(-89.53)"/></g><g class="cls-1"><polygon class="cls-2" points="3.71 48.88 3.1 50.14 0 50.11 0.61 48.85 3.71 48.88"/><polygon class="cls-2" points="0.61 48.85 0 50.11 0.39 1.41 1 0.14 0.61 48.85"/><rect class="cls-3" x="-21.99" y="22.96" width="48.71" height="3.1" transform="translate(-22.17 26.67) rotate(-89.53)"/></g></g></g></svg>