<svg xmlns="http://www.w3.org/2000/svg" xmlns:xlink="http://www.w3.org/1999/xlink" viewBox="0 0 75.02 28"><defs><style>.cls-1,.cls-2{fill:none;}.cls-2{clip-rule:evenodd;}.cls-3{isolation:isolate;}.cls-4{clip-path:url(#clip-path);}.cls-5{fill:url(#radial-gradient);}.cls-6{fill:#512f19;}.cls-14,.cls-19,.cls-6,.cls-7{fill-rule:evenodd;}.cls-7{fill:#866c2a;}.cls-8{clip-path:url(#clip-path-2);}.cls-9{fill:url(#radial-gradient-2);}.cls-10{clip-path:url(#clip-path-3);}.cls-11{fill:url(#radial-gradient-3);}.cls-12{clip-path:url(#clip-path-4);}.cls-13{fill:url(#linear-gradient);}.cls-14{fill:#eda4a5;}.cls-15{opacity:0.5;mix-blend-mode:multiply;}.cls-16{clip-path:url(#clip-path-5);}.cls-17{clip-path:url(#clip-path-6);}.cls-18{fill:url(#linear-gradient-2);}.cls-19{fill:#ac5d78;}.cls-20{fill:#d77f78;}.cls-21{clip-path:url(#clip-path-7);}.cls-22{clip-path:url(#clip-path-8);}.cls-23{fill:url(#linear-gradient-3);}.cls-24{clip-path:url(#clip-path-9);}.cls-25{clip-path:url(#clip-path-10);}.cls-26{fill:url(#linear-gradient-4);}.cls-27{clip-path:url(#clip-path-11);}.cls-28{clip-path:url(#clip-path-12);}.cls-29{fill:url(#radial-gradient-4);}.cls-30{clip-path:url(#clip-path-13);}.cls-31{fill:url(#linear-gradient-5);}.cls-32{clip-path:url(#clip-path-14);}.cls-33{fill:url(#linear-gradient-6);}</style><clipPath id="clip-path"><polygon class="cls-1" points="0.72 12.88 25 24.5 25 26.2 32 25.98 32 24.21 56.97 20.3 75.02 7.75 41.64 13.65 39.43 15.28 36.95 14.79 37.28 13.43 17.56 4.27 0.72 12.88"/></clipPath><radialGradient id="radial-gradient" cx="-309.72" cy="172.66" r="1" gradientTransform="matrix(27.39, 0, 0, -27.39, 8520.65, 4743.84)" gradientUnits="userSpaceOnUse"><stop offset="0" stop-color="#754c1e"/><stop offset="0.02" stop-color="#754c1e"/><stop offset="0.96" stop-color="#504118"/><stop offset="0.99" stop-color="#4f4118"/><stop offset="1" stop-color="#4f4118"/></radialGradient><clipPath id="clip-path-2"><polygon class="cls-1" points="41.64 13.65 31.39 23.85 56.56 19.45 74.65 6.48 41.64 13.65"/></clipPath><radialGradient id="radial-gradient-2" cx="-314.81" cy="171.74" r="0.99" gradientTransform="matrix(16.48, 0, 0, -16.48, 5242.89, 2846.53)" xlink:href="#radial-gradient"/><clipPath id="clip-path-3"><polygon class="cls-1" points="0.72 11.23 25.16 23.53 37.28 13.43 17.56 4.27 0.72 11.23"/></clipPath><radialGradient id="radial-gradient-3" cx="-316.52" cy="171.5" r="1.01" gradientTransform="matrix(14.61, 0, 0, -14.61, 4642.67, 2519.04)" xlink:href="#radial-gradient"/><clipPath id="clip-path-4"><path class="cls-1" d="M56.19,4.89C50.33,6.36,44.6,7.59,43.37,8.24a23.11,23.11,0,0,0-3.52,3s.65-2,.24-2.82S25.43,6,19.29,2.35L2,6.47l0,4.08L25.27,23.12l-.11,2.16s4.18-1.23,5.84-.06V23.86l1-1,23-4.29L71.71,7l.53-5.58-5,2.91,5-4c-.31.1-10.27,3.05-16,4.51"/></clipPath><linearGradient id="linear-gradient" x1="-305.02" y1="173.48" x2="-304.02" y2="173.48" gradientTransform="matrix(70.24, 0, 0, -70.24, 21425.73, 12197.27)" gradientUnits="userSpaceOnUse"><stop offset="0" stop-color="#fddbd4"/><stop offset="0.86" stop-color="#ffe1c1"/><stop offset="1" stop-color="#ffe2bd"/></linearGradient><clipPath id="clip-path-5"><rect class="cls-1" x="25" y="8" width="15" height="15"/></clipPath><clipPath id="clip-path-6"><path class="cls-2" d="M40.23,11.23l-9.61,8.51a11.16,11.16,0,0,0-2.07,3.37s-1.82-2.8-3.29-3.65l15.21-11s.41.73-.24,2.82"/></clipPath><linearGradient id="linear-gradient-2" x1="-304.5" y1="188.39" x2="-303.48" y2="188.39" gradientTransform="matrix(0, -14.7, -14.7, 0, 2802.41, -4453.28)" gradientUnits="userSpaceOnUse"><stop offset="0" stop-color="#7c1239"/><stop offset="0.09" stop-color="#811a40"/><stop offset="0.23" stop-color="#8d3153"/><stop offset="0.41" stop-color="#a25772"/><stop offset="0.61" stop-color="#bf8b9e"/><stop offset="0.84" stop-color="#e3ccd5"/><stop offset="1" stop-color="#fff"/></linearGradient><clipPath id="clip-path-7"><rect class="cls-1" x="10" y="4" width="23" height="11"/></clipPath><clipPath id="clip-path-8"><path class="cls-2" d="M10,7.57v.95L22.41,15h2.95L33,10.17V9.1A69.54,69.54,0,0,1,20,4.39l-1.43.09Z"/></clipPath><linearGradient id="linear-gradient-3" x1="-305.49" y1="193.93" x2="-304.45" y2="193.93" gradientTransform="matrix(0, -10.61, -10.61, 0, 2079.9, -3227.52)" gradientUnits="userSpaceOnUse"><stop offset="0" stop-color="#c35784"/><stop offset="0.24" stop-color="#cf7291"/><stop offset="0.74" stop-color="#edb5b2"/><stop offset="1" stop-color="#fddac4"/></linearGradient><clipPath id="clip-path-9"><rect class="cls-1" x="36" y="3" width="29" height="13"/></clipPath><clipPath id="clip-path-10"><path class="cls-2" d="M35.82,16.63l8.66-8.22L65,3.16,54.27,11.23s-14.62,3.51-18.45,5.4"/></clipPath><linearGradient id="linear-gradient-4" x1="-309.24" y1="172.75" x2="-308.25" y2="172.75" gradientTransform="matrix(29.19, 0, 0, -29.19, 9062.91, 5052.11)" gradientUnits="userSpaceOnUse"><stop offset="0" stop-color="#c35784"/><stop offset="0.13" stop-color="#c8648d"/><stop offset="0.36" stop-color="#d486a6"/><stop offset="0.67" stop-color="#e8bdcf"/><stop offset="1" stop-color="#fff"/></linearGradient><clipPath id="clip-path-11"><rect class="cls-1" x="31" y="19" width="24" height="5"/></clipPath><clipPath id="clip-path-12"><polygon class="cls-2" points="55.42 18.54 52.88 20.1 31.39 23.85 32.41 22.84 55.42 18.54"/></clipPath><radialGradient id="radial-gradient-4" cx="-326.36" cy="169.73" r="1" gradientTransform="matrix(8.7, 0, 0, -8.7, 2883.17, 1498.53)" gradientUnits="userSpaceOnUse"><stop offset="0" stop-color="#b36e58"/><stop offset="0.51" stop-color="#984149"/><stop offset="1" stop-color="#7c1239"/></radialGradient><clipPath id="clip-path-13"><path class="cls-1" d="M45,18.23A18.43,18.43,0,0,0,42,23.54l.84.72,3.21-.72s1.37-4.68,3.23-6.24Z"/></clipPath><linearGradient id="linear-gradient-5" x1="-307.26" y1="204.4" x2="-306.25" y2="204.4" gradientTransform="matrix(0, -6.97, -6.97, 0, 1469.46, -2116.49)" gradientUnits="userSpaceOnUse"><stop offset="0" stop-color="#b72425"/><stop offset="0.02" stop-color="#b72425"/><stop offset="0.8" stop-color="#b42034"/><stop offset="0.99" stop-color="#b31f38"/><stop offset="1" stop-color="#b31f38"/></linearGradient><clipPath id="clip-path-14"><path class="cls-1" d="M32.56,20.38a15.16,15.16,0,0,0-2.47,6.09l1,1.82,2.47-1.67S35.1,20.8,36,19.4Z"/></clipPath><linearGradient id="linear-gradient-6" x1="-306.12" y1="197.81" x2="-305.11" y2="197.81" gradientTransform="matrix(0, -8.89, -8.89, 0, 1791.25, -2692.94)" xlink:href="#linear-gradient-5"/></defs><title>icon-37</title><g class="cls-3"><g id="Layer_2" data-name="Layer 2"><g id="Layer_1-2" data-name="Layer 1"><g class="cls-4"><rect class="cls-5" x="1" y="4" width="74" height="22"/></g><polygon class="cls-6" points="74.65 6.48 75.02 7.75 56.97 20.3 32 24.21 32 25.99 25 26.19 24.98 24.56 1 12.83 1 11.15 25.7 23.58 25.81 25.73 32 25.29 32 23.85 56.56 19.46 74.65 6.48"/><polygon class="cls-6" points="32 25.98 43.82 13.39 41.72 13.65 32 23.53 32 25.98"/><polygon class="cls-7" points="56.56 19.46 56.97 20.3 75.02 7.75 74.65 6.48 56.56 19.46"/><g class="cls-8"><rect class="cls-9" x="32" y="7" width="43" height="17"/></g><g class="cls-10"><rect class="cls-11" y="4" width="37" height="19"/></g><g class="cls-12"><rect class="cls-13" x="2" width="70" height="25"/></g><polygon class="cls-14" points="54.6 12.83 72.59 0.39 68.39 3.83 72.6 1.45 72.07 7.04 55.42 18.54 54.6 12.83"/><g class="cls-15"><g class="cls-16"><g class="cls-17"><rect class="cls-18" x="25" y="8" width="16" height="15"/></g></g></g><path class="cls-19" d="M55,18.54,32,22.83l-1,1v1.36c-1.66-1.17-5.83.05-5.83.05l.11-2.16L2,10.55,2,6.49c3.47,3.46,20.89,11.56,22.84,13a13.88,13.88,0,0,1,3.28,3.65S30,20,31.54,19.45s22.65-6.62,22.65-6.62Z"/><path class="cls-20" d="M24.5,16.81l-.08,0c-5-1.43-18-9.39-18.18-9.47l-.33-.2,13.87-3.8.06,0a65.45,65.45,0,0,0,16,5.47l.4.07ZM6.73,7.24c2,1.23,13.15,7.87,17.71,9.21l11-7.38a66.72,66.72,0,0,1-15.65-5.4Z"/><g class="cls-15"><g class="cls-21"><g class="cls-22"><rect class="cls-23" x="10" y="4" width="23" height="11"/></g></g></g><g class="cls-15"><g class="cls-24"><g class="cls-25"><rect class="cls-26" x="36" y="3" width="29" height="13"/></g></g></g><g class="cls-15"><g class="cls-27"><g class="cls-28"><rect class="cls-29" x="31" y="19" width="24" height="5"/></g></g></g><g class="cls-30"><rect class="cls-31" x="42" y="17" width="7" height="7"/></g><g class="cls-32"><rect class="cls-33" x="30" y="19" width="6" height="9"/></g></g></g></g></svg>