<svg xmlns="http://www.w3.org/2000/svg" xmlns:xlink="http://www.w3.org/1999/xlink" viewBox="0 0 51.69 74.99"><defs><style>.cls-1{fill:none;}.cls-2{isolation:isolate;}.cls-3{clip-path:url(#clip-path);}.cls-4{fill:#966c16;}.cls-5{clip-path:url(#clip-path-2);}.cls-6{clip-path:url(#clip-path-3);}.cls-7{clip-path:url(#clip-path-4);}.cls-8{clip-path:url(#clip-path-5);}.cls-9{clip-path:url(#clip-path-6);}.cls-10{clip-path:url(#clip-path-7);}.cls-11{clip-path:url(#clip-path-8);}.cls-12{clip-path:url(#clip-path-9);}.cls-13{clip-path:url(#clip-path-10);}.cls-14{fill:#e1c458;}.cls-15{clip-path:url(#clip-path-11);}.cls-16{clip-path:url(#clip-path-12);}.cls-17{clip-path:url(#clip-path-13);}.cls-18{clip-path:url(#clip-path-14);}.cls-19{clip-path:url(#clip-path-15);}.cls-20{clip-path:url(#clip-path-16);}.cls-21{clip-path:url(#clip-path-17);}.cls-22{clip-path:url(#clip-path-18);}.cls-23{clip-path:url(#clip-path-19);}.cls-24{clip-path:url(#clip-path-20);}.cls-25{clip-path:url(#clip-path-21);}</style><clipPath id="clip-path"><path class="cls-1" d="M48.15,3.32,46.91,5.26,14.47,4.79l1.24-1.94Z"/></clipPath><clipPath id="clip-path-2"><path class="cls-1" d="M13,11.59l-1.24,1.94c0-2.26-.05-4.49-.07-6.7l1.24-1.94C12.93,7.09,13,9.33,13,11.59Z"/></clipPath><clipPath id="clip-path-3"><path class="cls-1" d="M12.91,4.89,11.67,6.83,5,13.43,6.2,11.49Z"/></clipPath><clipPath id="clip-path-4"><path class="cls-1" d="M15.84,14.44,14.6,16.38,2.89,16.21l1.24-1.94Z"/></clipPath><clipPath id="clip-path-5"><path class="cls-1" d="M9.83,23.63,8.59,25.57c0-.93,0-1.84,0-2.75L9.8,20.88C9.81,21.8,9.82,22.7,9.83,23.63Z"/></clipPath><clipPath id="clip-path-6"><path class="cls-1" d="M26.27,23.87,25,25.81,8.59,25.57l1.24-1.94Z"/></clipPath><clipPath id="clip-path-7"><path class="cls-1" d="M42.8,31.09,41.56,33l-32.9-.48L9.9,30.62Z"/></clipPath><clipPath id="clip-path-8"><path class="cls-1" d="M9.9,30.61,8.66,32.55c0-.92,0-1.83,0-2.76l1.24-1.94C9.88,28.79,9.89,29.7,9.9,30.61Z"/></clipPath><clipPath id="clip-path-9"><path class="cls-1" d="M10,37.58,8.72,39.52c0-.93,0-1.83,0-2.75l1.24-1.94C10,35.75,10,36.65,10,37.58Z"/></clipPath><clipPath id="clip-path-10"><path class="cls-1" d="M42.86,38.06,41.62,40l-32.9-.48L10,37.58Z"/></clipPath><clipPath id="clip-path-11"><path class="cls-1" d="M10,44.55,8.79,46.49c0-.92,0-1.82,0-2.75L10,41.8C10,42.73,10,43.63,10,44.55Z"/></clipPath><clipPath id="clip-path-12"><path class="cls-1" d="M42.94,45,41.7,47,8.8,46.5,10,44.56Z"/></clipPath><clipPath id="clip-path-13"><path class="cls-1" d="M48.83,70.2l-1.24,1.94q-.35-33.47-.68-66.88l1.24-1.94Q48.5,36.76,48.83,70.2Z"/></clipPath><clipPath id="clip-path-14"><path class="cls-1" d="M10.11,51.53,8.87,53.47c0-.94,0-1.84,0-2.76l1.24-1.94C10.1,49.68,10.1,50.59,10.11,51.53Z"/></clipPath><clipPath id="clip-path-15"><path class="cls-1" d="M43,52l-1.23,2-32.9-.48,1.24-1.94Z"/></clipPath><clipPath id="clip-path-16"><path class="cls-1" d="M10.19,58.5,9,60.44c0-.91,0-1.82,0-2.76l1.24-1.94C10.18,56.68,10.19,57.59,10.19,58.5Z"/></clipPath><clipPath id="clip-path-17"><path class="cls-1" d="M43.08,59l-1.24,1.94L9,60.44l1.24-1.94Z"/></clipPath><clipPath id="clip-path-18"><path class="cls-1" d="M10.26,65.47,9,67.41l0-2.75,1.24-1.94Z"/></clipPath><clipPath id="clip-path-19"><path class="cls-1" d="M43.16,66l-1.24,1.94L9,67.41l1.24-1.94Z"/></clipPath><clipPath id="clip-path-20"><path class="cls-1" d="M51.68,73.05,50.44,75,.6,74.27l1.24-1.94Q26.82,72.68,51.68,73.05Z"/></clipPath><clipPath id="clip-path-21"><path class="cls-1" d="M.08,14.15l1.24-1.94a.48.48,0,0,0-.08.32L1.84,72v.32L.6,74.27V74L0,14.47A.55.55,0,0,1,.08,14.15Z"/></clipPath></defs><title>icon-6</title><g id="Layer_2" data-name="Layer 2"><g id="Layer_1-2" data-name="Layer 1"><g class="cls-2"><g class="cls-2"><g class="cls-3"><g class="cls-2"><path class="cls-4" d="M48.15,3.32,46.91,5.26,14.47,4.79l1.24-1.94,32.44.47"/></g></g></g><g class="cls-2"><g class="cls-5"><g class="cls-2"><path class="cls-4" d="M13,11.59l-1.24,1.94c0-2.26-.05-4.49-.07-6.7l1.24-1.94c0,2.2,0,4.44.07,6.7"/></g></g></g><g class="cls-2"><g class="cls-6"><g class="cls-2"><path class="cls-4" d="M12.91,4.89,11.67,6.83,5,13.43,6.2,11.49l6.71-6.6"/></g></g></g><g class="cls-2"><g class="cls-7"><g class="cls-2"><path class="cls-4" d="M15.84,14.44,14.6,16.38,2.89,16.21l1.24-1.94,11.71.17"/></g></g></g><g class="cls-2"><g class="cls-8"><g class="cls-2"><path class="cls-4" d="M9.83,23.63,8.59,25.57c0-.93,0-1.84,0-2.75L9.8,20.88c0,.92,0,1.82,0,2.75"/></g></g></g><g class="cls-2"><g class="cls-9"><g class="cls-2"><path class="cls-4" d="M26.27,23.87,25,25.81,8.59,25.57l1.24-1.94,16.44.24"/></g></g></g><g class="cls-2"><g class="cls-10"><g class="cls-2"><path class="cls-4" d="M42.8,31.09,41.56,33l-32.9-.48L9.9,30.62l32.9.47"/></g></g></g><g class="cls-2"><g class="cls-11"><g class="cls-2"><path class="cls-4" d="M9.9,30.61,8.66,32.55c0-.92,0-1.83,0-2.76l1.24-1.94c0,.94,0,1.85,0,2.76"/></g></g></g><g class="cls-2"><g class="cls-12"><g class="cls-2"><path class="cls-4" d="M10,37.58,8.72,39.52c0-.93,0-1.83,0-2.75l1.24-1.94c0,.92,0,1.82,0,2.75"/></g></g></g><g class="cls-2"><g class="cls-13"><g class="cls-2"><path class="cls-4" d="M42.86,38.06,41.62,40l-32.9-.48L10,37.58l32.9.48"/></g></g></g><path class="cls-14" d="M42.92,42.28c0,.91,0,1.82,0,2.75L10,44.55c0-.92,0-1.82,0-2.75Q26.45,42.06,42.92,42.28Z"/><g class="cls-2"><g class="cls-15"><g class="cls-2"><path class="cls-4" d="M10,44.55,8.79,46.49c0-.92,0-1.82,0-2.75L10,41.8c0,.93,0,1.83,0,2.75"/></g></g></g><g class="cls-2"><g class="cls-16"><g class="cls-2"><path class="cls-4" d="M42.94,45,41.7,47,8.8,46.5,10,44.56l32.9.47"/></g></g></g><g class="cls-2"><g class="cls-17"><g class="cls-2"><path class="cls-4" d="M48.83,70.2l-1.24,1.94q-.35-33.47-.68-66.88l1.24-1.94q.35,33.44.68,66.88"/></g></g></g><g class="cls-2"><g class="cls-18"><g class="cls-2"><path class="cls-4" d="M10.11,51.53,8.87,53.47c0-.94,0-1.84,0-2.76l1.24-1.94c0,.91,0,1.82,0,2.76"/></g></g></g><g class="cls-2"><g class="cls-19"><g class="cls-2"><path class="cls-4" d="M43,52l-1.23,2-32.9-.48,1.24-1.94L43,52"/></g></g></g><g class="cls-2"><g class="cls-20"><g class="cls-2"><path class="cls-4" d="M10.19,58.5,9,60.44c0-.91,0-1.82,0-2.76l1.24-1.94c0,.94,0,1.85,0,2.76"/></g></g></g><g class="cls-2"><g class="cls-21"><g class="cls-2"><path class="cls-4" d="M43.08,59l-1.24,1.94L9,60.44l1.24-1.94L43.08,59"/></g></g></g><g class="cls-2"><g class="cls-22"><g class="cls-2"><path class="cls-4" d="M10.26,65.47,9,67.41l0-2.75,1.24-1.94,0,2.75"/></g></g></g><g class="cls-2"><g class="cls-23"><g class="cls-2"><path class="cls-4" d="M43.16,66l-1.24,1.94L9,67.41l1.24-1.94,32.9.48"/></g></g></g><path class="cls-14" d="M50.62.53H51q.38,36.27.74,72.51L1.85,72.32V72l-.6-59.48a.59.59,0,0,1,.21-.47l9.12-9c1-1,1.95-1.93,2.94-2.89A.75.75,0,0,1,14,0L19.6.07ZM48.83,70.2q-.34-33.47-.68-66.88L15.71,2.85l.12,11.59L4.12,14.27q.28,27.67.56,55.29l44.15.64M12.91,4.89,6.2,11.49l6.78.1c0-2.26-.05-4.5-.07-6.7"/><path class="cls-14" d="M26.24,21.12c0,.91,0,1.81,0,2.75L9.83,23.63c0-.93,0-1.84,0-2.75Z"/><path class="cls-14" d="M42.77,28.33c0,.93,0,1.84,0,2.76L9.9,30.61l0-2.76Z"/><path class="cls-14" d="M42.84,35.3c0,.9,0,1.82,0,2.75L10,37.57c0-.93,0-1.83,0-2.75Z"/><path class="cls-14" d="M43,49.24c0,.93,0,1.84,0,2.76l-32.9-.48c0-.94,0-1.84,0-2.76Z"/><path class="cls-14" d="M43.06,56.21c0,.94,0,1.84,0,2.76L10.2,58.49c0-.91,0-1.82,0-2.76Z"/><path class="cls-14" d="M43.13,63.2c0,.93,0,1.84,0,2.75l-32.9-.48,0-2.75Z"/><g class="cls-2"><g class="cls-24"><g class="cls-2"><path class="cls-4" d="M51.68,73.05,50.44,75,.6,74.27l1.24-1.94q25,.35,49.84.72"/></g></g></g><g class="cls-2"><g class="cls-25"><g class="cls-2"><path class="cls-4" d="M1.84,72.32.6,74.26v-.32L0,14.46a.61.61,0,0,1,.08-.32L1.32,12.2a.48.48,0,0,0-.08.32L1.84,72v.32"/></g></g></g></g></g></g></svg>