<svg id="Layer_1" data-name="Layer 1" xmlns="http://www.w3.org/2000/svg" xmlns:xlink="http://www.w3.org/1999/xlink" viewBox="0 0 80 100"><defs><style>.cls-1{fill:none;}.cls-2{clip-path:url(#clip-path);}.cls-3{fill:url(#radial-gradient);}.cls-4{fill:#512f19;}.cls-12,.cls-17,.cls-4,.cls-5{fill-rule:evenodd;}.cls-5{fill:#866c2a;}.cls-6{clip-path:url(#clip-path-2);}.cls-7{fill:url(#radial-gradient-2);}.cls-8{clip-path:url(#clip-path-3);}.cls-9{fill:url(#radial-gradient-3);}.cls-10{clip-path:url(#clip-path-4);}.cls-11{fill:url(#linear-gradient);}.cls-12{fill:#eda4a5;}.cls-13{opacity:0.5;}.cls-14{clip-path:url(#clip-path-5);}.cls-15{clip-path:url(#clip-path-6);}.cls-16{fill:url(#linear-gradient-2);}.cls-17{fill:#ac5d78;}.cls-18{fill:#d77f78;}.cls-19{clip-path:url(#clip-path-7);}.cls-20{clip-path:url(#clip-path-8);}.cls-21{fill:url(#linear-gradient-3);}.cls-22{clip-path:url(#clip-path-9);}.cls-23{clip-path:url(#clip-path-10);}.cls-24{fill:url(#linear-gradient-4);}.cls-25{clip-path:url(#clip-path-11);}.cls-26{clip-path:url(#clip-path-12);}.cls-27{fill:url(#radial-gradient-4);}.cls-28{clip-path:url(#clip-path-13);}.cls-29{fill:url(#linear-gradient-5);}.cls-30{clip-path:url(#clip-path-14);}.cls-31{fill:url(#linear-gradient-6);}</style><clipPath id="clip-path"><polygon class="cls-1" points="1 51.81 26.49 64.01 26.49 65.79 33.84 65.56 33.84 63.7 60.05 59.6 79 46.42 43.96 52.62 41.64 54.33 39.03 53.81 39.38 52.39 18.68 42.77 1 51.81"/></clipPath><radialGradient id="radial-gradient" cx="-308.68" cy="-70.27" r="1.05" gradientTransform="translate(8494.26 1978.45) scale(27.39)" gradientUnits="userSpaceOnUse"><stop offset="0" stop-color="#754c1e"/><stop offset="0.02" stop-color="#754c1e"/><stop offset="0.96" stop-color="#504118"/><stop offset="0.99" stop-color="#4f4118"/><stop offset="1" stop-color="#4f4118"/></radialGradient><clipPath id="clip-path-2"><polygon class="cls-1" points="43.96 52.62 33.2 63.33 59.62 58.71 78.61 45.09 43.96 52.62"/></clipPath><radialGradient id="radial-gradient-2" cx="-313.69" cy="-68.43" r="1.04" gradientTransform="translate(5227.41 1183.05) scale(16.48)" xlink:href="#radial-gradient"/><clipPath id="clip-path-3"><polygon class="cls-1" points="1 50.08 26.66 62.99 39.38 52.39 18.68 42.77 1 50.08"/></clipPath><radialGradient id="radial-gradient-3" cx="-315.51" cy="-67.9" r="1.06" gradientTransform="translate(4629.06 1044.43) scale(14.61)" xlink:href="#radial-gradient"/><clipPath id="clip-path-4"><path class="cls-1" d="M59.23,43.42C53.08,45,47.07,46.26,45.77,46.94a24.09,24.09,0,0,0-3.69,3.15s.68-2.1.25-3-15.39-2.54-21.84-6.38L2.34,45.08v4.28l24.43,13.2-.11,2.27s4.39-1.29,6.13-.07V63.34l1.05-1.05L58,57.78,75.53,45.64l.55-5.86-5.25,3,5.25-4.2c-.32.11-10.78,3.21-16.8,4.74"/></clipPath><linearGradient id="linear-gradient" x1="-304.03" y1="-71.93" x2="-302.98" y2="-71.93" gradientTransform="translate(21356.49 5104.03) scale(70.24)" gradientUnits="userSpaceOnUse"><stop offset="0" stop-color="#fddbd4"/><stop offset="0.86" stop-color="#ffe1c1"/><stop offset="1" stop-color="#ffe2bd"/></linearGradient><clipPath id="clip-path-5"><rect class="cls-1" x="26.49" y="46.69" width="15.75" height="15.75"/></clipPath><clipPath id="clip-path-6"><path class="cls-1" d="M42.48,50.08,32.39,59a11.53,11.53,0,0,0-2.17,3.54s-1.91-2.94-3.46-3.83l16-11.55s.43.77-.25,3"/></clipPath><linearGradient id="linear-gradient-2" x1="-306.11" y1="-87.33" x2="-305.04" y2="-87.33" gradientTransform="translate(1318.71 -4437.58) rotate(-90) scale(14.7)" gradientUnits="userSpaceOnUse"><stop offset="0" stop-color="#7c1239"/><stop offset="0.09" stop-color="#811a40"/><stop offset="0.23" stop-color="#8d3153"/><stop offset="0.41" stop-color="#a25772"/><stop offset="0.61" stop-color="#bf8b9e"/><stop offset="0.84" stop-color="#e3ccd5"/><stop offset="1" stop-color="#fff"/></linearGradient><clipPath id="clip-path-7"><rect class="cls-1" x="10.74" y="42.49" width="24.15" height="11.55"/></clipPath><clipPath id="clip-path-8"><path class="cls-1" d="M10.74,46.23v1l13,6.8h3.1l8-5.07V47.84A73.46,73.46,0,0,1,21.24,42.9l-1.5.09Z"/></clipPath><linearGradient id="linear-gradient-3" x1="-308.07" y1="-92.98" x2="-306.98" y2="-92.98" gradientTransform="translate(1009.29 -3215.91) rotate(-90) scale(10.61)" gradientUnits="userSpaceOnUse"><stop offset="0" stop-color="#c35784"/><stop offset="0.24" stop-color="#cf7291"/><stop offset="0.74" stop-color="#edb5b2"/><stop offset="1" stop-color="#fddac4"/></linearGradient><clipPath id="clip-path-9"><rect class="cls-1" x="38.04" y="41.44" width="30.44" height="13.65"/></clipPath><clipPath id="clip-path-10"><path class="cls-1" d="M37.85,55.75l9.09-8.63L68.48,41.6,57.22,50.08s-15.35,3.68-19.37,5.67"/></clipPath><linearGradient id="linear-gradient-4" x1="-308.2" y1="-70.46" x2="-307.16" y2="-70.46" gradientTransform="translate(9034.72 2104.92) scale(29.19)" gradientUnits="userSpaceOnUse"><stop offset="0" stop-color="#c35784"/><stop offset="0.13" stop-color="#c8648d"/><stop offset="0.36" stop-color="#d486a6"/><stop offset="0.67" stop-color="#e8bdcf"/><stop offset="1" stop-color="#fff"/></linearGradient><clipPath id="clip-path-11"><rect class="cls-1" x="32.79" y="58.23" width="25.2" height="5.25"/></clipPath><clipPath id="clip-path-12"><polygon class="cls-1" points="58.42 57.75 55.76 59.39 33.2 63.33 34.27 62.27 58.42 57.75"/></clipPath><radialGradient id="radial-gradient-4" cx="-325.2" cy="-64.32" r="1.05" gradientTransform="translate(2875.47 620.83) scale(8.7)" gradientUnits="userSpaceOnUse"><stop offset="0" stop-color="#b36e58"/><stop offset="0.51" stop-color="#984149"/><stop offset="1" stop-color="#7c1239"/></radialGradient><clipPath id="clip-path-13"><path class="cls-1" d="M47.49,57.43A19.07,19.07,0,0,0,44.34,63l.88.76L48.59,63S50,58.09,52,56.45Z"/></clipPath><linearGradient id="linear-gradient-5" x1="-311.79" y1="-103.08" x2="-310.73" y2="-103.08" gradientTransform="translate(766.49 -2108.52) rotate(-90) scale(6.97)" gradientUnits="userSpaceOnUse"><stop offset="0" stop-color="#b72425"/><stop offset="0.02" stop-color="#b72425"/><stop offset="0.8" stop-color="#b42034"/><stop offset="0.99" stop-color="#b31f38"/><stop offset="1" stop-color="#b31f38"/></linearGradient><clipPath id="clip-path-14"><path class="cls-1" d="M34.43,59.68a15.88,15.88,0,0,0-2.6,6.4L32.88,68l2.6-1.76s1.61-6.11,2.56-7.58Z"/></clipPath><linearGradient id="linear-gradient-6" x1="-309.47" y1="-96.68" x2="-308.41" y2="-96.68" gradientTransform="translate(894.36 -2683.05) rotate(-90) scale(8.89)" xlink:href="#linear-gradient-5"/></defs><title>icon-37-1991</title><g id="Layer_1-2" data-name="Layer 1-2"><g class="cls-2"><rect class="cls-3" x="1.29" y="42.49" width="77.69" height="23.1"/></g><polygon class="cls-4" points="78.61 45.09 79 46.42 60.05 59.6 33.84 63.7 33.84 65.57 26.49 65.78 26.47 64.07 1.29 51.76 1.29 49.99 27.22 63.04 27.34 65.3 33.84 64.84 33.84 63.33 59.62 58.72 78.61 45.09"/><polygon class="cls-4" points="33.84 65.56 46.25 52.34 44.04 52.62 33.84 62.99 33.84 65.56"/><polygon class="cls-5" points="59.62 58.72 60.05 59.6 79 46.42 78.61 45.09 59.62 58.72"/><g class="cls-6"><rect class="cls-7" x="33.84" y="45.64" width="45.14" height="17.85"/></g><g class="cls-8"><rect class="cls-9" x="0.24" y="42.49" width="38.84" height="19.95"/></g><g class="cls-10"><rect class="cls-11" x="2.34" y="38.29" width="73.49" height="26.24"/></g><polygon class="cls-12" points="57.56 51.76 76.45 38.7 72.04 42.31 76.46 39.81 75.9 45.68 58.42 57.75 57.56 51.76"/><g class="cls-13"><g class="cls-14"><g class="cls-15"><rect class="cls-16" x="26.49" y="46.69" width="16.8" height="15.75"/></g></g></g><path class="cls-17" d="M58,57.75l-24.14,4.5-1.05,1v1.43c-1.74-1.23-6.12,0-6.12,0l.11-2.26L2.34,49.36V45.1c3.65,3.63,21.93,12.14,24,13.65a14.45,14.45,0,0,1,3.44,3.83s2-3.3,3.59-3.87,23.78-7,23.78-7Z"/><path class="cls-18" d="M26,55.93h-.08C20.63,54.43,7,46.08,6.79,46l-.34-.21,14.56-4h.06a68.54,68.54,0,0,0,16.8,5.75l.42.07Zm-18.65-10c2.1,1.29,13.8,8.26,18.59,9.67l11.55-7.75A70.25,70.25,0,0,1,21,42.14Z"/><g class="cls-13"><g class="cls-19"><g class="cls-20"><rect class="cls-21" x="10.74" y="42.49" width="24.15" height="11.55"/></g></g></g><g class="cls-13"><g class="cls-22"><g class="cls-23"><rect class="cls-24" x="38.04" y="41.44" width="30.44" height="13.65"/></g></g></g><g class="cls-13"><g class="cls-25"><g class="cls-26"><rect class="cls-27" x="32.79" y="58.23" width="25.2" height="5.25"/></g></g></g><g class="cls-28"><rect class="cls-29" x="44.34" y="56.13" width="7.35" height="7.35"/></g><g class="cls-30"><rect class="cls-31" x="31.74" y="58.23" width="6.3" height="9.45"/></g></g></svg>