<svg xmlns="http://www.w3.org/2000/svg" xmlns:xlink="http://www.w3.org/1999/xlink" viewBox="0 0 44.48 46.63"><defs><style>.cls-1,.cls-2{fill:none;}.cls-2{clip-rule:evenodd;}.cls-3{isolation:isolate;}.cls-4{clip-path:url(#clip-path);}.cls-5{fill:url(#radial-gradient);}.cls-6{fill:#721433;}.cls-10,.cls-13,.cls-18,.cls-23,.cls-34,.cls-41,.cls-42,.cls-43,.cls-46,.cls-51,.cls-6,.cls-7,.cls-8,.cls-9{fill-rule:evenodd;}.cls-7{fill:#8c2133;}.cls-8{fill:#a85d74;}.cls-9{fill:#3a3067;}.cls-10{fill:#822349;}.cls-11{clip-path:url(#clip-path-2);}.cls-12{fill:url(#radial-gradient-2);}.cls-13{fill:#c5444b;}.cls-14{clip-path:url(#clip-path-3);}.cls-15{fill:url(#radial-gradient-3);}.cls-16{clip-path:url(#clip-path-4);}.cls-17{fill:url(#radial-gradient-4);}.cls-18{fill:#be2b4b;}.cls-19{clip-path:url(#clip-path-5);}.cls-20{fill:url(#radial-gradient-5);}.cls-21{clip-path:url(#clip-path-6);}.cls-22{fill:url(#radial-gradient-6);}.cls-23{fill:#f1604e;}.cls-24{clip-path:url(#clip-path-7);}.cls-25{fill:url(#radial-gradient-7);}.cls-26{opacity:0.8;}.cls-26,.cls-44,.cls-49,.cls-52{mix-blend-mode:multiply;}.cls-27{clip-path:url(#clip-path-8);}.cls-28{clip-path:url(#clip-path-9);}.cls-29{fill:url(#linear-gradient);}.cls-30{clip-path:url(#clip-path-10);}.cls-31{fill:url(#linear-gradient-2);}.cls-32{mix-blend-mode:soft-light;}.cls-33{clip-path:url(#clip-path-11);}.cls-34{fill:#fff;}.cls-35{clip-path:url(#clip-path-12);}.cls-36{clip-path:url(#clip-path-13);}.cls-37{fill:url(#linear-gradient-3);}.cls-38{clip-path:url(#clip-path-14);}.cls-39{clip-path:url(#clip-path-15);}.cls-40{fill:url(#linear-gradient-4);}.cls-41{fill:#ffc821;}.cls-42{fill:#b94627;}.cls-43{fill:#a73a31;}.cls-44{opacity:0.2;}.cls-45{clip-path:url(#clip-path-16);}.cls-46{fill:#8376a1;}.cls-47{clip-path:url(#clip-path-17);}.cls-48{clip-path:url(#clip-path-18);}.cls-49{opacity:0.4;}.cls-50{clip-path:url(#clip-path-19);}.cls-51{fill:#791e3c;}.cls-52{opacity:0.6;}.cls-53{clip-path:url(#clip-path-20);}.cls-54{clip-path:url(#clip-path-21);}.cls-55{fill:url(#linear-gradient-5);}.cls-56{clip-path:url(#clip-path-22);}.cls-57{fill:url(#linear-gradient-6);}.cls-58{clip-path:url(#clip-path-23);}.cls-59{fill:url(#radial-gradient-8);}.cls-60{clip-path:url(#clip-path-24);}.cls-61{fill:url(#linear-gradient-7);}.cls-62{clip-path:url(#clip-path-25);}.cls-63{fill:url(#radial-gradient-9);}.cls-64{clip-path:url(#clip-path-26);}.cls-65{clip-path:url(#clip-path-27);}.cls-66{fill:url(#linear-gradient-8);}.cls-67{clip-path:url(#clip-path-28);}.cls-68{clip-path:url(#clip-path-29);}.cls-69{fill:url(#linear-gradient-9);}</style><clipPath id="clip-path"><path class="cls-1" d="M3.67,1.85.84,33.05H43.41L38.5,1S31,.67,20.26.67A135.12,135.12,0,0,0,3.67,1.85"/></clipPath><radialGradient id="radial-gradient" cx="-500.83" cy="118.2" r="1" gradientTransform="matrix(21.29, 0, 0, -21.29, 10687.01, 2528.73)" gradientUnits="userSpaceOnUse"><stop offset="0" stop-color="#e3532f"/><stop offset="0.41" stop-color="#c8402f"/><stop offset="0.96" stop-color="#a82a2f"/><stop offset="1" stop-color="#a82a2f"/></radialGradient><clipPath id="clip-path-2"><path class="cls-1" d="M.25,28a14.46,14.46,0,0,0,.59,5.1l.34-4.14,4.69,0L6.41,28l.06-2.2L.84,24.9A21.72,21.72,0,0,0,.25,28"/></clipPath><radialGradient id="radial-gradient-2" cx="-548.27" cy="92.41" r="1" gradientTransform="matrix(3.31, 0, 0, -3.31, 1816.91, 330.48)" gradientUnits="userSpaceOnUse"><stop offset="0" stop-color="#ffc92b"/><stop offset="0.6" stop-color="#f99729"/><stop offset="1" stop-color="#f47427"/></radialGradient><clipPath id="clip-path-3"><path class="cls-1" d="M2.13,7.66a16,16,0,0,0,.55,4.88L3,8.72l4.31,0,.5-.84.06-2L2.55,5.7a5.44,5.44,0,0,0-.42,2"/></clipPath><radialGradient id="radial-gradient-3" cx="-558.79" cy="86.7" gradientTransform="matrix(2.78, 0, 0, -2.78, 1562, 247.19)" xlink:href="#radial-gradient-2"/><clipPath id="clip-path-4"><path class="cls-1" d="M40.65,24.59s.62,3.61-1,5.51-8.54,2-8.54,2l-.18,3.2,13.58-1.34-1.87-9.33Z"/></clipPath><radialGradient id="radial-gradient-4" cx="-525.47" cy="104.81" r="1" gradientTransform="matrix(5.56, 0, 0, -5.56, 2965.76, 611.26)" gradientUnits="userSpaceOnUse"><stop offset="0" stop-color="#ffc92b"/><stop offset="0.59" stop-color="#f99729"/><stop offset="0.97" stop-color="#f47427"/><stop offset="1" stop-color="#f47427"/></radialGradient><clipPath id="clip-path-5"><path class="cls-1" d="M28.72,1.85s5.54-.4,7.5.78,2.52,5.65,2.52,5.65h1.75l-1.43-8L28.34,0Z"/></clipPath><radialGradient id="radial-gradient-5" cx="-544.65" cy="94.38" gradientTransform="matrix(3.53, 0, 0, -3.53, 1961.45, 333.58)" xlink:href="#radial-gradient-2"/><clipPath id="clip-path-6"><path class="cls-1" d="M12.13,14.46c0-4.07,4.62-7.37,10.32-7.37s10.32,3.3,10.32,7.37-4.62,7.36-10.32,7.36-10.32-3.3-10.32-7.36m-.73.16c0,4.36,5,7.89,11,7.89s11-3.53,11-7.89-4.94-7.88-11-7.88-11,3.53-11,7.88"/></clipPath><radialGradient id="radial-gradient-6" cx="-511.45" cy="112.43" gradientTransform="matrix(9.6, 0, 0, -9.6, 4930.44, 1099.28)" xlink:href="#radial-gradient-2"/><clipPath id="clip-path-7"><path class="cls-1" d="M14.37,13.64c0,3.18,3.61,5.76,8.08,5.76s8.08-2.58,8.08-5.76-3.62-5.77-8.08-5.77-8.08,2.58-8.08,5.77"/></clipPath><radialGradient id="radial-gradient-7" cx="-518.55" cy="108.57" r="1" gradientTransform="matrix(7.02, 0, 0, -7.02, 3663.37, 780.2)" gradientUnits="userSpaceOnUse"><stop offset="0" stop-color="#97d1aa"/><stop offset="0.57" stop-color="#5ca3d1"/><stop offset="0.61" stop-color="#5f9cca"/><stop offset="0.87" stop-color="#736f9b"/><stop offset="1" stop-color="#7b5e89"/></radialGradient><clipPath id="clip-path-8"><rect class="cls-1" x="15.58" y="8.01" width="13.75" height="13.07"/></clipPath><clipPath id="clip-path-9"><path class="cls-2" d="M29.32,14.55a6.71,6.71,0,0,1-6.87,6.53,6.71,6.71,0,0,1-6.88-6.53A6.72,6.72,0,0,1,22.45,8a6.72,6.72,0,0,1,6.87,6.54"/></clipPath><linearGradient id="linear-gradient" x1="-505.61" y1="115.6" x2="-504.61" y2="115.6" gradientTransform="matrix(13.75, 0, 0, -13.75, 6965.94, 1603.67)" gradientUnits="userSpaceOnUse"><stop offset="0" stop-color="#c57cb4"/><stop offset="0.54" stop-color="#ab5d91"/><stop offset="1" stop-color="#984678"/></linearGradient><clipPath id="clip-path-10"><path class="cls-1" d="M15.83,12.77c0,2.71,3.08,4.91,6.87,4.91s6.88-2.2,6.88-4.91-3.08-4.9-6.88-4.9-6.87,2.19-6.87,4.9"/></clipPath><linearGradient id="linear-gradient-2" x1="-505.61" y1="115.6" x2="-504.61" y2="115.6" gradientTransform="matrix(13.75, 0, 0, -13.75, 6966.18, 1601.89)" gradientUnits="userSpaceOnUse"><stop offset="0" stop-color="#98ca47"/><stop offset="0.31" stop-color="#7bc348"/><stop offset="0.76" stop-color="#58ba49"/><stop offset="1" stop-color="#4ab749"/></linearGradient><clipPath id="clip-path-11"><rect class="cls-1" x="16.86" y="12.96" width="6.13" height="4.46"/></clipPath><clipPath id="clip-path-12"><rect class="cls-1" x="2.06" y="7.84" width="5.74" height="4.69"/></clipPath><clipPath id="clip-path-13"><path class="cls-2" d="M7.8,7.84l-.49.84L2.93,10.53l-.25,2a13.65,13.65,0,0,1-.55-4.7Z"/></clipPath><linearGradient id="linear-gradient-3" x1="-524.45" y1="105.36" x2="-523.45" y2="105.36" gradientTransform="matrix(5.74, 0, 0, -5.74, 3012.06, 614.89)" xlink:href="#linear-gradient"/><clipPath id="clip-path-14"><rect class="cls-1" x="0.2" y="27.95" width="6.21" height="5.1"/></clipPath><clipPath id="clip-path-15"><path class="cls-2" d="M6.41,28l-.54.92L1.09,31.11.84,33.05A12.43,12.43,0,0,1,.25,28Z"/></clipPath><linearGradient id="linear-gradient-4" x1="-522.01" y1="106.69" x2="-521.01" y2="106.69" gradientTransform="matrix(6.21, 0, 0, -6.21, 3240.87, 692.84)" xlink:href="#linear-gradient"/><clipPath id="clip-path-16"><rect class="cls-1" x="9.13" y="26.26" width="5.81" height="3.84"/></clipPath><clipPath id="clip-path-17"><rect class="cls-1" x="16.82" y="27.94" width="2.49" height="2.04"/></clipPath><clipPath id="clip-path-18"><rect class="cls-1" x="13.4" y="4.98" width="2.07" height="0.96"/></clipPath><clipPath id="clip-path-19"><rect class="cls-1" x="15.83" y="3.59" width="7.62" height="2.54"/></clipPath><clipPath id="clip-path-20"><rect class="cls-1" x="28.67" y="1.66" width="10.04" height="7.5"/></clipPath><clipPath id="clip-path-21"><path class="cls-2" d="M38.72,8l-.25,1.16s-1.15-3.77-3-5-6.84-1.73-6.84-1.73l0-.56s5.64-.83,7.83,1C38.33,4.36,38.72,8,38.72,8"/></clipPath><linearGradient id="linear-gradient-5" x1="-510.59" y1="112.93" x2="-509.59" y2="112.93" gradientTransform="matrix(10.04, 0, 0, -10.04, 5156.6, 1139.24)" xlink:href="#linear-gradient"/><clipPath id="clip-path-22"><path class="cls-1" d="M11.4,36.82a20.51,20.51,0,0,0-2.27,7.83l2.9,2,4-2a28.32,28.32,0,0,1,.85-7.83Z"/></clipPath><linearGradient id="linear-gradient-6" x1="-502.39" y1="141.85" x2="-501.39" y2="141.85" gradientTransform="matrix(0, -9.82, -9.82, 0, 1405.7, -4885.93)" gradientUnits="userSpaceOnUse"><stop offset="0" stop-color="#c2202f"/><stop offset="0.96" stop-color="#8e1831"/><stop offset="1" stop-color="#8e1831"/></linearGradient><clipPath id="clip-path-23"><path class="cls-1" d="M9.52,44.27v0L12,45.68h0L15,44.22h0v0s.15-5.06,1.34-7.34l-.07,0c-1.16,2.22-1.34,7-1.35,7.36L12,45.6,9.6,44.25a19.66,19.66,0,0,1,2.47-7.41L12,36.79a19.9,19.9,0,0,0-2.48,7.48"/></clipPath><radialGradient id="radial-gradient-8" cx="-538.97" cy="97.47" gradientTransform="matrix(3.96, 0, 0, -3.96, 2147.99, 427.37)" xlink:href="#radial-gradient-4"/><clipPath id="clip-path-24"><path class="cls-1" d="M32.53,35.69a28.32,28.32,0,0,1,.85,7.83l4,2,2.9-2A20.51,20.51,0,0,0,38,35.69Z"/></clipPath><linearGradient id="linear-gradient-7" x1="-502.39" y1="104.04" x2="-501.39" y2="104.04" gradientTransform="translate(-985.06 -4887.05) rotate(-90) scale(9.82)" xlink:href="#linear-gradient-6"/><clipPath id="clip-path-25"><path class="cls-1" d="M37.32,35.71a19.67,19.67,0,0,1,2.47,7.42l-2.43,1.34L34.49,43c0-.39-.19-5.14-1.35-7.36l-.07,0c1.19,2.29,1.34,7.3,1.34,7.35v0l2.93,1.48h0l2.49-1.39h0v0a19.7,19.7,0,0,0-2.48-7.47Z"/></clipPath><radialGradient id="radial-gradient-9" cx="-445.25" cy="97.47" gradientTransform="translate(-1727.4 426.26) rotate(180) scale(3.96)" xlink:href="#radial-gradient-4"/><clipPath id="clip-path-26"><rect class="cls-1" x="9.97" y="36.82" width="7.36" height="5.1"/></clipPath><clipPath id="clip-path-27"><path class="cls-2" d="M10,40.38l6.1,1.35v.19h.86V40.5l.41-.48-.47-3.2H11.4A14.49,14.49,0,0,0,10,40.38"/></clipPath><linearGradient id="linear-gradient-8" x1="-517.33" y1="109.23" x2="-516.33" y2="109.23" gradientTransform="matrix(7.36, 0, 0, -7.36, 3817.48, 843.31)" xlink:href="#linear-gradient"/><clipPath id="clip-path-28"><rect class="cls-1" x="31.71" y="35.69" width="6.93" height="6.53"/></clipPath><clipPath id="clip-path-29"><path class="cls-2" d="M38.64,37l-5.72.24a28.45,28.45,0,0,1,.47,5H31.93l.13-1.88-.35-.42.82-4.23H38s.47.89.65,1.33"/></clipPath><linearGradient id="linear-gradient-9" x1="-518.89" y1="108.39" x2="-517.89" y2="108.39" gradientTransform="matrix(6.93, 0, 0, -6.93, 3628.7, 790.31)" xlink:href="#linear-gradient"/></defs><title>icon-38</title><g class="cls-3"><g id="Layer_2" data-name="Layer 2"><g id="Layer_1-2" data-name="Layer 1"><g class="cls-4"><rect class="cls-5" x="0.84" y="0.67" width="42.57" height="32.38"/></g><path class="cls-6" d="M.84,33.05S.59,39,5.4,41.92H41l.62-1.64-1.68-7.23Z"/><polygon class="cls-6" points="43.41 33.05 43.01 34.79 0.97 34.79 0.84 33.05 43.41 33.05"/><polygon class="cls-7" points="41.59 40.28 5.85 40.6 6.35 40.1 40.79 36.82 41.59 40.28"/><path class="cls-8" d="M41.59,34.79a11.61,11.61,0,0,0-1.28,5.07l-34,.24s-3-2.08-3-5.31Z"/><path class="cls-9" d="M3.3,34.79h.85A8.77,8.77,0,0,0,6.56,40.1H6.18S3.06,38,3.3,34.79"/><polygon class="cls-10" points="4.92 33.05 7.25 1.42 7.55 1.38 5.57 33.05 4.92 33.05"/><g class="cls-11"><rect class="cls-12" x="0.19" y="24.9" width="6.28" height="8.15"/></g><path class="cls-13" d="M6.41,28H.25a16.64,16.64,0,0,0,.59,5.1l.51-4,4.52-.14Z"/><g class="cls-14"><rect class="cls-15" x="2.1" y="5.7" width="5.76" height="6.84"/></g><path class="cls-13" d="M7.8,7.84H2.13a15.19,15.19,0,0,0,.55,4.7l.46-3.72,4.17-.14Z"/><g class="cls-16"><rect class="cls-17" x="30.89" y="24.59" width="13.58" height="10.67"/></g><path class="cls-18" d="M44.48,33.92l-1.07,1.34H30.9l.18-3.2v1.86a72.2,72.2,0,0,0,13.4,0"/><path class="cls-13" d="M40.65,24.59l-.24,1.56s.11,2.93-1,4.14c0,0,2.08-1.38,1.22-5.7"/><g class="cls-19"><rect class="cls-20" x="28.34" width="12.15" height="8.28"/></g><path class="cls-18" d="M40.49,8.28l-.6,1.77-.14-.88H38.48s-.72-4.74-2.62-6-7.19-.79-7.19-.79L28.34.73h-.45L28.34,0l.38,1.85s5.35-.71,7.65.88c2.05,1.41,2.38,5.55,2.38,5.55Z"/><path class="cls-18" d="M30.62,40.38v1.84H41.24l.93-2.12-1.32-3.51a14,14,0,0,0-.54,3.27l-9.69.07Z"/><g class="cls-21"><rect class="cls-22" x="11.4" y="6.74" width="22.09" height="15.77"/></g><path class="cls-23" d="M30.62,40.38l11.55-.28-1.32-3.51a16.19,16.19,0,0,0-.54,3.27l-9.69.07Z"/><g class="cls-24"><rect class="cls-25" x="14.37" y="7.87" width="16.16" height="11.54"/></g><g class="cls-26"><g class="cls-27"><g class="cls-28"><rect class="cls-29" x="15.57" y="8.01" width="13.75" height="13.07"/></g></g></g><g class="cls-30"><rect class="cls-31" x="15.83" y="7.87" width="13.75" height="9.81"/></g><g class="cls-32"><g class="cls-33"><path class="cls-34" d="M16.86,13.64s.88-1.28,3.45-.32S23,17.42,23,17.42s-5.78-.78-6.13-3.78"/></g></g><path class="cls-34" d="M27.37,10c-.12.21-.68.11-1.25-.22s-.93-.76-.81-1,.68-.12,1.25.21.94.77.81,1"/><g class="cls-26"><g class="cls-35"><g class="cls-36"><rect class="cls-37" x="1.83" y="7.84" width="5.97" height="4.69"/></g></g></g><g class="cls-26"><g class="cls-38"><g class="cls-39"><rect class="cls-40" y="27.95" width="6.41" height="5.1"/></g></g></g><path class="cls-41" d="M37,3.35l2.39-1L40,5.7l-1.68.42A6.88,6.88,0,0,0,37,3.35"/><path class="cls-41" d="M39.43,30.29l4.68,1.77-.7-3.45-2.76-.38a4,4,0,0,1-1.22,2.06"/><polygon class="cls-42" points="6.91 33.05 8.78 32.78 15.57 32.47 20.84 33.05 17.88 33.66 6.91 33.05"/><polygon class="cls-42" points="22.45 33.05 23.33 32.47 27.47 33.07 24.48 33.19 22.45 33.05"/><polygon class="cls-43" points="18.21 40.49 19.56 40.38 23.72 40.38 24.29 40.49 22.67 40.79 18.33 40.58 18.21 40.49"/><g class="cls-44"><g class="cls-45"><path class="cls-46" d="M9.2,28.08a9,9,0,0,1,4.68-1.81c1.24.16,1.09,2.75,1,3.28s-4.08.79-4.89.24a1.56,1.56,0,0,1-.79-1.71"/></g></g><g class="cls-44"><g class="cls-47"><path class="cls-46" d="M16.92,28.25c-.46.31.79,1.62,1.25,1.72s1.14-1.35,1.14-1.72-1.68-.46-2.39,0"/></g></g><g class="cls-44"><g class="cls-48"><path class="cls-46" d="M13.52,5.13c-.38.14.26.81.64.81a1.52,1.52,0,0,0,1.31-.81c0-.18-1.37-.22-2,0"/></g></g><g class="cls-49"><g class="cls-50"><path class="cls-46" d="M15.83,5.46c.36-1.12,4.54-2.08,5.44-1.83S23.45,4.74,23.45,5s-1.79,1.1-3.81,1.09a12.47,12.47,0,0,1-3.81-.66"/></g></g><polygon class="cls-51" points="39.85 9.83 39.75 14.46 40.49 15.19 40.49 16.43 41.77 24.59 42.12 24.59 39.85 9.83"/><g class="cls-52"><g class="cls-53"><g class="cls-54"><rect class="cls-55" x="28.67" y="1.02" width="10.04" height="8.15"/></g></g></g><g class="cls-56"><rect class="cls-57" x="9.13" y="36.82" width="7.73" height="9.82"/></g><g class="cls-58"><rect class="cls-59" x="9.51" y="36.79" width="6.81" height="8.9"/></g><g class="cls-60"><rect class="cls-61" x="32.53" y="35.69" width="7.73" height="9.82"/></g><g class="cls-62"><rect class="cls-63" x="33.07" y="35.67" width="6.81" height="8.9"/></g><g class="cls-26"><g class="cls-64"><g class="cls-65"><rect class="cls-66" x="9.97" y="36.82" width="7.36" height="5.1"/></g></g></g><g class="cls-26"><g class="cls-67"><g class="cls-68"><rect class="cls-69" x="31.71" y="35.69" width="6.93" height="6.53"/></g></g></g></g></g></g></svg>