<svg xmlns="http://www.w3.org/2000/svg" xmlns:xlink="http://www.w3.org/1999/xlink" viewBox="0 0 63.17 36.58"><defs><style>.cls-1{fill:none;}.cls-2{isolation:isolate;}.cls-3{fill:#966c16;}.cls-4{clip-path:url(#clip-path);}.cls-5{clip-path:url(#clip-path-2);}.cls-6{fill:#e1c458;}.cls-7{clip-path:url(#clip-path-3);}.cls-8{fill:#857632;}.cls-9{clip-path:url(#clip-path-4);}</style><clipPath id="clip-path"><path class="cls-1" d="M12.71,11.67l-1,2.39c0-2.26-.05-4.49-.09-6.7l1-2.39C12.66,7.18,12.68,9.41,12.71,11.67Z"/></clipPath><clipPath id="clip-path-2"><path class="cls-1" d="M12.61,5l-1,2.39C9.42,9.58,7.16,11.78,5,14l1-2.39C8.14,9.4,10.39,7.19,12.61,5Z"/></clipPath><clipPath id="clip-path-3"><path class="cls-1" d="M.05,14.78l1-2.39a.61.61,0,0,0,0,.24L0,15A.47.47,0,0,1,.05,14.78Z"/></clipPath><clipPath id="clip-path-4"><path class="cls-1" d="M15.58,14.51l-1,2.39L3.66,16.77l1-2.39Z"/></clipPath></defs><title>icon-7</title><g id="Layer_2" data-name="Layer 2"><g id="Layer_1-2" data-name="Layer 1"><g class="cls-2"><polygon class="cls-3" points="51.28 10.65 50.31 13.04 37.49 13.06 38.46 10.67 51.28 10.65"/><polygon class="cls-3" points="59.42 3.64 58.45 6.03 14.46 6.13 15.44 3.74 59.42 3.64"/><polygon class="cls-3" points="51.32 23.45 50.35 25.84 50.31 13.04 51.28 10.65 51.32 23.45"/><polygon class="cls-3" points="59.51 30.4 58.53 32.79 58.45 6.03 59.42 3.64 59.51 30.4"/><g class="cls-2"><g class="cls-4"><path class="cls-3" d="M12.71,11.67l-1,2.39c0-2.26-.05-4.49-.09-6.7l1-2.39c0,2.21.06,4.44.09,6.7"/></g></g><g class="cls-2"><g class="cls-5"><path class="cls-3" d="M12.61,5l-1,2.39C9.42,9.58,7.16,11.78,5,14l1-2.39C8.14,9.4,10.39,7.19,12.61,5"/></g></g><path class="cls-6" d="M35.45,7.68l18.82,0,.06,18.81-18.82,0ZM51.32,23.45l0-12.8-12.82,0,0,12.8,12.82,0"/><polygon class="cls-3" points="35.51 26.49 34.54 28.88 34.48 10.07 35.45 7.68 35.51 26.49"/><polygon class="cls-3" points="54.33 26.44 53.36 28.83 34.54 28.88 35.51 26.49 54.33 26.44"/><g class="cls-2"><g class="cls-7"><g class="cls-2"><path class="cls-8" d="M1,12.63,0,15a.57.57,0,0,1,0-.24l1-2.39a.61.61,0,0,0,0,.24"/></g></g></g><g class="cls-2"><g class="cls-9"><path class="cls-3" d="M15.58,14.51l-1,2.39L3.66,16.77l1-2.39,11,.13"/></g></g><polygon class="cls-3" points="31.3 22.02 30.32 24.41 8.38 24.46 9.35 22.07 31.3 22.02"/><rect class="cls-6" x="9.35" y="19.7" width="21.95" height="2.35" transform="translate(-0.07 0.07) rotate(-0.19)"/><polygon class="cls-3" points="9.35 22.07 8.38 24.46 8.37 22.11 9.34 19.72 9.35 22.07"/><polygon class="cls-3" points="31.31 26.58 30.34 28.97 8.39 29.03 9.36 26.64 31.31 26.58"/><rect class="cls-6" x="9.36" y="24.26" width="21.95" height="2.35" transform="translate(-0.08 0.07) rotate(-0.19)"/><polygon class="cls-3" points="9.36 26.64 8.39 29.03 8.38 26.68 9.36 24.29 9.36 26.64"/><polygon class="cls-3" points="63.17 34.04 62.2 36.43 0.07 36.58 1.05 34.19 63.17 34.04"/><path class="cls-6" d="M13.66.11,63.06,0l.11,34.05-62.12.14L1,12.63a.56.56,0,0,1,.21-.47L4.62,8.77l5.09-5,.57-.58c1-1,2-1.94,2.94-2.89A.69.69,0,0,1,13.66.11ZM59.51,30.4,59.42,3.64l-44,.1c.05,3.6.09,7.16.14,10.77L4.63,14.38l0,16.15,54.83-.13M12.61,5c-2.22,2.22-4.48,4.42-6.68,6.61l6.78.08c0-2.25-.05-4.48-.1-6.69"/><polygon class="cls-3" points="1.05 34.19 0.07 36.58 0 15.02 0.98 12.63 1.05 34.19"/></g></g></g></svg>