<svg xmlns="http://www.w3.org/2000/svg" viewBox="0 0 228.36 233.64"><defs><style>.cls-1{fill:#2fc19a;}.cls-2{fill:#f09e40;}</style></defs><title>Asset 1</title><g id="Layer_2" data-name="Layer 2"><g id="Layer_1-2" data-name="Layer 1"><path class="cls-1" d="M181.25,138.46c1.42-1.26,2.81-2.64,3-4.84.5-5.27,1.33-10.52,1.69-15.8a79,79,0,0,1,10.32-34.37c3.54-6.15,7.08-9.41,10.84-10.6-8.51,15.69-10.29,32.74-10.69,50.08,0,1.06-.48,2.46.64,3.09s2-.69,2.83-1.29c8.87-6.6,16.44-14.57,23.72-22.83a16.67,16.67,0,0,0,4.46-11.73c-.16-23.32-.06-46.65-.09-70,0-1.66-.27-3.32-.42-5-1.2-5.09-5.73-9.29-11.1-9.36-14.25-.19-28.5-.15-42.75,0-5.05.06-10.79,4.58-11.18,9.13l-.12,1.43h0s0,.23,0,.64c-.17,2-.34,4-.48,6-1.16,13.24-4.27,43.37-10,61.83-.39,1.21-.78,2.42-1.2,3.63,2.14-1.27,4.27-2.25,5.74-3.92,11.88-8.52,38.91-30.2,48.3-56.94h0a.9.9,0,0,1,.76-.16c1.59.26,1,2,1.08,3.2.21,5.4-1.29,10.6-3,15.52-4.82,13.75-13.43,25.21-23.67,35.39-10.57,10.5-21.55,20.58-31.83,31.38-15.14,15.9-24,34.51-24.6,56.75-.13,4.7.94,5.79,4.71,4.27C148.34,165.83,165.17,152.69,181.25,138.46Z"/><path class="cls-1" d="M8.2,43.53C30.08,56,47.52,73.51,63.12,93c11.41,14.3,21.55,29.39,29.46,45.92.46,1,.55,2.34,2.1,2.17,1.19-.12,1.48-1.09,1.74-2.07A124.79,124.79,0,0,0,100,119.78c1.28-12.82.55-25.67.61-38.5a12,12,0,0,0-.66-4.09,372.83,372.83,0,0,0-30.38-63C66,8.4,61.17,5.61,54.41,5.71c-6.28.09-12.56,0-18.85,0-6.84,0-13.68,0-20.52,0C8.79,5.69,1.43,11.09.91,19.65c-.25,4.14-.18,8-.19,11.78C.7,38.58,3.23,40.68,8.2,43.53Z"/><path class="cls-1" d="M152,53.7a191,191,0,0,0,5.1-33c.33-5.54-2.18-12-8.59-13.65S135.48,5.63,129,6.47c-9.83,1.28-12.67,5.09-12.84,15.08-.1,6.27-.38,12.54-.57,18.81-.57,19.25-.72,38.52-1,57.78-.08,5-.52,10-.86,15-.38,5.63-.09,8.22-.49,15.27a159.87,159.87,0,0,0,20.26-27.62A171.74,171.74,0,0,0,152,53.7Z"/><path class="cls-2" d="M228.34,176.83c-.36-9.89-.15-19.82-.08-29.72.05-5.58-2.19-9.82-7.23-12.13-6.05-2.76-10.81-1.75-15.46,3.24a485,485,0,0,1-51.5,47.58c-3.24,2.49-7.61,5.62-9.26,5.79l11.06-.27h0c9.26,0,18.52,0,27.78,0,10,0,20.1-.06,30.15,0C223.42,191.4,228.7,186.59,228.34,176.83Z"/><path class="cls-2" d="M102.56,52l2.09,4.71-.24-5.52c.28-12.72,2.61-25.22,4.21-37.79.74-5.85-2.68-10.3-8.69-12.79-4.05-1.68-11.2.33-14.51,4.08C82.29,8.23,81.52,15,83.89,19.23,90,30.06,96.94,40.39,102.56,52Z"/><path class="cls-2" d="M6.51,123.16c5.66,3.06,11.51,5.77,17.45,8.26v0l.65.26c1.23.51,2.46,1,3.7,1.49l9.23,3.74S22.26,107.29,26.35,93a.23.23,0,0,0,0,.09c.28,2,4.94,33,21.82,46.24a3,3,0,0,0,.47.39c.39.33.77.6,1.16.88a10.28,10.28,0,0,0,.88.58l.92.55s.05,0,.08.06l.11.05L57.69,144l.11,0L68,147.77h0l.42.17,4.22,1.55.34.11.33.11,7.54,2.76,5.36,1.91a41.28,41.28,0,0,0-1.52-5.25h0v0h0a1.89,1.89,0,0,0-.06-.18,8.53,8.53,0,0,0-.5-1.41,3.21,3.21,0,0,0-.25-.47v0c-2.16-4.93-7.52-15.5-7.52-15.5v0A293.46,293.46,0,0,0,54.63,96.15a297.91,297.91,0,0,0-31-37.71c-3.7-3.75-8.1-5.66-13.26-4C4.66,56.18,1.18,60.13.79,66.26a343.24,343.24,0,0,0,.14,48.53A10.23,10.23,0,0,0,6.51,123.16Z"/><polygon class="cls-1" points="25.13 225.13 20.97 220.55 20.97 201.03 12.58 201.03 14.53 205.5 14.53 220.55 10.36 225.13 10.36 201.03 3.92 201.03 3.92 226.26 10.52 232.95 14.53 229 14.53 232.99 20.97 231.72 20.97 229 24.98 232.95 31.57 226.26 31.57 201.03 25.13 201.03 25.13 225.13"/><path class="cls-1" d="M58.22,203.21a6.78,6.78,0,0,0-2.65,2.58,7.19,7.19,0,0,0-.92,3.59v9.49H52.29l2.36,5.44v9.33H61.1v-9.93h0l5.41.35v9.58H73v-31.4H62.39A8.3,8.3,0,0,0,58.22,203.21Zm8.29,4.33h0v11.33H61.1v-8.08c0-1.6.31-2.56.94-2.9a6.76,6.76,0,0,1,2.8-.39C65.34,207.5,65.89,207.51,66.51,207.54Z"/><polygon class="cls-1" points="102.3 207.6 97.67 201.49 97.52 201.31 91.32 201.29 91.32 232.73 97.65 232.73 97.65 210.73 102.3 216.89 102.3 232.73 108.72 232.73 108.72 201.33 102.3 201.33 102.3 207.6"/><path class="cls-1" d="M132.62,203.21a6.69,6.69,0,0,0-2.64,2.58,7.19,7.19,0,0,0-.92,3.59v9.49h-2.37l2.37,5.44v9.33h6.44v-9.93h0l5.41.35v9.58h6.45v-31.4H136.79A8.35,8.35,0,0,0,132.62,203.21Zm8.29,4.33h0v11.33H135.5v-8.08c0-1.6.32-2.56.94-2.9a6.85,6.85,0,0,1,2.81-.39C139.74,207.5,140.3,207.51,140.91,207.54Z"/><path class="cls-1" d="M185.8,218.83V202.24h-6.34v14.07q-2.67,2.25-4.64,3.68V202.24H168.4v31.4h6.42v-6.49l2.74-1.86,3.22,8.35h6.9l-4.6-12.45C184.07,220.39,185,219.6,185.8,218.83Z"/><path class="cls-1" d="M213.32,203.21a6.78,6.78,0,0,0-2.65,2.58,7.19,7.19,0,0,0-.92,3.59v9.49h-2.36l2.36,5.44v9.33h6.45v-9.93h0l5.41.35v9.58h6.44v-31.4H217.49A8.3,8.3,0,0,0,213.32,203.21Zm8.29,4.33h0v11.33H216.2v-8.08c0-1.6.31-2.56.94-2.9a6.76,6.76,0,0,1,2.8-.39C220.44,207.5,221,207.51,221.61,207.54Z"/><path class="cls-1" d="M96.33,191.31a16.35,16.35,0,0,0-6-7.52,1.37,1.37,0,0,0-.17-.17,7.59,7.59,0,0,0-1.81-1c-10.74-4.92-21.5-9.81-32.22-14.75-12.53-5.78-24.26-13-36.38-19.57A12.38,12.38,0,0,0,1.09,158.92c-.2,6.84-.1,13.69,0,20.53a11.34,11.34,0,0,0,1.26,5.62c2.87,5.19,7.64,6.16,12.82,6.19,12.29.08,24.59,0,36.88,0,11.26,0,22.52,0,33.78,0h0Z"/></g></g></svg>