<svg xmlns="http://www.w3.org/2000/svg" xmlns:xlink="http://www.w3.org/1999/xlink" viewBox="0 0 111.48 137.09"><defs><style>.cls-1{fill:url(#linear-gradient);}.cls-2{fill:#894920;}.cls-3{fill:#9b4322;opacity:0.49;isolation:isolate;}.cls-4{fill:#482112;}</style><linearGradient id="linear-gradient" x1="53.4" y1="151.55" x2="58.1" y2="11.2" gradientTransform="matrix(1, 0, 0, -1, 0, 132.5)" gradientUnits="userSpaceOnUse"><stop offset="0" stop-color="#b3d237"/><stop offset="1" stop-color="#458a40"/></linearGradient></defs><title>Asset 1</title><g id="Layer_2" data-name="Layer 2"><g id="Layer_1-2" data-name="Layer 1"><polygon class="cls-1" points="110.24 137.09 56.6 129.07 39.79 134.33 2.96 137.09 5.92 78.08 0 61 2.96 51.79 2.96 3.45 49.33 3.45 80.4 8.66 93.23 3.45 110.24 3.45 105.89 46.53 111.48 91.83 110.24 137.09"/><polygon class="cls-2" points="110.24 133.63 56.6 125.62 39.79 130.88 2.96 133.63 5.92 74.63 0 57.55 2.96 48.34 2.96 0 49.33 0 80.4 5.2 93.23 0 110.24 0 105.89 43.08 111.48 88.38 110.24 133.63"/><polygon class="cls-3" points="14.82 9.52 14.82 36.75 20.69 12.69 46.64 9.52 14.82 9.52"/><polyline class="cls-4" points="80.4 5.2 88.65 14.64 88.65 24.82 86.69 14.25 77.72 4.75 81.15 4.9"/><polygon class="cls-4" points="56.6 125.62 64.91 123.43 80.43 125.62 64.65 122.25 58.65 123.17 51.44 127.23 56.6 125.62"/><polygon class="cls-4" points="5.92 74.63 5.24 66.82 9.67 59.64 7.13 66.82 7.78 75.1 5.82 76.67 5.92 74.63"/></g></g></svg>