<svg xmlns="http://www.w3.org/2000/svg" xmlns:xlink="http://www.w3.org/1999/xlink" viewBox="0 0 111.47 137.09"><defs><style>.cls-1{fill:url(#linear-gradient);}.cls-2{fill:url(#linear-gradient-2);}</style><linearGradient id="linear-gradient" x1="53.4" y1="163.34" x2="58.1" y2="22.99" gradientTransform="matrix(1, 0, 0, -1, 0, 144.3)" gradientUnits="userSpaceOnUse"><stop offset="0" stop-color="#b3d237"/><stop offset="1" stop-color="#458a40"/></linearGradient><linearGradient id="linear-gradient-2" x1="-38.39" y1="193.81" x2="100.92" y2="23.2" xlink:href="#linear-gradient"/></defs><title>Asset 1</title><g id="Layer_2" data-name="Layer 2"><g id="Layer_1-2" data-name="Layer 1"><polygon class="cls-1" points="110.24 137.09 56.6 129.07 39.79 134.33 2.96 137.09 5.92 78.09 0 61 2.96 51.8 2.96 3.46 49.32 3.46 80.4 8.66 93.22 3.46 110.24 3.46 105.88 46.53 111.47 91.83 110.24 137.09"/><polygon class="cls-2" points="110.24 133.64 56.6 125.62 39.79 130.88 2.96 133.64 5.92 74.63 0 57.55 2.96 48.34 2.96 0 49.32 0 80.4 5.21 93.22 0 110.24 0 105.88 43.08 111.47 88.38 110.24 133.64"/></g></g></svg>