<svg xmlns="http://www.w3.org/2000/svg" xmlns:xlink="http://www.w3.org/1999/xlink" viewBox="0 0 316.85 131.53"><defs><style>.cls-1{fill:url(#radial-gradient);}.cls-2{fill:#9e5224;opacity:0.4;isolation:isolate;}.cls-3{fill:#dd863c;}.cls-4{fill:url(#radial-gradient-2);}.cls-5{fill:#8e8933;}.cls-6{fill:#665f27;}.cls-7{fill:url(#radial-gradient-3);}.cls-8{fill:url(#radial-gradient-4);}.cls-9{fill:url(#radial-gradient-5);}.cls-10{fill:url(#radial-gradient-6);}.cls-11{fill:url(#radial-gradient-7);}.cls-12{fill:url(#radial-gradient-8);}.cls-13{fill:url(#radial-gradient-9);}.cls-14{fill:url(#radial-gradient-10);}.cls-15{fill:url(#radial-gradient-11);}.cls-16{fill:url(#radial-gradient-12);}.cls-17{fill:url(#radial-gradient-13);}.cls-18{fill:url(#radial-gradient-14);}.cls-19{fill:url(#radial-gradient-15);}.cls-20{fill:#c8bc2e;}.cls-21{fill:#9a9033;}.cls-22{fill:#e5de19;}</style><radialGradient id="radial-gradient" cx="54.01" cy="66.67" r="42.58" gradientTransform="matrix(1, 0, 0, -1, 0, 133.28)" gradientUnits="userSpaceOnUse"><stop offset="0" stop-color="#c36128"/><stop offset="0.35" stop-color="#bf6028"/><stop offset="0.67" stop-color="#b35b27"/><stop offset="0.98" stop-color="#a05324"/><stop offset="1" stop-color="#9e5224"/></radialGradient><radialGradient id="radial-gradient-2" cx="273.07" cy="70.24" r="45.08" xlink:href="#radial-gradient"/><radialGradient id="radial-gradient-3" cx="771.19" cy="342.12" r="416.6" gradientTransform="matrix(1.19, 0, 0, -0.95, -623.45, 184.46)" gradientUnits="userSpaceOnUse"><stop offset="0" stop-color="#bfb131"/><stop offset="0.38" stop-color="#b9ac31"/><stop offset="0.72" stop-color="#aca032"/><stop offset="1" stop-color="#9a9033"/></radialGradient><radialGradient id="radial-gradient-4" cx="771.19" cy="342.14" r="416.62" xlink:href="#radial-gradient-3"/><radialGradient id="radial-gradient-5" cx="771.19" cy="342.14" r="416.62" xlink:href="#radial-gradient-3"/><radialGradient id="radial-gradient-6" cx="771.19" cy="342.14" r="416.61" xlink:href="#radial-gradient-3"/><radialGradient id="radial-gradient-7" cx="771.19" cy="342.14" r="416.62" xlink:href="#radial-gradient-3"/><radialGradient id="radial-gradient-8" cx="771.19" cy="342.14" r="416.62" xlink:href="#radial-gradient-3"/><radialGradient id="radial-gradient-9" cx="771.19" cy="342.15" r="416.65" xlink:href="#radial-gradient-3"/><radialGradient id="radial-gradient-10" cx="771.19" cy="342.15" r="416.63" xlink:href="#radial-gradient-3"/><radialGradient id="radial-gradient-11" cx="771.19" cy="342.13" r="416.61" xlink:href="#radial-gradient-3"/><radialGradient id="radial-gradient-12" cx="771.19" cy="341.96" r="416.36" xlink:href="#radial-gradient-3"/><radialGradient id="radial-gradient-13" cx="771.19" cy="342.15" r="416.64" xlink:href="#radial-gradient-3"/><radialGradient id="radial-gradient-14" cx="771.19" cy="342.14" r="416.55" xlink:href="#radial-gradient-3"/><radialGradient id="radial-gradient-15" cx="771.19" cy="342.24" r="416.83" xlink:href="#radial-gradient-3"/></defs><title>Asset 1</title><g id="Layer_2" data-name="Layer 2"><g id="Layer_1-2" data-name="Layer 1"><path class="cls-1" d="M61.63,126.07H47.26C46.53,90.5,42.47,50.23,45.73,7.82c0-.89,17.82-.89,17.82,0C59.16,47.53,60,87.06,61.63,126.07Z"/><path class="cls-2" d="M60.29,126.07H55.52c1.09-41.35.72-81-1.51-118.51h.63c1.94,0,3.53,0,4.75.1a25.09,25.09,0,0,1,2.8.23C57.82,47.53,58.62,87.24,60.29,126.07Z"/><path class="cls-3" d="M48.74,126.07h-.13c-.22-10.59-.72-21.56-1.25-32.79C46.1,66,44.79,37.7,47.07,7.89a23.89,23.89,0,0,1,3-.24C47.34,37.74,47.52,79.74,48.74,126.07Z"/><path class="cls-2" d="M59.39,7.65,59.16,12l-.3,4.32-.57,8.63-.62,8.63-.35,4.32c-.18,1.44-.27,2.88-.49,4.32-.24-1.44-.35-2.88-.51-4.32l-.22-4.32c-.11-2.88,0-5.76.16-8.64a82.08,82.08,0,0,1,1-8.64L58.17,12C58.55,10.52,58.9,9.08,59.39,7.65Z"/><path class="cls-2" d="M50,51.79c.32,2.75.52,5.5.78,8.25l.56,8.25c.35,5.5.53,11,.8,16.5.11,5.5.3,11,.33,16.5v8.25c-.07,2.75-.08,5.5-.22,8.25-.32-2.75-.52-5.5-.78-8.25l-.56-8.25c-.35-5.5-.53-11-.8-16.5-.1-5.5-.31-11-.33-16.5V60C49.88,57.29,49.89,54.54,50,51.79Z"/><polygon class="cls-2" points="52.92 126.07 52.65 126.07 52.74 123.84 52.92 126.07"/><path class="cls-4" d="M280.56,126.07H266.24c-.88-37.89-4.62-80.52-1.46-125.34,0-1,17.83-1,17.83,0C278.34,42.81,279,84.71,280.56,126.07Z"/><path class="cls-2" d="M279.21,126.07h-4.55c1-43.79.59-85.84-1.59-125.63h.63c1.94,0,3.53,0,4.75.11a21.1,21.1,0,0,1,2.8.25C277,42.81,277.64,84.88,279.21,126.07Z"/><path class="cls-3" d="M267.72,126.07h-.13c-.24-10.46-.7-21.25-1.17-32.27-1.26-29.76-2.57-60.53-.29-93a24.27,24.27,0,0,1,3-.26C266.46,32.56,266.58,77,267.72,126.07Z"/><path class="cls-2" d="M278.45.54l-.23,4.71-.3,4.7-.57,9.4-.62,9.4-.35,4.7c-.18,1.57-.27,3.14-.49,4.7-.24-1.57-.35-3.14-.51-4.7l-.22-4.71c-.11-3.14,0-6.28.16-9.41s.51-6.27,1-9.41l.87-4.7C277.61,3.67,278,2.1,278.45.54Z"/><path class="cls-2" d="M269.08,48.61c.32,3,.51,6,.78,9l.56,9c.35,6,.53,12,.8,18,.11,6,.3,12,.33,18v9c-.07,3-.08,6-.22,9-.32-3-.52-6-.78-9l-.56-9c-.35-6-.53-12-.8-18-.1-6-.31-12-.33-18v-9C268.94,54.61,269,51.61,269.08,48.61Z"/><path class="cls-5" d="M314.83,67.05c-1.21-4.55,5.4-14.59-1.35-17.21l-9.3-3.64c-2.93-1.15-5.52-.12-8.64.09-4.32.29-8.71.24-13,.33-18.35.4-36.68-.29-55-.58-28.09-.45-56.22-.62-84.3.32l-2.31.08c-1.41.05-1.8-.19-2.29.62s0,3.8,0,4.84c-.08,3.23-.45,6.44-.65,9.67-.12,1.94.83,2,2.73,2.71,1.08.43,2.29.79,3.41,1.24,2.17.87,4.41,2.15,6.89,2.52,2,.29,5.74.67,7,2.12,2.45,2.75-3.75,3.92-5.85,4-4,.25-7.92-.56-11.89-.68-1.57,0-3.18-.15-4.3.87s-.57,2.55-1.67,3.54-2.07.3-3.3.89-1.55,2.13-1.61,3.09c-.18,3.27,1.26,6.88,2,10.09s1.62,6.31,1.73,9.49c.1,2.94-1.44,5.82-.08,8.68a12.25,12.25,0,0,0,5.6,5.6c1.58.6,3.38,1,4.9,1.78,1,.5,1.47.49,2.23,1.3a10.83,10.83,0,0,1,1.63,2.48c.71,1.47.66,3.33,1.53,4.72a4.71,4.71,0,0,0,2.32,1.4c1,.43,2.08.79,3.1,1.22s2.14.86,3.1,1.21a17.22,17.22,0,0,0,3.8,1.22,69.65,69.65,0,0,0,7.24.14q45.35.42,90.72.18c6.19,0,12.37-.37,18.55-.39,2,0,4.06,0,6.08.07,1.39,0,5,.66,6.21.24,2-.71,2.32-3.88,3.58-5.45a6.91,6.91,0,0,1,5.6-2.76c2,0,4.7.78,6.53,0,2.08-.93,1.46-3.74,1.48-5.31a10.26,10.26,0,0,0-.51-4.07c-.46-1.15-1.32-2-.52-3.25,1.08-1.62,3.87-1.62,5.71-2.34,3.19-1.24,2.76-3.68,2.82-6.18a59.84,59.84,0,0,1,.52-9.07c.45-2.56,1-4.86-2-6.54-2.56-1.46-5.89-2.38-8.71-3.48-4.86-1.91.37-3.26,3.27-3.89s8-.73,8.83-3.28C317.57,73,315.54,69.7,314.83,67.05Z"/><path class="cls-5" d="M185.5,67.05c-1.21-4.55,5.4-14.59-1.35-17.21l-9.3-3.64c-2.93-1.15-5.52-.12-8.64.09-4.32.29-8.71.24-13,.33-18.35.4-36.68-.29-55-.58-28.09-.45-56.22-.62-84.3.32l-2.31.08c-1.41.05-1.8-.19-2.29.62s0,3.8,0,4.84c-.08,3.23-.45,6.44-.65,9.67-.12,1.94.83,2,2.73,2.71,1.08.43,2.29.79,3.41,1.24,2.17.87,4.41,2.15,6.89,2.52,2,.29,5.74.67,7,2.12,2.45,2.75-3.75,3.92-5.85,4-4,.25-7.92-.56-11.89-.68-1.57,0-3.18-.15-4.3.87S6,77,4.93,77.94s-2.07.3-3.3.89S.08,81,0,81.92C-.16,85.19,1.28,88.8,2,92s1.62,6.31,1.73,9.49c.1,2.94-1.44,5.82-.08,8.68a12.25,12.25,0,0,0,5.6,5.6c1.58.6,3.38,1,4.9,1.78,1,.5,1.47.49,2.23,1.3A10.83,10.83,0,0,1,18,121.34c.71,1.47.66,3.33,1.53,4.72a4.71,4.71,0,0,0,2.32,1.4c1,.43,2.08.79,3.1,1.22s2.14.86,3.1,1.21a17.22,17.22,0,0,0,3.8,1.22,69.65,69.65,0,0,0,7.24.14q45.34.42,90.72.18c6.19,0,12.37-.37,18.55-.39,2,0,4.06,0,6.08.07,1.39,0,5,.66,6.21.24,2-.71,2.32-3.88,3.58-5.45a6.91,6.91,0,0,1,5.6-2.76c2,0,4.7.78,6.53,0,2.08-.93,1.46-3.74,1.48-5.31a10.26,10.26,0,0,0-.51-4.07c-.46-1.15-1.32-2-.52-3.25,1.08-1.62,3.87-1.62,5.71-2.34,3.19-1.24,2.76-3.68,2.82-6.18a59.84,59.84,0,0,1,.52-9.07c.45-2.56,1-4.86-2-6.54-2.56-1.46-5.89-2.38-8.71-3.48-4.86-1.91.37-3.26,3.27-3.89s8-.73,8.83-3.28C188.24,73,186.21,69.7,185.5,67.05Z"/><path class="cls-6" d="M147.18,125.74l-126-1.06L20,126.54a7.64,7.64,0,0,0,1.88.92c1,.43,2.08.79,3.1,1.22s2.14.86,3.1,1.21a17.22,17.22,0,0,0,3.8,1.22,69.65,69.65,0,0,0,7.24.14q45.35.42,90.72.18c6.19,0,12.37-.37,18.55-.39,2,0,4.06,0,6.08.07,1.39,0,5,.66,6.21.24a1.43,1.43,0,0,0,.27-.15Z"/><path class="cls-6" d="M293,117.8H282.46l13.61,6a7,7,0,0,1,3.09-.71c2,0,4.7.78,6.53,0a2.21,2.21,0,0,0,.79-.6Z"/><path class="cls-6" d="M313.83,106.73l-13.1-5-9.06,5L306,110.79c0-.1,0-.2.12-.31,1.08-1.62,3.87-1.63,5.71-2.34a4.11,4.11,0,0,0,.42-.21l1.53-1.17S313.83,106.74,313.83,106.73Z"/><path class="cls-6" d="M287.36,74.6,289,76.91l14.21,3.58a16.84,16.84,0,0,1,4.59-1.5c2.78-.61,8-.73,8.83-3.28L305.08,72Z"/><path class="cls-6" d="M276.52,125.74l-126-1.07-1.23,1.86a7.64,7.64,0,0,0,1.88.92c1,.43,2.08.79,3.1,1.22s2.14.86,3.1,1.21a17.22,17.22,0,0,0,3.8,1.22,69.65,69.65,0,0,0,7.24.14q45.35.42,90.72.18c6.19,0,12.37-.37,18.55-.39,2,0,4.06,0,6.08.07,1.39,0,5,.66,6.21.24a1.43,1.43,0,0,0,.27-.15Z"/><path class="cls-6" d="M9,63.22a7.8,7.8,0,0,0,2.27,1.06c1.08.43,2.29.79,3.41,1.24,2.17.87,4.41,2.15,6.89,2.52.92.14,2.24.3,3.52.58l.55-1.2-4.35-5.54Z"/><path class="cls-7" d="M71.1,104.06c2.32-.6,2.86-1.3,1.05-1.77A43.2,43.2,0,0,0,61,101.65a9.74,9.74,0,0,0-3.93.89Q64.06,103.33,71.1,104.06Z"/><path class="cls-8" d="M206.2,85.25c-27.72-.27-55.39-1.33-83.34-2.69s-56.22-3.08-85.14-5.1q18.95-.24,37.52-.31c-9.53-1.45-22.78-1.88-31.37-.9l-7.21.82C27,78.17,11,79.36,1.2,79.71H.88a4.78,4.78,0,0,0-.59,1,6.18,6.18,0,0,0,0,3.66Q1.11,88,1.88,91.63l.18,0a207.16,207.16,0,0,0,33.71,1.26A65.79,65.79,0,0,1,17.9,85.75c11.63,1.08,22,1.52,32.4,2s20.69.83,32.27.84a66.81,66.81,0,0,1-12.4,4.35A101.45,101.45,0,0,1,83,95.18c9.32,2.41,24.53,6.47,33.8,9l.31.09c9.27,2.55,8.88,5.35-.87,6.23l-1.28.11c-9.74.88-25.71,2.17-35.47,2.88l-1,.07c-9.77.71-25.12.94-34.12.52s-23.71-1.19-32.7-1.71c-2-.12-4.39-.2-6.89-.26a26.56,26.56,0,0,0,3.4,3.39,16.94,16.94,0,0,1,6.5-.14c.24,2,1.67,3.6,2.8,5.28,6.84-.07,13.79-.07,19,0l7.34.12c9.8.16,25.84.08,35.64-.2l6.91-.19c9.8-.27,25.82-1,35.6-1.58l7.28-.44c9.78-.6,17.82-1.06,17.87-1s8.12,0,17.92-.07l7.13,0c9.81-.06,25.84-.42,35.64-.8l7.07-.27c9.79-.38,17.85-.14,17.9.52s8.11,1.47,17.9,1.79l7.33.24c7.07.23,17.36.64,26.23,1a7.85,7.85,0,0,1,1.33-.66c2.6-1,9.47,1.53,10-1.8-41.35-1.67-82.88-4.23-126-7.59a39.71,39.71,0,0,1-5,.86A24.42,24.42,0,0,1,153,109.19,95.75,95.75,0,0,1,164,107a24.61,24.61,0,0,1,11.56,1.28c-2,.47-3.8,1-5.56,1.36,43-.43,84.55-.14,125.56.75,0-.09,0-.17,0-.26-.25-1.17-1.53-2.13-1.06-3.38s1.9-1.8,3.44-2.2c-19.51-.47-39.09-1.65-59.38-.06,14.64-2.44,29.39-2.89,43.78-3.08,7-.08,13.92-.08,20.81-.13a9.47,9.47,0,0,0,.13-1.4l.09-3.46c-3.71-.38-7.46-.83-11.29-1.39,3.86-.49,7.62-.81,11.35-1,0-1,0-2,.07-3a25.35,25.35,0,0,1,.53-3.36,39.67,39.67,0,0,0-9.77,1.44,35.14,35.14,0,0,1,10-3.56,4.59,4.59,0,0,0-.07-1.07,3.61,3.61,0,0,0-1.5-2C270.26,84.88,238.14,85.59,206.2,85.25Zm-84.44,30.69c-7,.7-14.67.26-21.1-2.77,7.41.66,13.9-.22,20.61-.83a156.43,156.43,0,0,1,21-1.06C135.42,113.37,128.83,115.23,121.76,115.94Zm77.81-14.45c-12.6.67-25.5,1.18-38.58.22A175.25,175.25,0,0,1,122.5,94.5a288.74,288.74,0,0,0,38.87,1.81c12.64-.26,25.14-1.36,37.86-2a297.2,297.2,0,0,1,77.25,5.3C249.63,99.13,224.66,100,199.57,101.49Zm45-15c-25.14,1.32-48.81,5.35-73.3,4.16-12.16-.78-23.92-2.13-36-3.06s-24.28-1.72-36.9-1.1c25.11-3.46,49.78-1,73.44.56C195.41,88.22,219.47,85.4,244.52,86.51Z"/><path class="cls-9" d="M217.16,69.16c-10.09-.77-20.29-1.91-30.24-2.82s-19.92.2-30,1.46-20.28,2.89-30.74,3.66-21.24.53-31.41-2a102.42,102.42,0,0,0,31.3.39c10.29-1.22,20.33-3.21,30.5-4.78,4.74-.74,9.53-1.39,14.36-1.82l-6-.42A208.37,208.37,0,0,0,129.59,64l-7.85,1.07a144.3,144.3,0,0,1-35.06-.38l-8.14-1.29C68.92,61.9,53,60.37,43.24,60l-6.37-.23a243.87,243.87,0,0,0-28.25,1c-.07.66-.09,1.32-.16,2a.72.72,0,0,0,.07.52,1.09,1.09,0,0,0,.71.31c2.81.44,5.55,0,8.35.54a4.9,4.9,0,0,1,1.37.45A123.82,123.82,0,0,1,41.71,63.3a78.68,78.68,0,0,1,23.36,4.32c-14.72-2.79-28.86-1.69-42.69.19,1.95.94,4.56,1.22,6.27,2.52.45,1.18.66,1.84-.47,2.63a8.7,8.7,0,0,1-4.07,1.3c-4.81.55-9.67-.6-14.53-.59a4.58,4.58,0,0,0-2.7.6,4.18,4.18,0,0,0-1.22,2.5c9.64-.62,22.33-2,30.52-3.24l8-1.27a128.74,128.74,0,0,1,34.91.23L87,73.84a136.07,136.07,0,0,0,35,.52l7.57-1.07a152.22,152.22,0,0,1,35.12,0l7.89,1.1A339.43,339.43,0,0,0,207.91,77l6.83.08c9.81.12,25.84.47,35.64.79l7.18.23a254,254,0,0,0,33.68-1.67,4.5,4.5,0,0,1,2.47-1.16l9.5-2.08a3.44,3.44,0,0,0,1.26-.45,2.11,2.11,0,0,0,.78-1.34c0-.06,0-.12,0-.18q-13.54.51-26.92.55C257.75,71.79,237.4,70.81,217.16,69.16Z"/><path class="cls-10" d="M293.38,63.38c-9.8.21-25.84.3-35.65.21l-7.11-.07c-9.8-.1-25.85.06-35.64.35l-7.23.21c-1.86.06-4,.08-6.23.09l16.53,1.42c20.17,1.63,40.35,2.89,60.76,3.47,8.8.14,17.67.4,26.57.44-.16-2.12-1.17-4.24-1.79-6.36l-3,.08Z"/><path class="cls-11" d="M44.39,111a270.14,270.14,0,0,0,34.05-.36l21-1.77c9.75-.82,10.15-3.58.89-6.14l-17.8-4.92a117.15,117.15,0,0,0-21.66-3.29,72.45,72.45,0,0,1-15.51.07l-8.18.58c-9.77.69-17.8,1.36-17.86,1.48s-7.54-.73-16.81-1.91l.12.58c2.07.27,4.05.6,5.94.86q12.47,1.86,25.08,3.51,8.16,1.06,16.42,2c.26-1.3,2.52-2.32,6.46-2.64a80,80,0,0,1,23,2.18c4.21,1.15,4.67,2.6,1.87,3.79l3.72.36c-1.76.08-3.51.11-5.26.17a33,33,0,0,1-4.84,1,56,56,0,0,1-19-.66q-11.87-.14-23.56-.82-12.95-.76-25.7-2.23l-3.14-.36a11.67,11.67,0,0,1-.18,2.08A16.13,16.13,0,0,0,3,107.7a5.23,5.23,0,0,0,.1,1c3.15,0,6.11.14,8.61.28C20.71,109.47,35.42,110.39,44.39,111Z"/><path class="cls-12" d="M251.18,125.45c8.72.21,17.53.43,26.39-.48-7.12-.2-14.44-.53-19.84-.93l-7.36-.55c-9.76-.73-25.77-1-35.56-.68l-6.94.25c-9.8.36-25.82.22-35.6-.3l-7.27-.39c-1-.05-2.05-.09-3.13-.12-12.51,2.07-25.29,2.46-37.81,2.7-4.36.08-8.69.14-13,.23-8.35.65-17.62,1.17-24.17,1.33l-7.44.18c-9.8.23-25.82,0-35.6-.62L40,125.85c-3.74.21-7.45.61-11.15,1.14,17.23.13,91.31.4,98.64,0a208.66,208.66,0,0,1,21.8.06A1.33,1.33,0,0,0,150,127s.05-.08.08-.12c1.53,0,3,.05,4.56.1,1.81,0,25.8.18,50.14.23,5-.68,10-1.31,15.14-1.72C230.48,124.67,240.83,125.18,251.18,125.45Z"/><path class="cls-13" d="M304.67,48.07A2.56,2.56,0,0,0,303.16,46c-2-.67-3.21,0-5,.24a72.47,72.47,0,0,1-7.82.41l-17,.37c-3,.06-10-.08-19.71-.28l-.35.07C270.35,47,287.46,47.44,304.67,48.07Z"/><path class="cls-14" d="M270.19,126.79c2.77,0,5.56.12,8.43.27a1.33,1.33,0,0,0,.75-.11.89.89,0,0,0,.31-.43l.63-1.47h-.52Q275,126.15,270.19,126.79Z"/><path class="cls-15" d="M160.75,122.21a269.16,269.16,0,0,0-31.2,1.15l-.45,0A255.83,255.83,0,0,0,160.75,122.21Z"/><path class="cls-16" d="M143.88,77.38l10.49.11C151,77.32,147.39,77.29,143.88,77.38Z"/><path class="cls-17" d="M9.25,46.68c0,.25,0,.5,0,.75C33.48,47,57.75,46.58,82.48,46,59.37,45.74,33.06,45.76,9.25,46.68Z"/><path class="cls-18" d="M9,56.35C18.08,55.54,29,55,36.43,55l7.81,0a326.52,326.52,0,0,1,35.4,2.51l7.23,1A159.59,159.59,0,0,0,122,58.7l7.38-1c9.68-1.26,17.7-2.07,17.83-1.8s8.24,1,18,1.54l6.92.41c9.78.57,25.8.83,35.6.58l6.87-.18c9.8-.26,25.84-.62,35.64-.82l7.41-.15c9.8-.19,25.85-.36,35.65-.38h7.09l3.58,0c.16-.95.33-1.94.47-2.92-61.06.74-120.28-1.1-183.59-5.56,23-.86,45.53-1.42,67.74-1.7-6.8-.46-13.65-.64-20.55-.74-10,.12-20,.34-29.52.71a2.43,2.43,0,0,0,0,.27c-6.52-.08-17.23-.34-30.38-.58A877.07,877.07,0,0,1,9.13,54.62C9.11,55.19,9,55.77,9,56.35Z"/><path class="cls-19" d="M232.29,46.27q-6-.1-12.58-.19C223.93,46.27,228.12,46.35,232.29,46.27Z"/><path class="cls-20" d="M277.58,125c-8.86.92-17.67.69-26.39.48-10.36-.26-20.7-.77-31.22,0-5.12.41-10.14,1-15.14,1.72,23.82,0,48,0,52-.16,4.54-.23,8.93-.28,13.37-.21a97.05,97.05,0,0,0,9.6-1.76C279.06,125,278.31,125,277.58,125Z"/><path class="cls-20" d="M161.87,122.25l-1.12,0a255.83,255.83,0,0,1-31.65,1.2l-6.74.74c-3.23.35-7.17.7-11.32,1l13-.23C136.58,124.71,149.36,124.32,161.87,122.25Z"/><path class="cls-20" d="M36.43,125.62c-4.75-.28-11-.44-17.23-.49.23.77.42,1.41.46,1.61s.05.07.11.07c1.87,0,3.72.07,5.57.12l3.49,0c3.7-.53,7.41-.93,11.15-1.14Z"/><path class="cls-20" d="M218,65.6l-16.53-1.42c-9.48,0-21.44-.25-29.35-.81l-1.22-.09c-4.83.43-9.63,1.08-14.36,1.82-10.17,1.58-20.22,3.56-30.5,4.78a102.42,102.42,0,0,1-31.3-.39c10.17,2.5,21,2.82,31.41,2s20.65-2.4,30.74-3.66,20.17-2.25,30-1.46,20.15,2,30.24,2.82c20.24,1.65,40.59,2.63,61.2,2.62q13.39,0,26.92-.55a6.73,6.73,0,0,0,.09-1.73c-8.9,0-17.77-.29-26.57-.44C258.39,68.48,238.22,67.22,218,65.6Z"/><path class="cls-20" d="M121.27,112.34c-6.71.61-13.2,1.49-20.61.83,6.43,3,14.16,3.46,21.1,2.77s13.66-2.57,20.56-4.65A154.76,154.76,0,0,0,121.27,112.34Z"/><path class="cls-20" d="M238.55,104.48c20.29-1.59,39.87-.41,59.38.06,1.82-.47,3.82-.8,4.74-2.11a2.87,2.87,0,0,0,.46-1.15c-6.89,0-13.81,0-20.81.13C267.94,101.59,253.2,102,238.55,104.48Z"/><path class="cls-20" d="M65.08,67.61a78.36,78.36,0,0,0-23.36-4.32A124.7,124.7,0,0,0,19,64.61a1.77,1.77,0,0,1,.31.15,7.64,7.64,0,0,1,1.36,1.74,4.78,4.78,0,0,0,1.75,1.3C36.22,65.92,50.36,64.82,65.08,67.61Z"/><path class="cls-20" d="M171.74,87.08c-23.66-1.53-48.32-4-73.44-.56,12.62-.62,24.85.17,36.9,1.1s23.85,2.28,36,3.06c24.5,1.19,48.16-2.84,73.3-4.16C219.47,85.4,195.41,88.22,171.74,87.08Z"/><path class="cls-20" d="M303.35,96.41l.06-2.41c-3.73.22-7.5.54-11.35,1C295.89,95.58,299.64,96,303.35,96.41Z"/><path class="cls-20" d="M48.34,92.06a125.54,125.54,0,0,1,21.84.85,66.81,66.81,0,0,0,12.4-4.35c-11.58,0-21.91-.43-32.27-.84s-20.77-.89-32.4-2a65.79,65.79,0,0,0,17.87,7.17l1.61-.08Z"/><path class="cls-20" d="M32.56,105.08c7.79.47,15.65.72,23.56.82a14.74,14.74,0,0,1-4-1.52c-1.51-.92-2.12-1.83-2-2.64q-8.25-1-16.42-2Q21.08,98.06,8.63,96.2c-1.9-.26-3.87-.59-5.94-.86l.51,2.38a21.93,21.93,0,0,1,.53,4.77l3.14.36Q19.6,104.31,32.56,105.08Z"/><path class="cls-20" d="M304,87.69a11.61,11.61,0,0,0,.21-2.12,35.14,35.14,0,0,0-10,3.56A39.67,39.67,0,0,1,304,87.69Z"/><path class="cls-20" d="M60.92,94.53A99.19,99.19,0,0,0,48,94.42l-2.57.18A72.46,72.46,0,0,0,60.92,94.53Z"/><path class="cls-20" d="M120.91,48.4C184.22,52.86,243.44,54.7,304.5,54a18.4,18.4,0,0,0,.17-5.9c-17.21-.62-34.32-1.06-51.44-1.31l.35-.07c-6.13-.13-13.33-.27-21.28-.41-4.17.08-8.36,0-12.58-.19-14.28-.19-30.14-.3-46.09-.17a6.35,6.35,0,0,0-3.44,0l-2.08,0c6.9.09,13.75.28,20.55.74C166.44,47,144,47.54,120.91,48.4Z"/><path class="cls-20" d="M199.22,94.26c-12.72.69-25.21,1.79-37.86,2a290.47,290.47,0,0,1-38.87-1.81A176.54,176.54,0,0,0,161,101.71c13.08,1,26,.45,38.58-.22,25.09-1.49,50.06-2.36,76.9-1.94A297.52,297.52,0,0,0,199.22,94.26Z"/><path class="cls-20" d="M85.23,105.43c-1.25-.11-2.48-.24-3.72-.36a14.32,14.32,0,0,1-1.54.53C81.72,105.54,83.47,105.51,85.23,105.43Z"/><path class="cls-20" d="M170,109.62c1.76-.41,3.57-.89,5.56-1.36A24.61,24.61,0,0,0,164,107a97.92,97.92,0,0,0-11,2.22,24.54,24.54,0,0,0,11.57,1.37,41.58,41.58,0,0,0,5-.86c43.14,3.36,84.67,5.92,126,7.59a3.79,3.79,0,0,0,.06-.38,32.57,32.57,0,0,0-.08-6.55C254.58,109.48,213.05,109.19,170,109.62Z"/><path class="cls-20" d="M257.91,81.18l-7.69-.78a283.77,283.77,0,0,0-35.48-.88l-7.17.36c-9.79.5-17.9,1.3-18,1.77s-8.09-.43-17.7-2l-7.21-1.19a91.84,91.84,0,0,0-10.26-1l-10.49-.11a104.28,104.28,0,0,0-14.14,1.21l-8,1.38c-9.58,1.65-25.2,1.42-34.69-.52l-8.25-1.68c-1.1-.22-2.3-.43-3.55-.62-12.41.06-24.89.15-37.52.31,28.92,2,57.19,3.73,85.14,5.1S178.48,85,206.2,85.23c31.93.34,64.05-.37,96.45-2.72a13.89,13.89,0,0,0-4-1.72l-2.5-.73-3,.42A176.58,176.58,0,0,1,257.91,81.18Z"/><path class="cls-20" d="M57.21,104c1.62,1,6.62,1.28,11.12.64a27.63,27.63,0,0,0,2.77-.53q-7-.72-14-1.51C56.43,103,56.41,103.46,57.21,104Z"/><path class="cls-20" d="M108.19,46.37c-7.82-.15-16.51-.29-25.72-.38-24.74.59-49,1-73.24,1.44,0,2.4,0,4.79-.1,7.18A877.07,877.07,0,0,0,108.19,46.37Z"/><path class="cls-21" d="M44.4,114.1c9,.42,24.35.18,34.12-.52l1-.07c9.77-.71,25.73-2,35.47-2.88l1.28-.11c9.74-.88,10.13-3.68.87-6.23l-.31-.09c-9.27-2.55-24.48-6.61-33.8-9a101.78,101.78,0,0,0-12.87-2.27,124.56,124.56,0,0,0-21.84-.85l-11,.78c-.5,0-1.08,0-1.61.08A207.16,207.16,0,0,1,2.07,91.66l-.18,0c.22,1,.45,2.08.67,3.13,9.27,1.18,16.76,2,16.81,1.91s8.09-.79,17.86-1.48l8.18-.58L48,94.43a99.19,99.19,0,0,1,12.94.11,117.15,117.15,0,0,1,21.66,3.29l17.8,4.92c9.26,2.56,8.86,5.32-.89,6.14l-21,1.77A270.14,270.14,0,0,1,44.4,111c-9-.62-23.68-1.55-32.69-2.06-2.5-.14-5.46-.23-8.61-.28a8,8,0,0,0,1.72,3.45c2.5.06,4.86.14,6.89.26C20.69,112.91,35.41,113.68,44.4,114.1Z"/><path class="cls-21" d="M257.58,78.12l-7.18-.23c-9.8-.31-25.84-.67-35.64-.79L207.93,77a339.64,339.64,0,0,1-35.39-2.67l-7.89-1.1a152.22,152.22,0,0,0-35.12,0L122,74.35a136.07,136.07,0,0,1-35-.52l-7.84-1.35a128.74,128.74,0,0,0-34.91-.23l-8,1.27C28,74.81,15.33,76.14,5.68,76.76c0,.1,0,.2-.08.29-.32,1-1.33,2-2.48,1.74a2.06,2.06,0,0,0-2.23.92h.32C11,79.35,27,78.16,36.67,77.06l7.21-.82c8.58-1,21.84-.55,31.37.9,1.25.19,2.45.39,3.55.62l8.25,1.68c9.5,1.94,25.11,2.17,34.69.52l8-1.38a102.55,102.55,0,0,1,14.14-1.21c3.51-.09,7.07-.05,10.49.11a91.84,91.84,0,0,1,10.26,1l7.21,1.19c9.6,1.58,17.57,2.49,17.7,2s8.24-1.28,18-1.77l7.17-.36a283.77,283.77,0,0,1,35.48.88l7.69.78a177.44,177.44,0,0,0,35.25-.68l3-.42-2.38-.7c-1.36-.4-3-1.17-2.8-2.37a1.31,1.31,0,0,1,.29-.56A257.61,257.61,0,0,1,257.58,78.12Z"/><path class="cls-21" d="M293.35,56.92c-9.81,0-25.85.19-35.65.38l-7.41.15c-9.8.19-25.84.56-35.64.82l-6.87.18c-9.8.26-25.82,0-35.6-.58l-6.92-.41c-9.78-.57-17.89-1.27-18-1.54s-8.15.54-17.83,1.8l-7.38,1a159.59,159.59,0,0,1-35.16-.12l-7.23-1a326.34,326.34,0,0,0-35.4-2.51l-7.81,0C29,55,18.08,55.52,9,56.33c-.09,1.49-.22,3-.37,4.47a243.87,243.87,0,0,1,28.25-1l6.37.23a352,352,0,0,1,35.3,3.42l8.14,1.29a144.3,144.3,0,0,0,35.06.38L129.6,64a208.41,208.41,0,0,1,35.33-1.16l6,.42,1.22.09c7.91.55,19.87.86,29.35.81,2.23,0,4.36,0,6.23-.09l7.23-.21c9.8-.29,25.84-.45,35.64-.35l7.11.07c9.81.1,25.85,0,35.65-.21l7.19-.15,3-.08-.12-.39c-.28-1,.12-3.32.56-5.88l-3.58,0Z"/><path class="cls-21" d="M250.71,118.49c-9.8-.32-17.85-1.13-17.9-1.79s-8.1-.9-17.9-.52l-7.07.27c-9.79.38-25.83.74-35.64.8l-7.13,0c-9.81.06-17.87.09-17.92.07s-8.09.44-17.87,1l-7.28.44c-9.78.6-25.8,1.31-35.6,1.58l-6.91.19c-9.8.27-25.84.36-35.64.2l-7.34-.12c-5.2-.09-12.14-.09-19,0,.11.16.23.32.33.49a35.71,35.71,0,0,1,1.36,4c6.26,0,12.48.21,17.23.49l3.56.21,3.85.22c9.78.57,25.8.85,35.6.62l7.44-.18c6.55-.15,15.82-.68,24.17-1.33,4.15-.32,8.09-.67,11.32-1l6.74-.74.45-.05a271.4,271.4,0,0,1,31.2-1.15l1.12,0c1.08,0,2.16.07,3.13.12l7.27.39c9.78.52,25.8.65,35.6.3l6.94-.25c9.8-.36,25.8,0,35.56.68l7.36.55c5.41.41,12.72.73,19.84.93l2.21.06h.52c.88-2,1.87-4,4-5.27-8.87-.39-19.16-.8-26.23-1Z"/><path class="cls-21" d="M52.08,104.38a14.74,14.74,0,0,0,4,1.52,55.45,55.45,0,0,0,19,.66,36.15,36.15,0,0,0,4.84-1,15.12,15.12,0,0,0,1.54-.53c2.8-1.19,2.34-2.64-1.87-3.79a80,80,0,0,0-23-2.18c-3.94.32-6.21,1.34-6.46,2.64C50,102.55,50.58,103.46,52.08,104.38Zm9-2.73a42.75,42.75,0,0,1,11.12.64c1.81.47,1.26,1.17-1.05,1.77a27.63,27.63,0,0,1-2.77.53c-4.5.65-9.5.36-11.12-.64-.8-.49-.78-1-.11-1.4A9.54,9.54,0,0,1,61,101.65Z"/><path class="cls-22" d="M86,55.55s-3.64-.44-9.56-.86A226.84,226.84,0,0,0,30.13,56.2c-5.87.8-9.46,1.48-9.46,1.48l9.61-.56c5.92-.34,14.06-.71,23-1s17.13-.45,23.06-.5Z"/><path class="cls-6" d="M86,55.55s-3.66-.26-9.59-.5S62.29,54.69,53.26,55s-17.19,1-23.08,1.57-9.51,1.12-9.51,1.12,3.53-1,9.37-2a158.31,158.31,0,0,1,23.14-2.51,159.45,159.45,0,0,1,23.3,1C82.4,54.83,86,55.55,86,55.55Z"/><path class="cls-22" d="M167.48,64.92s-11.32-.84-25.32-1.44-25.36-.72-25.36-.72a214.88,214.88,0,0,0,25.25,2.57A216.94,216.94,0,0,0,167.48,64.92Z"/><path class="cls-6" d="M167.48,64.92s-11.36-.12-25.36-.72-25.32-1.44-25.32-1.44a216.82,216.82,0,0,1,25.42-.41A214.57,214.57,0,0,1,167.48,64.92Z"/><path class="cls-22" d="M159.28,109.26s-2.47,0-6.43-.22a101.53,101.53,0,0,1-15.26-2.16A98.06,98.06,0,0,1,123,102.43c-3.61-1.43-5.75-2.48-5.75-2.48a44.27,44.27,0,0,0,5.28,3.32,56.54,56.54,0,0,0,14.51,5.42A59.41,59.41,0,0,0,152.8,110,48.9,48.9,0,0,0,159.28,109.26Z"/><path class="cls-6" d="M159.28,109.26s-2.46.21-6.45.14a79.7,79.7,0,0,1-15.45-1.82,75.53,75.53,0,0,1-14.55-4.83c-3.53-1.6-5.57-2.81-5.57-2.81l6,2c3.72,1.17,8.87,2.58,14.61,3.86s11.05,2.17,15,2.69Z"/><path class="cls-22" d="M48.31,102.76S41,103.85,32,105.62s-16.1,3.56-16.1,3.56a93.65,93.65,0,0,0,16.58-1.76A90.4,90.4,0,0,0,48.31,102.76Z"/><path class="cls-6" d="M48.31,102.76s-7.16,1.79-16.1,3.56-16.29,2.86-16.29,2.86a90.89,90.89,0,0,1,15.81-4.67A94.24,94.24,0,0,1,48.31,102.76Z"/><path class="cls-22" d="M101.61,119.56s-10.85.92-24.25,1.2-24.29-.13-24.29-.13,2.68.56,7.07,1.1a121.8,121.8,0,0,0,17.27.89A122.47,122.47,0,0,0,94.61,121C99,120.23,101.61,119.56,101.61,119.56Z"/><path class="cls-6" d="M101.61,119.56a207.88,207.88,0,0,1-24.23,1.92,208.14,208.14,0,0,1-24.31-.86s10.95-.69,24.25-1S101.61,119.56,101.61,119.56Z"/><path class="cls-22" d="M215.33,55.55s-3.64-.44-9.56-.86a226.84,226.84,0,0,0-46.31,1.51c-5.87.8-9.46,1.48-9.46,1.48l9.6-.56c5.92-.34,14.06-.71,23-1s17.13-.45,23.06-.5Z"/><path class="cls-6" d="M215.33,55.55s-3.66-.26-9.59-.5-14.12-.36-23.15-.07-17.19,1-23.08,1.57S150,57.67,150,57.67s3.53-1,9.37-2a154.5,154.5,0,0,1,46.44-1.51C211.73,54.83,215.33,55.55,215.33,55.55Z"/><path class="cls-22" d="M296.82,64.92s-11.32-.84-25.32-1.44-25.36-.72-25.36-.72a214.88,214.88,0,0,0,25.25,2.57A216.94,216.94,0,0,0,296.82,64.92Z"/><path class="cls-6" d="M296.82,64.92s-11.36-.12-25.36-.72-25.32-1.44-25.32-1.44a216.32,216.32,0,0,1,50.68,2.16Z"/><path class="cls-22" d="M288.61,109.26s-2.47,0-6.43-.22a101.53,101.53,0,0,1-15.26-2.16,98.06,98.06,0,0,1-14.57-4.45C248.74,101,246.6,100,246.6,100a44.27,44.27,0,0,0,5.28,3.32,56.54,56.54,0,0,0,14.51,5.42A59.41,59.41,0,0,0,282.13,110,48.9,48.9,0,0,0,288.61,109.26Z"/><path class="cls-6" d="M288.61,109.26s-2.46.21-6.45.14a79.7,79.7,0,0,1-15.45-1.82,75.53,75.53,0,0,1-14.55-4.83c-3.53-1.6-5.57-2.81-5.57-2.81l6,2c3.72,1.17,8.87,2.58,14.61,3.86s11.05,2.17,15,2.69Z"/><path class="cls-22" d="M231,119.56s-10.85.92-24.25,1.2-24.29-.13-24.29-.13,2.68.56,7.07,1.1a121.8,121.8,0,0,0,17.27.89A122.47,122.47,0,0,0,224,121C228.3,120.23,231,119.56,231,119.56Z"/><path class="cls-6" d="M231,119.56a207.88,207.88,0,0,1-24.23,1.92,208.14,208.14,0,0,1-24.31-.86s11-.69,24.25-1S231,119.56,231,119.56Z"/></g></g></svg>