<svg xmlns="http://www.w3.org/2000/svg" viewBox="0 0 325.78 303.4"><defs><style>.cls-1{fill:#fdc169;}.cls-2{fill:#cc8a38;}.cls-22,.cls-23,.cls-27,.cls-28,.cls-3{isolation:isolate;}.cls-4{fill:#88a13c;}.cls-5{fill:#a6c839;}.cls-6{fill:#bcd635;}.cls-7{fill:#333;}.cls-8{fill:#010101;}.cls-9{fill:#676868;}.cls-10{fill:#ac4526;}.cls-11{fill:#f15b28;}.cls-12{fill:#4e4f4f;}.cls-13{fill:#1a1a1a;}.cls-14{fill:#b4b2b4;}.cls-15{fill:#faaf3a;}.cls-16{fill:#979797;}.cls-17,.cls-22{fill:#fff;}.cls-18{fill:#cbcbca;}.cls-19,.cls-23,.cls-28{fill:#c2742a;}.cls-20{fill:#fcf6b6;}.cls-21{fill:#fbbc5a;}.cls-22,.cls-23{opacity:0.3;}.cls-24{fill:#7e7e7e;}.cls-25{fill:#706f70;}.cls-26{fill:#474747;}.cls-27{fill:#0ba4be;}.cls-27,.cls-28{opacity:0.5;}.cls-29{fill:#d3edfa;}.cls-30{fill:#e5e5e4;}.cls-31{fill:#7a3718;}</style></defs><title>Asset 1</title><g id="Layer_2" data-name="Layer 2"><g id="Layer_1-2" data-name="Layer 1"><polyline class="cls-1" points="193.95 249.56 197.84 303.4 277.44 229.07 325.78 218.18 324.8 174.02 193.95 249.56"/><polygon class="cls-2" points="193.95 249.56 197.35 302.75 150.26 244.93 45.34 191.91 5.13 176.53 0 149.14 0.76 137.29 193.95 249.56"/><g class="cls-3"><polygon class="cls-4" points="0.66 123.23 0.7 137.28 193.89 249.55 193.85 235.5 0.66 123.23"/><polygon class="cls-5" points="193.85 235.5 193.89 249.55 324.74 174.01 324.7 159.95 193.85 235.5"/><polygon class="cls-6" points="0.59 123.15 193.78 235.42 324.63 159.88 131.44 47.61 0.59 123.15"/></g><g class="cls-3"><path class="cls-7" d="M69.48,32.73c-3.21-1.85-6.11-2-8.21-.8l-4.8,2.79c2.1-1.22,5-1,8.21.8,6.38,3.68,11.52,12.61,11.5,19.94,0,3.64-1.29,6.2-3.36,7.41l4.8-2.79c2.07-1.2,3.35-3.76,3.36-7.41C81,45.34,75.86,36.41,69.48,32.73Z"/><path class="cls-8" d="M64.68,35.52c6.38,3.68,11.52,12.61,11.5,19.94S71,65.74,64.6,62.06,53.08,49.47,53.1,42.14,58.3,31.84,64.68,35.52Z"/></g><path class="cls-8" d="M24.84,27.86,10.74,26,3.19,29.75a21.79,21.79,0,0,1,9.93,6.49l20.46,2.85Z"/><path class="cls-9" d="M13.11,36.24a18.16,18.16,0,0,1,4.44,9.65l19.62,1.5-3.6-8.3Z"/><path class="cls-8" d="M31.6,45.48l-16.44-2.2-8.81,4.4a25.34,25.34,0,0,1,11.57,7.57l23.86,3.33Z"/><path class="cls-9" d="M17.92,55.24A21.2,21.2,0,0,1,23.1,66.5L46,68.25l-4.2-9.68Z"/><path class="cls-8" d="M38.22,65.46,19.27,62.92,9.12,68a29.33,29.33,0,0,1,13.34,8.72L50,80.56Z"/><path class="cls-9" d="M22.45,76.72a24.5,24.5,0,0,1,6,13l26.37,2L50,80.55Z"/><path class="cls-10" d="M31.37,0,19,7.22l0,7.66L44.22,79.67l9.72,5.61,55.74-32.39,0-7.66ZM50.65,70,29.11,14.75l2.27-1.32L93.1,49.07,53.92,71.84Z"/><path class="cls-11" d="M31.37,0,109.7,45.22,54,77.61,44.24,72,19,7.22ZM53.92,71.84l45.8-26.62L31.4,5.77,26.68,8.51l24,61.43,3.27,1.9Z"/><polygon class="cls-10" points="56.48 24.2 60.98 48.79 66.7 52.68 73.6 33.94 56.48 24.2"/><path class="cls-8" d="M29.86,23.38a3,3,0,0,1-2.74,0c-.76-.44-.75-1.15,0-1.59a3,3,0,0,1,2.74,0C30.63,22.23,30.62,22.94,29.86,23.38Z"/><path class="cls-8" d="M37.69,43.43a3,3,0,0,1-2.74,0c-.76-.44-.75-1.15,0-1.59a3,3,0,0,1,2.74,0C38.46,42.28,38.45,43,37.69,43.43Z"/><path class="cls-8" d="M45.52,63.48a3,3,0,0,1-2.74,0c-.76-.44-.75-1.15,0-1.59a3,3,0,0,1,2.74,0A.84.84,0,0,1,45.52,63.48Z"/><path class="cls-12" d="M218.68,66l-4.34-2.51a3,3,0,0,0-3-.3l-7.08,4.12A3,3,0,0,0,203,70.05l-.07,24a9.32,9.32,0,0,0,4.23,7.33l4.34,2.51a3,3,0,0,0,3,.29l7.07-4.11a3,3,0,0,0,1.24-2.73l.07-24A9.29,9.29,0,0,0,218.68,66Z"/><path class="cls-13" d="M211.6,70.14a9.34,9.34,0,0,1,4.23,7.33l-.07,24c0,2.7-1.91,3.78-4.25,2.43l-4.34-2.51a9.32,9.32,0,0,1-4.23-7.33l.07-24c0-2.7,1.92-3.78,4.26-2.43Z"/><g class="cls-3"><path class="cls-7" d="M216.55,6l-.17,61.27a1.48,1.48,0,0,1-.87,1.22,4.7,4.7,0,0,1-4.26,0,1.51,1.51,0,0,1-.89-1.24L210.53,6a1.51,1.51,0,0,0,.89,1.24,4.7,4.7,0,0,0,4.26,0A1.47,1.47,0,0,0,216.55,6Z"/><path class="cls-7" d="M215.67,4.79a1.3,1.3,0,0,1,0,2.46,4.7,4.7,0,0,1-4.26,0,1.3,1.3,0,0,1,0-2.47A4.73,4.73,0,0,1,215.67,4.79Z"/></g><path class="cls-7" d="M210.53,6c-.17-6.34,3.2-7.7,9.67-2.91l-3,5.2C216.22,8.06,210.53,6,210.53,6Z"/><path class="cls-8" d="M220.81,4.48c0-1.36-.95-1.92-2.13-1.24a4.68,4.68,0,0,0-2.13,3.69c0,1.36.95,1.92,2.13,1.25A4.7,4.7,0,0,0,220.81,4.48Z"/><g class="cls-3"><path class="cls-7" d="M249.84,140.81c9.5,5.48,17.19,18.79,17.15,29.71s-7.76,15.33-17.26,9.84-17.18-18.79-17.15-29.71S240.34,135.33,249.84,140.81Z"/><path class="cls-8" d="M249.84,140.81c9.5,5.48,17.19,18.79,17.15,29.71s-7.76,15.33-17.26,9.84-17.18-18.79-17.15-29.71S240.34,135.33,249.84,140.81Z"/><path class="cls-7" d="M262.14,130.3c-5.6-3.23-10.67-3.53-14.33-1.4l-10,5.81c3.66-2.13,8.73-1.83,14.33,1.4,11.13,6.42,20.12,22,20.08,34.78,0,6.35-2.26,10.82-5.88,12.92l10-5.81c3.62-2.1,5.86-6.57,5.88-12.92C282.26,152.29,273.27,136.72,262.14,130.3Z"/><path class="cls-13" d="M252.14,136.11c-11.13-6.42-20.17-1.26-20.2,11.52a33.53,33.53,0,0,0,1.18,8.61c.16.59.31,1.18.47,1.77a28.46,28.46,0,0,1-1-7.36c0-10.92,7.76-15.33,17.26-9.84S267,159.6,267,170.52s-7.76,15.33-17.26,9.84a29,29,0,0,1-5.72-4.42l1.31,1.28A33.89,33.89,0,0,0,252,182.4c11.13,6.42,20.17,1.27,20.21-11.52S263.27,142.53,252.14,136.11Z"/></g><path class="cls-14" d="M246.26,145.9a12,12,0,0,1,3.16,1.44c6.25,3.87,11.49,12.95,11.7,20.26a12.1,12.1,0,0,1-.34,3.37c-1.2,4.72-5.45,6.08-10.63,2.87-6.26-3.87-11.5-12.94-11.7-20.26C238.29,147.56,241.59,144.59,246.26,145.9Z"/><g class="cls-3"><path class="cls-15" d="M239.68,167.18l6.89,4a4.3,4.3,0,0,1-1.94-3.15,9.83,9.83,0,0,0,8.05-14,4.3,4.3,0,0,1,3.67.09l-6.89-4-.17-.08c-.19-.13-.38-.25-.59-.37a9.84,9.84,0,1,0-9.84,17l.57.3C239.52,167.07,239.59,167.13,239.68,167.18Z"/><path class="cls-16" d="M243.14,168.2l.77.44c0-.17-.08-.34-.11-.51A3.7,3.7,0,0,0,243.14,168.2Z"/><path class="cls-17" d="M246.28,151.51l3.9,2.26.33.19a5.45,5.45,0,0,1,2.35-.92l-.68-.39c.8.46.39.21-3.9-2.26a9,9,0,0,0-9.87.58A9,9,0,0,1,246.28,151.51Z"/><path class="cls-18" d="M246.32,166.48a13.09,13.09,0,0,1,5.94-10.29c3.28-1.88,5.94-.33,5.94,3.47A13.09,13.09,0,0,1,252.26,170C249,171.83,246.32,170.28,246.32,166.48Z"/><path class="cls-19" d="M244.51,166.6c0,4.45,3.11,6.27,7,4.06a11.4,11.4,0,0,0,2.38-1.85l.45-.45a9.94,9.94,0,0,1-2,1.58c-3.28,1.88-5.94.33-5.94-3.47a13.09,13.09,0,0,1,5.94-10.29c3.28-1.88,5.94-.33,5.94,3.47a9.86,9.86,0,0,1-.34,2.48l.16-.61a11.81,11.81,0,0,0,.39-2.9c0-4.45-3.11-6.27-7-4.07A15.34,15.34,0,0,0,244.51,166.6Z"/></g><path class="cls-17" d="M252.11,168.74a11.56,11.56,0,0,0,5-8.6c.08-3.13-2-4.36-4.67-2.74a11.56,11.56,0,0,0-5,8.6C247.36,169.13,249.45,170.36,252.11,168.74Z"/><path class="cls-17" d="M247.48,166.89a5.12,5.12,0,0,1,0-.89,11.56,11.56,0,0,1,5-8.6,5,5,0,0,1,.76-.39c2.29-1,4,.3,3.91,3.13a11.55,11.55,0,0,1-5,8.6C249.72,170.19,247.79,169.35,247.48,166.89Z"/><path class="cls-20" d="M247.48,166.89a5.12,5.12,0,0,1,0-.89,11.56,11.56,0,0,1,5-8.6,5,5,0,0,1,.76-.39,3.62,3.62,0,0,1,1,2.48,8.07,8.07,0,0,1-4.08,7.06A3.52,3.52,0,0,1,247.48,166.89Z"/><polygon class="cls-7" points="205.13 88.3 205.15 83.93 204 83.1 203.6 79.3 204.6 78.71 203.63 73.93 202.48 73.44 201.14 68.91 201.99 68.41 200.1 63.54 199.04 63.43 196.79 58.75 197.5 58.1 194.82 53.47 193.9 53.75 190.97 49.46 191.42 48.49 188.13 44.4 187.28 44.9 184.01 41.45 184.17 40.23 180.5 36.97 179.51 37.55 176.39 35.27 176.24 33.87 172.44 31.67 171.15 32.42 168.61 31.34 168.18 29.86 164.5 28.87 162.46 30.05 161.22 29.93 160.53 28.47 157.23 28.75 154.27 30.47 153.81 29.79 151.11 31.33 132.9 41.91 133.23 42.6 130.27 44.32 128.36 47 129.28 48.34 128.79 49.4 126.7 50.61 125.71 54.27 126.77 55.38 126.44 58.08 125.13 58.84 125.12 63.21 126.27 64.04 126.66 67.85 125.67 68.43 126.64 73.21 127.79 73.7 129.13 78.22 128.27 78.72 130.16 83.6 131.23 83.71 133.48 88.38 132.77 89.04 135.45 93.67 136.36 93.39 139.29 97.68 138.85 98.65 142.13 102.73 142.98 102.24 146.26 105.69 146.1 106.91 149.77 110.17 150.76 109.59 153.88 111.87 154.03 113.27 157.83 115.47 159.12 114.72 161.65 115.79 162.09 117.28 165.77 118.27 167.81 117.08 169.04 117.21 169.74 118.67 173.04 118.39 175.99 116.67 176.46 117.35 179.15 115.81 197.36 105.23 197.03 104.54 199.99 102.82 201.9 100.13 200.99 98.8 201.47 97.74 203.56 96.53 204.56 92.87 203.49 91.74 203.83 89.06 205.13 88.3"/><polygon class="cls-8" points="150.21 109.18 168.42 98.6 167.98 99.58 149.77 110.17 150.21 109.18"/><polygon class="cls-8" points="125.67 68.43 143.88 57.84 144.95 57.95 126.74 68.53 125.67 68.43"/><polygon class="cls-8" points="157.98 114.23 176.19 103.65 176.04 104.88 157.83 115.47 157.98 114.23"/><polygon class="cls-8" points="125.13 58.84 143.34 48.25 144.49 48.74 126.28 59.33 125.13 58.84"/><polygon class="cls-8" points="165.61 116.86 183.82 106.28 183.98 107.69 165.77 118.27 165.61 116.86"/><polygon class="cls-8" points="126.7 50.61 144.92 40.03 146.06 40.87 127.85 51.46 126.7 50.61"/><polygon class="cls-8" points="172.6 116.91 190.81 106.32 191.25 107.8 173.04 118.39 172.6 116.91"/><polygon class="cls-8" points="130.27 44.32 148.49 33.74 149.55 34.86 131.34 45.44 130.27 44.32"/><polygon class="cls-8" points="178.45 114.35 196.66 103.76 197.36 105.23 179.15 115.81 178.45 114.35"/><polygon class="cls-8" points="135.6 40.37 153.81 29.79 154.72 31.13 136.51 41.71 135.6 40.37"/><polygon class="cls-13" points="180.72 112.28 198.93 101.7 196.66 103.76 178.45 114.35 180.72 112.28"/><polygon class="cls-13" points="136.51 41.71 154.72 31.13 157.67 30.23 139.46 40.82 136.51 41.71"/><polygon class="cls-8" points="182.77 109.38 200.99 98.8 201.9 100.13 183.69 110.72 182.77 109.38"/><polygon class="cls-8" points="142.32 39.05 160.53 28.47 161.22 29.93 143.01 40.51 142.32 39.05"/><polygon class="cls-13" points="184.2 106.27 202.42 95.68 200.99 98.8 182.77 109.38 184.2 106.27"/><polygon class="cls-13" points="143.01 40.51 161.22 29.93 164.65 30.28 146.44 40.86 143.01 40.51"/><polygon class="cls-8" points="185.27 102.33 203.49 91.74 204.56 92.87 186.34 103.46 185.27 102.33"/><polygon class="cls-8" points="149.97 40.44 168.18 29.86 168.61 31.34 150.4 41.92 149.97 40.44"/><polygon class="cls-13" points="185.77 98.4 203.98 87.81 203.49 91.74 185.27 102.33 185.77 98.4"/><polygon class="cls-13" points="150.4 41.92 168.61 31.34 172.28 32.91 154.07 43.49 150.4 41.92"/><polygon class="cls-8" points="185.79 93.68 204 83.1 205.15 83.93 186.93 94.52 185.79 93.68"/><polygon class="cls-8" points="158.03 44.45 176.24 33.87 176.39 35.27 158.17 45.86 158.03 44.45"/><polygon class="cls-13" points="185.31 89.18 203.52 78.6 204 83.1 185.79 93.68 185.31 89.18"/><polygon class="cls-13" points="158.17 45.86 176.39 35.27 180.05 37.94 161.84 48.53 158.17 45.86"/><polygon class="cls-8" points="184.27 84.03 202.48 73.44 203.63 73.93 185.41 84.51 184.27 84.03"/><polygon class="cls-8" points="165.96 50.81 184.17 40.23 184.01 41.45 165.8 52.04 165.96 50.81"/><polygon class="cls-13" points="182.86 79.27 201.07 68.69 202.48 73.44 184.27 84.03 182.86 79.27"/><polygon class="cls-13" points="165.8 52.04 184.01 41.45 187.42 45.06 169.21 55.64 165.8 52.04"/><polygon class="cls-13" points="178.58 69.33 196.79 58.75 199.04 63.43 180.82 74.01 178.58 69.33"/><polygon class="cls-13" points="172.76 60.04 190.97 49.46 193.9 53.75 175.68 64.33 172.76 60.04"/><polygon class="cls-8" points="180.82 74.01 199.04 63.43 200.1 63.54 181.89 74.12 180.82 74.01"/><polygon class="cls-8" points="173.21 59.08 191.42 48.49 190.97 49.46 172.76 60.04 173.21 59.08"/><polygon class="cls-8" points="175.68 64.33 193.9 53.75 194.82 53.47 176.61 64.05 175.68 64.33"/><polygon class="cls-8" points="158.03 44.45 158.17 45.86 161.84 48.53 162.29 47.56 165.96 50.81 165.8 52.04 169.21 55.64 169.92 54.99 173.21 59.08 172.76 60.04 175.68 64.33 176.61 64.05 179.28 68.69 178.58 69.33 180.82 74.01 181.89 74.12 183.78 79 182.86 79.27 184.27 84.03 185.41 84.51 186.38 89.3 185.31 89.18 185.79 93.68 186.93 94.52 186.92 98.89 185.77 98.4 185.27 102.33 186.34 103.46 185.35 107.11 184.2 106.27 182.77 109.38 183.69 110.72 181.78 113.4 180.72 112.28 178.45 114.35 179.15 115.81 176.46 117.35 175.54 116.01 172.6 116.91 173.04 118.39 169.74 118.67 169.04 117.21 165.61 116.86 165.77 118.27 162.09 117.28 161.65 115.79 157.98 114.23 157.83 115.47 154.03 113.27 153.88 111.87 150.21 109.18 149.77 110.17 146.1 106.91 146.26 105.69 142.83 102.08 142.13 102.73 138.85 98.65 139.29 97.68 136.36 93.39 135.45 93.67 132.77 89.04 133.48 88.38 131.23 83.71 130.16 83.6 128.27 78.72 129.19 78.44 127.79 73.7 126.64 73.21 125.67 68.43 126.74 68.53 126.27 64.04 125.12 63.21 125.13 58.84 126.28 59.33 126.77 55.38 125.71 54.27 126.7 50.61 127.85 51.46 129.28 48.34 128.36 47 130.27 44.32 131.34 45.44 133.6 43.37 132.9 41.91 135.6 40.37 136.51 41.71 139.46 40.82 139.02 39.34 142.32 39.05 143.01 40.51 146.44 40.86 146.29 39.45 149.97 40.44 150.4 41.92 154.07 43.49 154.23 42.26 158.03 44.45"/><path class="cls-9" d="M150.7,53a22.4,22.4,0,0,1,4.92,2.14c11.41,6.54,20.66,22.58,20.66,35.78a23.66,23.66,0,0,1-.62,5.48c-2.24,9.11-10.37,12.16-20,6.6C144.21,96.44,135,80.43,135,67.21,135,56,141.67,50.36,150.7,53Z"/><g class="cls-3"><polygon class="cls-19" points="175.93 50.75 196.62 38.72 210.15 77.53 189.45 89.56 175.93 50.75"/><polygon class="cls-21" points="125.24 21.49 145.94 9.46 196.62 38.72 175.93 50.75 125.24 21.49"/><polygon class="cls-19" points="189.45 89.56 182.78 100.57 180.91 99.49 144.91 78.66 128.55 33.5 125.24 24.36 125.24 21.48 175.93 50.75 189.45 89.56"/><polygon class="cls-22" points="194.19 39.97 145.43 11.83 140.42 14.74 189.5 43.07 201.99 78.92 206.78 76.13 194.19 39.97"/></g><polygon class="cls-23" points="183.04 95.97 180.91 99.49 144.91 78.66 128.55 33.5 169.52 57.16 183.04 95.97"/><polygon class="cls-9" points="152.07 127.58 181.04 110.75 207.21 125.85 178.58 142.89 152.07 127.58"/><polygon class="cls-12" points="152.07 127.58 181.04 110.75 177.63 99.9 148.65 116.74 152.07 127.58"/><g class="cls-3"><polygon class="cls-7" points="115.94 97.85 144.92 81.02 177.63 99.9 148.65 116.74 115.94 97.85"/><polygon class="cls-24" points="184.02 127.09 212.99 110.26 225.15 138.69 196.18 155.53 184.02 127.09"/><polygon class="cls-25" points="196.18 155.53 225.15 138.69 255.98 156.49 227.01 173.33 196.18 155.53"/><polygon class="cls-7" points="235.8 176.56 264.77 159.73 264.73 173.63 235.76 190.47 235.8 176.56"/><polygon class="cls-25" points="227.01 171.49 255.99 154.66 264.77 159.73 235.8 176.56 227.01 171.49"/><polygon class="cls-26" points="235.8 176.56 227.01 171.49 227.01 173.33 225.88 172.68 225.88 184.77 235.76 190.47 235.8 176.56"/><polygon class="cls-8" points="196.18 155.53 184.02 115.35 170.14 107.33 173.03 139.68 152.07 127.58 148.65 116.74 115.94 97.85 115.88 121.26 209.61 175.38 225.88 184.77 225.88 172.68 196.18 155.53"/></g><g class="cls-3"><polygon class="cls-7" points="137.25 86.32 162.09 71.89 170.85 97.54 146.01 111.97 137.25 86.32"/><polygon class="cls-15" points="106.67 68.66 131.5 54.23 162.09 71.89 137.25 86.32 106.67 68.66"/><polygon class="cls-15" points="137.25 86.32 146.01 111.97 106.61 89.22 106.67 68.66 137.25 86.32"/></g><g class="cls-3"><path class="cls-12" d="M142.84,23.36a9.68,9.68,0,0,0-4.29-6.69,5,5,0,0,0-.7-.34,2.74,2.74,0,0,0-2.42,0L108.35,32.1a2.74,2.74,0,0,1,2.42,0,5.62,5.62,0,0,1,.7.34,9.74,9.74,0,0,1,4.29,6.69L120.3,75l27.08-15.74Z"/><path class="cls-12" d="M172,73.44,147.37,59.22,120.29,75l24.64,14.22a9.59,9.59,0,0,1,4.34,7.53A3,3,0,0,1,148,99.5l27.08-15.74A3,3,0,0,0,176.35,81,9.59,9.59,0,0,0,172,73.44Z"/><path class="cls-8" d="M111.47,32.4a9.74,9.74,0,0,1,4.29,6.69l4.54,35.85,24.64,14.22a9.59,9.59,0,0,1,4.34,7.53c0,2.76-2,3.88-4.37,2.49L112.85,80.67l-5.7-45c-.37-3,1.25-4.59,3.64-3.65C111,32.16,111.25,32.27,111.47,32.4Z"/></g><path class="cls-8" d="M179.19,117.5c.34,2.48-.75,4.18-.3,6.46.92,2.24,4,2.71,5.93,2.76,3.7.1,6.15,1.88,11,1.83,3.19,0,4.37-1.1,4.74-3a3.13,3.13,0,0,0-1.75-2.37s-7.09-2.62-7.28-2.71-4.16-3-4.25-3.19-1.92-5.19-1.92-5.19l-7.33,1.09Z"/><path class="cls-27" d="M177.29,109.46l-3.1.68C170.7,100.67,168,92,166.68,84.51l-15-9-8.14-4.87,1.77-5.59.51-1.58c5.84,6.87,15,13.08,25.26,18.53C171.29,92.48,172.3,105,177.29,109.46Z"/><path class="cls-8" d="M164.23,128.36a9,9,0,0,1,.79,4.13c.44,2.47,1.61,3.58,3.53,4.06,3.71.91,3.74,2.73,8.76,3.16,3,.25,7-1.14,7.82-3,.17-.86-.56-2.06-1.54-3,0,0-6.26-2.91-6.43-3s-5-2.92-5.26-3c-.6-.13-3.48-6.08-3-6.16l-6.46,2.14Z"/><path class="cls-8" d="M168.87,78.44a6.84,6.84,0,0,1-1.65-.2,5.4,5.4,0,0,1-3.74-3.34c-1.34-3.29-.33-8.23,2.68-13.22,4.5-7.46,11.84-12.3,16.71-11A5.4,5.4,0,0,1,186.61,54c1.34,3.29.33,8.23-2.68,13.22C179.91,73.87,173.64,78.44,168.87,78.44Zm12.28-25c-3.32,0-8.71,3.61-12.43,9.78-2.45,4.06-3.42,8.2-2.47,10.54A2.42,2.42,0,0,0,168,75.32c3.14.82,9.27-2.86,13.38-9.67,2.45-4.06,3.42-8.2,2.47-10.54a2.42,2.42,0,0,0-1.72-1.56A4.06,4.06,0,0,0,181.15,53.44Z"/><polygon class="cls-8" points="173.19 55.98 175.71 64.44 168 77.05 171.07 77.14 177.53 66.03 184.86 64.44 185.48 62.38 178.53 62.82 175.04 54.62 173.19 55.98"/><g class="cls-3"><path class="cls-21" d="M164.83,74.86l33.11-19.24L209,74.71c-9.23,7.1-20.54,13.41-33.11,19.24Z"/><polygon class="cls-17" points="224.83 172.7 257.94 153.45 257.94 155.29 224.83 174.53 224.83 172.7"/><polygon class="cls-17" points="224.89 151.98 258 132.74 257.94 153.45 224.83 172.7 224.89 151.98"/><polygon class="cls-15" points="224.89 151.98 258 132.74 257.94 153.45 224.83 172.7 224.89 151.98"/><polygon class="cls-15" points="216.06 124.17 249.17 104.93 258 132.74 224.89 151.98 216.06 124.17"/><polygon class="cls-19" points="220.27 125.8 247.14 110.18 255.31 134.8 228.44 150.41 220.27 125.8"/><polygon class="cls-21" points="175.92 93.95 209.03 74.71 249.17 104.93 216.06 124.17 175.92 93.95"/><path class="cls-28" d="M182.28,94.33l26.5-15.4,26.3,25.68a3,3,0,0,1-.59,4.78l-9.28,5.39a4.72,4.72,0,0,1-4.62.08Z"/><polygon class="cls-19" points="224.89 151.98 224.83 171.38 224.83 174.53 184.27 151.12 181.84 122.42 165.36 112.25 156.06 84.01 160.6 79.27 164.83 74.87 175.92 93.95 216.05 124.17 224.89 151.98"/><polygon class="cls-19" points="224.89 151.98 224.83 171.38 224.83 174.53 184.27 151.12 181.84 122.42 165.36 112.25 156.06 84.01 160.6 79.27 164.83 74.87 175.92 93.95 216.05 124.17 224.89 151.98"/><polygon class="cls-23" points="224.83 159.73 224.83 174.53 184.27 151.12 181.84 122.42 165.36 112.25 156.06 84.01 160.6 79.27 171.84 104.38 193.9 118.67 224.83 159.73"/></g><polygon class="cls-7" points="139.86 125.99 139.88 121.62 138.73 120.78 138.33 116.98 139.33 116.4 138.36 111.61 137.21 111.13 135.87 106.59 136.72 106.1 134.83 101.22 133.77 101.11 131.52 96.43 132.23 95.79 129.55 91.15 128.63 91.43 125.7 87.14 126.15 86.18 122.86 82.09 122.01 82.58 118.74 79.14 118.9 77.91 115.23 74.66 114.24 75.23 111.12 72.96 110.97 71.55 107.17 69.36 105.88 70.11 103.34 69.02 102.91 67.54 99.23 66.55 97.19 67.74 95.95 67.61 95.26 66.15 91.96 66.44 89 68.15 88.54 67.47 85.84 69.01 67.63 79.59 67.96 80.28 65 82 63.09 84.69 64.01 86.02 63.52 87.08 61.43 88.3 60.44 91.95 61.5 93.07 61.17 95.76 59.86 96.52 59.85 100.89 61 101.72 61.39 105.53 60.4 106.11 61.37 110.9 62.52 111.38 63.86 115.91 63 116.4 64.89 121.29 65.96 121.39 68.21 126.07 67.5 126.72 70.18 131.35 71.09 131.07 74.02 135.36 73.58 136.33 76.86 140.41 77.71 139.92 80.99 143.37 80.83 144.6 84.5 147.85 85.49 147.27 88.61 149.55 88.76 150.95 92.56 153.15 93.85 152.4 96.38 153.47 96.82 154.96 100.5 155.95 102.54 154.77 103.77 154.89 104.47 156.35 107.77 156.07 110.72 154.35 111.19 155.03 113.88 153.5 132.09 142.91 131.76 142.22 134.72 140.5 136.63 137.82 135.72 136.48 136.2 135.43 138.29 134.21 139.29 130.56 138.22 129.43 138.56 126.75 139.86 125.99"/><polygon class="cls-8" points="84.94 146.87 103.15 136.28 102.71 137.27 84.5 147.85 84.94 146.87"/><polygon class="cls-8" points="60.4 106.11 78.61 95.53 79.68 95.63 61.47 106.22 60.4 106.11"/><polygon class="cls-8" points="92.71 151.92 110.92 141.33 110.77 142.57 92.56 153.15 92.71 151.92"/><polygon class="cls-8" points="59.86 96.52 78.08 85.94 79.22 86.43 61.01 97.01 59.86 96.52"/><polygon class="cls-8" points="100.34 154.55 118.55 143.96 118.71 145.37 100.5 155.96 100.34 154.55"/><polygon class="cls-8" points="61.43 88.3 79.65 77.71 80.79 78.56 62.58 89.14 61.43 88.3"/><polygon class="cls-8" points="107.33 154.59 125.54 144.01 125.98 145.49 107.77 156.07 107.33 154.59"/><polygon class="cls-8" points="65 82 83.22 71.42 84.28 72.54 66.07 83.13 65 82"/><polygon class="cls-8" points="113.18 152.03 131.39 141.45 132.09 142.91 113.88 153.5 113.18 152.03"/><polygon class="cls-8" points="70.33 78.06 88.54 67.47 89.45 68.81 71.24 79.4 70.33 78.06"/><polygon class="cls-13" points="115.45 149.97 133.66 139.38 131.39 141.45 113.18 152.03 115.45 149.97"/><polygon class="cls-13" points="71.24 79.4 89.45 68.81 92.4 67.92 74.19 78.5 71.24 79.4"/><polygon class="cls-8" points="117.5 147.06 135.72 136.48 136.63 137.82 118.42 148.4 117.5 147.06"/><polygon class="cls-8" points="77.05 76.73 95.26 66.15 95.95 67.61 77.74 78.2 77.05 76.73"/><polygon class="cls-13" points="118.93 143.95 137.15 133.37 135.72 136.48 117.5 147.06 118.93 143.95"/><polygon class="cls-13" points="77.74 78.2 95.95 67.61 99.38 67.96 81.17 78.55 77.74 78.2"/><polygon class="cls-8" points="120 140.01 138.22 129.43 139.29 130.56 121.07 141.14 120 140.01"/><polygon class="cls-8" points="84.7 78.13 102.91 67.54 103.34 69.02 85.13 79.6 84.7 78.13"/><polygon class="cls-13" points="120.5 136.08 138.71 125.5 138.22 129.43 120 140.01 120.5 136.08"/><polygon class="cls-13" points="85.13 79.6 103.34 69.02 107.01 70.59 88.8 81.17 85.13 79.6"/><polygon class="cls-8" points="120.52 131.37 138.73 120.78 139.88 121.62 121.66 132.2 120.52 131.37"/><polygon class="cls-8" points="92.76 82.14 110.97 71.55 111.12 72.96 92.9 83.54 92.76 82.14"/><polygon class="cls-13" points="120.04 126.86 138.25 116.28 138.73 120.78 120.52 131.37 120.04 126.86"/><polygon class="cls-13" points="92.9 83.54 111.12 72.96 114.78 75.63 96.57 86.21 92.9 83.54"/><polygon class="cls-8" points="119 121.71 137.21 111.13 138.36 111.61 120.14 122.19 119 121.71"/><polygon class="cls-8" points="100.69 88.49 118.9 77.91 118.74 79.14 100.53 89.72 100.69 88.49"/><polygon class="cls-13" points="117.59 116.95 135.8 106.37 137.21 111.13 119 121.71 117.59 116.95"/><polygon class="cls-13" points="100.53 89.72 118.74 79.14 122.15 82.74 103.94 93.32 100.53 89.72"/><polygon class="cls-13" points="113.31 107.02 131.52 96.43 133.77 101.11 115.55 111.7 113.31 107.02"/><polygon class="cls-13" points="107.49 97.73 125.7 87.14 128.63 91.43 110.41 102.01 107.49 97.73"/><polygon class="cls-8" points="115.55 111.7 133.77 101.11 134.83 101.22 116.62 111.8 115.55 111.7"/><polygon class="cls-8" points="107.94 96.76 126.15 86.18 125.7 87.14 107.49 97.73 107.94 96.76"/><polygon class="cls-8" points="110.41 102.01 128.63 91.43 129.55 91.15 111.34 101.74 110.41 102.01"/><polygon class="cls-8" points="92.76 82.14 92.9 83.54 96.57 86.21 97.02 85.24 100.69 88.49 100.53 89.72 103.94 93.32 104.65 92.67 107.94 96.76 107.49 97.73 110.41 102.01 111.34 101.74 114.01 106.37 113.31 107.02 115.55 111.7 116.62 111.8 118.51 116.68 117.59 116.95 119 121.71 120.14 122.19 121.11 126.98 120.04 126.86 120.52 131.37 121.66 132.2 121.65 136.57 120.5 136.08 120 140.01 121.07 141.14 120.08 144.79 118.93 143.95 117.5 147.06 118.42 148.4 116.51 151.09 115.45 149.97 113.18 152.03 113.88 153.5 111.19 155.03 110.27 153.69 107.33 154.59 107.77 156.07 104.47 156.35 103.77 154.89 100.34 154.55 100.5 155.96 96.82 154.96 96.38 153.47 92.71 151.92 92.56 153.15 88.76 150.95 88.61 149.55 84.94 146.87 84.5 147.85 80.83 144.6 80.99 143.37 77.57 139.76 76.86 140.41 73.58 136.33 74.02 135.36 71.09 131.07 70.18 131.35 67.5 126.72 68.21 126.07 65.96 121.39 64.89 121.29 63 116.4 63.92 116.13 62.52 111.38 61.37 110.9 60.4 106.11 61.47 106.22 61 101.72 59.85 100.89 59.86 96.52 61.01 97.01 61.5 93.07 60.44 91.95 61.43 88.3 62.58 89.14 64.01 86.02 63.09 84.69 65 82 66.07 83.13 68.33 81.05 67.63 79.59 70.33 78.06 71.24 79.4 74.19 78.5 73.75 77.02 77.05 76.73 77.74 78.2 81.17 78.55 81.02 77.14 84.7 78.13 85.13 79.6 88.8 81.17 88.96 79.94 92.76 82.14"/><path class="cls-14" d="M85.43,90.67a22.4,22.4,0,0,1,4.92,2.14C101.76,99.35,111,115.39,111,128.59a23.66,23.66,0,0,1-.62,5.48c-2.24,9.11-10.37,12.16-20,6.6-11.4-6.55-20.66-22.56-20.66-35.78C69.69,93.64,76.4,88.05,85.43,90.67Z"/><path class="cls-29" d="M85.43,90.67a22.4,22.4,0,0,1,4.92,2.14C101.76,99.35,111,115.39,111,128.59a23.66,23.66,0,0,1-.62,5.48c-3.25,3.52-8.64,3.93-14.73.44-9.93-5.7-18-19.64-18-31.16C77.67,96.26,80.75,91.75,85.43,90.67Z"/><path class="cls-30" d="M85.43,90.67a22.4,22.4,0,0,1,4.92,2.14C101.76,99.35,111,115.39,111,128.59a23.66,23.66,0,0,1-.62,5.48c-3.25,3.52-8.64,3.93-14.73.44-9.93-5.7-18-19.64-18-31.16C77.67,96.26,80.75,91.75,85.43,90.67Z"/><path class="cls-31" d="M93.8,106.88a6.63,6.63,0,0,1,1.34.58,9.56,9.56,0,0,1,1.54,1.14,13.07,13.07,0,0,1,3.88,6.75,10.1,10.1,0,0,1,.21,1.86,6.78,6.78,0,0,1-.17,1.49c-.61,2.48-2.83,3.32-5.47,1.8a12.42,12.42,0,0,1-5.63-9.75C89.5,107.69,91.33,106.16,93.8,106.88Z"/><path class="cls-7" d="M96.68,108.61a13.07,13.07,0,0,1,3.88,6.75c-.4,1.23-1.57,1.63-3,.82a6.86,6.86,0,0,1-3.11-5.39C94.47,109.16,95.4,108.31,96.68,108.61Z"/><path class="cls-8" d="M88.37,116.14a1.51,1.51,0,0,1,.3.13,2.77,2.77,0,0,1,1.25,2.16,1.15,1.15,0,0,1,0,.33c-.14.55-.63.74-1.21.4A2.75,2.75,0,0,1,87.42,117C87.42,116.32,87.82,116,88.37,116.14Z"/><path class="cls-8" d="M88.37,116.14a1.51,1.51,0,0,1,.3.13,2.77,2.77,0,0,1,1.25,2.16,1.15,1.15,0,0,1,0,.33c-.14.55-.63.74-1.21.4A2.75,2.75,0,0,1,87.42,117C87.42,116.32,87.82,116,88.37,116.14Z"/><path class="cls-8" d="M101.85,108.36a1.51,1.51,0,0,1,.3.13,2.77,2.77,0,0,1,1.25,2.16,1.15,1.15,0,0,1,0,.33c-.14.55-.63.74-1.21.4a2.75,2.75,0,0,1-1.25-2.16C100.9,108.54,101.3,108.2,101.85,108.36Z"/><path class="cls-8" d="M101.85,108.36a1.51,1.51,0,0,1,.3.13,2.77,2.77,0,0,1,1.25,2.16,1.15,1.15,0,0,1,0,.33c-.14.55-.63.74-1.21.4a2.75,2.75,0,0,1-1.25-2.16C100.9,108.54,101.3,108.2,101.85,108.36Z"/><path class="cls-8" d="M101.59,123.54a1.51,1.51,0,0,1,.3.13,2.77,2.77,0,0,1,1.25,2.16,1.15,1.15,0,0,1,0,.33c-.14.55-.63.74-1.21.4a2.75,2.75,0,0,1-1.25-2.16C100.64,123.72,101,123.38,101.59,123.54Z"/><path class="cls-8" d="M101.59,123.54a1.51,1.51,0,0,1,.3.13,2.77,2.77,0,0,1,1.25,2.16,1.15,1.15,0,0,1,0,.33c-.14.55-.63.74-1.21.4a2.75,2.75,0,0,1-1.25-2.16C100.64,123.72,101,123.38,101.59,123.54Z"/><path class="cls-8" d="M88.77,101.33a1.51,1.51,0,0,1,.3.13,2.77,2.77,0,0,1,1.25,2.16,1.15,1.15,0,0,1,0,.33c-.14.55-.63.74-1.21.4a2.75,2.75,0,0,1-1.25-2.16C87.82,101.51,88.22,101.17,88.77,101.33Z"/><path class="cls-8" d="M88.77,101.33a1.51,1.51,0,0,1,.3.13,2.77,2.77,0,0,1,1.25,2.16,1.15,1.15,0,0,1,0,.33c-.14.55-.63.74-1.21.4a2.75,2.75,0,0,1-1.25-2.16C87.82,101.51,88.22,101.17,88.77,101.33Z"/><path class="cls-14" d="M101.57,132.18a12.54,12.54,0,0,1-6.38-2.05c-7.5-4.54-13.77-15.4-14-24.2-.09-4,1.09-7.14,3.33-8.82,1.92-1.43,4.41-1.71,7.23-.81a15.81,15.81,0,0,1,3.29,1.53c7.49,4.53,13.76,15.39,14,24.2a16.18,16.18,0,0,1-.32,3.71c-.63,2.9-2.12,4.93-4.32,5.87A7,7,0,0,1,101.57,132.18ZM88.7,97a5.68,5.68,0,0,0-3.45,1.09c-1.93,1.44-2.94,4.23-2.86,7.85.2,8.45,6.21,18.86,13.41,23.22,3.06,1.85,5.94,2.36,8.13,1.42,1.83-.79,3.09-2.53,3.64-5a15,15,0,0,0,.29-3.44c-.2-8.45-6.22-18.87-13.41-23.22a14.71,14.71,0,0,0-3-1.42A8.76,8.76,0,0,0,88.7,97Z"/><g class="cls-3"><polygon class="cls-21" points="113.89 86.57 134.59 74.54 148.11 113.35 127.42 125.38 113.89 86.57"/><polygon class="cls-21" points="63.21 57.3 83.9 45.27 134.59 74.54 113.89 86.57 63.21 57.3"/><polygon class="cls-19" points="113.89 86.57 127.42 125.38 125.18 125.38 112.35 88.56 63.2 60.18 63.21 57.3 113.89 86.57"/><polygon class="cls-19" points="113.89 86.57 127.42 125.38 125.18 125.38 112.35 88.56 63.2 60.18 63.21 57.3 113.89 86.57"/></g><g class="cls-3"><path class="cls-7" d="M194.9,169.68c9.23,5.33,16.69,18.25,16.66,28.85s-7.54,14.89-16.77,9.56-16.68-18.25-16.65-28.85S185.67,164.35,194.9,169.68Z"/><path class="cls-8" d="M194.9,169.68c9.23,5.33,16.69,18.25,16.66,28.85s-7.54,14.89-16.77,9.56-16.68-18.25-16.65-28.85S185.67,164.35,194.9,169.68Z"/><path class="cls-7" d="M206.85,159.46c-5.44-3.14-10.36-3.43-13.92-1.36l-9.71,5.64c3.56-2.07,8.48-1.77,13.92,1.36,10.81,6.24,19.54,21.36,19.5,33.78,0,6.17-2.2,10.51-5.71,12.55l9.71-5.64c3.51-2,5.69-6.38,5.71-12.55C226.38,180.82,217.65,165.7,206.85,159.46Z"/><path class="cls-13" d="M197.13,165.11c-10.81-6.24-19.59-1.23-19.62,11.19a32.41,32.41,0,0,0,1.15,8.36c.15.57.3,1.15.46,1.72a27.69,27.69,0,0,1-1-7.14c0-10.61,7.53-14.89,16.76-9.56s16.69,18.25,16.66,28.85-7.54,14.89-16.77,9.56a27.74,27.74,0,0,1-5.55-4.29l1.27,1.25a32.71,32.71,0,0,0,6.5,5c10.81,6.24,19.59,1.23,19.63-11.19S207.94,171.35,197.13,165.11Z"/></g><path class="cls-14" d="M191.42,174.61a11.79,11.79,0,0,1,3.07,1.4c6.07,3.76,11.16,12.58,11.36,19.68a11.92,11.92,0,0,1-.33,3.28c-1.16,4.58-5.3,5.9-10.32,2.79-6.08-3.76-11.17-12.57-11.36-19.68C183.68,176.23,186.88,173.35,191.42,174.61Z"/><path class="cls-29" d="M191.42,174.61a11.79,11.79,0,0,1,3.07,1.4,23.83,23.83,0,0,1,7.13,7.36c.51.78,1,1.59,1.4,2.41a23.6,23.6,0,0,1,2.83,9.91,11.92,11.92,0,0,1-.33,3.28c-1.69,1-4.09.78-6.78-.88-5.33-3.3-9.77-11-10-17.23C188.71,177.72,189.73,175.57,191.42,174.61Z"/><path class="cls-7" d="M197,181.2a4.63,4.63,0,0,1,1.13.6,12.07,12.07,0,0,1,4.5,7.79,5,5,0,0,1,0,1.25c-.31,1.73-1.76,2.14-3.63.84a12,12,0,0,1-4.5-7.79C194.29,181.64,195.37,180.61,197,181.2Z"/><path class="cls-7" d="M194,187.68a.94.94,0,0,1,.29.16,3.12,3.12,0,0,1,1.17,2,1.11,1.11,0,0,1,0,.32c-.08.45-.46.56-.94.22a3.1,3.1,0,0,1-1.17-2C193.34,187.79,193.62,187.53,194,187.68Z"/><path class="cls-7" d="M202.78,193.3a.94.94,0,0,1,.29.16,3.12,3.12,0,0,1,1.17,2,1.11,1.11,0,0,1,0,.32c-.08.45-.46.56-.94.22a3.12,3.12,0,0,1-1.17-2C202.07,193.41,202.35,193.15,202.78,193.3Z"/><path class="cls-7" d="M193.61,177.41a.94.94,0,0,1,.29.16,3.12,3.12,0,0,1,1.17,2,1.11,1.11,0,0,1,0,.32c-.08.45-.46.56-.94.22a3.1,3.1,0,0,1-1.17-2C192.9,177.53,193.18,177.26,193.61,177.41Z"/><path class="cls-7" d="M201.62,183.37c.51.78,1,1.59,1.4,2.41a1.41,1.41,0,0,1-.24-.13,3.16,3.16,0,0,1-1.17-2A2.09,2.09,0,0,1,201.62,183.37Z"/><polygon class="cls-8" points="226.46 169.51 228.67 168.23 228.67 155.8 226.46 157.08 226.46 169.51"/><polygon class="cls-8" points="230.41 167.22 232.63 165.94 232.63 153.52 230.41 154.79 230.41 167.22"/><polygon class="cls-8" points="234.37 164.94 236.59 163.66 236.59 151.23 234.37 152.51 234.37 164.94"/><polygon class="cls-8" points="238.33 162.65 240.54 161.37 240.54 148.94 238.33 150.22 238.33 162.65"/><polygon class="cls-8" points="242.29 160.37 244.5 159.09 244.5 146.66 242.29 147.94 242.29 160.37"/><polygon class="cls-8" points="246.25 158.08 248.46 156.8 248.46 144.37 246.25 145.65 246.25 158.08"/><polygon class="cls-8" points="250.21 155.79 252.42 154.52 252.42 142.09 250.21 143.37 250.21 155.79"/><polygon class="cls-8" points="254.16 153.51 256.38 152.23 256.38 139.8 254.16 141.08 254.16 153.51"/><g class="cls-3"><path class="cls-15" d="M198.83,147.21l6.69,3.85a4.15,4.15,0,0,1-1.88-3.06,9.55,9.55,0,0,0,7.82-13.6,4.16,4.16,0,0,1,3.56.09l-6.69-3.85-.16-.08c-.18-.12-.37-.25-.57-.36a9.55,9.55,0,0,0-9.55,16.55l.55.29A1.37,1.37,0,0,0,198.83,147.21Z"/><path class="cls-16" d="M202.19,148.21l.75.43c0-.16-.07-.33-.1-.5A2.76,2.76,0,0,0,202.19,148.21Z"/><path class="cls-17" d="M205.24,132c4.16,2.4,4.57,2.64,3.79,2.2l.32.19a5.2,5.2,0,0,1,2.28-.89l-.66-.38c.78.44.37.21-3.79-2.2a8.75,8.75,0,0,0-9.59.56A8.76,8.76,0,0,1,205.24,132Z"/><path class="cls-18" d="M205.28,146.53a12.69,12.69,0,0,1,5.77-10c3.19-1.83,5.77-.32,5.77,3.37a12.71,12.71,0,0,1-5.77,10C207.86,151.73,205.28,150.22,205.28,146.53Z"/><path class="cls-19" d="M203.52,146.65c0,4.32,3,6.09,6.75,3.95a11.67,11.67,0,0,0,2.31-1.79l.44-.43a10,10,0,0,1-2,1.53c-3.19,1.83-5.77.32-5.77-3.37a12.69,12.69,0,0,1,5.77-10c3.19-1.83,5.77-.32,5.77,3.37a9.32,9.32,0,0,1-.33,2.41l.15-.6a11.23,11.23,0,0,0,.38-2.82c0-4.32-3-6.09-6.75-3.95A14.85,14.85,0,0,0,203.52,146.65Z"/></g><path class="cls-17" d="M210.9,148.72a11.2,11.2,0,0,0,4.82-8.35c.08-3-1.95-4.23-4.54-2.66a11.22,11.22,0,0,0-4.82,8.35C206.29,149.11,208.32,150.3,210.9,148.72Z"/><path class="cls-17" d="M206.41,146.93a4.82,4.82,0,0,1,0-.86,11.26,11.26,0,0,1,4.82-8.36,5.78,5.78,0,0,1,.74-.38c2.23-.94,3.87.3,3.8,3a11.23,11.23,0,0,1-4.82,8.35C208.58,150.14,206.7,149.32,206.41,146.93Z"/><path class="cls-20" d="M206.41,146.93a4.82,4.82,0,0,1,0-.86,11.26,11.26,0,0,1,4.82-8.36,5.78,5.78,0,0,1,.74-.38,3.51,3.51,0,0,1,1,2.41,7.85,7.85,0,0,1-4,6.86A3.4,3.4,0,0,1,206.41,146.93Z"/><polygon class="cls-22" points="239.67 107.5 244.36 104.77 206.67 76.39 196.52 58.93 191.67 61.75 201.98 79.5 239.67 107.5"/><polygon class="cls-22" points="132.09 76.23 83.34 48.09 78.32 51 127.4 79.33 139.89 115.18 144.69 112.39 132.09 76.23"/><polygon class="cls-23" points="113.89 86.57 135.6 74.71 83.9 45.27 63.21 57.3 113.89 86.57"/></g></g></svg>