<svg xmlns="http://www.w3.org/2000/svg" viewBox="0 0 27.39 27.39"><defs><style>.cls-1{fill:#1b75bb;}.cls-2{fill:#fff;}</style></defs><title>twiter</title><g id="Layer_2" data-name="Layer 2"><g id="Layer_1-2" data-name="Layer 1"><path class="cls-1" d="M24.39,27.39H3a3,3,0,0,1-3-3V3A3,3,0,0,1,3,0H24.39a3,3,0,0,1,3,3V24.39a3,3,0,0,1-3,3"/><polygon class="cls-2" points="23.62 6.39 23.62 6.39 23.62 6.39 23.62 6.39"/><path class="cls-2" d="M24.19,8.11h0Z"/><path class="cls-2" d="M22.27,8.69l-.5.08a.08.08,0,0,1,.05,0,4.31,4.31,0,0,0,1.65-1.91,1.5,1.5,0,0,0,.15-.42l0,0a8.77,8.77,0,0,1-2.62,1,.12.12,0,0,1-.13,0,4.25,4.25,0,0,0-2.6-1.28,4.31,4.31,0,0,0-4,1.64,4.25,4.25,0,0,0-.91,2.39,4.18,4.18,0,0,0,.09,1.17c0,.09,0,.1-.08.09-.34,0-.67-.05-1-.1a11.8,11.8,0,0,1-1.94-.43A12.18,12.18,0,0,1,6.76,9,12.17,12.17,0,0,1,4.61,7c-.09-.1-.09-.1-.15,0a4.36,4.36,0,0,0,1.12,5.48l.28.21a4.42,4.42,0,0,1-2-.54,4.27,4.27,0,0,0,1,2.77,4.32,4.32,0,0,0,2.52,1.54,4.64,4.64,0,0,1-2,.08A4.32,4.32,0,0,0,7,18.65a4.36,4.36,0,0,0,2.49.87,8.78,8.78,0,0,1-6.39,1.8s0,0,0,0l.08.05a12.28,12.28,0,0,0,6.41,1.87,13.13,13.13,0,0,0,1.77-.1,12.45,12.45,0,0,0,2.26-.48,11.32,11.32,0,0,0,3.12-1.53,11.91,11.91,0,0,0,2.42-2.23,12.89,12.89,0,0,0,1.55-2.37,13.12,13.12,0,0,0,1.15-3.4,12.24,12.24,0,0,0,.21-1.81c0-.31,0-.62,0-.92a.12.12,0,0,1,.06-.13,8.67,8.67,0,0,0,2-2.08s.06-.05.05-.09h-.07a7.91,7.91,0,0,1-1.85.56"/><polyline class="cls-2" points="23.62 6.39 23.62 6.39 23.63 6.38 23.62 6.39"/><polyline class="cls-2" points="23.62 6.39 23.62 6.39 23.62 6.39 23.62 6.39"/><polyline class="cls-2" points="24.19 8.11 24.19 8.11 24.2 8.11 24.19 8.11"/><polygon class="cls-2" points="24.19 8.12 24.19 8.12 24.19 8.11 24.19 8.12"/></g></g></svg>