<svg xmlns="http://www.w3.org/2000/svg" xmlns:xlink="http://www.w3.org/1999/xlink" viewBox="0 0 480.5 255.9"><defs><style>.cls-1{fill:#fff;}.cls-2{fill:url(#linear-gradient);}.cls-3{fill:url(#linear-gradient-2);}.cls-4{fill:url(#linear-gradient-3);}.cls-5{fill:url(#linear-gradient-4);}.cls-6{fill:url(#linear-gradient-5);}.cls-7{fill:url(#linear-gradient-6);}.cls-8{fill:url(#linear-gradient-7);}.cls-9{fill:url(#linear-gradient-8);}.cls-10{fill:url(#linear-gradient-9);}.cls-11{fill:url(#linear-gradient-10);}.cls-12{fill:url(#linear-gradient-11);}.cls-13{fill:url(#linear-gradient-12);}.cls-14{fill:url(#linear-gradient-13);}.cls-15{fill:url(#linear-gradient-14);}.cls-16{fill:url(#linear-gradient-15);}.cls-17{fill:url(#linear-gradient-16);}.cls-18{fill:url(#linear-gradient-17);}.cls-19{fill:url(#linear-gradient-18);}.cls-20{fill:url(#linear-gradient-19);}.cls-21{fill:url(#linear-gradient-20);}.cls-22{fill:url(#linear-gradient-21);}.cls-23{fill:url(#linear-gradient-22);}.cls-24{fill:url(#linear-gradient-23);}.cls-25{fill:url(#linear-gradient-24);}.cls-26{fill:url(#linear-gradient-25);}.cls-27{fill:url(#linear-gradient-26);}</style><linearGradient id="linear-gradient" x1="1089.32" y1="545.66" x2="1090.32" y2="545.66" gradientTransform="matrix(4.91, -53.09, 53.09, 4.91, -33839.19, 55293.79)" gradientUnits="userSpaceOnUse"><stop offset="0" stop-color="#eed151"/><stop offset="1" stop-color="#bd9e34"/></linearGradient><linearGradient id="linear-gradient-2" x1="1090.61" y1="543.84" x2="1091.61" y2="543.84" gradientTransform="translate(-37203.44 69794.61) rotate(-88.07) scale(64.94)" xlink:href="#linear-gradient"/><linearGradient id="linear-gradient-3" x1="1096.34" y1="537.04" x2="1097.34" y2="537.04" gradientTransform="matrix(-229.04, -141.39, 141.39, -229.04, 175487.04, 278440.59)" gradientUnits="userSpaceOnUse"><stop offset="0" stop-color="#3970ff"/><stop offset="1" stop-color="#17b9fe"/></linearGradient><linearGradient id="linear-gradient-4" x1="1109.89" y1="554.51" x2="1110.89" y2="554.51" gradientTransform="translate(-35287.7 -17390.3) scale(31.79)" xlink:href="#linear-gradient-3"/><linearGradient id="linear-gradient-5" x1="1096.34" y1="537.04" x2="1097.34" y2="537.04" gradientTransform="matrix(-229.04, -141.39, 141.39, -229.04, 175486.6, 278441.29)" xlink:href="#linear-gradient-3"/><linearGradient id="linear-gradient-6" x1="1105.11" y1="547.58" x2="1106.11" y2="547.58" gradientTransform="translate(-60527.31 -29739.46) scale(54.77)" xlink:href="#linear-gradient-3"/><linearGradient id="linear-gradient-7" x1="1109.89" y1="554.51" x2="1110.89" y2="554.51" gradientTransform="translate(-34839.56 -17390.21) scale(31.79)" xlink:href="#linear-gradient-3"/><linearGradient id="linear-gradient-8" x1="1096.34" y1="537.04" x2="1097.34" y2="537.04" gradientTransform="matrix(-229.04, -141.39, 141.39, -229.04, 175613.13, 278236.31)" xlink:href="#linear-gradient-3"/><linearGradient id="linear-gradient-9" x1="1160.24" y1="627.53" x2="1161.24" y2="627.53" gradientTransform="translate(-6328.34 -3448.45) scale(5.86)" xlink:href="#linear-gradient-3"/><linearGradient id="linear-gradient-10" x1="1096.34" y1="537.04" x2="1097.34" y2="537.04" gradientTransform="matrix(-229.04, -141.39, 141.39, -229.04, 175600.38, 278257.01)" xlink:href="#linear-gradient-3"/><linearGradient id="linear-gradient-11" x1="1096.34" y1="537.04" x2="1097.34" y2="537.04" gradientTransform="matrix(-229.04, -141.39, 141.39, -229.04, 175710.66, 278078.34)" xlink:href="#linear-gradient-3"/><linearGradient id="linear-gradient-12" x1="1109.89" y1="554.51" x2="1110.89" y2="554.51" gradientTransform="translate(-34839.72 -17614.04) scale(31.79)" xlink:href="#linear-gradient-3"/><linearGradient id="linear-gradient-13" x1="1096.34" y1="537.04" x2="1097.34" y2="537.04" gradientTransform="matrix(-229.04, -141.39, 141.39, -229.04, 175711.1, 278077.64)" xlink:href="#linear-gradient-3"/><linearGradient id="linear-gradient-14" x1="1105.11" y1="547.58" x2="1106.11" y2="547.58" gradientTransform="translate(-60102.3 -29987.17) scale(54.77)" xlink:href="#linear-gradient-3"/><linearGradient id="linear-gradient-15" x1="1109.89" y1="554.51" x2="1110.89" y2="554.51" gradientTransform="translate(-35287.88 -17614.18) scale(31.79)" xlink:href="#linear-gradient-3"/><linearGradient id="linear-gradient-16" x1="1096.34" y1="537.04" x2="1097.34" y2="537.04" gradientTransform="matrix(-229.04, -141.39, 141.39, -229.04, 175584.51, 278282.68)" xlink:href="#linear-gradient-3"/><linearGradient id="linear-gradient-17" x1="1160.24" y1="627.53" x2="1161.24" y2="627.53" gradientTransform="translate(-6802.96 -3654.63) scale(5.86)" xlink:href="#linear-gradient-3"/><linearGradient id="linear-gradient-18" x1="1096.34" y1="537.04" x2="1097.34" y2="537.04" gradientTransform="matrix(-229.04, -141.39, 141.39, -229.04, 175597.35, 278261.9)" xlink:href="#linear-gradient-3"/><linearGradient id="linear-gradient-19" x1="1139.14" y1="596.93" x2="1140.14" y2="596.93" gradientTransform="translate(-10148.07 -5185.03) scale(8.91)" xlink:href="#linear-gradient-3"/><linearGradient id="linear-gradient-20" x1="1096.34" y1="537.04" x2="1097.34" y2="537.04" gradientTransform="matrix(-229.04, -141.39, 141.39, -229.04, 175544.41, 278347.64)" xlink:href="#linear-gradient-3"/><linearGradient id="linear-gradient-21" x1="1139.14" y1="596.92" x2="1140.14" y2="596.92" gradientTransform="translate(-9676.99 -5192.3) scale(8.91)" xlink:href="#linear-gradient-3"/><linearGradient id="linear-gradient-22" x1="1096.34" y1="537.04" x2="1097.34" y2="537.04" gradientTransform="matrix(-229.04, -141.39, 141.39, -229.04, 175652.2, 278173.07)" xlink:href="#linear-gradient-3"/><linearGradient id="linear-gradient-23" x1="1101.06" y1="541.7" x2="1102.05" y2="541.7" gradientTransform="translate(-156139.88 -76863.59) scale(141.9)" xlink:href="#linear-gradient-3"/><linearGradient id="linear-gradient-24" x1="1102.26" y1="539.18" x2="1103.26" y2="539.18" gradientTransform="translate(-86943.78 -178831.02) rotate(37.94) scale(162.08)" xlink:href="#linear-gradient-3"/><linearGradient id="linear-gradient-25" x1="1101.06" y1="541.7" x2="1102.06" y2="541.7" gradientTransform="translate(-155997.79 -76618.01) scale(141.9)" xlink:href="#linear-gradient-3"/><linearGradient id="linear-gradient-26" x1="1101.05" y1="541.69" x2="1102.05" y2="541.69" gradientTransform="translate(-156389.53 -76740.3) scale(142.13)" xlink:href="#linear-gradient-3"/></defs><title>Asset 1</title><g id="Layer_2" data-name="Layer 2"><g id="Layer_1-2" data-name="Layer 1"><polygon class="cls-1" points="0.3 0.5 0.3 255.7 480.2 255.7 480.2 29.6 451.1 0.5 0.3 0.5"/><polygon class="cls-2" points="480.2 73.8 471.3 128.9 480.1 179.4 480.2 73.8"/><polygon class="cls-3" points="471.3 128.9 480.1 129.1 480.4 186.7 471.3 128.9"/><polygon class="cls-4" points="0.4 255.7 32.2 223.9 25.7 247.9 0.4 255.7"/><polygon class="cls-5" points="32.2 223.9 6.1 228.9 0.4 255.7 32.2 223.9"/><polygon class="cls-6" points="6.1 228.9 0.2 206.1 0.4 255.7 6.1 228.9"/><polygon class="cls-7" points="0.4 255.7 25.7 247.9 55.2 255.8 0.4 255.7"/><polygon class="cls-8" points="480.3 255.8 448.5 224 455 248 480.3 255.8"/><polygon class="cls-9" points="448.5 224 474.6 229 480.3 255.8 448.5 224"/><polygon class="cls-10" points="474.6 229 480.5 206.2 480.3 255.8 474.6 229"/><polygon class="cls-11" points="480.3 255.8 455 248 425.6 255.9 480.3 255.8"/><polygon class="cls-12" points="480.2 0.2 448.4 32 454.9 8.1 480.2 0.2"/><polygon class="cls-13" points="448.4 32 474.5 27 480.2 0.2 448.4 32"/><polygon class="cls-14" points="474.5 27 480.3 49.8 480.2 0.2 474.5 27"/><polygon class="cls-15" points="480.2 0.2 454.9 8.1 425.4 0.2 480.2 0.2"/><polygon class="cls-16" points="0.2 0.1 32 31.9 25.5 7.9 0.2 0.1"/><polygon class="cls-17" points="32 32 5.9 27 0.3 0.2 32 32"/><polygon class="cls-18" points="5.9 26.9 0 49.6 0.2 0.1 5.9 26.9"/><polygon class="cls-19" points="0.2 0.1 25.5 7.9 55 0 0.2 0.1"/><polygon class="cls-20" points="0.3 185.6 9.2 130.5 0.4 80 0.3 185.6"/><polygon class="cls-21" points="9.2 130.5 0.3 130.3 0.1 72.7 9.2 130.5"/><polygon class="cls-22" points="480.2 72.7 471.3 127.8 480.1 178.3 480.2 72.7"/><polygon class="cls-23" points="471.3 127.8 480.1 128 480.4 185.6 471.3 127.8"/><polygon class="cls-24" points="103.9 0.3 245.7 9.9 245.8 0.1 103.9 0.3"/><polygon class="cls-25" points="387.9 0.2 245.7 10 245.8 0.1 387.9 0.2"/><polygon class="cls-26" points="387.9 255.3 246 245.7 246 255.5 387.9 255.3"/><polygon class="cls-27" points="103.9 255.3 246 245.6 246 255.5 103.9 255.3"/></g></g></svg>