<svg xmlns="http://www.w3.org/2000/svg" viewBox="0 0 548.2 72.4"><defs><style>.cls-1{fill:#e19e38;}.cls-2{fill:#efae59;}.cls-3{fill:#be6638;}.cls-4{fill:#a0502c;}.cls-5{fill:#5b2225;}</style></defs><title>Asset 1</title><g id="Layer_2" data-name="Layer 2"><g id="Layer_1-2" data-name="Layer 1"><polygon class="cls-1" points="548.2 72.4 0 72.4 0 0 526.3 0 538 11.3 538 11.3 548.2 20.9 548.2 72.4"/><polygon class="cls-2" points="0 0 10.2 8.4 10.2 62.7 0 72.4 0 0"/><polygon class="cls-2" points="10.2 8.4 522.3 7.9 526.3 0 0 0 10.2 8.4"/><polygon class="cls-3" points="522.3 7.9 540.2 25.7 548.2 20.9 526.3 0 522.3 7.9"/><polygon class="cls-4" points="10.2 62.7 539.5 64.1 548.2 72.4 0 72.4 10.2 62.7"/><polygon class="cls-5" points="548.2 20.9 540.2 25.7 539.5 64.1 548.2 72.4 548.2 20.9"/><rect class="cls-4" x="19.3" y="14.9" width="327.4" height="41"/><polygon class="cls-5" points="19.3 14.9 19.3 55.9 24.1 52 24.1 19.8 19.3 14.9"/><polyline class="cls-2" points="24.1 52 341.4 51.8 346.7 55.9 19.3 55.9"/><polygon class="cls-5" points="24.1 19.8 341.4 19.8 346.5 14.7 19.3 14.7 24.1 19.8"/><polygon class="cls-2" points="341.4 19.8 341.4 51.8 346.7 55.9 346.5 14.7 341.4 19.8"/></g></g></svg>