<svg id="Layer_1" data-name="Layer 1" xmlns="http://www.w3.org/2000/svg" xmlns:xlink="http://www.w3.org/1999/xlink" viewBox="0 0 80 100"><defs><style>.cls-1{fill:#ce6d77;}.cls-1,.cls-10,.cls-11,.cls-12,.cls-13,.cls-14,.cls-15,.cls-2,.cls-3,.cls-4,.cls-5,.cls-6,.cls-7,.cls-8,.cls-9{fill-rule:evenodd;}.cls-2{fill:url(#radial-gradient);}.cls-3{fill:url(#radial-gradient-2);}.cls-10,.cls-15,.cls-4{opacity:0.2;}.cls-10,.cls-13,.cls-14,.cls-15,.cls-4,.cls-6{isolation:isolate;}.cls-4{fill:url(#radial-gradient-3);}.cls-5{fill:url(#radial-gradient-4);}.cls-13,.cls-14,.cls-6{opacity:0.5;}.cls-6{fill:url(#radial-gradient-5);}.cls-7{fill:url(#radial-gradient-6);}.cls-8{fill:url(#radial-gradient-7);}.cls-9{fill:url(#radial-gradient-8);}.cls-10{fill:url(#radial-gradient-9);}.cls-11{fill:url(#radial-gradient-10);}.cls-12{fill:url(#radial-gradient-11);}.cls-13{fill:url(#radial-gradient-12);}.cls-14{fill:url(#radial-gradient-13);}.cls-15{fill:url(#radial-gradient-14);}</style><radialGradient id="radial-gradient" cx="154.88" cy="1662.45" r="7.47" gradientTransform="matrix(0.91, 0.4, 0.46, -1.04, -869.02, 1691.21)" gradientUnits="userSpaceOnUse"><stop offset="0" stop-color="#ffd493"/><stop offset="1" stop-color="#fccebe"/></radialGradient><radialGradient id="radial-gradient-2" cx="152.79" cy="1654.21" r="17.06" gradientTransform="matrix(0.91, 0.4, 0.46, -1.04, -869.02, 1691.21)" gradientUnits="userSpaceOnUse"><stop offset="0" stop-color="#ffcc7a"/><stop offset="1" stop-color="#f9a889"/></radialGradient><radialGradient id="radial-gradient-3" cx="152.92" cy="1651.52" r="15.56" gradientTransform="matrix(0.91, 0.4, 0.46, -1.04, -869.02, 1691.21)" gradientUnits="userSpaceOnUse"><stop offset="0" stop-color="#b34738"/><stop offset="1" stop-color="#dd9057"/></radialGradient><radialGradient id="radial-gradient-4" cx="155.18" cy="1642.41" r="4.25" gradientTransform="matrix(0.91, 0.4, 0.46, -1.04, -869.02, 1691.21)" gradientUnits="userSpaceOnUse"><stop offset="0.02" stop-color="#af4d26"/><stop offset="0.99" stop-color="#aa3b37"/></radialGradient><radialGradient id="radial-gradient-5" cx="155.07" cy="1643.39" r="2.91" gradientTransform="matrix(0.91, 0.4, 0.46, -1.04, -869.02, 1691.21)" gradientUnits="userSpaceOnUse"><stop offset="0" stop-color="#b36e58"/><stop offset="1" stop-color="#7c1239"/></radialGradient><radialGradient id="radial-gradient-6" cx="170.51" cy="1730.02" r="21.5" gradientTransform="matrix(0.91, 0.4, 0.4, -0.91, -807.29, 1551.78)" xlink:href="#radial-gradient-2"/><radialGradient id="radial-gradient-7" cx="180.24" cy="1745.09" r="2.18" gradientTransform="matrix(0.91, 0.4, 0.4, -0.91, -807.29, 1551.78)" xlink:href="#radial-gradient"/><radialGradient id="radial-gradient-8" cx="174.99" cy="1745.71" r="0.73" gradientTransform="matrix(0.91, 0.4, 0.4, -0.91, -807.29, 1551.78)" xlink:href="#radial-gradient"/><radialGradient id="radial-gradient-9" cx="170.56" cy="1728.55" r="20.38" gradientTransform="matrix(0.91, 0.4, 0.4, -0.91, -807.29, 1551.78)" xlink:href="#radial-gradient-3"/><radialGradient id="radial-gradient-10" cx="172.89" cy="1747.44" r="6.07" gradientTransform="matrix(0.91, 0.4, 0.4, -0.91, -807.29, 1551.78)" xlink:href="#radial-gradient"/><radialGradient id="radial-gradient-11" cx="168.9" cy="1718.04" r="4.66" gradientTransform="matrix(0.91, 0.4, 0.4, -0.91, -807.29, 1551.78)" xlink:href="#radial-gradient-4"/><radialGradient id="radial-gradient-12" cx="168.99" cy="1719.68" r="3.14" gradientTransform="matrix(0.91, 0.4, 0.4, -0.91, -807.29, 1551.78)" xlink:href="#radial-gradient-5"/><radialGradient id="radial-gradient-13" cx="170.36" cy="1716.81" r="1.88" gradientTransform="matrix(0.91, 0.4, 0.4, -0.91, -807.29, 1551.78)" xlink:href="#radial-gradient-5"/><radialGradient id="radial-gradient-14" cx="163.39" cy="1694.55" r="2.01" gradientTransform="matrix(0.91, 0.4, 0.4, -0.91, -807.29, 1551.78)" xlink:href="#radial-gradient-3"/></defs><title>icon-36-1991</title><polygon class="cls-1" points="22.47 69.3 20.88 67.89 25.63 57.17 22.47 69.3"/><path class="cls-1" d="M45.07,24.39,37.84,35.66l-5.56,4.25L29.69,24.1S38.58,19.14,45.07,24.39Z"/><path class="cls-2" d="M28.79,24.22s4.61-3,9.22-2.79a10.76,10.76,0,0,1,7.06,3,55.81,55.81,0,0,1-9.39.25c-.28,0-.55-.06-.8-.11l-3.44-.6s5.85-2.84,11.46.36c0,0-5.47-2-8.4-.7,0,0,6.75,1.54,9.31.44,0,0-6.12-2.78-10.12-1.35l-4,1.42,6.12.93s7.37.21,10.31-.55l1.39.6-5.24,1.65-5.57-1.13-3.43,7.66L31.23,28Z"/><path class="cls-3" d="M47.52,25.08l-2.64,3.67v0c-4,5.63-11.34,16.2-13,20.51-.58,1.56-1.28,3.69-2,6-.62,2-1.26,4.24-1.83,6.28-1.31,4.61-2.33,8.51-2.33,8.51a4.33,4.33,0,0,1-3.29-.76l1.76-7.85L21.58,69c-3.36-.37-7.64-3.46-7.64-3.46.34-.63.68-1.26,1.05-1.9,1.32-2.31,2.8-4.67,4.24-7.08A60.36,60.36,0,0,0,24.69,45.6a82.45,82.45,0,0,0,4-19.13c.12-1.43.14-2.25.14-2.25a31.65,31.65,0,0,0,6.62.87l-2.1,7.55,3.34-7.54C43.28,26.52,47.52,25.08,47.52,25.08Z"/><polygon class="cls-1" points="36.64 25.09 36.35 24.96 35.49 24.78 35.41 25.09 33.3 32.64 36.64 25.09"/><path class="cls-4" d="M44.88,28.75c-4,5.64-11.34,16.21-13,20.52-.58,1.55-1.28,3.69-2,6L27,56.43,25.16,61.5l-.08,3.43,2.2-4.32.82.93c-1.31,4.61-2.33,8.5-2.33,8.5a4.3,4.3,0,0,1-3.29-.75l1.76-7.85L21.58,69c-3.36-.37-7.64-3.46-7.64-3.46.34-.63.68-1.26,1.05-1.9l.39,1.14,2.22,1.69,3.36.32,2.74-6.21.93-7.13-1.52-.68-3.89,3.79A59.78,59.78,0,0,0,24.69,45.6a82.45,82.45,0,0,0,4-19.13l1.78,1.83-1.67,6.29.67,3.94,2.12,1.07,2.23-.81-.27,2.41,1.12-.37L44.88,28.75Z"/><path class="cls-5" d="M25.53,43s-.77.31-.9.93a1.77,1.77,0,0,0,.22,1.2A11.77,11.77,0,0,0,24,46.27a1.18,1.18,0,0,0-.05,1s-.22,0-.57.43,4.76,6,7.59,6.16c0,0,.32-.88-.17-1.18A24.85,24.85,0,0,1,24.68,48s3.81,2.78,6.55,3.18c0,0,1.23-1.11.7-1.95,0,0,1.39-1.36,1.24-2.61C33.16,46.66,28.2,46.35,25.53,43Z"/><path class="cls-6" d="M31.92,49.27a24.92,24.92,0,0,1-7.07-4.15A11.39,11.39,0,0,0,31.92,49.27Z"/><path class="cls-1" d="M50.67,20.25s9.77,0,14.6,8.3c0,0-.46.6-.38.88.3.59,1.24.83,1.5,1.48l-14.22,9L46.75,39Z"/><path class="cls-7" d="M47.5,48.2c-1.09,1.37-2.46,5-3.8,9.18-2.7,8.46-5.3,19.38-5.3,19.38s-1.76-.48-4.21-1.41a47.52,47.52,0,0,1-6.57-3.07l2.17-4.91L27.21,72.1l-1.1-1s5.74-10.52,11.4-21.62l0,0L39,46.69c2.28-4.53,4.5-9.37,6.38-13.66,3.13-7.16,5.32-12.77,5.32-12.77a29.85,29.85,0,0,0,6.56,5.37L52.58,36.09l5.88-10,1.67,1-2.48,5.6,3.8-5a24.29,24.29,0,0,0,4.92,3.29s-1.93,1.62-4.56,3.9C57,39,49.64,45.52,47.5,48.2Z"/><path class="cls-8" d="M66.39,30.92l-.54-1.24a16.18,16.18,0,0,1-4.32-2.55l-.06.51A19.94,19.94,0,0,0,66.39,30.92Z"/><polygon class="cls-9" points="60.15 27.05 60.01 26.45 58.74 25.67 58.48 26.04 60.15 27.05"/><path class="cls-10" d="M43.7,57.38l-1.37.38-9.09,5.48-3,6.77.83,2.45,3,2.52.15.37a47.52,47.52,0,0,1-6.57-3.07l2.17-4.91,7.73-17.86v0L39,46.69c2.28-4.53,4.5-9.37,6.38-13.66l0,0-2.78,9.16.67.3.28,1.89,1,.59,1.65-3.74,4.6-5.33,6.45-10.25L52.59,36.08l5.88-10-4.91,9.57-2,3.19-3.07,4.69L56,39.62l5.82-4.8C57,39,49.64,45.51,47.5,48.19,46.41,49.56,45,53.17,43.7,57.38Z"/><path class="cls-11" d="M57.22,25.61l.39-.22S53,22.69,52,20.85c0,0,3-.43,7,1.86A12.93,12.93,0,0,1,64.43,28s-6.47-2.61-9.79-5.6a21,21,0,0,1,5.68,1.92,16.88,16.88,0,0,0-6.4-2.6l-.26.44a60.25,60.25,0,0,0,6.78,4.29,27,27,0,0,0,4.83,2.14s-1.33-3.72-6.85-6.61-7.75-1.69-7.75-1.69A21.41,21.41,0,0,0,57.22,25.61Z"/><path class="cls-12" d="M48.48,47.09s.07,1.48-.87,2c0,0-.16,1.84-1.53,2.35a1.94,1.94,0,0,1-.31,2.5s-2,1.56-8.86-3.2c0,0-.28-1.54.9-2L41,50.11,38.4,47.83a1.84,1.84,0,0,1,1-2s-.27-1.45.94-1.9A12.61,12.61,0,0,0,48.48,47.09Z"/><path class="cls-13" d="M39.38,45.83a13.39,13.39,0,0,0,8.22,3.23A28,28,0,0,1,39.38,45.83Z"/><path class="cls-14" d="M41,50.11a12.8,12.8,0,0,0,5.11,1.32S45.12,53,41,50.11Z"/><polygon class="cls-15" points="26.12 71.12 29.8 67.36 27.22 72.09 26.12 71.12"/></svg>