<svg id="Layer_1" data-name="Layer 1" xmlns="http://www.w3.org/2000/svg" xmlns:xlink="http://www.w3.org/1999/xlink" viewBox="0 0 80 100"><defs><style>.cls-1{fill:none;}.cls-2{clip-path:url(#clip-path);}.cls-3{fill:url(#radial-gradient);}.cls-4{fill:#721433;}.cls-11,.cls-16,.cls-21,.cls-31,.cls-38,.cls-39,.cls-4,.cls-40,.cls-43,.cls-48,.cls-5,.cls-6,.cls-7,.cls-8{fill-rule:evenodd;}.cls-5{fill:#8c2133;}.cls-6{fill:#a85d74;}.cls-7{fill:#3a3067;}.cls-8{fill:#822349;}.cls-9{clip-path:url(#clip-path-2);}.cls-10{fill:url(#radial-gradient-2);}.cls-11{fill:#c5444b;}.cls-12{clip-path:url(#clip-path-3);}.cls-13{fill:url(#radial-gradient-3);}.cls-14{clip-path:url(#clip-path-4);}.cls-15{fill:url(#radial-gradient-4);}.cls-16{fill:#be2b4b;}.cls-17{clip-path:url(#clip-path-5);}.cls-18{fill:url(#radial-gradient-5);}.cls-19{clip-path:url(#clip-path-6);}.cls-20{fill:url(#radial-gradient-6);}.cls-21{fill:#f1604e;}.cls-22{clip-path:url(#clip-path-7);}.cls-23{fill:url(#radial-gradient-7);}.cls-24{opacity:0.8;}.cls-25{clip-path:url(#clip-path-8);}.cls-26{clip-path:url(#clip-path-9);}.cls-27{fill:url(#linear-gradient);}.cls-28{clip-path:url(#clip-path-10);}.cls-29{fill:url(#linear-gradient-2);}.cls-30{clip-path:url(#clip-path-11);}.cls-31{fill:#fff;}.cls-32{clip-path:url(#clip-path-12);}.cls-33{clip-path:url(#clip-path-13);}.cls-34{fill:url(#linear-gradient-3);}.cls-35{clip-path:url(#clip-path-14);}.cls-36{clip-path:url(#clip-path-15);}.cls-37{fill:url(#linear-gradient-4);}.cls-38{fill:#ffc821;}.cls-39{fill:#b94627;}.cls-40{fill:#a73a31;}.cls-41{opacity:0.2;}.cls-42{clip-path:url(#clip-path-16);}.cls-43{fill:#8376a1;}.cls-44{clip-path:url(#clip-path-17);}.cls-45{clip-path:url(#clip-path-18);}.cls-46{opacity:0.4;}.cls-47{clip-path:url(#clip-path-19);}.cls-48{fill:#791e3c;}.cls-49{opacity:0.6;}.cls-50{clip-path:url(#clip-path-20);}.cls-51{clip-path:url(#clip-path-21);}.cls-52{fill:url(#linear-gradient-5);}.cls-53{clip-path:url(#clip-path-22);}.cls-54{fill:url(#linear-gradient-6);}.cls-55{clip-path:url(#clip-path-23);}.cls-56{fill:url(#radial-gradient-8);}.cls-57{clip-path:url(#clip-path-24);}.cls-58{fill:url(#linear-gradient-7);}.cls-59{clip-path:url(#clip-path-25);}.cls-60{fill:url(#radial-gradient-9);}.cls-61{clip-path:url(#clip-path-26);}.cls-62{clip-path:url(#clip-path-27);}.cls-63{fill:url(#linear-gradient-8);}.cls-64{clip-path:url(#clip-path-28);}.cls-65{clip-path:url(#clip-path-29);}.cls-66{fill:url(#linear-gradient-9);}</style><clipPath id="clip-path"><path class="cls-1" d="M20.1,27.08,16.92,62.14H64.76l-5.51-36s-8.43-.37-20.5-.37A151,151,0,0,0,20.1,27.08"/></clipPath><radialGradient id="radial-gradient" cx="-498.98" cy="-16" r="1.12" gradientTransform="translate(10666.72 379.44) scale(21.29)" gradientUnits="userSpaceOnUse"><stop offset="0" stop-color="#e3532f"/><stop offset="0.41" stop-color="#c8402f"/><stop offset="0.96" stop-color="#a82a2f"/><stop offset="1" stop-color="#a82a2f"/></radialGradient><clipPath id="clip-path-2"><path class="cls-1" d="M16.26,56.47a16.1,16.1,0,0,0,.66,5.73l.38-4.65h5.27l.61-1.08L23.25,54l-6.33-1a22.73,22.73,0,0,0-.66,3.48"/></clipPath><radialGradient id="radial-gradient-2" cx="-542.67" cy="16.76" r="1.12" gradientTransform="translate(1814.6 -2.83) scale(3.31)" gradientUnits="userSpaceOnUse"><stop offset="0" stop-color="#ffc92b"/><stop offset="0.6" stop-color="#f99729"/><stop offset="1" stop-color="#f47427"/></radialGradient><clipPath id="clip-path-3"><path class="cls-1" d="M18.37,33.61A17.76,17.76,0,0,0,19,39.09l.36-4.29h4.84l.56-.94.07-2.25-6-.2a6,6,0,0,0-.47,2.24"/></clipPath><radialGradient id="radial-gradient-3" cx="-552.02" cy="23.21" r="1.12" gradientTransform="translate(1560.22 -32.59) scale(2.78)" xlink:href="#radial-gradient-2"/><clipPath id="clip-path-4"><path class="cls-1" d="M61.66,52.64s.7,4-1.12,6.19-9.6,2.25-9.6,2.25l-.2,3.59L66,63.17,63.9,52.68Z"/></clipPath><radialGradient id="radial-gradient-4" cx="-520.79" cy="1.14" r="1.12" gradientTransform="translate(2961.2 50.7) scale(5.56)" gradientUnits="userSpaceOnUse"><stop offset="0" stop-color="#ffc92b"/><stop offset="0.59" stop-color="#f99729"/><stop offset="0.97" stop-color="#f47427"/><stop offset="1" stop-color="#f47427"/></radialGradient><clipPath id="clip-path-5"><path class="cls-1" d="M48.25,27.08s6.23-.45,8.43.88,2.84,6.35,2.84,6.35h2l-1.61-9-12-.31Z"/></clipPath><radialGradient id="radial-gradient-5" cx="-538.04" cy="13.43" r="1.12" gradientTransform="translate(1958.92 -21.95) scale(3.53)" xlink:href="#radial-gradient-2"/><clipPath id="clip-path-6"><path class="cls-1" d="M29.61,41.25c0-4.57,5.19-8.28,11.6-8.28s11.6,3.71,11.6,8.28-5.2,8.27-11.6,8.27-11.6-3.71-11.6-8.27m-.82.18c0,4.9,5.62,8.87,12.36,8.87s12.36-4,12.36-8.87S48,32.58,41.15,32.58s-12.36,4-12.36,8.85"/></clipPath><radialGradient id="radial-gradient-6" cx="-508.63" cy="-8.67" r="1.12" gradientTransform="translate(4921.84 130.68) scale(9.6)" xlink:href="#radial-gradient-2"/><clipPath id="clip-path-7"><path class="cls-1" d="M32.13,40.33c0,3.57,4,6.47,9.08,6.47s9.08-2.9,9.08-6.47-4.07-6.48-9.08-6.48-9.08,2.89-9.08,6.48"/></clipPath><radialGradient id="radial-gradient-7" cx="-515.01" cy="-3.83" r="1.12" gradientTransform="translate(3657.35 72.18) scale(7.02)" gradientUnits="userSpaceOnUse"><stop offset="0" stop-color="#97d1aa"/><stop offset="0.57" stop-color="#5ca3d1"/><stop offset="0.61" stop-color="#5f9cca"/><stop offset="0.87" stop-color="#736f9b"/><stop offset="1" stop-color="#7b5e89"/></radialGradient><clipPath id="clip-path-8"><rect class="cls-1" x="33.49" y="34" width="15.45" height="14.69"/></clipPath><clipPath id="clip-path-9"><path class="cls-1" d="M48.93,41.35A7.74,7.74,0,1,1,41.21,34a7.54,7.54,0,0,1,7.72,7.36"/></clipPath><linearGradient id="linear-gradient" x1="-503.4" y1="-12.7" x2="-502.27" y2="-12.7" gradientTransform="translate(6953.19 215.92) scale(13.75)" gradientUnits="userSpaceOnUse"><stop offset="0" stop-color="#c57cb4"/><stop offset="0.54" stop-color="#ab5d91"/><stop offset="1" stop-color="#984678"/></linearGradient><clipPath id="clip-path-10"><path class="cls-1" d="M33.77,39.35c0,3,3.46,5.52,7.72,5.52s7.73-2.47,7.73-5.52-3.46-5.5-7.73-5.5-7.72,2.46-7.72,5.5"/></clipPath><linearGradient id="linear-gradient-2" x1="-503.39" y1="-12.71" x2="-502.27" y2="-12.71" gradientTransform="translate(6953.43 214.14) scale(13.75)" gradientUnits="userSpaceOnUse"><stop offset="0" stop-color="#98ca47"/><stop offset="0.31" stop-color="#7bc348"/><stop offset="0.76" stop-color="#58ba49"/><stop offset="1" stop-color="#4ab749"/></linearGradient><clipPath id="clip-path-11"><rect class="cls-1" x="34.92" y="39.57" width="6.89" height="5.01"/></clipPath><clipPath id="clip-path-12"><rect class="cls-1" x="18.29" y="33.81" width="6.45" height="5.27"/></clipPath><clipPath id="clip-path-13"><path class="cls-1" d="M24.74,33.81l-.55.95-4.92,2.07L19,39.08a15.46,15.46,0,0,1-.62-5.28Z"/></clipPath><linearGradient id="linear-gradient-3" x1="-520.8" y1="0.05" x2="-519.68" y2="0.05" gradientTransform="translate(3007.32 36.15) scale(5.74)" xlink:href="#linear-gradient"/><clipPath id="clip-path-14"><rect class="cls-1" x="16.2" y="56.41" width="6.98" height="5.73"/></clipPath><clipPath id="clip-path-15"><path class="cls-1" d="M23.18,56.47l-.61,1L17.2,60l-.28,2.18a13.79,13.79,0,0,1-.66-5.67Z"/></clipPath><linearGradient id="linear-gradient-4" x1="-518.61" y1="-1.18" x2="-517.49" y2="-1.18" gradientTransform="translate(3235.66 66.63) scale(6.21)" xlink:href="#linear-gradient"/><clipPath id="clip-path-16"><rect class="cls-1" x="26.24" y="54.51" width="6.53" height="4.32"/></clipPath><clipPath id="clip-path-17"><rect class="cls-1" x="34.88" y="56.4" width="2.8" height="2.29"/></clipPath><clipPath id="clip-path-18"><rect class="cls-1" x="31.04" y="30.6" width="2.33" height="1.08"/></clipPath><clipPath id="clip-path-19"><rect class="cls-1" x="33.77" y="29.03" width="8.56" height="2.85"/></clipPath><clipPath id="clip-path-20"><rect class="cls-1" x="48.2" y="26.87" width="11.28" height="8.43"/></clipPath><clipPath id="clip-path-21"><path class="cls-1" d="M59.49,34l-.28,1.3s-1.29-4.23-3.37-5.61-7.69-1.95-7.69-1.95V27.1s6.34-.93,8.8,1.13C59.05,29.9,59.49,34,59.49,34"/></clipPath><linearGradient id="linear-gradient-5" x1="-507.72" y1="-9.51" x2="-506.6" y2="-9.51" gradientTransform="translate(5147.56 126.2) scale(10.04)" xlink:href="#linear-gradient"/><clipPath id="clip-path-22"><path class="cls-1" d="M28.79,66.38a23.07,23.07,0,0,0-2.55,8.8l3.26,2.25L34,75.18a31.86,31.86,0,0,1,1-8.8Z"/></clipPath><linearGradient id="linear-gradient-6" x1="-504.43" y1="-39.13" x2="-503.31" y2="-39.13" gradientTransform="translate(414.88 -4875.11) rotate(-90) scale(9.82)" gradientUnits="userSpaceOnUse"><stop offset="0" stop-color="#c2202f"/><stop offset="0.96" stop-color="#8e1831"/><stop offset="1" stop-color="#8e1831"/></linearGradient><clipPath id="clip-path-23"><path class="cls-1" d="M26.67,74.76h0l2.79,1.58h0l3.37-1.64h0S33,69,34.34,66.45h-.08c-1.3,2.49-1.5,7.87-1.52,8.27l-3.28,1.53-2.7-1.52a22.25,22.25,0,0,1,2.78-8.33l-.08-.05a22.41,22.41,0,0,0-2.79,8.41"/></clipPath><radialGradient id="radial-gradient-8" cx="-533.76" cy="10.89" r="1.12" gradientTransform="translate(2145.03 28.41) scale(3.96)" xlink:href="#radial-gradient-4"/><clipPath id="clip-path-24"><path class="cls-1" d="M52.54,65.11a32.24,32.24,0,0,1,1,8.8L58,76.16l3.26-2.25a23,23,0,0,0-2.57-8.8Z"/></clipPath><linearGradient id="linear-gradient-7" x1="-504.42" y1="-5" x2="-503.3" y2="-5" gradientTransform="matrix(0, -9.82, -9.82, 0, 7.76, -4876.23)" xlink:href="#linear-gradient-6"/><clipPath id="clip-path-25"><path class="cls-1" d="M57.92,65.13a22.3,22.3,0,0,1,2.78,8.34L58,75l-3.22-1.65c0-.44-.22-5.78-1.52-8.27h-.08c1.34,2.57,1.51,8.2,1.51,8.26h0L57.94,75h0l2.8-1.56h0A22,22,0,0,0,58,65Z"/></clipPath><radialGradient id="radial-gradient-9" cx="-449.15" cy="10.85" r="1.12" gradientTransform="matrix(-3.96, 0, 0, 3.96, -1722.44, 27.3)" xlink:href="#radial-gradient-4"/><clipPath id="clip-path-26"><rect class="cls-1" x="27.18" y="66.38" width="8.27" height="5.73"/></clipPath><clipPath id="clip-path-27"><path class="cls-1" d="M27.21,70.38l6.86,1.52v.21h1V70.52L35.5,70,35,66.38H28.79a16.59,16.59,0,0,0-1.58,4"/></clipPath><linearGradient id="linear-gradient-8" x1="-514.13" y1="-4.31" x2="-513" y2="-4.31" gradientTransform="translate(3811.12 100.95) scale(7.36)" xlink:href="#linear-gradient"/><clipPath id="clip-path-28"><rect class="cls-1" x="51.61" y="65.11" width="7.79" height="7.34"/></clipPath><clipPath id="clip-path-29"><path class="cls-1" d="M59.4,66.58,53,66.85a31.27,31.27,0,0,1,.53,5.62H51.86L52,70.36l-.4-.47.93-4.76h6.14s.53,1,.73,1.5"/></clipPath><linearGradient id="linear-gradient-9" x1="-515.14" y1="-3.26" x2="-514.02" y2="-3.26" gradientTransform="translate(3622.77 91.38) scale(6.93)" xlink:href="#linear-gradient"/></defs><title>icon-38-1991</title><g id="Layer_1-2" data-name="Layer 1-2"><g class="cls-2"><rect class="cls-3" x="16.92" y="25.75" width="47.84" height="36.39"/></g><path class="cls-4" d="M16.92,62.14s-.28,6.69,5.12,10h40l.69-1.84-1.89-8.13Z"/><polygon class="cls-4" points="64.76 62.15 64.31 64.1 17.07 64.1 16.92 62.15 64.76 62.15"/><polygon class="cls-5" points="62.72 70.27 22.55 70.63 23.11 70.07 61.82 66.38 62.72 70.27"/><path class="cls-6" d="M62.72,64.1a13,13,0,0,0-1.44,5.7l-38.21.27s-3.37-2.34-3.37-6Z"/><path class="cls-7" d="M19.68,64.1h1a9.87,9.87,0,0,0,2.71,6h-.43s-3.51-2.36-3.24-6"/><polygon class="cls-8" points="21.5 62.15 24.12 26.6 24.46 26.55 22.23 62.15 21.5 62.15"/><g class="cls-9"><rect class="cls-10" x="16.19" y="52.99" width="7.06" height="9.16"/></g><path class="cls-11" d="M23.18,56.47H16.26a18.47,18.47,0,0,0,.66,5.73l.57-4.49,5.08-.16Z"/><g class="cls-12"><rect class="cls-13" x="18.34" y="31.41" width="6.47" height="7.69"/></g><path class="cls-11" d="M24.74,33.81H18.37A17.1,17.1,0,0,0,19,39.09l.51-4.18,4.69-.15Z"/><g class="cls-14"><rect class="cls-15" x="50.69" y="52.64" width="15.26" height="11.99"/></g><path class="cls-16" d="M66,63.12l-1.21,1.51H50.7l.21-3.6v2.09a80.6,80.6,0,0,0,15.06,0"/><path class="cls-11" d="M61.66,52.64l-.27,1.75s.13,3.29-1.12,4.65c0,0,2.34-1.55,1.37-6.4"/><g class="cls-17"><rect class="cls-18" x="47.83" y="25" width="13.66" height="9.31"/></g><path class="cls-16" d="M61.48,34.31l-.67,2-.16-1H59.22s-.81-5.33-2.94-6.75-8.08-.89-8.08-.89l-.37-1.85h-.51l.51-.82.42,2.08s6-.8,8.6,1c2.31,1.58,2.68,6.24,2.68,6.24Z"/><path class="cls-16" d="M50.39,70.38v2.07H62.32l1-2.38-1.48-3.95a15.82,15.82,0,0,0-.61,3.68l-10.89.08Z"/><g class="cls-19"><rect class="cls-20" x="28.79" y="32.58" width="24.83" height="17.72"/></g><path class="cls-21" d="M50.39,70.38l13-.31-1.48-3.95a18.37,18.37,0,0,0-.61,3.68l-10.89.08Z"/><g class="cls-22"><rect class="cls-23" x="32.13" y="33.85" width="18.16" height="12.97"/></g><g class="cls-24"><g class="cls-25"><g class="cls-26"><rect class="cls-27" x="33.47" y="34" width="15.45" height="14.69"/></g></g></g><g class="cls-28"><rect class="cls-29" x="33.77" y="33.85" width="15.45" height="11.03"/></g><g class="cls-30"><path class="cls-31" d="M34.92,40.33s1-1.44,3.88-.36,3,4.61,3,4.61-6.49-.88-6.88-4.25"/></g><path class="cls-31" d="M46.74,36.24c-.14.24-.77.12-1.41-.25s-1-.85-.91-1.12.77-.14,1.41.23,1.05.87.91,1.13"/><g class="cls-24"><g class="cls-32"><g class="cls-33"><rect class="cls-34" x="18.03" y="33.81" width="6.71" height="5.27"/></g></g></g><g class="cls-24"><g class="cls-35"><g class="cls-36"><rect class="cls-37" x="15.98" y="56.41" width="7.2" height="5.73"/></g></g></g><path class="cls-38" d="M57.56,28.77l2.69-1.13.68,3.77L59,31.88a7.66,7.66,0,0,0-1.48-3.11"/><path class="cls-38" d="M60.29,59l5.26,2-.79-3.88-3.1-.42A4.5,4.5,0,0,1,60.29,59"/><polygon class="cls-39" points="23.74 62.15 25.84 61.84 33.47 61.49 39.4 62.15 36.07 62.83 23.74 62.15"/><polygon class="cls-39" points="41.21 62.15 42.2 61.49 46.85 62.17 43.49 62.3 41.21 62.15"/><polygon class="cls-40" points="36.44 70.51 37.96 70.38 42.63 70.38 43.27 70.51 41.45 70.84 36.58 70.61 36.44 70.51"/><g class="cls-41"><g class="cls-42"><path class="cls-43" d="M26.32,56.56a10.14,10.14,0,0,1,5.25-2c1.4.18,1.23,3.1,1.13,3.69s-4.59.89-5.5.27a1.75,1.75,0,0,1-.88-1.92"/></g></g><g class="cls-41"><g class="cls-44"><path class="cls-43" d="M35,56.75c-.52.35.89,1.82,1.41,1.93s1.28-1.51,1.28-1.93-1.89-.52-2.69,0"/></g></g><g class="cls-41"><g class="cls-45"><path class="cls-43" d="M31.17,30.77c-.43.15.29.91.72.91a1.73,1.73,0,0,0,1.47-.91c0-.21-1.54-.25-2.25,0"/></g></g><g class="cls-46"><g class="cls-47"><path class="cls-43" d="M33.77,31.14c.4-1.26,5.1-2.34,6.11-2.06s2.45,1.25,2.45,1.54-2,1.24-4.28,1.22a13.84,13.84,0,0,1-4.28-.74"/></g></g><polygon class="cls-48" points="60.76 36.05 60.65 41.25 61.48 42.07 61.48 43.47 62.92 52.64 63.31 52.64 60.76 36.05"/><g class="cls-49"><g class="cls-50"><g class="cls-51"><rect class="cls-52" x="48.2" y="26.15" width="11.28" height="9.16"/></g></g></g><g class="cls-53"><rect class="cls-54" x="26.24" y="66.38" width="8.69" height="11.04"/></g><g class="cls-55"><rect class="cls-56" x="26.66" y="66.35" width="7.65" height="10"/></g><g class="cls-57"><rect class="cls-58" x="52.54" y="65.11" width="8.69" height="11.04"/></g><g class="cls-59"><rect class="cls-60" x="53.14" y="65.09" width="7.65" height="10"/></g><g class="cls-24"><g class="cls-61"><g class="cls-62"><rect class="cls-63" x="27.18" y="66.38" width="8.27" height="5.73"/></g></g></g><g class="cls-24"><g class="cls-64"><g class="cls-65"><rect class="cls-66" x="51.61" y="65.11" width="7.79" height="7.34"/></g></g></g></g></svg>